<svg version="1.1" id="Layer_1" xmlns="http://www.w3.org/2000/svg" xmlns:xlink="http://www.w3.org/1999/xlink" x="0px" y="0px" viewBox="-297.9 475.6 613.6 613.6" enable-background="new -297.9 475.6 613.6 613.6" xml:space="preserve"><path fill="#be202f" d="M313.3,724c3.2,37.9,3.2,75.7,0,113.6c0,9.5-3.2,15.8-9.5,22.1c-6.3,6.3-12.6,9.5-22.1,9.5H95.6v186.1 c0,9.5-3.2,15.8-9.5,22.1s-12.6,9.5-22.1,9.5c-37.9,3.2-75.7,3.2-113.6,0c-9.5,0-15.8-3.2-22.1-9.5c-6.3-6.3-9.5-12.6-9.5-22.1 V869.1h-183c-9.5,0-15.8-3.2-22.1-9.5c-6.3-6.3-9.5-12.6-9.5-22.1c-3.2-37.9-3.2-75.7,0-113.6c0-9.5,3.2-15.8,9.5-22.1 c6.3-6.3,12.6-9.5,22.1-9.5h183v-183c0-9.5,3.2-15.8,9.5-22.1c6.3-6.3,12.6-9.5,22.1-9.5c37.9-3.2,75.7-3.2,113.6,0 c9.5,0,15.8,3.2,22.1,9.5c6.3,6.3,9.5,12.6,9.5,22.1v183h186.1c9.5,0,15.8,3.2,22.1,9.5C310.1,708.2,313.3,714.6,313.3,724z"/></svg>