<svg xmlns="http://www.w3.org/2000/svg" viewBox="0 0 22.32 22.32"><defs><style>.cls-1{fill:#fa895b}</style></defs><g id="Layer_2" data-name="Layer 2"><g id="Layer_1-2" data-name="Layer 1"><path class="cls-1" d="M11.16 0c-3 0-3.41 0-4.6.07a8.19 8.19 0 0 0-2.71.52 5.47 5.47 0 0 0-2 1.29 5.47 5.47 0 0 0-1.29 2 8.19 8.19 0 0 0-.49 2.68C0 7.75 0 8.13 0 11.16s0 3.41.07 4.6a8.19 8.19 0 0 0 .52 2.71 5.47 5.47 0 0 0 1.29 2 5.47 5.47 0 0 0 2 1.29 8.19 8.19 0 0 0 2.71.52c1.19.05 1.57.07 4.6.07s3.41 0 4.6-.07a8.19 8.19 0 0 0 2.71-.52 5.71 5.71 0 0 0 3.26-3.26 8.19 8.19 0 0 0 .52-2.71c.05-1.19.07-1.57.07-4.6s0-3.41-.07-4.6a8.19 8.19 0 0 0-.52-2.71 5.47 5.47 0 0 0-1.29-2 5.47 5.47 0 0 0-2-1.29 8.19 8.19 0 0 0-2.71-.52C14.57 0 14.19 0 11.16 0zm0 2c3 0 3.33 0 4.51.07a6.17 6.17 0 0 1 2.07.38 3.46 3.46 0 0 1 1.26.84 3.46 3.46 0 0 1 .83 1.28 6.17 6.17 0 0 1 .38 2.07c.05 1.18.07 1.53.07 4.51s0 3.33-.07 4.51a6.17 6.17 0 0 1-.38 2.07 3.7 3.7 0 0 1-2.12 2.12 6.17 6.17 0 0 1-2.07.38c-1.18.05-1.53.07-4.51.07s-3.33 0-4.51-.07a6.17 6.17 0 0 1-2.07-.38A3.46 3.46 0 0 1 3.29 19a3.46 3.46 0 0 1-.83-1.28 6.17 6.17 0 0 1-.38-2.07C2 14.49 2 14.14 2 11.16s0-3.33.07-4.51a6.17 6.17 0 0 1 .38-2.07 3.46 3.46 0 0 1 .83-1.28 3.46 3.46 0 0 1 1.28-.83 6.17 6.17 0 0 1 2.07-.38C7.83 2 8.18 2 11.16 2"/><path class="cls-1" d="M11.16 14.88a3.72 3.72 0 1 1 3.72-3.72 3.72 3.72 0 0 1-3.72 3.72zm0-9.45a5.73 5.73 0 1 0 5.73 5.73 5.73 5.73 0 0 0-5.73-5.73zm7.29-.23a1.34 1.34 0 1 1-1.34-1.34 1.34 1.34 0 0 1 1.34 1.34z"/></g></g></svg>