<svg xmlns="http://www.w3.org/2000/svg" viewBox="0 0 26 21.13"><defs><style>.cls-1{fill:#afb1b4}</style></defs><title>Asset 3</title><g id="Layer_2" data-name="Layer 2"><path class="cls-1" d="M8.18 21.13A15.07 15.07 0 0 0 23.35 6v-.69A10.85 10.85 0 0 0 26 2.5a10.65 10.65 0 0 1-3.06.84 5.35 5.35 0 0 0 2.35-3 10.69 10.69 0 0 1-3.39 1.29 5.34 5.34 0 0 0-9.1 4.92A15.14 15.14 0 0 1 1.81 1a5.34 5.34 0 0 0 1.65 7.1A5.29 5.29 0 0 1 1 7.43v.07a5.34 5.34 0 0 0 4.28 5.23 5.33 5.33 0 0 1-2.41.09 5.34 5.34 0 0 0 5 3.7 10.7 10.7 0 0 1-6.63 2.28A10.86 10.86 0 0 1 0 18.73a15.1 15.1 0 0 0 8.18 2.4" id="Layer_1-2" data-name="Layer 1"/></g></svg>