<svg xmlns="http://www.w3.org/2000/svg" width="117.25" height="22.1" viewBox="0 0 117.25 22.1"><defs><style>.cls-1{fill:#fff;fill-rule:evenodd}</style></defs><path id="easyGym" class="cls-1" d="M852.207 10481.2a2.6 2.6 0 0 0 .343-1.4 4.216 4.216 0 0 0-.6-2.1 6.137 6.137 0 0 0-5.472-3 6.588 6.588 0 0 0-2.8.6 6.813 6.813 0 0 0-2.844 2.2 6.29 6.29 0 0 0-.546 6.8 5.6 5.6 0 0 0 1.447 1.9 6.753 6.753 0 0 0 4.469 1.5 7.6 7.6 0 0 0 4.659-1.5 2.28 2.28 0 0 0 1.143-1.8 1.546 1.546 0 0 0-.317-.8.779.779 0 0 0-.648-.4 1.35 1.35 0 0 0-.685.3 8.074 8.074 0 0 1-1.226.6 7.23 7.23 0 0 1-1.352.2 2.883 2.883 0 0 1-1.923-.7 2.061 2.061 0 0 1-.895-1.6q0-.3.394-.3h5.966a1.118 1.118 0 0 0 .887-.5zm-7.166-2a.754.754 0 0 1-.185-.6 1.647 1.647 0 0 1 .381-1 1.279 1.279 0 0 1 1.117-.6 1.529 1.529 0 0 1 1.422 1.6.66.66 0 0 1-.812.7h-1.282a1.09 1.09 0 0 1-.641-.1zm10.717-3.3a4.419 4.419 0 0 0-1.327 1.1 1.9 1.9 0 0 0-.489 1.2 1.421 1.421 0 0 0 .394 1 1.683 1.683 0 0 0 1.015.4 3.142 3.142 0 0 0 2.362-1.7 6 6 0 0 1 .742-.8 1.522 1.522 0 0 1 .68-.2.946.946 0 0 1 .914.6 4.681 4.681 0 0 1 .279 1.9.853.853 0 0 1-.191.7 1.631 1.631 0 0 1-.926.2c-2.209 0-3.868.5-4.977 1.6a2.922 2.922 0 0 0-1.066 2.3 3.3 3.3 0 0 0 .393 1.6 3.212 3.212 0 0 0 1.067 1.2 4.45 4.45 0 0 0 2.691.7 4.86 4.86 0 0 0 2.882-.9 1.292 1.292 0 0 1 .673-.3.721.721 0 0 1 .5.3 2.635 2.635 0 0 0 2.107.9 4 4 0 0 0 3.257-1.6 2.41 2.41 0 0 0 .488-1.3.42.42 0 0 0-.406-.5 1.58 1.58 0 0 1-.533-.2.881.881 0 0 1-.267-.3 7.661 7.661 0 0 1-.279-2.6l.026-1.9a5.447 5.447 0 0 0-.324-2.1 3.485 3.485 0 0 0-1.136-1.4 6.506 6.506 0 0 0-3.746-1.1 10.228 10.228 0 0 0-4.8 1.2zm4.5 6.4a2.364 2.364 0 0 1 .146 1c0 1.1-.339 1.7-1.016 1.7a.841.841 0 0 1-.774-.4 1.519 1.519 0 0 1-.292-1 1.628 1.628 0 0 1 .413-1.1 1.227 1.227 0 0 1 .971-.4.759.759 0 0 1 .552.2zm9.165-6a4 4 0 0 0-.019 5.1 8.321 8.321 0 0 0 2.952 2 1.371 1.371 0 0 1 .977 1.1.928.928 0 0 1-.254.6 1.3 1.3 0 0 1-.672.2 1.864 1.864 0 0 1-.737-.2 6.889 6.889 0 0 1-.863-.8 6.9 6.9 0 0 0-1.251-1.2.908.908 0 0 0-.653-.3q-.915 0-.914 1.2a4.351 4.351 0 0 0 .444 1.7 4.071 4.071 0 0 0 .965 1.5 1.375 1.375 0 0 0 .939.3h.533a.6.6 0 0 1 .381-.1c.1 0 .563.1 1.384.2a14.777 14.777 0 0 0 1.8.1 5.078 5.078 0 0 0 3.262-1 3.654 3.654 0 0 0 1.549-3 3.054 3.054 0 0 0-.965-2.3 9.614 9.614 0 0 0-3.288-2.1 1.707 1.707 0 0 1-1.193-1.2.922.922 0 0 1 .26-.6.793.793 0 0 1 .616-.3 2.415 2.415 0 0 1 1.346.8c.516.5.89.8 1.123 1a2 2 0 0 0 .794.2 1.33 1.33 0 0 0 .888-.3 1.452 1.452 0 0 0 .356-.9 3.418 3.418 0 0 0-.305-1.2 5.04 5.04 0 0 0-.787-1.3 1.7 1.7 0 0 0-1.181-.8c-.135 0-.3.1-.5.1a2.544 2.544 0 0 1-.838.3c-.127 0-.287-.1-.482-.1a11.555 11.555 0 0 0-2.069-.3 4.63 4.63 0 0 0-3.606 1.6zm24.247 1.9a2.049 2.049 0 0 1 .965-.8 3 3 0 0 0 1-.5 1.2 1.2 0 0 0 .273-.8c0-.8-.9-1.3-2.691-1.3a6.925 6.925 0 0 0-2.311.4 1.227 1.227 0 0 0-.863 1 1.68 1.68 0 0 0 .482 1 1.623 1.623 0 0 1 .318 1 3.055 3.055 0 0 1-.419 1.5 1.257 1.257 0 0 1-.813.8 1.386 1.386 0 0 1-.85-.9c-.288-.6-.476-.9-.565-1.1a2.438 2.438 0 0 1-.133-.7 1.385 1.385 0 0 1 .279-.7 1.35 1.35 0 0 0 .292-.8 1.291 1.291 0 0 0-1.041-1.2 6.036 6.036 0 0 0-2.12-.3 17.494 17.494 0 0 0-3.415.3c-1.5.2-2.247.8-2.247 1.5a1.136 1.136 0 0 0 .184.6 1.122 1.122 0 0 0 .438.4 2.54 2.54 0 0 1 1.066.6 6.729 6.729 0 0 1 .724 1.3l3.059 6.5a5.446 5.446 0 0 1 .66 2 1.218 1.218 0 0 1-.266.8.714.714 0 0 1-.66.4.643.643 0 0 1-.635-.6 4.7 4.7 0 0 0-.267-.9 1.3 1.3 0 0 0-.355-.5 1.918 1.918 0 0 0-1.473-.6 2.149 2.149 0 0 0-1.542.6 2.455 2.455 0 0 0-.629 1.7 2.321 2.321 0 0 0 .9 1.9 4.356 4.356 0 0 0 3.047 1 5.371 5.371 0 0 0 3.973-1.6 8.272 8.272 0 0 0 1.428-1.8 18.676 18.676 0 0 0 1.251-2.8l1.676-4.6a13.082 13.082 0 0 1 1.282-2.8zm7.808-7.4a8.663 8.663 0 0 0-3.694 3.4 8.329 8.329 0 0 0-1.244 4.4 8.783 8.783 0 0 0 1.041 4.2 8.619 8.619 0 0 0 3.631 3.6 9.933 9.933 0 0 0 5.1 1.3 11.549 11.549 0 0 0 3.244-.5 6.784 6.784 0 0 0 4.767-4.8 1.67 1.67 0 0 1 .273-.7 1.742 1.742 0 0 1 .577-.2.924.924 0 0 0 .826-.4 1.1 1.1 0 0 0 .317-.8 1.623 1.623 0 0 0-1.384-1.5 12.247 12.247 0 0 0-3.6-.5 12.535 12.535 0 0 0-3.542.5 1.629 1.629 0 0 0-1.4 1.5 1.1 1.1 0 0 0 .362.9 1.375 1.375 0 0 0 .908.3 1.172 1.172 0 0 1 .73.1.3.3 0 0 1 .26.1.8.8 0 0 1 .355.8 1.673 1.673 0 0 1-.425 1.2 1.389 1.389 0 0 1-1.085.4 3.4 3.4 0 0 1-1.613-.5 4.552 4.552 0 0 1-1.4-1.2 8.449 8.449 0 0 1-1.549-5.2 5 5 0 0 1 .971-3.2 3.2 3.2 0 0 1 2.622-1.2 4.188 4.188 0 0 1 3.212 1.7 8.878 8.878 0 0 0 1.054 1.2 2.75 2.75 0 0 0 1.447.5 1.675 1.675 0 0 0 1.453-.7 2.473 2.473 0 0 0 .553-1.7 4.8 4.8 0 0 0-1.041-3 1.9 1.9 0 0 0-1.359-.8 1.048 1.048 0 0 0-.546.1 4.128 4.128 0 0 1-1.066.3 7.212 7.212 0 0 1-.9-.2 10.69 10.69 0 0 0-3.136-.5 9.192 9.192 0 0 0-4.723 1.1zm28.23 7.4a2.049 2.049 0 0 1 .965-.8 3.01 3.01 0 0 0 1-.5 1.2 1.2 0 0 0 .273-.8c0-.8-.9-1.3-2.692-1.3a6.913 6.913 0 0 0-2.31.4 1.227 1.227 0 0 0-.864 1 1.676 1.676 0 0 0 .483 1 1.628 1.628 0 0 1 .317 1 3.055 3.055 0 0 1-.419 1.5 1.258 1.258 0 0 1-.812.8 1.386 1.386 0 0 1-.851-.9c-.288-.6-.476-.9-.565-1.1a2.438 2.438 0 0 1-.133-.7 1.385 1.385 0 0 1 .279-.7 1.35 1.35 0 0 0 .292-.8 1.291 1.291 0 0 0-1.041-1.2 6.036 6.036 0 0 0-2.12-.3 17.5 17.5 0 0 0-3.415.3c-1.5.2-2.247.8-2.247 1.5a1.159 1.159 0 0 0 .622 1 2.54 2.54 0 0 1 1.066.6 6.729 6.729 0 0 1 .724 1.3l3.06 6.5a5.446 5.446 0 0 1 .66 2 1.219 1.219 0 0 1-.267.8.714.714 0 0 1-.66.4.643.643 0 0 1-.635-.6 4.653 4.653 0 0 0-.266-.9 1.316 1.316 0 0 0-.356-.5 1.917 1.917 0 0 0-1.473-.6 2.149 2.149 0 0 0-1.542.6 2.454 2.454 0 0 0-.628 1.7 2.321 2.321 0 0 0 .9 1.9 4.358 4.358 0 0 0 3.047 1 5.37 5.37 0 0 0 3.973-1.6 8.245 8.245 0 0 0 1.429-1.8 18.683 18.683 0 0 0 1.25-2.8l1.676-4.6a13.132 13.132 0 0 1 1.282-2.8zm4.109-2.2a1.608 1.608 0 0 0-1.333 1.3.957.957 0 0 0 .108.5 3.318 3.318 0 0 0 .489.4 1.493 1.493 0 0 1 .514.8 7.339 7.339 0 0 1 .121 1.7c0 1.1-.047 2.2-.14 3.2a1.976 1.976 0 0 1-.66 1.4q-.432.45-.552.6a.764.764 0 0 0-.121.4 1.053 1.053 0 0 0 .914 1 9.98 9.98 0 0 0 2.869.3 11.921 11.921 0 0 0 2.768-.3 1.257 1.257 0 0 0 1.155-1.2 1.58 1.58 0 0 0-.3-.8 4.927 4.927 0 0 1-.311-.9 18.769 18.769 0 0 1-.058-1.9 19.011 19.011 0 0 1 .153-2.8 1.058 1.058 0 0 1 1.13-1.1c.846 0 1.269.8 1.269 2.5 0 .9-.03 1.9-.089 2.8a4.777 4.777 0 0 1-.12.9 2.587 2.587 0 0 1-.362.5 3.364 3.364 0 0 1-.565.5 1.2 1.2 0 0 0-.083.5 1 1 0 0 0 .661 1 11.057 11.057 0 0 0 3.2.3q3.948 0 3.948-1.5a1.091 1.091 0 0 0-.127-.5 3.526 3.526 0 0 1-.641-1.2 21.624 21.624 0 0 1-.133-2.6 15.932 15.932 0 0 1 .127-2.5 1.494 1.494 0 0 1 .425-.6 1.061 1.061 0 0 1 .743-.3 1.127 1.127 0 0 1 1.117.8 8.566 8.566 0 0 1 .241 2.4c0 2-.131 3.1-.394 3.5-.279.4-.442.6-.488.7a.854.854 0 0 0-.07.4 1.194 1.194 0 0 0 1.035 1 7 7 0 0 0 2.723.4c2.547 0 3.821-.5 3.821-1.6a.7.7 0 0 0-.07-.3c-.046-.1-.171-.2-.374-.5a2.162 2.162 0 0 1-.508-1.4c0-.1 0-.2.013-.4q.012-.45.012-1.5c0-1.1.009-1.8.026-2 .016-.6.025-1.1.025-1.4a3.654 3.654 0 0 0-1.092-2.8 3.949 3.949 0 0 0-2.678-.9 5.531 5.531 0 0 0-3.746 1.6 1.2 1.2 0 0 1-.66.5.7.7 0 0 1-.52-.5 2.97 2.97 0 0 0-2.946-1.6 5.383 5.383 0 0 0-2.132.5 4.975 4.975 0 0 0-1.727 1.2 1.313 1.313 0 0 1-.673.6c-.271 0-.406-.2-.406-.7 0-.1 0-.2.013-.3v-.2c0-.7-.242-1.1-.724-1.1a15.439 15.439 0 0 0-4.812 1.2z" transform="translate(-839.531 -10469.7)"/></svg>