<svg xmlns="http://www.w3.org/2000/svg" viewBox="0 0 409.49 76.56"><defs><style>.cls-1{fill:#fff}</style></defs><g id="Layer_2" data-name="Layer 2"><path class="cls-1" d="M28.68 30.67c0-3.11-1.91-5.5-5-5.5-2.87 0-5.18 2.95-5.18 5.66 0 3.11 2.95 2.39 5.18 2.39s5 .56 5-2.55m-7.49 10.84c-1 0-2.31-.24-2.31 1.19 0 4.3 5.58 7.89 9.64 7.89 6.45 0 9.64-3.82 11.39-3.82s3.35 2.63 3.35 4.3c0 6.61-12.11 11.39-19.84 11.39C8 62.46 0 51.3 0 40.23 0 27 11.23 17.45 24.06 17.45c14.58 0 21 11.23 21 17.69 0 5.66-2.55 6.45-5.34 6.45H21.19zm44.14 6.77c0 2.23 1.19 4.62 3.67 4.62 3.27 0 3.5-3.51 3.5-6.05 0-1.91.08-4.06-2.31-4.06-2.87 0-4.86 2.79-4.86 5.5m25.73-7.57c0 15.06 5.18 6.85 5.18 11.47 0 4.86-6.69 10.2-13 10.2-6.77 0-6.93-4.38-9.08-4.38-1 0-2.15 1.11-4.06 2.15a15.7 15.7 0 0 1-8.36 2.23c-7.09 0-14.26-3.74-14.26-12.27 0-6.05 5.81-13.62 21-13.62 2.63 0 3.82.16 3.82-2.95 0-2.87-.08-8.76-4.06-8.76-5.1.08-5.58 9.4-13.22 9.4a4.63 4.63 0 0 1-4.78-4.7c0-7.33 14.5-12 22.63-12 4.86 0 18.24 1.91 18.24 14.74zm31.15-22.8a28.32 28.32 0 0 0 3.5.64 4.81 4.81 0 0 0 2.31-.64 8 8 0 0 1 2.31-.48c4 0 7.89 7.89 7.89 11.39A4.17 4.17 0 0 1 134 32.9c-4.86 0-7.65-6.77-11.39-6.77a3.13 3.13 0 0 0-3.11 2.95c0 5.5 18.88 6.53 18.88 19.84 0 8-7.81 13.62-16.73 13.62a38.24 38.24 0 0 1-6.37-.64c-2.15-.24-4.06-.48-4.54-.48a10.94 10.94 0 0 0-1.67.16 9.91 9.91 0 0 1-1.67.16 4.12 4.12 0 0 1-3.74-1.59c-2.15-2.39-4.3-7.33-4.3-10.52 0-2.23.8-4.06 3.27-4.06 3.74 0 7.17 8.52 12 8.52 1.75 0 3.35-.88 3.35-2.71 0-5.1-16.81-5.66-16.81-19.84 0-8.6 7-13.94 15.85-13.94a22.44 22.44 0 0 1 5.18.32M178.53 54c-4.22 11.39-9.72 22.55-23.66 22.55-6.21 0-13.46-3.19-13.46-10.28a7.7 7.7 0 0 1 7.65-7.89c8 0 5.74 9.08 9.24 9.08 2.31 0 3.35-2.23 3.35-4.22 0-2.39-1.75-5.66-2.71-7.81l-12-25.1c-1.59-3.42-6.53-2.39-6.53-6.37 0-2.55 1.51-6.37 19.68-6.37 3.27 0 11 .32 11 5.26 0 2.31-2 3-2 5 0 3.27 3.74 9.24 5.26 9.24 2.55 0 4.38-5.9 4.38-8 0-3.82-2.71-3.58-2.71-6.53 0-4.54 8-5.1 11.15-5.1 2.87 0 9.16.4 9.16 4.38 0 5-5.18 2.79-8.13 7.89a52.08 52.08 0 0 0-4.46 10.12zm57.68-4a5.13 5.13 0 0 0 5.26-5.34c0-7.09-9-.16-9-8 0-6.29 13-6.69 17.29-6.69 16.09 0 17 4.54 17 7 0 2.23-1.91 3.74-4 4.14-2.23.24-2.39.72-3 2.95-3.35 12.51-15.46 18.56-27.65 18.56-18.16 0-34-12.59-34-31.55 0-18.08 15.38-31 33.7-31 7.57 0 11.63 2.31 13.86 2.31C247.21 2.31 249.44 1 251 1c5.34 0 8.52 8.76 8.52 13.14 0 4.22-2.15 8.52-6.77 8.52-8.52 0-8.52-12-20.16-12-7.49 0-12.27 6.13-12.27 15.3.08 17.53 10.36 23.9 15.85 23.9M305.84 54c-4.22 11.39-9.72 22.55-23.66 22.55-6.21 0-13.46-3.19-13.46-10.28a7.7 7.7 0 0 1 7.65-7.89c8 0 5.74 9.08 9.24 9.08 2.31 0 3.35-2.23 3.35-4.22 0-2.39-1.75-5.66-2.71-7.81l-12-25.1c-1.67-3.42-6.53-2.39-6.53-6.37 0-2.55 1.51-6.37 19.68-6.37 3.27 0 11 .32 11 5.26 0 2.31-2 3-2 5 0 3.27 3.74 9.24 5.26 9.24 2.55 0 4.38-5.9 4.38-8 0-3.82-2.71-3.58-2.71-6.53 0-4.54 8-5.1 11.15-5.1 2.87 0 9.16.4 9.16 4.38 0 5-5.18 2.79-8.13 7.89A52.09 52.09 0 0 0 311 39.91zm23.66-16.72c0-5.5-1.11-7-2-7.81-1.11-1-2.31-.88-2.31-3.11 0-6.37 21.27-8.76 21.43-8.76 2.15 0 2.31 1.91 2.31 3.67 0 1-.32 4 1.43 4 .88 0 2.23-1.91 4.62-3.82a16.77 16.77 0 0 1 10.91-3.74c10.2 0 10.28 7.65 12.11 7.65.72 0 2.23-1.91 4.7-3.82a17.07 17.07 0 0 1 10.36-3.74c8.13 0 13.23 4.46 13.23 12.83v18.04c0 4.94 3.19 5.42 3.19 7.89 0 5.42-9.8 5.66-13.15 5.66-2.87 0-12.75-.64-12.75-5.1 0-3.19 3-3.11 3-8v-7.77c0-3.58.4-10.83-4.46-10.83s-4.38 5.82-4.38 9v5.34c0 10.52 3.11 8.76 3.11 12 0 5.34-10.28 5.42-13.38 5.42-13 0-13.62-2.39-13.54-4.78.08-4.54 4.38-1 4.14-11.15v-5c0-3.11.4-10.83-4.46-10.83s-4.38 5.82-4.38 9v6.93c0 7.89 2.31 7.41 2.31 10.44 0 2.23-2 5.26-13.7 5.26-3.35 0-13.46.08-13.46-4.46 0-3.82 5.18-1.83 5.18-12.51v-7.9h-.08z" id="Layer_1-2" data-name="Layer 1"/></g></svg>