<svg xmlns="http://www.w3.org/2000/svg" viewBox="0 0 930.03998 930.28931" height="930.3" width="930"><defs><clipPath id="a"><path d="M170.6 188h321v321h-321z"/></clipPath></defs><g clip-path="url(#a)" transform="matrix(1.33333 0 0 -1.33333 0 930.29)"><path d="M638 285L285 638m384.5-321.3L316.7 669.5m368.6-337l-352.7 353M622 269.2L269.2 622m384.5-321L301 653.6m396.2-309.2l-352.7 353M634 281L281 634m384.5-321.3l-353 352.8m368.9-337l-353 353M618 265.3L265.4 618m384.3-321L297 649.6m396.2-309.2l-352.7 353M630 277L277 630m384.6-321.2L308.8 661.6m368.6-337L324.6 677.4M614 261.3L261.4 614m384.4-321l-353 352.8m396.5-309.3l-353 352.7m289.7-416L273.2 626m384.4-321.2l-353 352.7m368.9-336.9l-353 352.8M641.8 289L289 641.8M551 198L198 551m384.5-321.3L229.7 582.5m368.6-337l-352.7 353M535 182.2l-352.8 353M566.7 214L214 566.6m396.2-309.2l-352.6 353M547 194L194 547m384.6-321.3l-353 352.8m368.8-336.9L241.6 594.4M531 178.3L178.4 531m384.3-321L210 562.6m396.2-309.2l-352.7 353M543 190L190 543m384.6-321.2L221.8 574.6m368.6-337L237.6 590.4M527 174.3L174.4 527m384.4-321L206 558.8m396.3-309.3l-353 352.7m289.7-416L186.2 539m384.5-321.2l-353 352.8m368.8-337l-353 352.8M554.8 202L202 554.8M464 111L111 464m384.5-321.3L142.7 495.5m368.7-337l-352.8 353M448 95.2l-352.8 353M479.7 127L127 479.6m396.2-309.2l-352.6 353M460 107L107 460m384.6-321.2l-353 352.7m368.8-336.9L154.6 507.4M444 91.3L91.4 444m384.4-321l-353 352.8m396.5-309.4l-352.8 353M456 103.2L103.2 456m384.4-321.2L134.8 487.6m368.6-337L150.6 503.4M440.2 87.3l-353 353M471.8 119L119 471.8m396.3-309.3l-353 352.7M452 99.2L99.2 452m384.5-321.2l-353 352.8m368.8-336.9l-353 352.7M467.8 115L115 467.8M377 24L24 377M408.6 55.7l-353 353M424.4 71.5l-352.8 353M361 8.3L8.4 361M392.7 40L40 392.6M436.2 83.4l-352.6 353M373 20L20 373M404.6 51.8l-353 352.7M420.4 67.6L67.6 420.4M357 4.3L4.4 357M388.8 36L36 388.8M432.3 79.5l-352.7 353M369 16.2L16.2 369M400.6 47.8L47.8 400.6m368.7-337l-353 353M353.2.4L.4 353.2M384.8 32L32 384.8M428.3 75.5l-353 352.7M365 12.2L12.2 365M396.7 44l-353 352.6M412.5 59.7l-353 352.7M381 28L28 381" fill="none" stroke="#fba683"/></g></svg>