<?xml version="1.0" standalone="no"?>
<!DOCTYPE svg PUBLIC "-//W3C//DTD SVG 1.1//EN" "http://www.w3.org/Graphics/SVG/1.1/DTD/svg11.dtd" >
<svg xmlns="http://www.w3.org/2000/svg" xmlns:xlink="http://www.w3.org/1999/xlink" version="1.1">
<metadata></metadata>
<defs>
<font id="fresh_dailyregular" horiz-adv-x="663" >
<font-face units-per-em="2048" ascent="1536" descent="-512" />
<missing-glyph horiz-adv-x="409" />
<glyph horiz-adv-x="0" />
<glyph horiz-adv-x="682" />
<glyph horiz-adv-x="0" />
<glyph horiz-adv-x="0" />
<glyph unicode="&#xd;" horiz-adv-x="409" />
<glyph unicode=" "  horiz-adv-x="409" />
<glyph unicode="&#x09;" horiz-adv-x="409" />
<glyph unicode="&#xa0;" horiz-adv-x="409" />
<glyph unicode="!" horiz-adv-x="401" d="M82 182q4 0 12 -4q12 3 21 12q5 1 10 0t11 -3l9 -3q49 -27 50 -28q6 -7 13.5 -21t12.5 -20q-2 -4 0.5 -8t1.5 -7q2 -4 0 -6q8 -12 4.5 -30.5t-14.5 -34.5q-4 0 -4 -2q0 -7 -6 -19q-7 -7 -37 -22q-4 -2 -10.5 -7.5t-10.5 -7.5q-4 -5 -10.5 -10t-16.5 -11t-14 -9 q-4 1 -13 0t-14.5 0.5t-8.5 7.5q-8 -2 -19.5 -2.5t-15.5 -1.5q-17 13 -17 26q-7 7 -10 13q0 107 76 198zM393 1382q3 -1 11 2.5t10 4.5q3 0 9 -3.5t9 -3.5q8 0 12 2q3 0 7 -4q4 -1 12 0t12 0q6 -1 16 -5.5t15 -4.5q18 -14 25 -20t16.5 -22t9.5 -34q-3 -4 -8 -16t-8 -16v-9 q-2 -3 -4.5 -9t-4.5 -9q-6 -13 -17 -39t-17 -39q-2 -6 -6 -14q0 -1 -5 -6q-12 -36 -14 -39q-10 -20 -49 -137q-4 -11 -8 -29q-1 -4 -4.5 -8.5t-3.5 -5.5q-1 -6 -4 -15.5t-3 -11.5q-3 -13 -12 -25q0 -6 -2 -10q-1 -4 -4.5 -13.5t-3.5 -15.5q-5 -7 -24.5 -82.5t-38 -151.5 t-19.5 -79q-2 -5 -3.5 -19t-4.5 -18q-1 -8 -6.5 -25t-6.5 -26q-10 -33 -14 -39q5 -7 -2 -22q-10 -5 -12 -9q-23 -3 -31 -32q-9 0 -13.5 -0.5t-9.5 -4.5t-4 -12q-15 -25 -20 -28q-6 0 -10 8q-7 -1 -21 -6t-16 -5t-2 5q-5 -9 -12 -9q-7 -38 -16 -13q-3 6 -5 17q0 5 -1 16.5 t-1 16.5q-14 79 -12 113q0 18 14 65q0 17 14 64q1 10 5.5 30.5t5.5 30.5q7 24 18.5 87t15.5 79q14 47 17 60l8.5 25.5t9.5 33.5q6 20 19.5 59t19.5 58q27 86 68 166q20 49 51 104q9 22 53 98z" />
<glyph unicode="&#x22;" horiz-adv-x="169" d="M162 1333q4 0 8 -3.5t6 -4.5q15 -25 21 -41q0 -2 2 -16t4 -21q-1 -10 -7.5 -25.5t-7.5 -21.5q-8 -20 -14 -49q-16 -82 -29 -116.5t-32 -37.5q-2 -2 -12 -4.5t-11 -9.5q-2 -1 -6 -1t-6 -5q-2 -14 -16 -1q-23 20 -18 54q1 6 3 12q2 17 0.5 76.5t7.5 85.5q19 81 6 74v1 q7 9 21 34q4 5 40.5 9.5t39.5 10.5zM346 1333q4 0 8 -3.5t6 -4.5q15 -25 21 -41q0 -2 2 -16t4 -21q-1 -10 -7 -26t-7 -21q-10 -27 -15 -49q-16 -82 -29 -116.5t-32 -37.5q-2 -2 -12 -4.5t-11 -9.5q-2 -1 -6 -1t-6 -5q-2 -14 -16 -1q-23 20 -18 54q1 6 3 12q2 16 1 76.5 t8 85.5q20 83 7 76q7 11 19 33q4 5 40.5 9.5t39.5 10.5z" />
<glyph unicode="#" horiz-adv-x="655" d="M360 1153q51 0 78 2q18 40 21 53q13 25 16 37q6 6 6 8q8 19 15 29q4 0 8 4q2 -1 7 -1t8.5 -1t4.5 -4q33 -16 45 -47q-2 -4 0 -13t0 -14q1 0 2 -3q1 -2 2 -3q-6 -12 -6 -24q0 -5 -8 -21q8 -2 28 -5t29 -5q1 -2 3.5 -4.5t4 -4.5t1.5 -6q-7 -3 -9 -8q0 -1 3 -5t2 -7 q1 -2 4 -4t4 -4q-6 -3 -6 -6q-8 -4 -15 -4v-2q-46 -5 -55 -9q-1 0 -1 -1t-1 -1t-3 -1t-3 -1q-2 0 -2.5 -2t-1.5 -2t-1 -1.5t-1 -2.5q-1 0 -2 -1t-2 -1q0 -5 -11 -43q0 -3 -2 -11t-2 -12q61 -7 92 -16q0 -4 2 -4q-1 -1 -1 -2.5t-1 -1.5q3 -4 13 -7.5t12 -8.5q-4 -1 -8 -2.5 t-9.5 -4.5t-9.5 -4l2 -2h-2q2 -4 13 -4q-1 -2 -5.5 -2.5t-5.5 -1.5l-4 -2v-4q-6 0 -6 -2t-5 -4.5t-5 -3.5q-48 -6 -94 0q-3 -13 -10.5 -39.5t-10.5 -40.5q0 -1 -0.5 -1h-1.5t0 -1q-3 -17 -10 -27q-4 0 -10 5t-9 3q-3 -1 -5 -6.5t-5 -7.5q-1 -2 -2 -6t-2 -6q-3 1 -6.5 7.5 t-7.5 8.5q0 9 -12 12q0 3 -3 6.5t-4 4.5q-1 -1 -2 -4.5t-2 -4.5q-1 0 -4.5 -1t-5.5 -1q0 4 -6 4q0 5 -2 5t-2.5 -2.5t-1.5 -2.5q-21 36 -19 52q1 5 4.5 20.5t3.5 22.5q-10 0 -10 -2q-39 -4 -55 -7q0 -6 -4 -14q-2 -7 -3 -21t-3 -20l-6 -12q-3 -4 -11 -25q-2 2 -4.5 6.5 t-5 6.5t-6.5 2q-1 0 -6 -11q-6 6 -8 7q-2 -2 -2 -7q-1 -3 -5.5 -0.5t-5.5 2.5q-7 13 -18 19l-4 -8q-2 -1 -5.5 0.5t-4.5 1.5q0 6 -9 6q-1 5 -3 14.5t-3 14.5q-4 4 -4 10q0 3 2 10t2 10q-14 0 -22 2q-4 1 -10.5 3t-11 3.5t-7.5 4.5h-6q0 2 -2.5 4t-3.5 4v2q-20 5 -17 18 q8 2 44 14t55 17q10 44 20 76q-4 -1 -13 -2t-13 -2q-1 -1 -3.5 -2t-3.5 -2h-10q-5 3 -14.5 10t-14.5 10v4q-3 1 -9 6.5t-11 5.5q1 3 -1.5 6.5t-2.5 4.5q-2 1 -4.5 5.5t-5.5 6.5v8q2 1 7 2.5t9 3t8 2.5q94 17 113 19q26 88 55 133q1 1 1 2.5t1 1.5q2 2 8 2q1 0 1 1t1 1 q11 6 23 0q1 0 4.5 -2t5.5 -2t3 -2.5t3 -3.5q1 -1 11 -6v-4q6 -3 10 -7q0 -4 2 -6l8 -16q0 -1 -1 -2t-1 -2l1 -6q2 -6 -1 -6q-1 0 -2 -1.5l-2 -3t-2 -2.5q-4 -9 -8 -34q-3 -2 0 -5q-1 -1 -5.5 -8t-5.5 -10zM334 1061q-1 -2 -1 -6t-1 -6q-2 -4 -4 -13t-4 -12q-1 -3 -5 -11.5 t-4 -13.5q14 1 37 3.5t35 3.5q1 3 9 23.5t10 31.5h-72z" />
<glyph unicode="$" horiz-adv-x="620" d="M176 209l-2 -2q9 -2 18 -11t15 -12q1 0 4 -2t4 -4h2q1 -1 1.5 -3.5t2 -4.5t4.5 -2q-1 -1 2 -4l6 -6q1 -5 4.5 -15.5t4.5 -15.5q0 -6 -2 -8v-2v-6q-4 -4 -4 -17q0 -4 2 -8q-5 -3 -7 -6t-2.5 -7t-1.5 -7q0 -1 2 -3q-14 -19 -14 -26q-14 -23 -14 -33q-2 -1 -5 -6t-6 -8h-4 q-1 -4 -14 -25q-2 -1 -6 -7t-6 -7q-4 -4 -4 -6q-3 3 0 8q-8 4 -11 10q4 8 -6 8q-4 -3 -7 -14t-7 -16q-1 0 -4 1q-5 3 -6 -1q-11 11 -9 16h-4q0 -2 -1.5 -2.5t-4 -1t-4.5 -2.5q-14 10 -8 24q-6 6 -16 0q0 6 1 17.5t1.5 18.5t2 17.5t5.5 20.5q1 2 3 6.5t5 7.5q-7 4 0 11 q0 6 -2 8q3 1 4 1t4 1q7 28 12 33q40 67 72 92zM195 442h-5q-1 -2 -5 -3.5t-5 -2.5h-2q-3 -2 -4 -2l2 2q2 1 35 23h4q7 5 24 16t27 19h2q2 4 19 12v4q12 6 31.5 21.5t29.5 21.5q67 59 90 88q-8 0 -10 2q-1 -1 -4.5 0.5t-7.5 -0.5h-2h-15q-3 -2 -8.5 -3t-7.5 -3q-2 1 -4 1h-3 t-1 1q-3 -1 -9.5 -3t-9.5 -3q-5 -3 -20.5 -5.5t-20.5 -6.5q-2 0 -5 -1.5t-5 -1.5h-2q-17 -4 -27 -12l-13.5 -4.5t-16.5 -3.5q-1 -2 -3 -4t-3 -4q-3 0 -9.5 -2.5t-9.5 -3.5q-2 0 -2 -2q-6 -1 -16.5 -4.5t-16.5 -4.5q-2 -1 -6.5 -2t-5.5 -2q-6 0 -8 -2q-3 0 -7 -1t-7 -1 q-2 -2 -9.5 -3t-9.5 -3q-4 -3 -11.5 -2t-10.5 -2q-3 0 -8 2t-7 2q-1 0 -4 3t-4 3q-2 1 -6.5 -0.5t-5.5 -1.5q-3 0 -8 2t-7 2q-7 0 -8 2q-3 -1 -5 0t-3 3t-2.5 3.5t-3.5 2.5q-6 24 -6 30q0 3 -2.5 13.5t-2.5 15t1 16.5q-4 7 -5 23.5t-1 17.5q0 18 10 58q4 13 17 31.5t16 25.5 q9 6 12 12q7 6 21.5 23.5t23.5 23.5q0 1 1 1t1 1q1 1 6 5.5t8 5.5l8 8q4 5 17 13t16 11q9 9 15 13q2 2 4 2q41 30 92 55q4 0 10.5 3.5t11.5 4.5q8 4 26 10.5t26 10.5q4 -1 24 4h12q2 1 9 2t10 2h12q1 -1 3.5 -2t5 -3t3.5 -5q8 -2 17 -11t14 -12q2 -4 8.5 -10t8.5 -10 q4 -4 2 -6q1 0 2 -2t2 -1q1 -5 -4 -20l-2 -4q-2 -1 -3.5 -4t-3.5 -4q0 -1 -1 -2t-1 -2q-1 -2 -1.5 -9.5t-2.5 -9.5q-7 -2 -10 -8q-3 0 -6 -5.5t-4 -6.5q-1 0 -2.5 -1t-3.5 -1q-11 -7 -19 -7q-2 -2 -4 -2q-1 0 -2 -1t-2 -1t-3 -1t-3 -1q-2 -4 -11.5 -8t-11.5 -6h-4 q-14 -10 -16 -12q-2 0 -4 -1t-4 -1q-6 -9 -23 -13q-1 -2 -6.5 -4t-7.5 -4q-5 0 -17 -4q-4 -4 -12.5 -8.5t-11.5 -7.5q-3 0 -6.5 -3t-5.5 -3q-1 0 -1.5 -1t-1.5 -1t-3 -2t-3 -1q-4 -4 -10 -4l-2 -2q-3 -2 -9.5 -7.5t-10.5 -6.5q-3 -4 -12 -9t-13 -9h-4q-6 -3 -15.5 -14.5 t-15.5 -14.5q-6 -8 -14 -14q0 -3 -8 -15q-2 -2 -1.5 -2t3.5 2q27 9 37 15q11 3 48 14t58 16q3 0 15 3t18 3q1 2 6 2.5t6 2.5h16h3h45l2 -3q14 0 49 -10q35 -11 49 -26q5 -1 13 -5.5t12 -5.5q0 -2 1 -4.5t1 -3.5q4 -1 7.5 -7t4.5 -7v-14q0 -1 1 -4t1 -5q2 -6 2 -16 q0 -8 -2 -8q4 -17 -2 -39q2 0 0 -2v-2q2 0 0 -2q-1 -1 -4 -12t-8 -15q-1 -2 -3 -4t-3.5 -3t-0.5 -3q-2 0 -2.5 -2t-1.5 -2q-3 -13 -14 -21q-3 -3 -2 -4q-3 -3 -9 -10t-9 -10v-4h-5q-4 -4 -13.5 -14t-14.5 -17q-1 0 -2 -1t-2 -1q0 -2 -2 -4q-15 -15 -25 -23h-2q0 -1 -1 -2 t-1 -2q-6 0 -16 -10q-5 -3 -16.5 -12t-18.5 -11q-11 -9 -37 -24q-4 -4 -6 -4q-2 -3 -8 -6t-7 -5h-2q-4 -4 -16 -12q-9 -3 -14 -8h-4q-8 -3 -25.5 -13.5t-28.5 -13.5v-2q-7 -2 -10 -8q-15 -5 -20 -10q-1 0 -6 -2t-7 -4q-4 -1 -14 -8t-18 -7q2 2 0 2q-10 -5 -13 -2 q-8 -4 -20 -16h-6q-1 -2 -7 -4t-8 -4q-5 -1 -13 -4t-11 -4q-4 -4 -4 -5q-51 -15 -84 -20q-48 -4 -76 0q-4 0 -7 1t-7 2.5t-7 2.5q-2 1 -8 3t-8 3q0 3 -4.5 6.5t-5.5 6.5h-4q-17 22 -19 34q-19 22 -16 58q-3 6 -4.5 18.5t-3.5 16.5v6q0 4 1 13t1 13v2q0 1 4 16t8 21 q1 2 1.5 7t2 8.5t4.5 5.5q6 14 22.5 32t20.5 25q2 1 10 8.5t13 9.5q6 12 16 19q12 6 16 10q2 3 9 7t10 7q3 0 6.5 3.5t5.5 3.5q13 13 27 6v-2q0 -2 2.5 -7t1.5 -10q2 -3 1.5 -13t2.5 -11q0 -4 -1 -9t-2.5 -11t-2.5 -9q-4 0 -4 -6q-1 -2 -5 -6.5t-5 -7.5v-2q-3 -3 -5.5 -6.5 t-6 -8.5t-5.5 -8q0 -2 4 -2q-1 -1 -2 -3t-2 -3v0h-2l-3 -6t-3 -6.5t0 -4.5q-2 -1 -3 -7t-3 -9q-1 -1 -2.5 -5t-3.5 -5v-2q-5 -5 -9 -12t-9 -21.5t-5 -15.5v-4q-3 -4 -4 -8.5t-1 -11t-1 -9.5q2 -2 6 -2t6 2q19 2 37.5 7t41 13.5t34.5 12.5q10 5 35 14.5t43.5 18t34.5 18.5 q4 1 11 5t11 5q1 2 7.5 5t8.5 5q1 0 2 1t3 1zM475 1341q-2 0 -2 -4t-2 -4q4 -12 6 -14q-12 -35 -12 -37l2 -2q-5 -9 -10 -37q-6 -6 -2 -10q-3 -4 -5 -14t-4 -13h3q-7 -27 -17 -51q1 -2 0 -7.5t0 -8.5q-4 -1 -4 0q-2 -1 -3 -1t-3 -1q0 -2 -2 -2h-8q-1 -1 -4.5 -6.5t-6.5 -4.5 q-3 3 -3.5 10t-4.5 7q-1 0 -3.5 -2.5t-2.5 -3.5q-1 -1 -1.5 -9t-2.5 -10q-4 -8 -10 -8v-2q-6 0 -11 10q-1 0 -1 -1t-1 -1q-4 8 -10 8q-2 0 -2 -4q-3 -1 -8 1.5t-6 2.5q-5 9 -8 11q0 6 2 8q-3 2 -6.5 8t-6.5 8v6h-8q-10 30 -10 39q-1 2 -0.5 4t1.5 4.5t1 3.5q1 5 3 15.5 t3 15.5q0 3 4.5 11t5.5 12q5 13 9 28q0 2 2 6t2 5q4 7 7.5 18t4.5 14l2 2q2 1 8 21q2 0 2 2q0 4 2 6q4 2 8 6q5 15 7 17h4q2 2 4 2.5t3 -0.5t1 -2h6q9 0 23 -9q6 0 14 -4h4q12 -8 16 -10q3 -2 8.5 -6t8.5 -6q1 -2 4 -4t4 -4h2q0 -5 4 -9z" />
<glyph unicode="%" horiz-adv-x="528" d="M336 455q13 -16 29 -23q3 1 3 -3q-1 -3 0 -4.5t5 -0.5q4 -9 10 -6q25 -22 39 -78q-2 -4 -4 -16t-2 -13q-6 -16 -23 -82q-4 -25 -22 -71q-4 -1 -7.5 -4t-7 -7.5t-4.5 -5.5q-5 -14 -12 -14q-5 16 -8 16q-4 0 -9 -19.5t-8 -19.5q3 17 1.5 32t-11.5 16q0 1 2 3t2 3 q-7 0 -10 -6q0 2 -2 2q-2 -1 -8.5 -5t-9.5 -4l-3 5q-1 -1 -3 -4t-3.5 -4.5t-3.5 -0.5q-3 13 -12 19q1 6 -1 15t-1 13q-6 20 8 74q16 65 49 144q1 4 4 10l4 8q13 27 19 31zM150 1341q11 -20 26 -28q2 2 2 -2q2 -5 6 -4q8 -8 11 -7q24 -22 38 -75q-2 -5 -3.5 -16t-2.5 -13 q-5 -15 -12 -43t-10 -39q-3 -25 -23 -74q-5 -1 -10.5 -8t-7.5 -8q-7 -14 -10 -14q0 5 -3.5 11t-7.5 5q-7 -14 -9 -19t-4 -8.5t-2 -1t-1 6.5t-1 9.5t-2.5 11t-6.5 9.5q2 2 2 6q-5 0 -8 -6q2 2 0 2q-1 0 -9 -4t-12 -4l-2 2q-1 -1 -4.5 -3.5t-5.5 -2.5q-2 12 -15 18q1 6 -1 16 t-1 15q-5 25 11 72q11 45 47 143q2 9 12 19q9 24 19 34zM631 1300q0 -4 3.5 -14t2.5 -18q-4 -4 -4 -8q-2 -4 -2 -9q-4 -2 -8 -11.5t-5 -10.5q-1 -3 -6.5 -10t-5.5 -13q-4 -4 -8.5 -12.5t-7.5 -11.5q0 -5 -2.5 -9t-3.5 -6q-4 -4 -8.5 -15.5t-8.5 -16.5q-1 -6 -5 -13t-5 -12 q-7 -6 -15 -20t-10 -17t-4.5 -8t-3.5 -6q0 -1 -1 -3t-1 -3h-2v-4q-3 -1 -6 -9t-6 -10q0 -3 -3 -8.5t-3 -9.5q-2 -1 -4.5 -5.5t-5.5 -5.5q-4 -14 -11 -26t-16.5 -24.5t-13.5 -18.5h-2q-5 -10 -7 -12q-3 -14 -12 -23q-4 -9 -13.5 -23.5t-13.5 -23.5h-2l-6 -12q-3 -2 -7 -12.5 t-7 -12.5l-6 -12q0 -1 -1.5 -2.5t-2.5 -3.5q-4 -4 -10 -17.5t-11 -17.5q-1 -8 -8 -17t-8 -10l-4 -4v-2l-2.5 -5t-2.5 -4.5t-3 -2.5q0 -6 -4 -12t-5 -9q-1 0 -2 -1t-2 -1q-2 -5 -13 -26t-15 -37q-2 0 -5.5 -3.5t-5.5 -4.5q1 -3 -4 -17q0 -2 -2 -5t-2 -5q-3 0 -6 -6 q0 -3 -1.5 -5t-4.5 -5t-4 -5q-2 0 -2 -8q-2 0 -5.5 -4t-5.5 -4q0 -6 -2 -6v-4q-2 -1 -4 -7t-4 -8t-6.5 -11.5t-9.5 -12.5q0 -6 -4 -14q-4 -2 -9.5 -12t-9.5 -13v-6q-4 -2 -6.5 -10t-5.5 -9q-2 -13 -11 -27.5t-11 -21.5q-1 0 -1.5 -2t-1.5 -2q-1 -3 -3.5 -6.5t-2.5 -5.5 q-1 -2 -3 -10t-5 -9q-2 -2 -2.5 -6t-1.5 -6t-4 -2q0 -2 -2 -4t-2 -4q-1 -1 -1.5 -3t-1 -3.5t-1.5 -1.5q-16 -39 -25 -54v-4q-4 -7 -2 -10q-7 -7 -8 -12h-2q-1 -4 -10 -27q-3 -1 -5.5 -7t-5.5 -7v-8v-2h-2q-1 -1 -1 -5t-1 -6l-4 -2v-8q0 -2 -2 -7t-2 -9q-2 0 -2 -2 q-3 -11 -13.5 -32.5t-13.5 -35.5q-6 -2 -9.5 -6.5t-5.5 -13.5t-3 -11q-4 0 -4 -2q-3 -3 -8 -11t-8 -11q0 -4 -2 -7.5t-5 -7t-4 -6.5h-4q0 -2 -6 -8q0 -6 -8 -14q-3 0 -6 -1.5t-6 -0.5q0 1 -2 2t-3 2q-4 0 -28 4q-2 5 -10 5.5t-11 4.5q-1 -3 -3 -4t-3 -0.5l-3 1.5t-3 1 q0 -8 -2 -8q-1 2 -4 1.5t-4 -3.5q0 2 -2 2q-1 5 -1 11.5t-1 8.5q0 28 2 33q4 34 12 53q1 5 18 56q5 10 5 14q9 21 25.5 72t27.5 74q2 6 2 8q3 3 6 12.5t4 11.5q1 5 3.5 10.5t2.5 8.5q2 1 3 6t3 6q7 21 7 23q2 6 7.5 20t6.5 21h2q3 11 10 26t10 23q9 21 19 41q0 3 1 5.5 t1 4.5q3 4 8 16.5t8 16.5q3 5 7 16t8.5 19.5t9.5 13.5q-2 0 -2 2q1 0 2 1t2 1q0 12 4 16q0 7 8 15q1 9 7 21.5t7 17.5q3 1 7 10q14 33 26 51q4 8 6 14l2 2v6q3 1 3 3q6 6 8 10q1 0 2 3t2 3q0 6 4 10q1 2 2 5.5t2 4.5q2 5 5.5 11.5t4.5 7.5v2l5.5 11t9.5 11q4 11 18 35 q1 0 2 4t2 4v2q2 2 5.5 10.5t6.5 10.5q1 5 5.5 11.5t5.5 10.5q1 0 1 2.5t1 2.5v4q12 9 18 28h2q5 10 6 11q0 1 3 4.5t3 5.5q3 6 5 6q0 3 3.5 7.5t4.5 8.5q5 8 18 28t17 28q4 5 9 14.5t9 13.5v4q4 3 9.5 11t8.5 10q1 3 21 33q3 9 14.5 26t14.5 23q5 6 13 19.5t13 19.5 q1 2 3.5 3.5t2.5 2.5q2 7 8 15.5t7 10.5q0 3 2 3q8 17 26 38q1 0 1 1t1 1q0 2 4 5t5 6q4 5 15 19t17 22v2q4 3 7.5 3t8.5 -1.5t9 -1.5q3 -3 4 -2q1 -3 6 -6.5t6 -6.5q2 -2 7.5 -6.5t5.5 -7.5q6 0 6 -8q6 0 10 -8q0 -4 2 -4q0 -3 3 -7t3 -8q4 -1 8 -6.5t6 -7.5q2 -7 13 -19z " />
<glyph unicode="&#x26;" horiz-adv-x="569" d="M625 922q1 -27 -9 -55t-20.5 -43.5t-15.5 -14.5q-1 0 -7 -6l-12 -12q0 -1 -1 -2.5t-1 -2.5l-6 -6q0 -4 -2 -6q-13 -9 -14 -10q-1 0 -2.5 -1t-2.5 -1q-4 -5 -16.5 -15t-17.5 -16q3 -3 6 -5t6.5 -4t5.5 -3q1 -1 3 -2t3.5 -2t1.5 -2q1 -1 7 -5.5t8 -7.5q3 -2 14.5 -7 t15.5 -9q2 0 2.5 -1t1.5 -1q30 -22 39 -37q2 -6 7 -14t6 -10q6 -15 6 -29q6 -6 6 -19q1 -1 0 -5t0 -5l-4 -12v-12q-4 -2 -6 -7l-2 -4q0 -2 -1.5 -3t-3 -1.5t-2.5 -1.5q-4 -6 -8 -22q-3 -17 -37 -41q-2 -5 -11 -13.5t-11 -13.5q-7 -5 -12 -12q-7 -3 -16 -11t-13 -10 q-37 -27 -80 -49q-1 0 -3 -1t-3 -1q-20 -11 -45.5 -21t-43.5 -15.5t-51 -15t-48 -13.5q-36 -9 -43 -11q-7 0 -9 -2q-37 -5 -116 9l2 2q-6 2 -17.5 8.5t-19.5 7.5l-33 22h-4q0 9 -12 9q2 4 -7 4q-2 7 -14 10q-6 6 -12 6q0 8 -8 12l-11 11q0 2 -2 6t-2 6q9 5 34 5t32 1 q6 1 18.5 1t18.5 1q12 0 14 2q10 0 12 2q9 0 21 4q38 11 39 11q5 3 19 6t20 6q4 0 9 3t9 3q8 4 28.5 12t30.5 13q11 3 32 12.5t32 13.5q81 48 117 74q16 16 26 22q5 6 24.5 24t27.5 32q-4 2 -17 2q-9 2 -63 2q-6 -2 -20.5 -5t-20.5 -5q-19 0 -45 -11q-2 0 -5 -1t-4 -1 q-2 -1 -5 -1t-5 -1q-1 0 -5 -2t-5 -2q-4 -2 -10 -2q-3 -1 -9.5 -3t-9.5 -3q-8 0 -10 -2q-33 0 -45 4q-29 0 -57 12l-9 9q-5 -1 -10 1.5t-10 2.5q-4 4 -8 4q2 5 7.5 10.5t6.5 7.5q0 4 -4 4q2 1 3 1t3 1q0 1 -1.5 6t-0.5 9q5 3 27 14.5t35 17.5q33 19 45 31q4 1 9.5 5.5 t10.5 6.5q79 57 107 78q1 2 4.5 4t5.5 4q1 0 2 1t2 1q2 3 9 9t9 8q4 4 17.5 15t19.5 18q3 2 9.5 7t9.5 7q1 5 7 11l7 7q0 1 -2 1t-2 -1q-12 0 -14 -2q-9 0 -13 -2q-33 -4 -45 -12q-11 -3 -30 -11.5t-27 -11.5q0 -1 -2 -2t-2 -2q-9 -1 -37 -18q-15 -11 -27 -14l-4 -4 q-9 0 -20 -11q-39 -5 -51 0q-15 5 -17 6q-18 5 -43 21q0 6 -4 10q0 3 -1 5.5t-2.5 6t-2.5 5.5v2q-1 2 1.5 7.5t2.5 6.5q1 3 3 8t3 8q6 5 17.5 17.5t17.5 15.5q1 2 6 5t6 5q21 12 39 27h6q28 19 64 33q6 0 6 4q3 0 7 1t7 1q5 4 23 8l4 4q1 1 1 0v-1.5t1 -0.5q28 7 55 10 q30 0 34.5 1t28.5 -5.5t27 -7.5q10 -2 25 -10q8 -1 14.5 -3.5t12.5 -7t9 -7t9.5 -9.5t7.5 -8q31 -9 51 -29q1 -3 3 -10t4 -11.5t6 -8.5zM154 201q9 -2 19.5 -10.5t14.5 -10.5q0 -1 2 -1.5l4 -1t3 -1.5h2q10 -10 12 -10q0 -2 4 -2q-3 -6 2 -6q13 -21 16 -31q-4 -2 -4 -8l2 -2 q-2 -4 -2 -6v-15q0 -1 -1 -4t-1 -4q-2 -3 -2 -9.5t-2 -10.5q-4 -2 0 -2q-5 -18 -10 -29q-2 -5 -5 -17t-5 -16q-6 -3 -6 -14h-4q0 -1 -5.5 -11t-5.5 -16l-8.5 -8.5t-9.5 -7.5q0 -6 -2 -6q0 1 -1 3t-1 3q0 2 -2.5 5.5t-3.5 4.5q-4 8 -9 8q-3 -4 -5.5 -16t-4.5 -15 q-11 0 -12 -2q-7 8 -10 15h-4l-4 -3q-4 -3 -5 -5q-8 5 -12 24q-11 4 -14 -2q0 8 -1.5 22t-1.5 26t3 24q2 3 2.5 8t1.5 6q-1 2 0 6.5t0 5.5q0 1 1 4t1 5q1 1 2 1t2 1q7 27 10 32q31 67 60 99zM539 1321q-1 -1 -0.5 -5t-1.5 -5q0 -7 4 -15q-1 -4 -6 -16t-7 -20v-3 q-7 -33 -6 -36q-8 -7 -4 -11q-2 -3 -3 -12.5t-3 -13.5h2q-6 -16 -16 -51q1 -2 -4 -17h-5q-2 0 -2 -2l-2 -2h-8q-1 -1 -4 -6t-6 -4q-2 2 -5 9.5t-9 8.5v-8q0 -1 -2.5 -8.5t-4.5 -9.5q-4 -9 -8 -7v-2q-7 -2 -12 9l-4 -2q0 8 -6 8q-4 0 -4 -4q-5 -1 -8.5 1.5t-4.5 2.5 q-4 8 -8 10q0 2 -1 4.5t-1 3.5q-1 1 -1.5 5t-2 7t-4.5 5q0 2 -1 3.5t-1 2.5h-8q-1 5 -6.5 17.5t-6.5 21.5q5 10 7 12q0 1 2 13t4 18q0 9 10 22q4 22 8 29q0 2 1 5.5t1 4.5q3 6 7.5 17.5t7.5 17.5h2q1 3 4 10t4 10l2 2v7l8 8q2 2 4 7.5t4 8.5q1 0 2 -1t2 -1q1 2 8 2h7 q14 -5 22 -10q6 0 14 -4h5q3 -7 16 -10q7 -7 16 -13q0 -2 2.5 -4t3.5 -4h3q0 -6 4 -6z" />
<glyph unicode="'" horiz-adv-x="129" d="M162 1333q4 0 8 -3.5t6 -4.5q15 -25 21 -41q0 -2 2 -16t4 -21q-1 -10 -7.5 -25.5t-7.5 -21.5q-8 -20 -14 -49q-16 -82 -29 -116.5t-32 -37.5q-2 -2 -12 -4.5t-11 -9.5q-2 -1 -6 -1t-6 -5q-2 -14 -16 -1q-23 20 -18 54q1 6 3 12q2 17 0.5 76.5t7.5 85.5q19 81 6 74v1 q7 9 21 34q4 5 40.5 9.5t39.5 10.5z" />
<glyph unicode="(" horiz-adv-x="360" d="M434 1272q0 -1 2 -2l4 -2q8 1 19 -3t14 -5q43 -28 41 -48q0 -8 -6.5 -22t-7.5 -19q-1 -2 -6 -6.5t-7 -7.5q-6 -1 -10.5 -3.5t-7.5 -5t-7.5 -8t-6.5 -7.5l-6 -5q-6 -4 -7 -6q-7 -6 -18 -19t-14 -16q-8 -11 -23 -22q-4 -12 -19.5 -29t-15.5 -18q-5 -6 -21.5 -28t-25.5 -32 q-6 -10 -22.5 -30.5t-22.5 -32.5q-71 -118 -96 -201q-8 -12 -10 -18q-1 -5 -3.5 -15.5t-3.5 -15.5l-6 -18q-20 -86 -26 -131q-11 -73 -11 -158q0 -7 -0.5 -19.5t-0.5 -23t1 -19.5q4 -58 11 -94q5 -24 8 -32q8 -26 43 -80q22 -25 57 -56q3 -2 8 -5.5l10 -7t9 -7.5 q1 -1 4.5 -1.5t3.5 -2.5q-3 -2 -25 -2q-3 0 -8.5 1.5t-8.5 2t-7.5 0.5t-8.5 -1.5t-7 -4.5q-2 0 -8 2.5t-11 1.5q0 -2 -2 -2t-4.5 1t-3.5 1q-2 -1 -3.5 -2.5t-2.5 -1.5h-11q-16 0 -34 6q-15 5 -17 6q-3 1 -10.5 7.5t-9.5 8.5q-32 31 -49 54q-73 118 -78 266q-3 186 51 356 q22 77 45 123q6 14 29 55q54 109 92 158q6 8 17.5 24.5t17.5 24.5q103 125 221 191l3 3t4 3t5 0z" />
<glyph unicode=")" horiz-adv-x="440" d="M223 1182l-16 16q4 8 12 6q1 2 1.5 8.5t2.5 8.5q12 2 17 -4q4 0 7 1.5t3 -1.5q3 2 4 2q8 12 14 20q21 -13 31 -14l9 -6t9 -7q5 -4 17.5 -10t17.5 -10q1 0 10 -14q25 -25 29 -33q6 -8 12 -20t14 -29.5t11 -24.5q37 -92 23 -211q-4 -43 -25 -135q-21 -73 -39 -125 q-2 -6 -43 -115q-25 -50 -57 -104q-71 -116 -162 -234q-61 -78 -94 -104l-4 -4l-4.5 -4.5t-4 -3.5t-4 -3t-4 -1.5t-4.5 0t-4 2.5t-2 8q-1 1 -4 2t-4 2t-1 4t-1 4q-2 2 -7 4.5t-6 3.5q-2 2 -4 6t-4 5q-1 3 -8.5 13.5t-9.5 16.5v13q-5 20 -4 24q0 10 10 25q4 7 20 28 q5 16 20 43.5t19 38.5q5 6 10 17t7 14q25 50 30 59q6 9 9 15t8.5 18t7.5 15q3 4 6 10t6.5 14t5.5 12q44 82 58 117q5 13 21 56.5t24 66.5q16 46 24 88q18 67 21 143q9 59 12 134q0 30 -24 100q0 3 -11 20q-2 2 -2 9l-7 3z" />
<glyph unicode="*" horiz-adv-x="407" d="M68 1227l10 2q2 0 8 -4.5t6 -7.5t2 -3q0 -6 2 -6q2 -2 4 -2q0 -2 4 -10q1 -1 3.5 -3t3.5 -3q1 -2 3 -7t3 -7q6 -12 4 -19q6 -15 20 -41.5t19 -38.5q44 43 90 84q2 2 10.5 9.5t13.5 9.5q2 1 7.5 3t7.5 3q7 4 20.5 12t20.5 12q7 7 16 9q8 0 14 6q4 -2 13 -2q6 2 18 2 q6 2 17 2h6v-2h10q1 0 3 -1q9 -2 7 -7q0 -5 -8 -5q-4 -4 -6 -4t-4 -2t-2 -4q-3 -6 -11 -10q0 -1 -2 -3t-2 -3q-6 -3 -6 -8q-1 -1 -6 -11q-2 -3 -18 -14l-31 -31q-26 -26 -31 -32q-18 -18 -28 -33q36 0 94 -8q10 -2 24.5 -8.5t20.5 -8.5q8 1 14 -12q7 -21 -16 -24 q-4 -1 -8 -1q-1 -1 -5 -2t-6 -2q-4 -4 -8 -4q-10 0 -18 -8q-2 0 -3.5 -1t-2.5 -1q-2 -2 -9 -2q-4 -1 -13 -2t-13 -2q-27 -2 -99 -19q12 -17 17 -26t9 -15.5t17 -23.5q35 -49 48 -82q1 -3 3 -10.5t3 -10.5q4 -4 4 -10q0 -10 -4 -22l-4 -4q0 -1 -1 -3.5t-1 -3.5h-3 q0 -1 -1 -3.5t-1 -4.5q-4 -4 -4 -8l-4 -4q-3 -1 -4.5 0t-2 3t-1.5 3q-4 4 -8 6q-14 5 -19 8q-10 10 -12 11q-21 13 -74 59q-13 13 -18 19t-6 9t-6 12.5t-13 22.5q-5 -7 -23 -36t-30 -45q-36 -40 -49 -52l-8 -8q-2 -1 -4.5 -4.5t-3.5 -3.5q-1 -1 -27 -6h-6q0 2 -2 4 q-1 0 -3 -1t-3 -1q-12 4 -15 4v8q6 12 6 25q3 10 9 20q1 4 2 11.5t2 11.5q8 26 41 98q-8 -2 -25 -2q-6 -2 -14 -2h-12q-1 1 -3 2t-2 2q-3 1 -11 4.5t-11 5.5q-18 23 -21 33q2 9 3.5 12t2.5 7t4 5.5t5 3t9.5 4.5l12.5 5q58 28 105 45q-12 24 -15 51q-4 6 -4 21q0 3 -1 10 t-1 10q-4 12 -4 19q-2 6 -2 20q2 6 2 21v2v2q1 1 2 3t2 3l4 4v4q0 6 11 33z" />
<glyph unicode="+" horiz-adv-x="468" d="M-25 629q1 0 4 -1t5 -1q21 2 73 12.5t84 13.5q16 59 49 115q7 20 46 78q8 8 12 10q9 18 22 16q1 0 2.5 -1.5t3.5 -2.5q1 -1 4.5 -1t4.5 -1q14 -3 16 -2q4 -6 16 -10q3 -3 16 -12t17 -15q17 -26 17 -34q0 -1 -1 -4t-1 -5q-5 -5 -5 -6q-2 -2 -2 -7t-2 -7q-3 -5 -4 -15 t-4 -14q-4 -12 -8 -18q-4 -16 -4 -17q-2 -6 -8 -16.5t-6 -15.5q2 -4 4 -5t6.5 0t5.5 1q5 -5 6 -5h27q2 0 5 -1t5 -1q12 -2 30.5 -3.5t22.5 -2.5q7 -1 18 -4t15 -4q7 -1 57 -14q-2 -2 -18 -2h-23q-6 -4 -6 -17q-4 -3 -20 -4.5t-19 -5.5q-14 -4 -41.5 -5t-29.5 -1h-5 q-11 -2 -63 -8q0 -1 -4 -1l-2 -1q-6 -6 -12 -15q-1 -5 -9.5 -17.5t-7.5 -19.5q-12 -12 -22 -32q0 -2 -4 -2q1 -4 -1 -8t-6 -9t-6 -8h-4q1 -4 -1 -8.5t-6.5 -10t-6.5 -8.5q-3 -2 -6.5 -6t-8.5 -9.5t-8 -8.5q0 -8 -6 -8q-3 -10 -12 -15q3 -5 -6 -18q-5 -1 -8 -3.5t-6.5 -8 t-4.5 -7.5l-1 1q0 3 -1 4q-1 0 -3 -1.5t-3 -0.5q2 5 -4 16q-1 -2 -4 -10t-6 -11q-2 -4 -6 -6q-1 -2 -0.5 -5.5t-1.5 -6.5q-3 0 -6.5 -1t-6.5 -1q-3 21 -4 43.5t-1 37t2 41t2.5 34.5t4.5 38t4 33q-5 0 -18.5 1t-19.5 1q-9 0 -9 -4q-8 0 -24.5 2t-24.5 2q-30 24 -35 41l-4 8 q1 1 2 5.5t2 5.5z" />
<glyph unicode="," horiz-adv-x="313" d="M29 -174q-10 6 -8 17t9 24t22 35q7 10 11 16q3 5 9.5 16t10.5 17t9 16t8.5 19.5t5.5 19.5q-5 -1 -13.5 -8t-14.5 -8q-6 1 -14.5 -0.5t-12.5 -1.5q-15 3 -26 24q0 17 -5 27q0 5 -5 14t-5 10q-1 4 6 31q4 10 11 22t15 25t11 19q11 0 19 8q55 5 73 0q35 -4 52 -21q1 0 2 -2 t2 -2t7.5 -5.5t8.5 -10.5q13 -20 18 -49t-2 -58q-8 -12 -8 -16q-2 -4 -2 -12q-1 -2 -4 -7.5t-4 -7.5q-4 -12 -6 -16q-2 -3 -10 -12t-9 -15q-6 -5 -18.5 -21t-21.5 -22q-7 -7 -13 -10q-2 -1 -5.5 -2t-4.5 -2q-4 -3 -16 -14.5t-21 -14.5q-3 -4 -9.5 -8.5t-8.5 -7.5 q-3 -2 -9.5 -5t-9.5 -5q-6 -3 -11 1.5t-13 2.5z" />
<glyph unicode="-" horiz-adv-x="348" d="M66 688q4 1 5 3t0 7l-1 4q6 17 4 23q2 2 4 2t5 -1t5 -1q4 0 12.5 1t12.5 1q25 5 38.5 8.5t17 5.5t17 4t41.5 5q7 0 19 2q43 5 45 6q3 -3 4 -2q75 4 104 -11q1 0 4 -2t5 -2q3 -2 8.5 -2.5t7.5 -1.5q1 -1 8.5 -6.5t13.5 -5.5q1 -4 6.5 -8t6.5 -8q1 -2 6 -7q0 -2 -1 -4 t-1 -4q2 -1 15 -7t18 -11q-4 -4 -13 -7t-10 -7q0 -2 1 -5t1 -4q0 -5 -8 -10q-1 -1 -4.5 -1t-5.5 -1q-4 -1 -8.5 -7t-8.5 -7q-3 -1 -28 -6q-9 0 -28.5 1t-29.5 1q-5 -1 -14 -3.5t-14 -3.5q-4 0 -12 1t-11 1q-7 0 -31 -6q-24 -3 -28 -4q-7 -1 -21 -2t-20 -2q-26 -2 -37 -6 q-3 -3 -7.5 -3t-8 1.5t-8.5 5t-7 4.5l-20 15q-6 3 -11 8l-8 8h-6q-2 2 -4 5t-3.5 5t-4.5 3.5t-6 2.5q-2 4 -2.5 17.5t-3.5 17.5z" />
<glyph unicode="." horiz-adv-x="245" d="M209 113q1 -8 0.5 -15.5t-0.5 -13.5q-1 -3 -3 -8t-3 -9t0 -8q-4 -6 -4 -16l-9 -18q0 -1 -2 -2q-3 -2 -2 -3q-3 -10 -4 -10l-10 -20q-3 0 -6 -2.5t-7.5 -6.5t-8.5 -6q-2 -5 -9 -8q-1 0 -7 -4t-7 -4q-6 -1 -13 4t-14 4q-5 2 -13 2t-17 -1t-13 -1h-2q-2 0 -6 2 q-2 -1 -4.5 -1t-5.5 -1h-2l-6 43q-3 17 -2.5 29.5t2 19t6.5 21t8 24.5q0 1 31 56q18 36 20 39q2 1 6 5t6.5 5t6.5 0q4 -2 12 -2l27 -4l4 -6l4 2q24 -6 41 -23q4 -8 6 -14q3 -21 0 -49z" />
<glyph unicode="/" horiz-adv-x="518" d="M653 1266q0 -5 3.5 -15t2.5 -18q-4 -4 -4 -8q-2 -2 -2 -6q-3 -2 -6.5 -10.5t-5.5 -10.5q-1 -3 -5.5 -10.5t-4.5 -11.5q-4 -3 -9.5 -13t-7.5 -12q0 -3 -2.5 -6t-3.5 -6q-4 -4 -8 -15.5t-8 -15.5q-1 -5 -5 -12.5t-5 -12.5q-6 -5 -12.5 -18.5t-8.5 -17.5q-2 -2 -4.5 -6 t-3.5 -5q0 -1 -1 -3t-1 -3h-2v-6q-3 -1 -6 -7t-6 -7q0 -4 -3.5 -10t-3.5 -9q-2 -1 -4.5 -5.5t-5.5 -6.5q-3 -13 -9.5 -24t-16 -22t-13.5 -18h-2q-3 -9 -6 -12q-2 -9 -12 -22q-3 -7 -12 -21.5t-13 -21.5h-2q-1 -3 -6 -13q-3 -2 -7 -11t-7 -11l-6 -12q0 -1 -2 -3t-3 -4 q-2 -2 -7 -14.5t-11 -17.5q-1 -7 -7 -15.5t-7 -9.5q-1 0 -2 -3q-1 -1 -1 -1.5t-1 -1.5v-2q-1 -1 -4 -5t-5 -5q0 -6 -4 -12t-4 -7q-1 0 -2 -1t-2 -1q-3 -9 -13.5 -28t-13.5 -33q-2 0 -5 -4t-5 -5q1 -4 -4 -14q0 -2 -2 -5t-2 -5q-2 0 -6 -4q0 -5 -3.5 -10t-4.5 -7q-2 0 -2 -6 q-2 0 -5.5 -4t-5.5 -4q0 -6 -2 -6v-4q-2 -1 -4 -6t-4 -6q-2 -2 -6.5 -12.5t-9.5 -12.5q0 -4 -4 -12q-4 -3 -9.5 -13t-7.5 -12v-6q-4 -2 -6.5 -8.5t-5.5 -7.5q-2 -11 -10 -25.5t-10 -21.5q-1 0 -1 -1.5t-1 -1.5q-1 -4 -4 -8t-3 -6q-2 -2 -3.5 -9.5t-4.5 -8.5q-2 -2 -2.5 -4.5 t-1 -4.5t-2.5 -2q0 -3 -2 -5.5t-2 -4.5q-1 -1 -1.5 -3t-1 -3.5t-1.5 -1.5q-16 -37 -25 -49v-4q-3 -7 -2 -10q-7 -7 -8 -11h-2q0 -2 -10 -26q-2 -2 -3.5 -7t-4.5 -6v-8v-2h-3q-1 -2 -1 -5.5t-1 -4.5l-4 -2v-6q0 -2 -2 -8t-2 -9q-2 0 -2 -2q-3 -9 -13 -30.5t-13 -34.5 q-5 -2 -8 -6t-6 -13t-3 -10q-4 0 -4 -2q-3 -2 -8.5 -10t-9.5 -10q0 -4 -2 -7t-5 -7t-4 -7h-4q0 -2 -6 -8q0 -6 -6 -12l-2 -1q-2 -2 -6 -1l-4 4q-5 0 -29 4q-2 5 -9.5 6t-8.5 2q-2 -2 -13 -2q0 -6 -2 -6q-4 9 -8 -2q0 2 -2 2q-1 4 -1 10t-1 8q0 27 2 33q4 28 12 51 q2 9 8.5 25.5t8.5 25.5q4 4 4 15q12 26 28 76.5t21 62.5q2 2 2 4q2 3 4 12.5t4 12.5q1 3 3.5 8t2.5 10q2 1 3.5 5t3.5 5q1 4 4 10.5t4 10.5q2 7 7.5 20t6.5 21h2q3 9 9.5 23.5t9.5 23.5q3 4 9 17.5t9 17.5q0 5 1 8t1 4q3 4 8 15.5t8 15.5q1 2 9 21t14 26q-2 0 -2 2q1 0 2 2 t2 2q0 8 4 12q0 9 8 17q1 7 7 18t8 16q2 1 3.5 5.5t2.5 5.5q16 37 24 49l6 12l3 4v4q2 0 2 2q1 2 3 5.5t3 5.5q1 0 2 3t2 3q0 6 4 10q1 1 2 4t2 4q2 5 5.5 11.5t4.5 7.5v2q2 3 6 10.5t7 9.5q2 8 9.5 20.5t8.5 14.5q1 0 2 3t2 3v2q2 2 5.5 10.5t6.5 10.5q1 4 5.5 10.5 t5.5 11.5q1 0 1 1t1 1v2q7 7 16 29h2q1 1 2.5 4t3.5 6q0 1 3 4.5t3 5.5q1 1 1 2t0.5 1.5t2.5 0.5q0 5 4 10t5 7q4 8 16 26t16 27q4 4 9.5 14.5t9.5 14.5v2q3 3 8 10t8 10q4 10 19 29q3 10 13.5 25.5t14.5 23.5q6 6 14 19t11 16q1 3 3.5 5t2.5 3q1 3 6.5 11t7.5 14q0 2 2 2 q11 19 27 35q1 0 1 2t1 2q0 2 2.5 4t3.5 4q5 5 16 19t17 20v2q4 3 7.5 3t7 -1.5t5.5 -1.5q3 -4 5 -2q1 -3 6 -6t6 -5t6.5 -6.5t5.5 -7.5q6 0 6 -8q7 0 11 -8q0 -2 2 -2q0 -4 3 -8t3 -7q3 -1 6 -6.5t6 -7.5q1 -5 12 -16z" />
<glyph unicode="0" horiz-adv-x="751" d="M662 1374q2 -4 9 -10.5t7 -13.5q5 0 8 -2t7.5 -9t4.5 -8q1 -2 11.5 -13t11.5 -20q2 -2 5.5 -4t4.5 -4q-1 -9 -3 -29.5t-3 -27.5q0 -3 -1 -7.5t-1 -6.5q-2 -4 -2 -11q-5 -5 -4 -8q-2 -4 -4 -12.5t-2 -9.5q0 -2 -2.5 -4.5t-1.5 -4.5q-10 -3 -24 -15t-19 -15 q6 -15 13.5 -27.5t20.5 -46.5q1 -7 5.5 -20t5.5 -19q2 -4 5 -14.5t5 -14.5l10 -10q0 -2 -1 -5.5t-0.5 -6t3.5 -4.5q0 -3 2.5 -12t1.5 -15q1 -6 4.5 -34.5t10.5 -37.5q-4 -18 -5 -20q0 -2 2.5 -4t2.5 -4v-33q0 -6 -2.5 -18.5t-2.5 -18.5q-2 -64 -22 -160q0 -7 -6 -16 q0 -2 -1 -5t-1 -5q-2 -6 -2.5 -18t-1.5 -15q0 -5 -6 -29q0 -9 -13 -26q-3 -21 -14 -43q-5 -14 -17 -36t-16 -32q-10 -22 -27 -53q-7 -10 -22 -33t-23 -35q0 -10 -14 -24q-2 -3 -5.5 -9t-5.5 -9.5t-2 -7.5t3 -7q-4 -5 -20.5 -29t-28.5 -32q-2 0 0 -1.5t2 -3.5q-2 0 -3.5 -2 t-4.5 -2q-6 -10 -17 -21.5t-18 -18t-23.5 -20.5t-21.5 -18q-6 -2 -17.5 -11t-21.5 -11q-14 -12 -66 -33q-2 -2 -10 -2q-3 -1 -6.5 -4t-6.5 -4.5t-7 -1.5q-18 -6 -43 -6q-2 -1 -7 0.5t-6 1.5q-21 -4 -39 0q-67 9 -112 57q-5 4 -15 16t-16 17q-28 25 -43 63q-4 5 -9.5 15.5 t-8.5 13.5q-27 67 -31 180v62q0 106 18 194q2 6 6 24.5t9 27.5q21 79 51 135q43 80 59 106q15 22 72 98q99 125 252 252q50 37 96 72q10 6 50 26t59 33q4 0 9.5 -1t10.5 -1q12 -12 21 -8zM557 1071q-6 -8 -14 -16q-1 -1 -3 -2t-3 -2q-9 -7 -28 -22.5t-28 -22.5 q-8 -6 -22 -20t-21 -19q-14 -19 -67 -72q-14 -12 -35.5 -37.5t-32.5 -36.5q-5 -10 -12 -19.5t-18 -22t-15 -17.5q-7 -8 -20 -30t-23 -32q-77 -147 -106 -243q-2 -14 -7.5 -44.5t-8.5 -51.5t-1.5 -48t10.5 -45q13 -25 36.5 -40t49.5 -11q30 6 56 19q12 5 22.5 13t23 19 t21.5 17q11 9 21.5 20t25.5 28t21 23q2 3 16 17q3 4 7.5 11t7.5 11q19 24 55 86q10 15 24 43q20 33 46 84q11 26 16 43q72 210 51 412q0 5 -6 35q-8 -3 -20.5 -13.5t-18.5 -13.5z" />
<glyph unicode="1" horiz-adv-x="438" d="M494 1337h2q2 -1 7 -3t7 -3t5.5 -2t4.5 -2q21 -9 33 -27q0 -1 1 -4.5t1 -5.5l2 -2q4 -4 7 -13.5t7 -12.5q7 -24 7 -54v-2v-18q-5 -5 -5 -8q-1 -4 -1 -15t-1 -16q0 -13 -2 -19q-6 -12 -6 -24v-8q-6 -15 -12 -27l-2 -2v-4l-2 -4q-8 -21 -23 -55v-5h-2q-14 -23 -18 -38 q-2 -7 -8 -18t-7 -15l-2 -4v-2v-2v-2q-3 -2 -4.5 -5t-2 -7t-1.5 -5q-1 -2 -3 -4t-3 -4q-1 -1 -2 -4.5t-2 -5.5q0 -2 -1 -4.5t-1 -3.5q0 -2 -1 -5.5t-1 -5.5q-1 -1 -5 -7t-5 -9q0 -1 -1 -2t-1 -2q0 -4 -2 -4q-1 -1 -3.5 -3t-3.5 -3q-2 -2 -8 -19q-2 -15 -16 -33v-8 q-5 -3 -10 -15.5t-9 -15.5q-3 -9 -11 -21.5t-11 -18.5q0 -2 1 -5t1 -4q0 -2 -2 -2q-2 -2 -2 -4v-2l-8 -16q-2 -2 -2 -4q0 -5 -5 -15q-4 -8 -2 -14l-2 -2q-3 -5 -8 -17.5t-8 -17.5q-1 -2 -3.5 -4.5t-2.5 -3.5q-2 -2 -2 -6q-4 -17 -10 -21q-1 -6 -5 -14.5t-4 -13.5 q-2 -1 -8 -7q0 -6 -4 -22q-2 -2 -2 -4v-4q-13 -26 -22 -53q-3 -9 -11.5 -28t-11.5 -28q-4 -4 -4 -6q-2 -9 -8 -23t-8 -20q-1 -1 -2.5 -3t-2.5 -3v-4q-18 -40 -20 -49q-2 -2 -2 -4v-5q-5 -15 -19 -36q0 -5 -2 -7v-6q0 -2 -4 -2q-2 -8 -7.5 -18.5t-6.5 -13.5q-1 0 -2.5 -2 t-3.5 -1q-1 -9 -19 -36q-4 -4 -4 -9q0 -2 -2 -4l-4 -4q0 -4 -4 -12q-2 0 -4 -1.5t-4 -0.5q0 -3 -1 -7.5t-1 -6.5h-6q-1 -6 -5.5 -14t-5.5 -13l-2 -4q-5 -2 -8 -12q-5 -3 -10.5 -16t-11.5 -17l-2 -2q-1 0 -0.5 1.5t1 3.5t-0.5 3q-4 4 -4 8q0 -4 -3 -4q-2 -2 -6 -2 q-6 -24 -6 -25q0 -2 -2 -2q0 -1 -1 -1t-1 -1l-4 -2q0 -3 -1 -9t-1 -9q-25 -49 -44 -4q-18 44 -12 103q0 5 1 9q0 11 -2 17h2q7 91 16 137q0 8 2 12q9 59 33 140q2 2 2 6t4 12q3 10 10 28.5t10 28.5q0 2 3 8v3q3 4 7 14t7 14v2v6q4 13 14.5 36.5t14.5 33.5q9 33 24 64 q5 10 8 22q17 39 19 43l6 17q7 16 8 24q10 18 21 43q2 15 14 39l2 2v2q0 2 2 4.5t2 3.5l4 4q1 3 6 23q19 39 37 69q0 5 4 9q1 5 5 14t5 14q-2 -2 -7 -4t-7 -4q-3 1 -8.5 -1.5t-7.5 -2.5h-4l-2 -2q-3 -1 -11.5 -3t-11.5 -3l-24 -6q-4 0 -12.5 -1t-12.5 -1q-26 -4 -37 4l-4 4 l-4 2h-4q-2 0 0 2q-2 0 -4 2h-17l-2 2q-2 2 -8 5t-8 5q0 4 4 4h2q0 5 -6.5 8t-5.5 7l-2 2q0 5 -2.5 14t-1.5 16q3 1 5 2t3.5 2.5l3.5 3.5t4 3h2q2 0 4 2q0 1 1 3t1 3l12 6q2 0 2 2v4v4h3q2 0 10 8q4 4 4 5v2l4 2q5 3 15.5 9t15.5 9q2 0 6 4q0 2 2 2l57 19q56 17 78 28 q26 15 43 29q4 3 11.5 8t11.5 8q3 3 13 14t18 18.5t16 12.5l2 3l2 2l12 18q0 1 1 3t1 3q5 6 27 39l2 2h2q7 0 10 6q1 -1 5 -1t5 1q3 0 11 4z" />
<glyph unicode="2" horiz-adv-x="813" d="M483 113q-19 0 -59 -4q-8 0 -26 -5t-23 -6q-1 0 -3 1t-3 1q-12 -2 -35 -10q-4 -1 -15.5 -6t-17.5 -6q-21 -5 -43 -12q-23 -8 -37 -15q-13 -7 -20.5 -13t-22.5 -13q-25 -10 -49 -23q-30 -11 -49 -16q-25 -5 -29 -6q-6 -2 -29.5 -6t-33.5 -9q-18 6 -19 6q-8 6 -20.5 18 t-16.5 15q-3 5 -14 18.5t-14 22.5q-2 1 -4 5.5t-4 6.5l-9 9t-8 10q-1 1 -3 5.5t-5 4.5l4 12q12 0 14 4q1 4 3 8t2 7q1 0 2.5 1t3.5 1q0 4 3.5 10.5t4.5 11.5q3 2 7 8.5t7 8.5q2 7 8 15t7 13q8 8 19 26.5t15 23.5q36 60 105 147q0 2 1.5 4t0.5 4q9 6 17.5 16.5t18 24.5 t13.5 19q41 49 119 147q7 9 30.5 36t34.5 42q44 44 60 67q53 66 75 91q6 7 34 42t40.5 51.5t32.5 46.5t33 56q20 45 24 62q5 9 8.5 25t-0.5 28q-1 3 -4.5 9.5t-3.5 10.5q-31 -4 -47 -18q-10 -1 -22 -12t-17 -13q-18 -19 -36 -44.5t-40 -59.5t-34 -51q-2 -9 -6 -17.5 t-11.5 -20.5t-9.5 -16q-7 -20 -14 -30q-1 -8 -7.5 -24t-7.5 -23q0 -1 1 -5.5t1 -5.5q-1 -3 -2.5 -4.5t-3 -2t-2.5 -1.5q-4 -8 -10 -14q-1 -1 -4 -2t-4 -2q-12 -11 -29 -15q-1 0 -2 -3q-1 -1 -1 -1.5t-1 -1.5q-8 -2 -23.5 -3t-21.5 -3q-3 1 -8.5 2.5t-8.5 2.5t-6.5 3t-5.5 6 q11 113 60 220q38 82 73 129q36 56 82 90q3 7 15.5 15t15.5 11q13 7 19 15q12 5 32.5 20.5t36.5 20.5q29 15 63 23.5t71 5t59 -24.5q6 -1 13 -9t13 -10q3 -8 14 -23t13 -26q5 -7 8 -18t4.5 -20t3 -23.5t2.5 -20.5q-6 -13 0 -22q-1 -9 0 -26t0 -26q-2 -16 -10.5 -42.5 t-9.5 -30.5q-13 -46 -31 -72q-3 -5 -9 -16.5t-9 -16.5q-2 -2 -6 -10q-10 -13 -17 -25q-2 -6 -10 -18q-1 -2 -4 -5t-4 -5q0 -4 -2 -6q-2 -4 -11 -15t-12 -18q1 -1 0 -1l-2 -1q-2 -6 -10 -14.5t-10 -14.5q-1 0 -2.5 -1t-3.5 -1q0 -1 1 -2t1 -2q-12 -13 -43 -54t-52 -61 q-1 -3 -5.5 -8t-4.5 -10h-4v-4q-6 -3 -13 -13.5t-12 -13.5q-2 -2 -5 -5.5t-5 -5.5t-6 -3q-6 -15 -20 -29q-2 -8 -15 -20.5t-16 -16.5q-2 -2 -4.5 -5.5t-5 -5.5t-7.5 -3q-9 -22 -22 -33q-1 -2 -5.5 -5.5t-6.5 -4.5q-1 -1 -7.5 -8.5t-11.5 -11.5q-2 -2 -5 -6.5t-5 -6.5 q-25 -18 -66 -69q-49 -55 -51 -58q-2 0 -5.5 -1t-4.5 -1q-5 -8 -19.5 -22.5t-19.5 -24.5q-8 -4 -12 -10q-2 2 -5.5 -1t-6.5 -3q-1 -4 -3.5 -7t-7 -6.5t-6.5 -5.5q3 -1 14 4q29 14 40.5 17.5t18 1t21.5 -4.5t52 1q134 16 239 -21q0 -4 2 -4q7 -1 20 -6.5t19 -7.5q2 -1 7 -2 t7 -2q3 -1 8 -5.5t7 -4.5q4 -2 35 -14.5t43 -26.5q16 -14 10 -33q-2 0 -3 1t-3 1q-3 -4 -12 -5t-11 -5q0 -2 2 -5.5t2 -5.5q-19 10 -37 -8q-1 1 0 3.5t0 4.5q-12 -4 -18 -8q-12 2 -34.5 9.5t-31.5 9.5q-55 14 -90 2zM500 143q-1 -2 0 -3t0 -3q2 0 2.5 2t1.5 2z" />
<glyph unicode="3" horiz-adv-x="706" d="M500 575q2 27 -11 80q-60 0 -96 -10q-12 -4 -24 -4q-2 0 -5 -1t-4 -1q-8 -4 -10 -4l-22 -6h-9q-1 0 -4 1t-4 1q-42 -5 -61 4q-15 0 -27 8l-10 4l-14 19l-11 8l-4 6v-2l-2 4q-16 0 -19 12.5t1 24.5q8 8 16 12l15 6l24 23q12 11 107 90v-2l24 20l27 25l22 18v-2 q40 38 93 103l40 57q30 59 31 64q-57 3 -112 -33q-11 -6 -33 -23v2l-17 -14l-26 -25l-13 -6h3l-9 -14l-8 -8l-12 -13h2q-1 -1 -3 -4l-9 -13v1l-25 -14h-8q-1 0 -3 -1t-3 -1q-9 -3 -39 2q-2 0 -7.5 1t-7.5 1q-8 4 -36 28l-13 11q-2 12 -16 26q0 9 -4 13q-3 3 0 14q2 6 12 16 q2 6 11 18.5t12 18.5v-2q0 2 6 8q40 56 96 92l47 31l25 10l24 13q69 20 115 22q51 3 98 -18l15 -8h-2q8 -4 10 -4q18 -9 24 -15v2q23 -11 29 -22q3 -1 19 -23l8 -12q1 -3 6.5 -14.5t7.5 -18.5l2 -18l2 -21q5 -21 2 -55q0 -1 -1 -4t-1 -4q-1 -3 -3 -10.5t-3 -10.5 q-2 -2 -2 -12q-22 -59 -76 -127l-12 -14l-27 -37l-24 -21l-23 -22q-16 -13 -20 -21q3 -5 14 -12l14 -6q33 -16 66 -49l4 -8l16 -19q0 -2 1.5 -5t4.5 -10t5 -14h-2l6 -8q0 -2 6 -14l4 -19q0 -2 2 -6h-2l10 -14v-18v-23l-2 -33q0 -4 -2 -12t-2 -12q-4 -12 -4 -17 q-6 -12 -6 -26q0 -2 -2 -8.5t-2 -8.5q-2 -6 -2 -18q-6 -6 -6 -14q-3 -6 -3 -11q-6 -25 -18 -37v2q-20 -77 -66 -157l-4 -8q-15 -15 -20 -27l-8 -12l-39 -52q-30 -45 -74 -86q-20 -15 -31 -26l-45 -37v2q-13 -11 -39 -31q-24 -12 -39 -18q-24 -6 -36 -6q-3 0 -8 -1t-7 -1 q-10 -2 -37 -2h-26l-31 8q-33 6 -57 16q-19 8 -37 21l-14 14v-2q-39 30 -60 61l-10 15q-27 41 -29 45q-15 25 -22 76v-2q-11 38 -4 120q5 52 26 113v-2q43 123 80 182l14 21q3 4 11 14t16 19t18 18q5 5 21 10.5t25 5.5l14 -14l8 -6q4 -4 12 -4l17 -17v2l20 -14q0 -6 8 -18 q13 -21 15 -39l-2 -21l-19 -16v2q-2 -2 -2 -12l-4 -9l-12 -14h2l-6 -12q-4 -8 -4 -10q-8 -19 -13 -27l-6 -10q-11 -22 -16 -37q0 -1 -1 -3t-1 -3q-5 -20 -6 -23q0 -4 -3.5 -10t-3.5 -8q-3 -8 -6 -19.5t-4 -15.5q-8 -31 -10 -49q-6 -29 -6 -82q0 -73 31 -101q4 -4 24 -16 q7 -10 19 -10q7 0 30 14v-2l15 12q31 19 84 76l18 19l21 24h-3l54 64q1 1 4 6t4 6q3 5 9 14.5t9 14.5v-2q0 1 1 4t1 4q0 4 2 6q0 4 11 12q10 10 6 9q-1 0 -2 -1l-2 -2q24 48 61 168q18 56 23 94z" />
<glyph unicode="4" horiz-adv-x="675" d="M248 1192q5 -1 9.5 2.5t4.5 5.5q1 0 6.5 -1.5t9 -2t7.5 1.5q2 -2 9.5 -4t10.5 -4q15 -2 47 -29q25 -25 25 -35q-1 -5 -6 -15t-6 -13q-1 -2 -2.5 -7.5t-2.5 -7.5q0 -13 -15 -66t-19 -61q1 -8 -6.5 -18t-8.5 -12q-1 -1 -1 -3.5t-1 -4.5q-2 -4 -3 -11t-3 -10 q-3 -5 -10.5 -18t-11.5 -19q-1 -2 0 -4t0 -4q-2 -7 -6 -16t-11 -20.5t-10 -18.5q2 -4 14 2q83 12 125 14q83 153 107 213q6 4 13 16.5t13 16.5q2 4 4 12.5t5 13.5t8 9q1 1 3.5 8t5 10.5t7.5 5.5q6 20 26 51.5t25 42.5q8 13 19.5 37t19.5 37q61 92 74 111q0 1 16 22 q11 -6 15 -2q8 0 14 -6q1 -1 3.5 -4.5t4.5 -5.5q2 -1 4.5 -1t3.5 -1q2 -1 5.5 -7t5.5 -8q3 -6 14 -10q3 -9 -1.5 -26t-0.5 -25q-2 -4 -35 -111.5t-47 -121.5q3 1 -22 -62t-53.5 -130.5t-35.5 -76.5q-4 -8 -9.5 -20.5t-9 -20.5t-10 -18t-14.5 -19q6 5 -25 -64t-68.5 -144.5 t-47.5 -92.5q0 -2 -2 -3q-1 0 -2 -1q1 -12 -7 -31.5t-9 -29.5q-1 -1 -2 -3t-2 -3q-3 -2 -3 -4q-2 -4 -6 -12.5t-6 -12.5q-1 -3 -4 -7t-4 -5q-1 -2 -30.5 -79.5t-33.5 -92.5v-6q2 -6 -13 -34.5t-11 -37.5q0 -20 -3.5 -62t-8.5 -51q-6 -1 -9.5 -4.5t-6 -9t-5.5 -8.5 q-3 5 -7 11q-1 2 -1 3q-1 1 -1 -2v-3q-1 -7 -1 -13q-2 -1 -4 -4t-4 -3q-4 1 -5.5 2.5t-3 5t-2.5 5.5q-2 3 -8.5 11t-10 12.5t-8 12t-7.5 14.5t-4 15q-1 3 -6 16.5t-5 20.5q0 2 -1 4.5t-1 3.5q-8 29 0 84q-1 35 9.5 92.5t11.5 69.5q9 9 -2 19q6 16 18 50.5t19 51.5q0 6 2 8 l4 4q-4 23 6 33q3 6 2 8q4 15 16.5 47t16.5 49q1 2 5.5 10t5 11t-0.5 12q-18 -3 -50 -12t-46 -12q-3 -1 -9.5 -3.5t-9.5 -3.5l-30 -6q-5 -1 -15 -10t-20 -8q-8 4 -12 12t-6.5 17.5t-4.5 13.5q-12 16 -26 22q-18 63 -43 132q-5 0 -5 4q2 3 6.5 7.5t7.5 8t5.5 8.5t3.5 10 q18 24 39.5 79t32.5 73q4 8 4 10q8 19 27 54.5t26 50.5q16 24 16 34q1 1 2 3t2 2q2 4 6.5 12t6.5 12q7 5 16 23q3 9 14 27t15 26z" />
<glyph unicode="5" horiz-adv-x="720" d="M834 1137q-2 -1 -7.5 -0.5t-5.5 2.5l2 -6q-7 -7 -10 -7q-6 0 -12 -6q-11 0 -15 -2q-1 0 -3 -1t-3 -1h2q-12 -4 -45 -4h-12q-51 0 -78 -4h2q-6 -2 -16 -2h-21q-1 0 -3.5 -1t-4.5 -1h-14q-4 -2 -17 -2q-2 0 -6 -1t-6 -1q-1 0 -4 -1t-4 -1q-12 -4 -31 -4q-28 -7 -30 -7 q-11 0 -15 -2l-4 -8q-2 -3 -5 -10t-5 -10q-4 -8 -4 -10l-4 -13l-15 -30q-6 -6 -6 -11l-24 -45l-11 -12q-8 -19 -30 -55l-17 -29q6 0 16 -1t13 -1q39 0 53 -2q26 -3 43 -10q52 -15 68 -27q8 -6 15.5 -11.5t10.5 -8t6 -4.5t5 -3q17 -12 28 -24l19 -31q0 -4 6 -22h-2l8 -13 q0 -1 1 -3t1 -3q0 -4 2 -6l4 -25v2l4 -22q4 -12 2 -21l-2 -28v-31q0 -4 2 -6l-2 -19q0 -1 1 -3t1 -3l-1 -4q-1 -5 -1 -10q-4 -8 -4 -23q0 -4 -2 -12t-2 -12l-10 -29l-10 -33q-2 -2 -2 -10q-1 -2 -2 -3.5t-2 -2.5t-1 -2q-3 -17 -10 -27l-8 -18q-8 -12 -10 -18l-4 -13 q-8 -8 -11 -14q-14 -31 -40 -74l-15 -24l-8 -9l-14 -12h2q-25 -31 -109 -115q-6 -2 -12 -8l-4 -10l-21 -12v2l-14 -13l-21 -16l-16 -10q-6 -4 -31 -17q-20 -15 -63 -24h2q-28 -8 -57 -8h-21q-4 0 -10.5 1t-9.5 1q-28 3 -45 12q-8 4 -13 4l-39 21q-4 4 -6 4l-10 8q0 4 -4 8 l-6 4l-8 8q-40 47 -56 93q-16 40 -18 69l-2 17q-6 25 -2 55q3 188 145 338l25 -6q22 -10 51 -39l6 -6l6 -11l4 -8v2q6 -12 6 -37l-2 -6q-8 -5 -8 -10q-2 -2 -2 -10q-20 -41 -45 -86v2q-4 -13 -8 -13l-2 -6q-13 -33 -17 -71q-3 -17 0 -33v-10l5 -29l2 2q4 -18 11.5 -26.5 t23 -17t24.5 -15.5q17 -3 41.5 6.5t42.5 21.5q10 8 56.5 42t70 58t43.5 58v-2l12 29q20 35 23 47l10 22q20 45 21 53q13 47 18 89q7 51 -4 84q-15 35 -25 47h-39q-10 -5 -34 -9l-27 -6l-8 -4l-8 -4q-4 -2 -9 -2l-14 -8q-2 -2 -6 -2l-35 -19l-39 -20q-6 -3 -6 -4l-12 -10 q-7 -7 -15 -11q-21 -2 -51 13l-12 6q-21 14 -29 30h2l-10 11q0 2 -4 10h2l-8 14l2 17q0 1 -1 3t-1 3v-2q-2 6 -2 16l12 8q2 3 2 11q0 6 2 10q19 44 29 59l16 27l18 28l-1 -2l14 23l18 29l37 53l12 22l21 31q2 3 8 12.5t8 12.5l17 26l35 54q4 6 14 23.5t18 27.5q-2 3 -2 24 q0 1 -1 10.5t-1 10.5q19 17 24 15q1 0 3 1q28 11 50.5 18.5t41.5 11t29 5t28.5 2.5t24.5 2q73 12 162 8h37q5 0 13.5 1t14.5 1t10 -2h-2q8 -4 11 -4l8 -4l14 -10l8 -4q3 -2 1.5 -3t-4 -6t-1.5 -10h-2q8 -12 0 -22q-2 -2 -0.5 -8.5t0.5 -8.5v-12q0 -4 4 -8q13 -9 2 -16 q-11 -12 -8 -15q-2 -12 2 -12z" />
<glyph unicode="6" horiz-adv-x="649" d="M633 387q-15 -37 -15 -63q-6 -3 -6 -9q-8 -39 -24 -53v-12q-30 -62 -56 -90q0 -6 -2 -8q-1 -2 -5.5 -7t-6.5 -8q-4 -6 -12 -14q-4 -4 -10.5 -12.5t-10.5 -12.5q-6 -6 -8 -10q-4 0 -6 -2t-8 -14q-4 0 -6 -2q-11 -17 -23 -19q-4 -4 -4 -8q-2 0 -4 -1.5t-4 -0.5 q-5 -9 -14 -16t-21 -15l-18 -12q-6 -3 -25 -15t-33 -14q-21 -11 -24 -10q-9 -6 -22 -9.5t-31.5 -6t-26.5 -4.5q-12 4 -17 4q-40 -3 -63 14q-13 1 -26 10t-19 10q-1 3 -6.5 6.5t-5.5 6.5q-9 2 -18 11.5t-15 12.5q-1 1 -4 5.5t-4 7.5q-6 5 -16 16t-13 14q-5 10 -18 35.5 t-21 44.5t-12 39q-1 1 -3 4t-3 4q0 2 1 4.5t1 4.5q-4 5 -5 12t-1.5 18t-1.5 15q-1 2 -2 3.5t-2 2.5t-1 2q-1 5 0 15t0 15q-1 24 -1 36t2.5 40.5t3.5 40.5q3 14 6 29q4 35 28 110q14 68 41 136q7 15 60 102q37 61 63 96q69 96 137 164l22.5 22.5t24.5 26.5q59 61 123 117 q53 48 174 143q2 -1 3.5 0.5t3.5 1.5q12 9 22 9q2 -1 12.5 -8t18.5 -7q22 -22 24 -51q0 -3 -1 -8.5t-1 -7.5q-2 -6 -2.5 -16.5t-1.5 -12.5q-2 -3 -7 -8.5t-8 -11t-3 -11.5q-13 -17 -14 -22q-1 0 -3.5 -1t-3.5 -1q-4 -6 -15 -21.5t-17 -25.5q-5 -5 -17 -25.5t-22 -26.5 q-1 -3 -4.5 -6t-4.5 -6q-4 -2 -9 -9t-9 -9q-16 -25 -31 -33q-3 -8 -15 -19t-15 -14q-6 -13 -11 -14q-1 -4 -16 -19q-4 -8 -8 -12l-6 -6q-2 -1 -3.5 -4.5t-2.5 -3.5q-3 -3 -16.5 -15.5t-18.5 -21.5q-1 0 -2.5 -1t-3.5 -1q-3 -12 -13 -19q-7 -20 -24 -30q-3 -7 -16 -20 t-15 -23q-2 0 -4 -2.5t-4 -3.5q-4 -14 -29 -35q-4 -5 -10 -17.5t-10 -17.5q-1 -1 -3.5 -2t-3.5 -2q-5 -15 -21 -29t-22 -22q-2 -10 -7 -19t-12.5 -19t-10.5 -16l-4 -2q-1 -7 -8 -16.5t-9 -13.5q18 6 58 24q33 11 53 21q32 8 82 18q50 4 65 10q3 0 45 -4t69 -9.5t26 -12.5 q18 -7 36 -46.5t26.5 -75t2.5 -34.5q-2 -23 -10 -74v-10zM459 473q4 26 -2 39q-9 -2 -29.5 -0.5t-34.5 -1.5q-51 -8 -88 -21q-100 -38 -149 -77q-12 -10 -29 -27q-12 -12 -14 -16q-1 -1 -1.5 -9t-2.5 -12q-5 -30 -5 -37q0 -8 -2 -26t-2 -27q0 -3 2.5 -10t3.5 -10 q4 -20 9 -27q4 -14 18 -31q20 -32 51 -37q6 0 16.5 4t14.5 5q6 3 21 8q64 32 141 106q3 7 14.5 22.5t14.5 22.5q4 7 10 23.5t10 23.5q10 24 19.5 62.5t13.5 52.5z" />
<glyph unicode="7" horiz-adv-x="616" d="M102 -16q-4 2 -7 -1.5t-7 -2.5q-1 -4 -6 -8t-6 -7v-14q-2 -1 -2 -5.5t-2 -4.5q1 -3 1 -10.5t1 -10.5q-2 0 -3 -2.5t-3 -3.5q0 -4 1 -8l1 -4q0 -2 -7 -2q3 -6 1 -13t2 -10q-48 21 -62 127v8q-2 3 -2 5.5t1 5.5t1 4t-1 2t-1 2q-4 4 2 10q9 210 84 379q3 16 19 40.5t18 37.5 q1 3 2 8.5t2 7.5q13 30 25 47q1 3 5 8.5t5 8.5q19 50 61 122q3 6 35 60q91 146 111 172q30 53 69 108q2 3 7 11.5t8 15.5t4 14q-59 -7 -232 -34q-54 -20 -114 -13q-5 0 -9 2q-14 0 -18 2q-11 3 -14 9h-6q-29 18 -56 86q-1 1 -3 2t-3 2t0 2q10 3 16 12q8 3 18.5 7t23.5 9.5 t20 8.5q19 8 31 10q17 9 125 49q145 40 303 49q41 0 59 -2q10 0 14 2l2 4q2 1 6 2t5 2l4 8q7 0 21.5 1.5t24 1t15.5 -4.5q16 3 29 0q5 -1 15.5 -7.5t11.5 -6.5q8 -2 24 -10q10 -15 14 -19q1 -5 6 -17t3 -19q-2 -4 -8.5 -10t-8.5 -9q-2 -6 -1.5 -16t-0.5 -17q-1 -1 -1.5 -3 t-2 -3.5t-4.5 -1.5q0 -1 -1 -3.5t-1 -4.5q-15 -12 -26.5 -28t-24 -38t-19.5 -32v-6q-5 -6 -14 -19.5t-14 -19.5q0 -2 -1.5 -4.5t-0.5 -4.5q-12 -13 -30 -39.5t-26 -35.5q-28 -47 -35 -56q-4 -8 -12 -16q-1 -1 -4 -5t-4 -7q-3 -3 -7 -12t-5 -11q-2 -4 -6 -8q-2 -3 -5.5 -8.5 t-6 -9t-5.5 -5.5q-7 -15 -26.5 -42.5t-26.5 -43.5q0 -4 -4 -4q-19 -33 -29 -43q1 -2 -4 -12l-6 -12q-16 -23 -25 -43q0 -5 -4 -10t-4 -9q-35 -51 -80 -133q-7 -10 -8 -16q-5 -6 -14 -22.5t-15 -24.5l-2 -2q-10 -27 -26 -43q-7 -9 -16 -29t-13 -27q-2 -3 -4 -7t-3.5 -5.5 t-4.5 -1.5q-4 -16 -16.5 -44t-14.5 -46q-9 -9 -16 -33q-1 -3 -3 -13t-5 -17t-7 -11q-1 -1 -2 -4t-2 -4q-2 -2 -6 -6.5t-6 -7.5t-2 -7q-4 -8 -8 -29.5t-8 -29.5q0 -13 -7 -20z" />
<glyph unicode="8" horiz-adv-x="710" d="M518 1366h14l3 2q1 0 3 1t3 1q6 0 14 -4l-2 2q26 -6 70 -33l6 -4q12 0 16 -4l4 -6q3 -11 13 -16q1 -4 18 -15h-2l14 -10q2 -4 17 -14q3 -8 8 -11q0 -14 8 -26l10 -17v-12v-6l4 -8l-2 6q8 -11 8 -35q0 -8 5 -18q0 -4 1 -12.5t1 -17.5t-2 -19q0 -8 -7 -11v-24 q-1 -5 -3 -14.5t-4 -17t-5 -11.5q-4 -14 -12 -27h2l-6 -22q-1 -2 -8.5 -19t-16.5 -33q-17 -39 -31 -65q-4 -2 -4 -6l-18 -29l-29 -43l-6 -8v6q0 -6 -4 -10q-6 -6 -12 -8q-1 -1 -1 -3t-1 -4l-19 -20l-6 -2q-7 -6 -17.5 -14.5t-18 -15t-11.5 -11.5l29 -35v-6v2q8 -11 18 -23 l2 -12l4 -8v4q14 -16 28.5 -81t14.5 -101l-2 -27q-4 -55 -10 -80q-3 -14 -23 -82q-4 -22 -32 -71l2 2q-10 -29 -41 -60l-23 -24q-3 -4 -9.5 -12.5t-14.5 -18t-11 -12.5q-12 -17 -20 -23q-7 -9 -25 -20h2l-16 -8h4l-10 -7l-19 -12l-22 -10q4 0 0 -4q-7 -7 -14 -8h-5l-14 -7 l8 3q-5 -5 -14 -5q-3 -2 -13.5 -4.5t-11.5 -3.5l-6 -2q-12 -4 -20 -4q-6 -2 -23 -2q-6 0 -14 -4q-1 0 -4 -1t-4 -1q-28 0 -68.5 8.5t-64.5 20.5q-63 37 -115 139v-2q-52 83 -49 203q2 62 31 151v-2q15 38 32 68q45 72 91 124.5t108 88.5h-2q8 8 16 10v-2q2 0 6 4l-6 14l2 -4 q-20 39 -28 66q-12 38 -9 92q2 26 17 84q18 59 33 98q38 61 59 88v-2q23 37 25 39l55 55l16 15q62 54 121 82l21 10v-2zM172 487h-2h2zM375 526q0 5 -1 4l-1 -2zM379 502l-6 26q-2 0 -2 7l-9 14q-3 18 -18 39q-8 16 -12 16q-4 -4 -10 -6l-17 -10l-12 -4h4q-22 -4 -25 -11 l-6 -6q-25 -19 -33 -22l-14 -10l8 2q-10 -7 -18 -11l-6 -2l8 2l-14 -14l-17 -14h2l-12 -17v6l-2 -8q-5 -8 -18 -18l6 4q3 9 1 7q-9 -7 -22 -36q-6 -10 -8 -18l-23 -37l2 2l-14 -31v2q-16 -44 -24 -129l4 -32q1 -4 0.5 -13.5t1.5 -17.5q7 -31 16 -43q21 -46 57 -78 q37 9 60 22h-2l22 17l19 14h-4l14 8l-2 -4q0 1 2 4t2 4q3 8 12 17l-2 -4l19 37q5 8 18 27t19 28.5t14 27t14 35.5q13 39 29 115q12 62 0 103q4 4 0 12q-1 0 -2 -2zM608 1184l6 2l-2 6zM586 1171l6 3q-5 -5 -19 -5l-14 -8h4l-10 -6q-13 -4 -35 -22q-1 -1 -6 -4l-24 -19h1 l-26 -29l-12 -6l-15 -18q-4 -4 -18 -21l-6 -8l-2 -6l-9 -10l-6 -8l-6 -9q-4 -12 -8 -16v4l-6 -14h2q-41 -84 -45 -99l-2 -4q0 -2 -1 -6t-1 -6q0 -6 -6 -18l2 2q-2 -8 -2 -21q-5 -33 -3 -43q10 -34 15 -39q26 10 49 25q70 60 117 129q34 45 59 106q20 44 33 95q0 5 6 14h-2 q6 9 6 16l2 19q0 16 2 22l2 10v13z" />
<glyph unicode="9" horiz-adv-x="731" d="M211 -104l-29 34q-15 102 11 232q4 21 14.5 60t23.5 84t17 59q0 1 1 2.5t3 1.5q2 12 10.5 37t11.5 38q5 12 15.5 38t15.5 38q-8 -2 -33 -14q-2 -1 -2.5 0.5t-1.5 1.5q-3 0 -6 -3t-6 -3q2 -3 -1.5 -5.5t-10 -6t-8.5 -5.5q-6 0 -12 -4.5t-9 -5.5q-18 -8 -57 -12 q-34 -3 -61.5 6.5t-35.5 32.5q-43 28 -49 96q-4 36 -4 61q0 15 4 39q-5 35 -6 43q1 6 2 16.5t2 16.5q12 79 88 187q19 35 58 77q8 8 29.5 32.5t35.5 37.5q13 13 39.5 34.5t32.5 26.5q8 5 35.5 26t44.5 30q107 62 182 80q9 2 30.5 5t30.5 5q11 -4 13 -2q6 -3 18 -15h8 q10 -17 35 -28q0 -4 2 -8q11 21 35.5 59t36.5 59q13 3 24 -4q2 -1 6 -6l3 -4q2 -1 5.5 -2t4.5 -2l8 -8q1 -1 3 -2t3 -2q7 -3 10 -13q1 -2 6 -8t5 -12q-2 -6 -9 -23t-10 -24q0 -11 -4 -15q0 -12 -4 -28q0 -1 0.5 -1.5l0.5 -0.5q2 1 3 0q-3 -33 -22 -64q-2 -16 -16 -38.5 t-17 -28.5q-3 -12 -12.5 -29.5t-10.5 -26.5q-43 -89 -51 -102q-2 -14 -10 -29q1 -4 -3.5 -10t-4.5 -10q-13 -18 -30.5 -54t-25.5 -49q-7 -17 -22 -39q-7 -21 -21 -38q-12 -36 -28 -60q-8 -19 -27.5 -60t-28.5 -63q-2 -10 -10.5 -30t-11.5 -31q-5 -2 -10 -23 q-45 -111 -78 -200q0 -1 -1 -2q-1 1 -1.5 1t-1.5 -1l-4 -10q-64 -154 -66 -175q1 -4 0 -7t-3 -7l-3 -6q0 -15 -2 -21q-8 -20 -8 -41q-6 -2 -13 -22q0 -2 -2 -5.5t-2 -4.5t1 -3.5t1 -3.5q-2 -8 -29.5 -25.5t-33.5 -10.5zM557 1098q-11 -9 -35 -17q-8 -6 -25.5 -14.5 t-23.5 -13.5h-4q-23 -15 -27 -17q-10 -8 -26 -20q-6 -4 -15.5 -11.5t-17 -12t-14.5 -7.5q-5 -7 -17 -16t-14 -11q-1 -1 -3 -4t-3 -4q-4 -4 -8 -6q-3 -3 -10.5 -9t-10.5 -9q-1 -1 -5 -7t-7 -8q-5 -7 -15 -14q-56 -70 -96 -125q-31 -45 -51 -119q2 0 2 -2h2q30 4 56.5 13 t61 26t50.5 23q11 7 41 21t45 24q4 -1 9 1.5t11.5 7.5t10.5 7q67 137 157 293q14 19 23 41q-3 -1 -18 -5t-23 -5z" />
<glyph unicode=":" horiz-adv-x="239" d="M162 408q0 -2 -6 -25l-4 -6q-5 -6 -5 -10q-1 -3 -2 -7.5t-2 -7.5l-10 -12q0 -1 -1 -1q-2 -1 -1 -3q-1 -1 -2 -2.5t-2 -2.5t-2 -1q-1 -3 -5 -8.5t-5 -6.5q-2 0 -8.5 -3.5t-10.5 -4.5q-6 -6 -8 -6q-1 0 -6 -3t-6 -3q-5 1 -10.5 6.5t-10.5 5.5q-4 2 -15.5 3t-16.5 3h-3 q-2 0 -4 2h-8h-2v35q1 14 3 24t5 15t9 15.5t10 19.5q4 7 14.5 20t15.5 21q3 4 11 13t12 14q11 8 16 6q0 -1 1.5 -1.5t3.5 -1t4 -1.5l18 -7l4 -6h4q21 -7 27 -22q4 -4 4 -13q-4 -24 -6 -38zM227 674q-1 -5 -2 -8t-1.5 -4t-1 -3.5l-1.5 -7.5q0 -3 -5 -9t-5 -9q0 -2 -1 -6 t-1 -6l-10 -15q0 -2 -4 -2q-3 -8 -5 -8l-12 -16q-2 1 -4.5 -0.5t-7 -4t-8.5 -4.5q0 -1 -6 -4l-11 -4q-5 0 -10.5 4t-11.5 4q-4 3 -35 9q-2 0 -4 2h-8h-2l2 34q0 18 2 26t9 19.5t11 20.5q4 6 15.5 19.5t15.5 19.5q11 17 22 29q8 8 15 6q2 -4 8 -4l23 -7l2 -6l4 2 q17 -8 26 -24q1 -1 2 -3l2 -4t2 -5q-1 -6 -2 -15.5t-2 -15.5z" />
<glyph unicode=";" horiz-adv-x="266" d="M256 662q-6 -16 -8 -23q-1 -3 -5 -9.5t-3 -11.5q-4 -5 -7 -12l-8 -14q0 -1 -3 -1l-1 -1l-4 -6q-4 -8 -10 -17q-3 0 -23 -8q-1 -3 -8 -6q-8 -4 -10 -4q-4 0 -22 2t-25 2l-21 51q0 13 2 23t4 15t8.5 16.5t10.5 19.5q3 7 14.5 20.5t14.5 18.5q5 7 13 16.5t9 11.5q14 10 19 7 q1 0 3.5 -1t4.5 -1l20 -9l2 -6h4q18 -3 29 -22q0 -1 1 -5t1 -8q-2 -10 -2 -38zM37 215q-3 3 -3.5 6.5t1 9t4 11t7.5 13.5t9 14t10.5 16t10.5 16q25 45 28 64q-2 -1 -8 -7t-10 -6t-9.5 -1t-8.5 -1q-14 3 -21 17q0 16 -2 20q-4 12 -8 16q-2 6 4 23q7 14 27 49q4 0 12 4 q41 5 53 0q31 -4 37 -14q1 0 2 -1t2 -1q2 -2 6 -5.5t4 -6.5q25 -29 15 -76q-1 -3 -3.5 -7t-2.5 -6q-3 -3 -3 -10q-1 -1 -3 -4t-3 -4q-2 -6 -6 -14q-1 -2 -5.5 -8t-4.5 -11q-7 -4 -16.5 -15t-14.5 -15q-8 -8 -10 -9h-8q-14 -18 -25 -22q-3 -3 -7.5 -6.5t-6.5 -5.5 q-1 -1 -5 -3t-7 -4q-3 -1 -8.5 -5t-11.5 -7t-11 -4z" />
<glyph unicode="&#x3c;" horiz-adv-x="282" d="M276 336h-12l-6 2q-6 1 -6 -2q-1 -4 0 -7.5t3 -8t3 -7.5q0 -2 -2 -4.5t-2 -3.5q4 -12 4 -16q0 -5 -6.5 -9t-7.5 -6q-9 1 -24 10t-21 11q-2 0 -3 -1.5t-3 -0.5q-17 16 -30.5 31t-19 22.5t-16 23t-12.5 17.5q-6 7 -21 37q-7 12 -22.5 36.5t-22.5 37.5q-3 6 -11 17t-11 17 q-11 14 -45 70v14q7 7 18 7q6 22 23 39q5 6 15.5 15.5t14.5 12.5q4 5 14.5 15.5t14.5 15.5q45 48 80 100q13 16 26 35q2 3 6.5 9t6.5 9q1 3 5 8t6.5 10t2.5 9q4 0 8 4l6 2q1 0 4.5 -2t4.5 -2q2 -1 7 -3t7 -3q2 -7 14 -22.5t13 -26.5q0 -12 -7 -29q0 -16 -6 -28q0 -1 -3.5 -6 t-4.5 -9q-18 -36 -27 -45q-3 -11 -15.5 -27.5t-16.5 -25.5q-6 -6 -22 -29t-27 -33q-5 -11 -27 -28q6 -12 20.5 -28t16.5 -19q9 -9 39 -54l10 -10l12 -18q3 -4 19 -25.5t24 -30.5q21 -25 27 -47q1 -3 -2 -6l-7 -7t-6 -7z" />
<glyph unicode="=" horiz-adv-x="514" d="M487 588v-1q-2 -3 -2 -5q0 -1 3 -1t4 -1q-2 -4 0 -7t3.5 -3.5l6 -2t6.5 -2.5q-2 -4 -11.5 -8t-9.5 -8q-1 -3 -0.5 -4t2.5 -3l3 -3q-2 -1 -11 -4.5t-12 -7.5t0 -11q-21 -6 -47 -6q-1 1 -3 2t-3 2q-4 -2 -6 -2h-45q-9 0 -28 -2t-28 -2q-29 -5 -49 -2q-5 -4 -12.5 -5 t-16.5 -0.5t-14 -0.5q-4 0 -8 -4h-12q-2 0 -11.5 -3t-15.5 -4t-19.5 -2t-19.5 -2q-1 0 -8 -0.5t-8 0.5q-2 1 -4.5 3.5t-4.5 3.5q-4 2 -14 6t-14 6l-4 4h-6q-3 2 -15 14l-6 2q-2 1 -5.5 4.5t-4.5 3.5q0 4 -3 10t-3 9q1 3 -2 10q1 1 1 3q0 1 0.5 2t2.5 1q16 3 50 12.5t52 12.5 q17 4 55 8q10 1 42.5 7t50.5 7q28 0 82 4q27 0 32 -2q12 -4 17 -4q4 -1 10.5 -1t9.5 -1q2 -1 8 -3t7 -3q16 -4 20 -6l6 -12q1 -1 2 0.5t2 1.5h8zM20 719q7 2 7 10q0 3 1 9.5t1 9.5q1 2 2.5 2t4 -1t3.5 -1q3 0 10 1t10 1q97 19 191 28q21 0 31 2q36 5 38 6q0 -5 3 -2 q59 4 81 -8q1 0 3.5 -2t3.5 -2q6 -2 14 -2q15 -10 18 -10q1 -2 5 -6t4 -9q1 -1 3 -2t3 -2q0 -2 -1 -3.5t-1 -2.5q3 -2 12.5 -6.5t11.5 -7.5q-2 -4 -8.5 -6.5t-7.5 -5.5q0 -2 1 -4t1 -3q0 -4 -4 -8q-2 -1 -5 -1t-5 -1q-4 -1 -8 -6t-7 -6q-6 0 -22 -4q-7 0 -22 1t-23 1 q-4 -1 -12.5 -3t-12.5 -3q-3 0 -8.5 1t-7.5 1q-9 0 -25 -4q-4 -1 -17.5 -1.5t-21.5 -2.5q-12 -2 -35 -2q-1 0 -16.5 -3.5t-22.5 -3.5q-10 -2 -26 -2q-5 -1 -14.5 -2t-14.5 -2q-24 -4 -33 -4q-5 -7 -24 6q-2 1 -9.5 5t-9.5 6q-1 1 -2.5 3.5t-3.5 4.5l-6 6h-6q-11 11 -16 12 q0 24 -5 29z" />
<glyph unicode="&#x3e;" horiz-adv-x="374" d="M57 336q-2 3 -6 7t-6.5 7t-1.5 6q6 22 27 47q8 9 24 30.5t19 25.5l12 18l10 10q30 45 39 54q2 3 16.5 19t20.5 28q-22 17 -27 28q-11 10 -27 33t-22 29q-4 9 -17 25.5t-16 27.5q-7 7 -26 45q-1 4 -4.5 9t-3.5 6q-7 14 -7 28q-6 15 -6 29q1 11 13 26.5t14 22.5q2 1 7 3 t7 3q1 0 4 2t4 2l7 -2q4 -4 8 -4q0 -4 2.5 -9t6.5 -10t5 -8l12 -18q9 -13 27 -35q35 -52 80 -100q4 -5 14.5 -15.5t14.5 -15.5q4 -3 14.5 -12.5t15.5 -15.5q17 -17 23 -39q11 0 18 -7v-14q-34 -56 -45 -70q-3 -6 -11 -17t-11 -17q-7 -13 -22.5 -37.5t-22.5 -36.5 q-15 -30 -21 -37q-2 -2 -12.5 -17.5t-16 -23t-19 -22.5t-30.5 -31q-2 -1 -3 0.5t-3 1.5q-6 -2 -21 -11t-24 -10q-1 2 -7.5 6t-6.5 9q0 4 4 16q0 1 -2 3.5t-2 4.5q1 3 3 7.5t3 8t0 7.5q0 3 -6 2l-6 -2h-13z" />
<glyph unicode="?" horiz-adv-x="700" d="M106 -82l-40 4q-6 17 -5 19q-24 72 9 155q3 0 14.5 15.5t13.5 15.5q3 1 8 2t7 2q5 1 12.5 5.5t11.5 4.5q3 0 6 -1t4 -1h21q2 -4 8 -5l6 -1l4 -2h11q1 0 3 -2t3 -2q22 -8 30 -12q2 -1 5.5 -3t5.5 -3q6 -6 4 -21q-2 -2 -0.5 -10t0.5 -10q-1 -5 -0.5 -16.5t-1.5 -14.5 q0 -5 -6 -14q-2 -4 -2 -9q-5 -10 -7 -12q0 -1 -2 -6.5t-4 -7.5q-9 -14 -12 -21q-5 -2 -19.5 -22t-23.5 -21q7 -7 -7 -7q-5 -1 -21 0q-22 1 -36 1zM246 289q2 4 0 4q-8 -3 -15 -17q-6 0 -6 7q-14 -11 -10 -43q1 -2 -1 -1q-2 2 -3 1v-17q-3 -1 -7.5 -7.5t-6.5 -8.5q-6 0 -9 6 q-17 -6 -20 -27q-4 1 -12 7.5t-9 7.5q-26 26 -36 55q-3 10 -7 43q-2 13 7 53q-1 8 3 25t5 22q2 6 3.5 16.5t2.5 12.5q3 8 10 10q1 2 2 9t2 10q6 12 6 16q2 5 8.5 15.5t8.5 15.5q4 17 8 22q25 61 66 117q2 2 5 11t5 12q2 2 6 4q1 4 3.5 7.5t6 7t4.5 5.5l4.5 9t3.5 10l5 4 q5 5 8 14q14 11 14 25q8 8 10 8q3 11 11 14q0 4 3 8.5t8.5 10.5t6.5 8q14 24 20 28q27 38 80 95t72 80q1 2 41 53q3 7 18 30q3 5 11 16t11.5 17t6.5 17t2 24q-1 1 -5.5 2.5t-4.5 3.5q-29 0 -43 -2q-11 0 -27 -4q-17 -7 -33 -10q-14 -4 -18 -6q-1 -1 -5 -2.5t-9 -3.5 q-2 -1 -10 -6t-13 -5l-4 -2q-5 -2 -6 -6q-9 -6 -24 -14t-26.5 -16t-21.5 -19q-2 -7 -10.5 -17.5t-11.5 -15.5q-3 -8 -12 -19t-11 -18q-1 0 0 -2t0 -2q-3 -8 -15.5 -23.5t-15.5 -27.5q0 -1 1.5 -5t1.5 -5q-2 -5 -8.5 -9t-6.5 -9l-8.5 -8.5t-13.5 -8.5q-4 0 -4 -8 q-14 -5 -19 -8q-10 0 -14 -2q-5 -1 -17 -1t-16 -1q-3 0 -7.5 -1t-6.5 -1q-9 0 -21 4q-1 0 -6 1t-6 1q0 4 -2 4q-6 0 -12 2q-1 0 -3 1.5t-4 2t-6 -1.5q-8 11 -6 25q3 32 17 63q28 79 96 158q12 8 14 12q13 10 23 23q99 75 155 96q15 8 45 18t41 15q11 1 40.5 6.5t47.5 5.5 q25 0 31 -4q8 1 27.5 -1.5t25.5 -2.5q6 -4 17.5 -7.5t13.5 -5.5h6q0 -1 2 -2l2 -2q13 -2 27 -13.5t22 -14.5q-1 -2 1 -4t2 -3q2 0 3.5 -1t2.5 -1q17 -17 22 -20q6 -12 8 -14q6 -6 11 -21q1 -2 4 -5.5t5 -6.5t3 -6q8 -19 4 -47q-3 -36 -18 -66q-5 -5 -5 -10q-28 -42 -34 -49 q-6 -14 -23.5 -37.5t-21.5 -30.5q-1 0 -1 -1t-1 -1q-42 -52 -50 -64q-3 -4 -20.5 -26t-28.5 -31q0 -2 -6 -8l-4 -4q-12 -16 -34 -43t-38.5 -49.5t-29.5 -44.5q-11 -9 -23 -33q-22 -26 -31 -39q-8 -13 -30 -46.5t-33 -53.5h-2q-4 -16 -20 -37.5t-21 -32.5l-4 -2 q-1 -2 -21 -43q-2 -3 -5.5 -10t-6.5 -9h-6q-7 -10 -10 -12q-5 -10 -13 -22q-7 -2 -11.5 -8.5t-8 -17z" />
<glyph unicode="@" horiz-adv-x="825" d="M543 135q1 1 2 -1q1 -3 2 -3q25 10 28 10q-2 -5 -13 -8t-15 -8q-22 -4 -31 -8l-2 -4q0 -2 8 -2q0 -3 2 -5q-3 -1 -13 -4t-13 -6q-1 -2 0 -4l2 -2q-10 -5 -13 -6q-2 0 -8 -2.5t-8 -3.5t-5 -1t-4 -1t-1 -4q3 -1 10.5 1.5t9.5 2.5q-4 -4 -14 -9.5t-14 -9.5q-13 -7 -27 -10 q-6 0 -18 -4q-25 -3 -37 -6q-4 -2 -5 -5q0 -1 -1 -1q-49 -4 -74 -2q-3 0 -8 1t-7 1h-12q-8 7 -12 6l-4 2q-4 0 -10.5 2t-10.5 2q-24 9 -26 14q-49 17 -80 56q-14 16 -29 39q-23 32 -24 41q-20 53 -23 104q-2 27 2 137q3 12 5 25t4 27.5t3 23.5q0 11 4 31q4 2 7 14 q5 24 30 53q34 51 76 88q10 7 24.5 20t20.5 17q46 40 98 64q29 13 115 39q18 4 19 4q34 4 53 8q3 1 13.5 4t15.5 6q7 -5 20 2q-1 -1 0.5 -1.5t4 -1t3.5 -1.5q5 1 12 -0.5t9 -1.5q3 -4 6 -6t6.5 -3.5t5.5 -2.5q6 -2 12.5 -8.5l8.5 -8.5q7 -5 26.5 -14.5t28.5 -17.5 q3 -5 8.5 -11t14 -14t10.5 -10q11 -11 12 -13l6 -12q4 -8 6 -10q2 -4 3 -14.5t3 -14.5q1 -4 5.5 -7.5t5.5 -6.5q-4 -7 0 -18q3 -9 6 -21v-8q-2 -9 2 -17q1 -2 1 -5.5t0.5 -5.5t2.5 -3q4 -19 -4 -76q-4 -4 -4 -12q-4 -14 -6 -18q0 -5 -4 -13.5t-5 -11.5q-2 -4 -2 -10 q-5 -16 -14 -21q-3 -23 -12 -34q-1 -5 -5 -13.5t-6.5 -15t-1.5 -10.5q-4 -5 -12.5 -18.5t-16.5 -23.5t-18 -16q1 -2 -0.5 -3.5t-1.5 -2.5q-26 -34 -57 -47q-7 -10 -21 -14q-2 -2 -12 -2q-4 -2 -14.5 -7t-14.5 -6h-12q-2 0 -6.5 -1t-7.5 -1q-4 4 -10 4q-14 6 -31 23 q-2 3 -4 9.5t-4 8.5q-19 25 -19 60q-60 -45 -98 -66q-55 -29 -92 -35q-31 0 -43 7q-12 12 -12 14q-5 7 -5 16l-4.5 9l-4 8t-1.5 6q-4 8 -4 27v24q2 6 5 20t5 19q0 16 2 22q8 30 47 84q20 30 43 50q34 32 99 71q39 26 90 49q14 3 22 9q4 2 8 3t9 1.5t8 1.5q1 0 3 1.5t3.5 2.5 t1.5 0q2 0 5.5 -3.5t6.5 -4.5h5q4 -2 9 -8.5t9 -8.5q7 7 10 19q3 -2 10 -5t9.5 -5t5 -6.5t2.5 -10.5v-8q-1 -5 -5 -14.5t-5 -14.5q0 -1 -1 -3.5t-1 -4.5q0 -5 -5 -10q-1 -3 -4.5 -9.5t-5.5 -12t-2 -9.5q-8 -28 -8 -33q-2 -1 -4 -4t-4 -4q3 -5 -4 -18q0 -2 -1.5 -7.5 t-0.5 -7.5q-3 -6 -11 -14l-8 -17q-7 -17 -8 -28q-17 -67 -4 -94q13 -3 47 16q55 36 84 84q25 28 45 74q27 60 19 116q0 3 -2.5 12t-2.5 13q-5 20 -14 37l-4 12l-6 6q0 1 -1 5.5t-1.5 6t-3.5 4.5t-8 5q-1 1 -7.5 8t-11.5 8q-2 0 -8 3.5t-10 2.5q-1 0 -4.5 4.5t-4.5 4.5 q-12 0 -18 4q-4 -2 -27 4q-5 0 -15 -1t-15 -1q-30 0 -35 -2q-2 -4 -4 -4q-11 -2 -33.5 -5.5t-34.5 -5.5q-6 -1 -12.5 -3.5t-9.5 -2.5q-21 0 -35 -6q-8 -4 -39 -20t-45 -25q-56 -33 -105 -82q-28 -40 -34 -51q-29 -57 -35 -92q-23 -71 -13 -135q9 -66 39 -115q27 -42 95 -66 q2 0 41 -10q79 -12 163 12q13 2 27.5 5.5t32 9t28.5 8.5q9 3 48.5 14.5t58.5 18.5q0 -5 -12 -11q-7 -4 -17 -6l-6 -4q-1 0 -8 -2t-12 -4.5t-4 -5.5q1 -2 3 -2t3 -2q0 -2 4 -2q-15 -5 -35 -13q0 -8 8 0h10q-4 0 -4 -2q-2 0 -26 -10zM254 342q42 18 104 59q65 42 80 48 q2 5 11 11t10 7q6 12 6 22q3 6 13.5 26t13.5 30q-55 -31 -56 -31q-5 -4 -11.5 -8t-8.5 -6q-1 -1 -4.5 -2t-5.5 -2t-3 -2q-1 -2 -6 -7q-7 -7 -10 -8q-5 -4 -17 -11t-16 -11q-5 -6 -17.5 -17.5t-14.5 -13.5t-8 -4.5t-9 -3.5q-15 -20 -22 -27q-2 -4 -10 -12.5t-11 -13.5 q-3 -2 -6 -11.5t-4 -11.5h2zM543 131q-1 0 -1 1q3 1 3 3q-1 -2 -3 -0.5t-3 0.5l2 -1l-2 -3h2h-2h4z" />
<glyph unicode="A" horiz-adv-x="657" d="M547 78v-8q0 -4 -2.5 -1.5t-5.5 1.5q-2 -4 -6 -20q-7 -24 -11 -25q-5 -2 -10 22q1 2 0 1t-2 1q-2 -9 -5 -16t-7 -15l-6 -12l-2 4q-3 3 -5 4q-2 -2 -6 -12.5t-4 -13.5q-16 -16 -26 26q-3 13 -8 40q-3 20 -5 28q-16 138 -10 221q0 43 8 125q-5 4 -13 4.5t-18 -1t-12 -1.5 q-1 0 -5 1.5t-5 -1.5q-2 0 -6 -1t-6 -1q-10 -1 -26 -0.5t-28.5 -0.5t-23.5 -5q0 -4 -10 -4q-6 -6 -21 -6q-14 -57 -24 -74q-9 -15 -13 -31q-3 -10 -12 -26v-9q-8 -12 -8 -16q0 -8 -2 -12q-3 -4 -6 -11.5t-5 -9.5q-5 -33 -24 -89t-23 -71q-9 -5 -18 -22q-6 1 -13 -2.5 t-10 0.5q-2 -4 -9.5 -10t-6.5 -11l-4 2q0 -2 -2.5 -4t-3.5 -4q-1 0 -3.5 1t-4.5 1q-1 0 -2 -0.5t-2 -1.5t-3 -2q-12 -3 -14 -8q-18 -2 -39 -20q-5 0 -12 -8t-8 -9q-2 1 -3 4t-2 7.5t-3 7.5q-8 26 -5 57q-4 38 17 119q9 55 55 217q6 12 6 22q1 2 5.5 10t4.5 11q0 8 -4 22 l-4 15q-2 0 -4.5 1t-3.5 1q-51 -4 -48 6q2 5 11 8h-6q0 1 1 2t1 2q-1 0 -6.5 2t-7.5 4q-4 -1 -16 2.5t-15 3.5l19 11q-11 4 29 15q25 8 95 24q4 9 37 95.5t54 129.5q45 98 49 104q16 36 55 109q47 96 84 151q11 16 29 45t33 52.5t30 42.5q2 3 9.5 16t10.5 17t9.5 14.5t11 16 t11.5 13t14 13.5q4 8 20 24q3 1 9.5 5.5t7.5 5.5h12l8 -4q1 0 3.5 2t4.5 2q10 -5 12 -4q5 -2 19.5 -6t21.5 -9q7 15 13 19q11 1 14.5 0.5t11.5 -3.5l7 -4q5 -2 14.5 -5t18 -6.5t14.5 -8.5q26 -19 28 -49q0 -2 4 -14q0 -9 -3 -29t-3 -29q0 -13 -2 -24.5t-5.5 -24t-4.5 -20.5 q-5 -24 -18 -64.5t-17 -54.5q0 -34 -16 -60q-2 -7 -6.5 -22.5t-7 -28t-3.5 -26.5q-4 -5 -6.5 -18t-5.5 -17q-1 -5 -8.5 -47t-15.5 -64q0 -6 -5 -16q0 -5 -4 -17q2 -4 0 -6q-2 -10 -2 -22q-1 -3 -2.5 -17.5t-3.5 -23.5q-1 -13 -6.5 -34t-7.5 -30v-8q-10 -51 -23 -137 q-1 -1 -1 -4q0 -2 -1 -2q-3 -31 -8.5 -97l-7.5 -90q-1 -7 -2 -23t-2 -24q0 -53 -2 -57q-14 -50 -25 -74q-10 -5 -11 -11q-1 -2 -1 -7v4zM451 553q5 30 14 96.5t14 100.5q15 83 19 98q17 83 18 90q-43 -80 -59 -100q-7 -18 -28 -57t-28 -58q-2 -5 -10 -26t-14 -31 q-2 -5 -8.5 -14.5t-8.5 -14.5q-9 -27 -20 -49q-5 -3 -10 -25q69 3 121 -10z" />
<glyph unicode="B" horiz-adv-x="735" d="M645 1329q7 1 12.5 -0.5t12 -5t10.5 -4.5q8 -7 24 -16t21 -13q1 -1 4 -1t4 -1q4 -3 10.5 -9.5t13 -12t13.5 -9.5q44 -41 70 -94q12 -23 16 -45v-12l4 -12v-11q0 -2 1 -5.5t1 -4.5q4 -19 -14 -72q0 -8 -4 -20q0 -3 -3.5 -9.5t-4.5 -8.5q-13 -43 -37 -78q-4 -6 -17.5 -21.5 t-17.5 -25.5q-40 -44 -84 -76q-3 0 -6 -2t-6 -2q-30 -26 -43 -35q-5 -4 -13 -7.5t-12 -6.5l-10 -9q-9 -8 -15 -10q-1 -1 -5.5 -3.5t-7 -4.5t-1.5 -4q0 -3 4 -5t9.5 -4t7.5 -3q0 -7 2 -7q20 -8 26 -18q87 -54 101 -121q0 -5 1.5 -22t1.5 -24.5t-1.5 -21.5t-5.5 -28 q-19 -64 -25 -74q-2 -6 -12 -16l-23 -33q-7 -5 -12 -14l-6 -8q0 -1 -4 -5l-13 -14q-1 -2 -4 -3t-4 -3l-12 -14q-32 -28 -39 -41l-37 -25q-34 -38 -116 -82t-134 -61q-21 -15 -45 -21q-5 -2 -12 -5.5t-10 -4.5q-2 -1 -7.5 -0.5t-7.5 -1.5q-3 0 -8 -5.5t-10 -8.5q-2 0 -5 -1.5 t-6.5 -1.5t-7.5 3q0 2 1.5 4.5t1.5 5.5q-2 1 -8.5 5.5t-10 5.5t-12.5 -3q-4 3 -11 2.5t-10 -6.5q-2 1 -2.5 2.5t-1.5 1.5q-4 -4 -12.5 -8t-11.5 -8l2 4q-4 -1 -9.5 -7.5t-9.5 -7.5q-3 -1 -14 5q-5 -1 -13.5 -12t-11.5 -13q-10 10 -16 0l2 6q-6 0 -6 4q-1 -1 -4 -4.5t-6 -3.5 q8 23 -2 49q-7 57 2 103q17 135 65 288q5 13 15 49t18 56t32 88t40 106q25 63 34 99q7 16 21.5 47t21.5 47q6 18 20.5 53t16.5 41q16 29 21 47q2 5 9.5 19.5t10.5 23.5q-17 -2 -49 2q-4 4 -14 4q-6 1 -14 5t-18.5 11t-14.5 9q-3 1 -5.5 4.5t-5.5 5.5l-4 1q-3 1 -4 5 q-1 0 -3 2t-3 2q-2 2 -6.5 5t-5.5 4l-6 10h-6q-2 6 -11 23.5t-10 27.5q0 11 -2 14q-1 1 -3 5q-4 5 -3 6l20 20q30 23 64 41q21 12 90 41q135 47 211 39q26 -4 33 -2q17 3 43 -6q38 -12 41 -13q2 -2 13 -4t13 -4q-2 0 -4 -2zM182 203q47 28 62 45q5 7 18 15.5t17 12.5 q7 6 33.5 25t36 26t33 25t34.5 28t30.5 27t32.5 30.5t28 31t28 35.5q1 3 5.5 10.5t4.5 13.5q-19 11 -53 11q-5 0 -12.5 3.5t-10.5 4.5l-12 -4q-6 -1 -16.5 0t-16.5 0q-16 -2 -45 -2q-11 2 -33.5 -2t-28.5 -4q-1 2 2 3t3 3q-27 0 -31 -4q-5 -5 -12 -39q-14 -35 -29 -84 q-8 -22 -24 -64.5t-28 -78.5t-20 -70q2 0 4 2zM444 842l66 59l100 88q19 28 25 39q3 6 14 18t15 19q13 26 16 51q-1 4 -6 9t-6 8q-46 24 -113 20q-13 -30 -69.5 -147.5t-82.5 -186.5v-2q35 21 41 25z" />
<glyph unicode="C" horiz-adv-x="727" d="M629 754q-3 -3 -6.5 -11.5t-6.5 -11.5l-16 -16q-4 -3 -10 -10.5t-10 -10.5q-1 1 -2.5 5.5t-2.5 5.5q-2 0 -6.5 -3.5t-5.5 -3.5q0 10 -4 10q-3 0 -6 -1q-5 -8 -16.5 -22t-14.5 -19q-2 0 2 4q3 2 2 4q-3 -1 -10.5 0.5t-9.5 1.5q-3 1 -2 10q-2 0 -12.5 -7t-12.5 -7 q0 -2 -8 -10q-9 -8 -9 -3q0 14 -3 21q1 9 1.5 38.5t2.5 47.5q6 40 33 111q44 90 88 200q30 71 32 84q-6 -2 -14 -10.5t-10 -9.5l-19 -21q-4 -7 -20 -16l-14 -23q-8 -16 -29 -30q-4 -13 -12 -17q-3 -9 -15 -23t-16 -22q-13 -12 -24 -28.5t-23.5 -37.5t-20.5 -32l-10 -19 q-9 -18 -12 -20q-60 -122 -76 -176l-6 -10q0 -13 -6 -19q-6 -9 -6 -12q-2 -7 -5.5 -20.5t-5.5 -20.5q-7 -25 -13 -46.5t-10 -34.5t-7 -23.5t-4.5 -16t-2.5 -9.5t-1.5 -5.5t-0.5 -3.5q0 -5 -4 -9q0 -7 -4.5 -24t-5.5 -27v-22q0 -1 -1 -3t-1 -3q-12 -37 -2 -66q0 -97 18 -106 q7 1 19 7t26 14t17 9q41 24 64 46t71 77q57 63 120.5 145t84.5 107q18 22 31 29q-1 -7 2 -6q2 1 8 7q4 4 5 4q1 1 -1 -5q2 -6 1.5 -9t-3.5 -8.5t-4 -9.5q2 -1 4.5 2.5t5.5 1.5q38 -23 37 -32q-1 -3 -8 -3q-3 0 0 -5q2 -3 4 -3q-1 -2 2 -5t7.5 -7t6.5 -6t6 0q-1 -2 -1 -8 t-1 -9q0 -2 -1 -7t-0.5 -6.5t5.5 -0.5q-9 -36 -30.5 -79.5t-55.5 -101.5t-47 -83q-74 -122 -102 -146q-26 -19 -41 -36q-25 -14 -45 -31q-10 -4 -31 -25l-33 -18q-3 -2 -14 -8.5t-18 -8.5q-7 -3 -60 -12q-24 -6 -28 -6l-37 8q-2 1 -5.5 1t-5.5 1q-7 1 -18.5 4.5t-19.5 3.5 q-45 28 -72 50q-4 4 -11 13.5t-12 14.5q-31 38 -43 64l-12 39q-10 52 -12 73v41q-1 32 8 138q3 40 31 139q4 20 11 41t16 46.5t14 39.5q5 13 14.5 37.5t17.5 44.5t17 37q6 10 28 49.5t37 58.5q3 5 8.5 16t11.5 20.5t13 16.5q5 10 33 52q94 116 155 184q27 31 64 68l25 18 q10 12 23.5 23t31 23.5t24.5 18.5q12 7 33 22t31 21q35 15 45 17q32 0 45 -10q16 -8 43 -35l12 -12l15 -13q5 -8 11 -27.5t7 -21.5q0 -2 2 -3.5t2 -2.5q1 -16 0 -33.5t-3 -38.5t-3 -32q0 -15 -6 -33q-4 -29 -10 -41q0 -7 -9 -10q-5 -16 -11 -44t-7 -34q-8 -22 -25 -58.5 t-22 -50.5q-49 -108 -74 -143l-5 -2.5t-6 -2.5t-7 -1z" />
<glyph unicode="D" horiz-adv-x="702" d="M68 -2q-2 0 -2 -4q0 2 -4.5 0.5t-6.5 -0.5q0 -10 -4 -14q-2 0 -3.5 1t-2.5 1q-13 -33 -20 1q-1 5 -2 8l-2.5 7.5l-2.5 7.5q-6 -2 -6 -1q0 2 4 13q-19 59 -10 199q3 22 23 135q5 7 8 20t4 15q19 114 59 234q6 29 19 51q3 18 22 65q1 5 5 15t6 18q3 13 16 47q8 17 25 74 q1 6 5 12t5 8q-3 19 10 39q7 18 25.5 71.5t29.5 78.5q20 36 41 94l13 29q-1 3 -2.5 4t-5 1t-5.5 1q-14 4 -27 11.5t-28.5 19t-22.5 16.5q-6 11 -10 29q43 37 113 43q4 0 12 2t12 2q0 2 8 1l9 -1q20 4 31 4q38 4 57 0q2 0 6 -4q5 0 15.5 2t15.5 2q12 -4 24 -4q28 0 60 -11 l26 -6q17 0 25 -4q2 -1 9 -5t13 -5q2 -1 9.5 -3t9.5 -3q3 -2 12 -9t14 -8q2 -3 10.5 -6t12.5 -6l16 -12q7 -7 13 -10l4 -4q4 -4 13 -9t11 -6q4 -7 9 -10q2 -4 7 -7.5t7 -6.5l16 -17q0 -1 4 -5.5t4 -6.5l7 -8q2 -7 10 -16.5t10 -12.5q4 -2 4 -12q1 -3 4 -7.5t4 -7.5l9 -24 q6 -10 6 -49q8 -16 8 -43q1 -6 -0.5 -15.5t-1.5 -11.5l-2 -18q-14 -100 -47 -164l2 -6q-8 -10 -31 -62q-2 -3 -8.5 -7t-7.5 -7q-13 -27 -31 -55q-38 -55 -43 -60q-1 -1 -1 -3q0 -1 -0.5 -2t-2.5 -1q-20 -31 -64.5 -80.5t-56.5 -64.5l-51 -62l-15 -20q-4 0 -6 -4 q-9 -14 -16 -19q-5 -6 -16 -16t-15 -17q-3 -1 -7.5 -7.5t-8.5 -8.5q-11 -29 -51.5 -62.5t-51.5 -52.5q-10 -6 -23 -21t-20 -20q-18 -22 -54.5 -60.5t-51.5 -55.5q-3 -2 -15.5 -12.5t-23.5 -12.5q3 3 0 6q5 11 4 15q-14 3 -18 -5q0 2 0.5 4.5t1 4.5t-0.5 3.5t-3 2.5 q-5 -1 -9.5 -4.5t-8 -9t-5.5 -7.5q-6 3 -6 21q-2 -1 -4 -9t-4 -8q-1 0 -1 1t-1 1t-5 -1.5t-6 -0.5l-6 -8q-2 -1 -2 0t-2 0q-3 -1 -7 -4t-7 -4q0 1 2 2l-2 -4l-4 2l-2 -4q-3 -4 -6 0zM297 451q62 68 68 73q16 14 63 68q7 8 30.5 34.5t33.5 39.5q74 81 116 155q30 50 44 87 t20 91q4 82 -25 113l-22 16q-2 5 -8.5 12.5t-8.5 10.5q-35 24 -51 25l-35 4q-2 -2 -6 -19l-8 -20q-1 -3 -1 -7.5t-1 -7.5l-6 -16l-13 -33q-5 -21 -12 -26l-14 -25q-3 -8 -8 -22t-7 -21q-8 -28 -8 -31l-6 -18l-6 -4q-3 -18 -12 -37q-11 -33 -15 -41q0 -7 -12 -37l-14 -37 q-1 -4 -6.5 -14.5t-6.5 -15.5q-4 -12 -14 -37q-2 -6 -6 -17.5t-6 -17.5q-2 -4 -5.5 -16.5t-9.5 -20.5q-1 -8 -8.5 -21.5t-9.5 -19.5q-6 -10 -6 -33q0 -2 -3 -4.5t-5 -5.5q-1 -7 -8 -26t-9 -33q0 -1 -8 -25q-7 -18 -16 -52.5t-13 -45.5q19 18 64 78z" />
<glyph unicode="E" horiz-adv-x="651" d="M-8 96q7 7 16 10q-9 79 29 218q6 25 33.5 112t29.5 94l41 119q25 73 45 117q30 82 78.5 185.5t77.5 178.5l-29 7l-28 12l-8 8t-13 8q-13 21 -37 45q1 2 6 6t5 7q12 5 38 21t46 20l4 4q5 0 15 5.5t17 6.5q-6 0 1 2q9 2 12 0q0 4 30 10q2 1 5.5 3t6 3t5.5 0q11 3 35.5 11.5 t40.5 11.5l7 3q1 0 3 1q6 1 8 2l13 4h1l66 12q14 1 23 3t22 2q10 2 31 2q33 0 112 -9q1 -1 10.5 -7t10.5 -11q-1 0 2 -4t5 -8t-1 -6q-2 -4 -4.5 -7t-3.5 -4.5l-2 -3t0.5 -3t3.5 -2.5t8 -5q-3 0 -5.5 -2t-6.5 -2q-11 -12 4 -18l2 -1l4 1v-3q2 -4 -1.5 -7.5t-8.5 -6t-8 -5.5 t0 -5.5t14 -5.5q5 -1 7.5 -11t6.5 -10q-5 -5 -17 -7t-14 -7q-40 -14 -84 -8q-8 -2 -24 -2l-31 -4q-61 -5 -69 -15q-5 -29 -31 -82q0 -15 -17 -45q-2 -3 -4.5 -13.5t-5.5 -16.5q0 -6 -6 -15q-4 -5 -7.5 -21t-8.5 -22q0 -2 -26.5 -71t-27.5 -74q-2 -12 -12.5 -35t-11.5 -35 q17 1 56.5 11t66.5 10q48 4 69 2q1 0 4 -1t5 -1q5 -2 15.5 -2t14.5 -2q-6 -9 2 -12t21 -3q0 -4 -3.5 -8.5t-4.5 -9.5q-1 -1 -4.5 -2.5t-4.5 -3.5q0 -8 10.5 -13.5t12.5 -7.5l-6 -12q0 -1 1 -4t2 -5.5t4 -4.5t7 -3q-1 -2 -5 -2.5t-5 -1.5l-6 -10q-2 -2 -5 -3.5t-5.5 -3 t-2.5 -3.5q-2 -5 7 -14q-4 -4 -22 -10t-23 -11l-15 -2q-2 0 -6 -2t-6 -2l-29 -6l-28 -6q-5 -1 -16.5 -3t-20.5 -4t-15 -6q-13 0 -28 -10q-6 -2 -11 -2q-2 0 -4 -1t-4 -1q-3 -3 -10 0q-4 -1 -15.5 -6t-17.5 -6q-8 -3 -24 -6.5t-23 -6.5q-7 -28 -41 -119.5t-39 -105.5 q-2 -4 -2 -12q-2 -6 -15 -44.5t-18 -60.5q12 4 40 12.5t44 13t42 10.5t45.5 8.5t43.5 2.5t46 -4q6 -3 16 -6.5t17.5 -7.5t11.5 -8q-8 -2 -11.5 -4.5t-2 -4.5t4 -3.5t7 -4t6.5 -4.5q-1 -1 -7.5 -1.5t-7.5 -2.5q1 -5 12 -5.5t13 -4.5q-10 -19 -27 -22q-2 0 0 -5q1 -1 0 -2 q-23 -7 -4 -13q2 -1 15 -5q1 -2 -4 -6.5t-5 -7.5q14 -9 19 -11q-6 -3 -41 -10q-5 -5 -19.5 -9.5t-17.5 -6.5q-12 -4 -38 -8.5t-38 -8.5q-7 0 -15 -3.5t-13 -4.5q-7 -1 -21 -8t-18 -8l-13 2l-32 -19q-6 -1 -19.5 -4t-19.5 -4h-6q-22 -13 -27 -14q-19 0 -27 -4q-6 1 -18 -3 t-17 -5q-3 0 -9.5 3t-10.5 3q-5 0 -15 -2t-14 -2q-18 -10 -47 7.5t-48 48t-11 54.5z" />
<glyph unicode="F" horiz-adv-x="565" d="M365 1321q-7 1 1 2q12 1 13 2h6q7 2 17 2.5t12 1.5h-6l24 4q4 2 21 2q22 7 93.5 14t76.5 9l5 1q6 1 11 1q61 4 82 0q25 0 31 -5.5t14 -33.5q1 -8 -13 -29t-14 -26q0 -2 -1 -6t-1 -5q0 -4 3.5 -10.5t4.5 -11.5q-2 -1 -3 -3.5t-1.5 -6t-1.5 -4.5q-17 -12 -20 -21 q1 -4 -2.5 -10t-3.5 -8q-5 -2 -17.5 -4.5t-17.5 -4.5q-1 0 -3.5 -2.5t-4.5 -3.5q-8 -2 -28 -1t-28 -1q-8 3 -21 0.5t-29.5 -7.5t-18.5 -5t-12.5 -1t-16 -2.5t-10.5 -6.5q-3 -7 -6.5 -17t-5.5 -14q-3 -6 -6.5 -19t-4.5 -16q-9 -25 -59.5 -145.5t-58.5 -155.5q17 1 44 5.5 t41.5 5.5t45.5 -3q4 -1 15 -4.5t19 -3.5h31v-14l27 -23q14 -1 15 -4q0 -1 -6 -6q-14 -12 -11 -20q19 -23 18 -27q-3 -7 -35 -23q0 -4 2.5 -6t6 -3.5t4.5 -2.5q-9 -6 -58 -16q-22 -15 -37 -17q-10 -2 -26 -5t-31 -7q-8 0 -22 -4t-17 -4q-4 -2 -11.5 -4t-8.5 -2 q-38 -13 -41 -13q-5 0 -17 -4l-67 -209l-6 -22l-4 -14q0 -13 -5 -15l-26 -121q-17 -90 -33 -118q-24 0 -27 -31q-1 1 -2 -2q0 -1 -1 -3q-4 -14 -9 -14q0 -5 -7 3q-15 15 -17 -12v-19q-1 8 -3 8q-3 1 -16 -8l-2 4q-2 3 -4 4q-1 -1 -1.5 -7t-2.5 -9q-1 0 -11 2.5t-14 1.5 l-2 -13q-2 0 -3.5 1t-2.5 2t-2.5 3t-3.5 3q-2 -2 -8 -27q-15 45 -23 68q-16 32 -16 71q0 22 4 53.5t12 76.5t10 55q15 79 129.5 442.5t151.5 423.5q-5 2 -17 4t-18 4q-12 4 -16 8q-3 1 -9.5 6.5t-9.5 6.5l-8 4q-17 10 -26 32q-1 3 -2 9.5t-2 9.5q-4 11 -15 26v25 q31 3 93 19.5t94 19.5z" />
<glyph unicode="G" horiz-adv-x="657" d="M696 1370l-2 -2q6 0 10 -5l5 -5q0 -4 6 -4l10 -4q0 -4 4 -4v-5q3 -1 6.5 -5t5.5 -5l-2 -2q2 0 6 -4q2 2 8 -8q22 -36 27 -78v-12q0 2 2 0l-8 -121q-3 -53 -12.5 -88t-20.5 -41q1 -5 -2 -4t-8 -2q0 -8 -6 -8q-1 -4 -4.5 -10t-3.5 -9q-11 -10 -21 -35h-12q-2 0 -3.5 -3 t-3 -7t-3.5 -6q-14 -3 -21 -10q0 5 -5.5 7t-6.5 3q-1 0 -2 1t-2 1q-8 -4 -10 -8h-4l-5 -10q0 2 -2 2q-2 -1 -5.5 -5.5t-8.5 -5.5q0 -4 -3 -10.5t-3 -9.5q-4 0 -7 8.5t-3 13.5q-4 -1 -13 -10q-8 0 -10 -2l-6 2q0 -1 -1 -4.5t-1 -5.5q-6 0 -2 -4h-4v-4h-8q-6 -6 -11 -4 q1 17 2 29.5t4 27t4.5 20t7 25t7.5 25.5q0 3 1 6t2.5 6.5t2.5 5.5q3 13 13 38.5t12 33.5q4 8 4 14q2 7 7.5 24t6.5 27q-3 0 -7.5 -5.5t-8.5 -6.5q-2 -2 -8.5 -5.5t-11.5 -8t-9 -9.5v-2q-2 -2 -8.5 -6.5t-9.5 -7.5l-11 -10q-3 -1 -30 -36.5t-33 -39.5l-12 -18q-3 -1 -8 -9 t-7 -10q0 -2 -1.5 -4t-4 -5.5t-4.5 -6.5q-5 -2 -8 -12t-4 -11q0 -5 -6 -8q-2 -4 -4 -6q-3 -6 -2 -8q-2 -1 -5 -6t-6 -7q-14 -14 -14 -20v-2q-7 -7 -39.5 -82t-36.5 -82q0 -2 -2 -6t-2 -8q3 -6 -6 -21q-1 -2 -2 -8t-2 -8q0 -5 -6 -8l2 -4q-1 -3 -4 -7.5t-4 -5.5l2 -6l-9 -14 q0 -7 -6 -19q-2 -2 -2 -4q-1 0 -1 -1q0 -3 -1 -5q-1 -3 -3.5 -11t-5.5 -16t-7 -14q1 -3 -1 -10.5t-1 -9.5q-1 -1 -0.5 -4t0.5 -6t-2 -3q-1 -3 -3 -10t-3 -10l-3 -2l-20 -129q-4 -32 -4 -47q0 -19 -2 -29q2 -4 1 -14t1 -13q0 -12 3 -26.5t3 -22.5l8 -20h2q1 0 2 1.5t2 3.5 t2 3q6 8 22 18.5t21 18.5v4h2q-3 6 5 6q0 16 10 19q0 2 1 3.5t1 2.5q4 5 11.5 20t12.5 21q0 4 3 8.5t4 7.5q3 2 6 8t6 8q1 7 4.5 11.5t3.5 7.5q1 1 1.5 4.5t1.5 6t3 3.5q6 10 15 19q6 26 24 55q0 2 2 4l35 102q-5 2 -16.5 2.5t-14.5 2.5l-6 2h-4q0 1 -2.5 3t-6 6.5 t-5.5 12.5h-4q2 2 -2 2q0 5 -5 8q-3 2 -8.5 10t-9.5 11q0 4 -4 8l2 4l-10 10q0 15 -2 17q1 1 1.5 6.5t2.5 7.5q2 -1 16 4q12 0 21 6v-2q19 6 34.5 17.5t34.5 15.5q6 3 18.5 7t18.5 7q8 1 26 4.5t29 4.5q32 9 52 11t34.5 0t22.5 -1t19 -1.5t18 -2.5q1 0 4.5 1t5.5 1 q20 -1 23 -28t-4.5 -54t-14.5 -37q-5 -8 -19.5 -23t-17.5 -18q1 -2 3 -7.5t2 -7.5t-1 -8q-1 0 -1.5 -1.5t-1 -4t-1.5 -4.5q0 -1 -0.5 -3.5t0.5 -4.5q-7 -7 -12.5 -23t-9.5 -22q-4 -12 -8 -20q0 -2 -3.5 -4.5t-3.5 -4.5v-4v-2q-2 -8 -9.5 -26t-8.5 -21q-1 0 -1 -1t-1 -1 q-1 -6 -7 -15.5t-7 -13.5q-6 -3 -11 -18q3 -3 -4 -10q-2 -2 -4 -6h-2q0 -7 -4 -11q0 -1 -2.5 -5t-1.5 -7l-4 2l-2 -6q-16 -27 -19 -29q0 -3 -3 -6t-3 -6q-1 0 -1 -1t-1 -1q-17 -23 -24 -43q-1 0 -3.5 -1t-3.5 -1q0 -3 -3.5 -9t-4.5 -12q-11 -11 -12 -16q-1 -4 -5.5 -10.5 t-6.5 -9.5q-4 -1 -7.5 -9.5t-7.5 -11.5q0 -3 -3.5 -7t-4.5 -7q-4 -6 -12.5 -21t-11.5 -20q-1 -1 -4.5 -3.5t-6 -5t-4.5 -6.5l-2 -2q-8 -8 -10 -8q-1 -3 -2.5 -6l-3 -6t-2.5 -4q-7 -7 -39 -27l-14 -10q-4 -1 -10.5 -4t-10.5 -4q-6 -5 -8 -2q-2 -1 -8 -5t-9 -4v-8q-4 -4 -8 0 l-6 -2q0 -9 -29.5 -15t-64 -1t-45.5 22h-4v4l-23 15l-8 10q0 8 -6 8q0 5 -8 13q-1 2 -6.5 6.5t-6.5 9.5q-3 1 -6 7.5t-6 8.5l-8 8q0 18 -16 31v10q-1 3 -3 8.5t-3 10t-1 8.5v6q-4 5 -6.5 12.5t-4.5 19t-3 15.5v9q-1 1 -1 4.5t-1 5.5q-2 4 -2 18q0 6 -2 8l-2 50q2 16 1.5 55 t2.5 55v27q2 12 7.5 43.5t6.5 46.5q2 6 9 25t8 28q10 32 16 64q0 2 3 7.5t3 8.5q9 25 13 47q2 9 22.5 51.5t22.5 48.5q7 18 13 32.5t7 18t8.5 18.5t18 33.5t35.5 63.5q3 11 29.5 52.5t29.5 48.5q3 1 5 5.5t5 6.5l2 4q7 4 10 12q7 7 7 9q2 6 12 16q2 3 7.5 9.5t8.5 10.5l4 4 h2q2 4 7.5 10.5t7.5 10.5h2q1 5 7 9.5t7 6.5q2 0 6 9q1 0 1 1.5t1 2.5l2 2q2 2 7.5 5t8 5t3.5 6h4q0 2 4.5 4.5t5.5 5.5q1 0 2.5 4.5t3.5 4.5q11 4 13 8q1 0 2 1t2 1v4q2 0 4.5 3t5.5 3q0 1 1 2t1 2q1 0 1.5 0.5t2.5 2t4 3.5q22 22 79 64.5t69 42.5q6 1 17 6.5t17 7.5 q0 1 3 1t4 1q52 7 71 2q0 -2 4 -2z" />
<glyph unicode="H" horiz-adv-x="753" d="M872 1421h7q2 0 6.5 -1t7.5 -1h2q1 0 4.5 -2t5.5 -2q2 -1 13 -18l4 -4l4 -4q2 -1 5 -4.5t5 -4.5q22 -33 22 -65q5 -10 5 -15t1.5 -26t0.5 -33v-2q-2 -18 -13 -43q-19 -77 -43 -133q-20 -46 -49 -127q-18 -53 -18 -55q-2 -2 -2 -7q-31 -72 -37 -92q-16 -58 -47 -157 q-36 -104 -99 -314q-44 -162 -47 -174q-1 -5 -4 -19t-4 -22q-2 -7 -4 -22t-4 -23q-1 -6 -3 -20.5t-3 -20.5q-4 -9 -13 -41h-4q-1 -1 -2 -7.5t-2 -8.5q-3 3 -7 13.5t-11 15.5q-1 -1 -12 -33q-1 -2 -3 1q-2 2 -4 1t-6 2.5t-7.5 6.5t-7.5 1.5t-5 -10.5q-2 2 -4 10q-2 7 -4 6 q-18 -36 -32 -25q-7 5 -7 19h-4q-5 -16 -7 -18q-4 1 -8 16q-2 5 -4 16t-4 15q-4 4 -4 14q-4 7 -5.5 15.5t-2.5 21.5t-2 22q-4 22 4 74q1 7 0 20t0 19q2 6 2 16t2 15q4 12 4 18q0 7 6 31q26 119 62 246q-14 3 -41.5 3.5t-38.5 2.5h-8q-12 3 -31 -2q-3 0 -7 1t-5 1t-4.5 1 t-4.5 1q-4 2 -16 2q-9 -17 -12 -41q-6 -6 -6 -14l-5 -15q-7 -48 -20 -80q-4 -20 -6 -28q-8 -49 -10 -64q-2 -4 -5.5 -20t-5.5 -21q-2 -8 -6 -28q-5 -26 -16 -62q-9 -37 -12 -78q-5 -15 -5 -16q-4 -17 -2 -29v-4h-6l-10 -10q-4 -2 -8 -2t-4 8v2q-2 2 -4 2q-1 2 -2.5 8t-4 9.5 t-6.5 3.5q-4 -3 -8 -17q-8 4 -20 -19q-13 -27 -19 -27q-4 1 -8 10l-4 4q-1 1 -3 14q-4 17 -5 16q-20 -43 -25 -43q-2 0 -9 14q-3 7 -7 11l-4 2q-3 -9 -6 -21q-4 8 -4.5 28.5t-0.5 23.5q3 11 -2 16q-1 5 -2 15.5t-2 15.5q-1 6 -1 18t-1 19q1 8 1 23t1 28t4 26q4 46 13 82 q0 5 1 11t2.5 13t2.5 11q1 7 6 37q6 25 18.5 78.5t18.5 77.5q0 2 1 7.5t1 8.5q1 5 5 15.5t5 15.5q-1 0 -3 1t-3 1q0 2 -4 2l-4 2q-9 0 -17 4q-4 2 -9 4t-11.5 4.5t-9.5 3.5q-4 4 -9 4q-1 1 -2 4.5t-2 4.5q-37 37 -43 45q0 1 -1 2t-1 2v8v6l4 12h2q2 2 7 2q1 0 4 3 q18 18 43 18q8 4 10 4q2 2 7.5 5.5t8.5 6.5q10 3 26.5 9.5t30 11t27.5 8.5h2q0 8 4 12q0 1 1.5 5t1.5 6q35 110 53 151q16 38 18 41q3 9 8.5 22t8.5 25q6 18 6 21q3 8 9.5 22.5t8.5 20.5q9 23 28 61t29 64q0 10 7 20q13 38 45 100q0 7 2 11q9 9 12 22q0 2 1 5t1 5q3 6 8 21 q4 4 11 4q0 2 2 3.5t2 2.5l2 2q1 0 3 2t3 2h14q6 -6 12 -4l5 2h6q7 -1 20 -10q4 0 4 -2q1 0 2 -1t2 -1q3 -3 27 -21l6 -6q2 -4 6 -8q2 -4 4 -16t4 -17q0 -3 2.5 -10.5t2.5 -11.5q0 -3 -1.5 -8t-1.5 -7q-1 -4 0 -13t0 -13q3 -6 0 -12v-13q0 -1 -1 -4t-1 -4q-2 -5 -2 -17 t-2 -18q-1 -6 -4 -18.5t-4 -18.5q0 -4 -8 -30t-8 -31l-2 -4q-4 -4 -4 -6q-1 -5 -17 -47q-14 -27 -14 -29q-3 -13 -17 -42t-22 -40q-1 -2 -1 -5t-1 -5q-3 -3 -6 -13q-3 -13 -10 -22q-3 -7 -9 -22t-8 -19q-2 -6 -12 -41q0 -4 -2 -6q4 -2 6 -2q12 0 16 -2t11 -2h16q14 0 28 -2 t30 -6t24 -5q8 30 18 45q5 11 19 38t20 42q51 117 78 197q0 6 8 22q1 1 11 26.5t20.5 52.5t21.5 54.5t15 36.5q5 8 11 24.5t7 18.5q6 10 19.5 32t19.5 32q4 4 6 8q6 6 6 10q4 6 9 21l4 6q0 1 2 3t2 3l2 2q7 -2 16 2q2 2 6 2z" />
<glyph unicode="I" horiz-adv-x="479" d="M-59 106v3q2 2 14 10l10 10h12l7 10l24 8l35 13h-2l8 2q0 6 10 8q0 6 3.5 17.5t3.5 17.5q6 34 8 41l6 49q0 10 4 18q0 2 1 5.5t1 5.5l20 84l31 102q5 16 23 88l33 98v-2l36 99l72 153l47 96q12 15 35 78h-6q-1 0 -19 6q-12 0 -20 4l-35 9q-6 1 -16.5 1t-16 1t-8.5 4v90 q5 20 10 25q7 0 9 2q1 0 2 1t2 1q18 11 37 14l24 10q12 5 32.5 5t37.5 5l35 5q8 2 24 4t19 2q2 0 4 1t4 1l18 6q6 0 10 2h11q2 0 6 -1t6 -1l16 -2q3 0 8.5 1t8.5 1l45 4h18q13 0 19 -2q8 0 16 -4h-2q2 -1 4 -2.5t3.5 -2.5t2.5 -1q11 -4 18.5 -11.5t10.5 -7.5q3 -5 1.5 -14.5 t-3.5 -11.5t-2 -4q-4 -14 -2 -15l20 -20l-20 -4h2l12 -7l-4 -4q-4 -15 0 -22h-2q-9 -1 -7 -4q2 -2 5 -2q-25 -20 -35 -17q-4 0 -16 -6q-14 0 -25 -8q-6 0 -12 -2q-25 -6 -31 -12l-16 -33l-25 -41v-8l-10 -17q-15 -22 -19 -37l-14 -30q-2 -2 -2 -8q0 -12 -6 -21l-8 -12v2 q-13 -38 -36 -87t-36 -87q-25 -49 -35 -84l-8 -31q0 -4 -6 -22q-15 -39 -31 -95q-4 -4 -4 -14q0 -1 -1 -2.5t-2.5 -3.5t-2.5 -4q0 -11 -12 -35v2l-6 -39q-30 -110 -50 -227h19q41 0 53 -8l31 -2l10 -13q5 -1 0 -12t-4 -12q15 -10 18 -13q2 0 -2 -6q-3 -4 -2 -4q-2 -4 -8 -6 l-14 -14v-9q0 -1 -0.5 -1.5t-1.5 -2t-2 -4.5q0 -2 12 -4q2 -3 1 -6t0 -5t5 -3q2 -6 -2 -8q-7 0 -14 -7l-29 -8v2q-6 -6 -14 -10q-6 -6 -13 -6q-46 -23 -67 -23q-6 0 -12 -2q-20 0 -23 4v-2q-36 -4 -51 -4q-4 0 -12.5 -1t-12.5 -1l-22 -4q-6 -2 -23 -2q-12 -1 -39 -5.5 t-47 -7t-26 0.5l-7 2h-10q-16 8 -20 8q-2 1 4.5 6.5t13.5 11.5t4 9h-20l16 20q-3 -1 -6 5.5t-1.5 14.5t9.5 11l-20 10q-4 4 -2 14z" />
<glyph unicode="J" horiz-adv-x="520" d="M858 1296l10 -14l4 -2q3 0 21 -6q0 -4 14 -12l-4 -9q-16 3 -26 -2q2 -2 10 -2q21 -12 22 -18q2 0 2.5 -1t2 -4.5t4.5 -6.5l-5 -9l-30 -12q0 -12 2 -14q0 -9 -19 -17l-8 -8l-16 2q-9 0 -13 -2l-14 2l-39 -4q-4 -2 -20 -2q-4 -4 -13 -4l2 2q-12 -2 -22 -6h-10 q-2 1 -7.5 0.5t-7.5 -2.5q-9 0 -18 -6l-25 -6q0 -1 -1 -4t-1 -5l-6 -14q0 -4 -2 -4q0 -12 -2 -14q-6 -4 -6 -11q0 -10 -4 -18l-33 -111q0 -7 -6 -10q0 -8 -4 -20q-2 -6 -5 -20t-3 -15q-2 -4 -5.5 -12t-3.5 -9q-2 -7 -8 -47t-8 -47q0 -2 -2 -8.5t-2 -9.5q-2 -6 -2 -13 q-4 -13 -12.5 -48t-15 -62t-7.5 -27l-2 -18q-4 -4 -4 -13q0 -8 -2 -12l-4 -6l-1 -3q-1 -4 -1 -9v-6q-8 -8 -8 -15v-8q0 -2 -3.5 -12t-3.5 -13q-2 -2 -2 -8q0 -1 -0.5 -2t-1.5 -3.5t-2 -4.5l-2 -10q0 -1 -1 -6t-1 -9l-2 -6l-12 -32q-3 -24 -10 -33q0 -7 -4 -19q-7 -7 -7 -16 q-2 0 -6 -4q0 -11 -6 -23q0 -6 -4 -10q0 -12 -6 -24l-6 -15q-2 -6 -6 -14l-5 -10q-6 -6 -6 -9q0 -6 -2 -8q0 -1 -1 -3t-1 -3l-4 -8q0 -2 -3 -7.5t-3 -6.5l-4 -9q0 -4 -4 -8q-6 -6 -6 -14l-7 -14l-6 -11l-4 -6q0 -2 -4 -6q0 -4 -4 -12l-8 -15q-6 -6 -6 -12l-11 -14 q-5 -12 -12 -19l-12 -12q-1 -10 -20.5 -28t-26.5 -21l-8 -10q-8 -4 -17 -15h-10q0 -4 -8 -4l-8 -4l-11 -8l-8 -4h-8l-8 -4q-1 0 -3 -1t-3 -1q-20 -4 -31 -4q-1 0 -1.5 -0.5t-2 -1t-4.5 -0.5h-11q-3 -3 -16 -3q-1 0 -3 1.5t-3 1.5q-12 0 -18 2q-54 13 -56 14q-7 0 -10 6l-8 6 l2 -2q-8 0 -10 6h2l-9 6l-6 7q-1 0 -3 1t-3 1l-12 14q-2 6 -4 8l-8 6l-11 11l-6 12l-4 10l-6 4l-10 12l-10 23h2l-11 14l-6 15l-4 12l-4 14v-2l-4 19q0 6 -4 14v8h2q-4 4 -4 19q-3 3 0 10l-1 3q-1 4 -1 9v29v8q0 13 4 25q0 11 6 41l4 22q1 2 3 12t3 13q0 8 6 12h-2l6 20 q0 3 2 5q0 1 2.5 5t2.5 5l6 16q0 1 4 11t8 14h-2l8 16l8 21l9 12q0 1 1.5 3.5t2.5 4.5t2.5 4.5t1.5 3.5v2l18 25l21 29l8 10q2 4 6 10l4 14l21 23h-3q7 11 21 20l8 9l29 26l12 15q14 0 16 -5v2q1 0 3.5 2.5t3.5 2.5h10q6 0 8 2l8 -4h23l22 -11q2 0 8 -1t7 -1l43 -45 q0 -8 2 -12l4 -10l8 -11q-3 -11 0 -14v-6q2 -6 2 -16l-22 -23l-9 -4v2l-14 -16l-8 -5h2l-10 -12q-9 -9 -11 -10v-2l-10 -10q-2 -1 -3.5 -4.5t-4.5 -6.5q0 -1 -1 -2.5t-2.5 -3.5t-2.5 -4l2 2q0 -8 -8 -14v2l-11 -18q0 -1 -1.5 -4t-3.5 -6.5t-3 -6.5q-8 -8 -8 -12q-4 -4 -4 -8 q-11 -8 -14 -21q0 -4 -2 -10q-3 -6 -9 -12h2q-4 -9 -4 -13q-2 -6 -4 -10q0 -6 -2 -8q-6 -9 -6 -14q-1 -2 -2 -9.5t-2 -9.5q0 -10 -8 -22q-4 -8 -4 -11v-10q-2 -2 -2 -8t-2 -8q0 -1 -1 -3t-2 -5.5t-2 -6.5q0 -1 1 -4t1 -6l3 -41v-10q0 -1 1 -4t1 -4q0 -2 2 -8q2 -4 2 -21 l8 -10q0 -10 2 -12q0 -5 8 -13q0 -2 -2 -2l8 -8l13 10l10 11q0 1 2 3t2 3l8 10l12 14l11 11h-2l10 20l4 -4q0 6 8 18l8 15q0 2 8 10q0 4 5 14l10 21l18 39q0 4 8 16q1 1 5 12q0 1 6 19l6 14q0 4 6 10q0 2 2 7.5t2 7.5q0 1 1 3t1 3l8 24q8 29 11 33l16 51q3 8 14 45l13 31 q2 18 10 45l16 66q0 1 2 3t2 3q0 10 4 14l-2 -2l13 49l8 43q22 87 37.5 151t20.5 87t5 24q0 11 4 19l2 16q0 3 2 7t3 8h-5q-8 2 -12 -2l-18 -3h-8q-1 0 -3.5 -1t-3.5 -1h-8q-1 0 -4 -1t-4 -1q-6 -2 -27 -2l-14 2q-2 -2 -6 -2h-14q-6 4 -17 4q-9 0 -24 5q-5 0 -7 2 q-12 0 -16 4q-6 6 -20 6q3 7 2 8q-3 0 -7 4q-10 0 -10 6v-2q-2 0 -16 17v-2q-4 2 -14 6q-5 10 -7 10q-11 11 -14 25q-2 1 -4.5 4t-4.5 6t-3 4l-6 10q-4 11 -11 21q0 12 -2 16l-4 18q19 15 27 15l16 -4q11 0 15 -4l32 -3q4 0 11.5 -1t11.5 -1l10 -2q2 0 6 1t6 1q11 -3 27 0 q1 0 3 1t3 1l12 3l19 4l26 4h5l41 8l28 6l25 8l14 2l23 4l16 4q8 1 12 3l17 4h-2l18 4q10 0 14 4l21 2q92 8 96 10h10l33 2l37 -2q10 1 21 -2.5t14 -9.5q2 2 8 2l8 -2q7 -7 31 -19h6z" />
<glyph unicode="K" horiz-adv-x="743" d="M438 1382q6 -7 33 -12q0 -1 1 -2t1 -2q3 0 7 -2t7 -2q1 -2 5 -5l4 -3q0 -3 10 -8q1 -3 6 -7.5t6 -7.5q5 -5 4 -8q13 -9 15 -16q2 -3 7.5 -15t10.5 -18q-2 -3 0.5 -14.5t-2.5 -14.5q1 -3 0 -9.5t0 -8.5q-1 -1 0 -4.5t0 -5.5q-1 -1 -3 -5.5t-3 -5.5q1 -5 -1.5 -11.5 t-2.5 -10.5v-2q-1 -1 -2 -4t-2 -4q-4 -15 -17.5 -50t-24 -63t-10.5 -33q-1 -3 -4 -10.5t-4 -13.5q-7 -20 -8 -21q0 -8 -6 -8l-1 -9q0 -8 1 -8q-3 -4 -6 -13.5t-6 -12.5q2 0 0 -2l-3 -6q-2 -7 -4 -9q-1 -3 -5 -17.5t-8 -26t-7 -13.5q-5 -10 -6 -10q0 -6 -8 -14q0 -9 -4 -9 q0 -2 -1 -4.5t-1 -3.5q25 20 30 25q14 9 17 14h2q6 5 17 15.5t17 15.5q18 14 23 20q4 2 10 9.5t10 9.5q2 3 7.5 8t7.5 8q1 1 3 2t3 2h2q1 3 6 8.5t6 8.5q15 11 23 22q3 3 9.5 13t12.5 14q1 1 6.5 7t6.5 11h2q13 18 14 21l21 28v2q6 7 20 31q4 4 4 8q8 8 8 15q4 6 11.5 19.5 t11.5 19.5q0 3 4 8q10 26 14 32v3q0 2 2 2q1 7 6.5 18.5t6.5 15.5v4q0 1 2 7t4 8q1 3 2 9.5t2 10.5q2 5 8 27q0 1 -1 1t-1 1q3 6 5.5 17t4.5 14q0 2 6 8q6 0 6 -2q1 1 5.5 1t5.5 1h6q2 0 2 -2q8 0 14 -2q-1 -1 2 -4q2 -2 6 -2v-4q4 0 7.5 -1t7.5 -3l6 -3q1 -2 6.5 -5.5 t5.5 -8.5q6 0 6 -6q1 0 2 -1t2 -1q2 -1 4.5 -3.5t4.5 -2.5q3 -11 8 -15l6 -6q8 -26 16 -37q-1 -3 1.5 -6.5t2.5 -7.5q0 -7 5 -22q1 -2 0 -6t0 -5q-3 -7 2 -12q-2 -16 -11 -43q-3 -13 -6 -23l-6 -12q0 -5 -4 -12t-4 -8q0 -7 -2 -9q0 -1 -1 -4t-1 -4q-2 -1 -6 -12h-2 q0 -4 -2 -8q-3 -1 -5 -7.5t-4 -7.5q4 2 -10 -25t-31 -54t-20 -25v-4q-1 0 -2 -2t-2 -2q0 -3 -4.5 -8.5t-5.5 -8.5q-3 -1 -7 -10l-2 -2v-2l-30 -37q-34 -40 -35 -37q0 -2 -1 -3.5t-1 -2.5q-3 -2 -6 -6.5t-6 -5.5q-2 1 -18.5 -16.5t-35 -36t-22.5 -19.5q0 -4 -4 -4 q-1 -3 -5.5 -5.5t-5.5 -4.5q-7 -7 -16 -10q-2 -2 -2 -4q-4 -2 -11.5 -7.5t-11.5 -7.5l-11 -8q-11 -9 -21 -17.5t-11 -11.5q0 -3 3 -7.5t4 -8.5l2 -2q0 -2 1 -5t1 -5q-2 -3 0.5 -7.5t1.5 -7.5q4 -4 2 -10q7 -4 7 -88t-3 -125q2 -4 2 -22q0 -1 1 -4t1 -5q-1 -2 0 -14.5 t2.5 -26.5t1.5 -16v-2v-4v-2q0 -2 2 -2q0 -15 4 -19q0 -7 3.5 -18.5t4.5 -15.5q23 -101 62 -103q9 -5 12.5 -12t9.5 -6q-2 1 1 -3t1 -3q0 -1 -1 -4t-1 -5t2 -4q3 -8 -7 -23q-5 -7 -9 -3q-2 -4 4 -21h4v-4q-4 0 -7 -4.5t-7 -3.5q-6 -8 10 -18q0 -12 -20 -17h-2 q-3 -1 -10.5 -2t-10.5 -2q-1 -3 -6 -4.5t-6 -3.5q-6 -5 -15.5 -3.5t-17.5 6t-15 9.5l-7 4h-5q-2 0 -2 2q-2 0 -5.5 3t-6.5 3q-5 5 -6 5q-2 2 -10 6l-2 3q-2 2 -4 3v2q-2 0 -3.5 2t-3.5 2l-4 4q-1 0 -3 2t-3 2q-2 1 -5 5t-5 5l-3 3q-2 3 -1 6q-3 1 -6.5 5t-5.5 5 q-2 -1 -14 16.5t-23 36t-11 19.5q0 3 -2 7t-2 7q-1 0 -2 1t-2 1q0 3 -2 7t-2 7q-2 0 -4 2q-8 -12 -37 148q-10 54 -10 65q-2 4 -2 17q0 18 -2 26v37l2 2q-2 6 -2 25.5t-6 25.5h-4q-2 0 -2 2h-7h-6l-12 -6q0 -8 -2 -10q0 -8 -4 -12q1 -2 0.5 -4t-2.5 -2q-1 -2 -9 -37.5 t-14 -42.5q3 0 2 -2l-2 -2q1 -4 -22 -97q0 -10 -2 -12q-6 -12 -14 -42.5t-5 -41.5q-1 -1 -3 -4t-3 -4q-2 6 -14 -66v-4q-1 -2 -1.5 -5t-1.5 -6t-3 -7q-4 -12 -4 -21l-2 -2q2 -4 -5 -18q0 -1 1 -1t1 -1q-1 -1 -3.5 -7.5t-4.5 -9.5v-1v-3q-3 -2 -6 -7.5t-6 -6.5q0 -9 -6 -12 q-2 -6 -4 -8q-1 0 -2 1t-2 1l-2 -2q-8 0 -14.5 -8t-8.5 -9q0 -8 -6 -8v-4q-13 -6 -25 0q-4 0 -10.5 1t-11.5 1q-3 5 -14.5 4t-14.5 -8q-1 0 -2 -1t-2 -1q-2 2 -5.5 13t-6.5 15q-7 14 -10 17q-1 6 -6.5 19t-6.5 20q-4 16 -4 26q0 13 -2 17v14q0 2 2 2v35q20 121 21 127v2 q2 6 4 19.5t4 19.5q1 6 5 22t5 25q2 6 4 17.5t4 17.5q4 16 4 24q5 11 9 29q1 3 3 9.5t3 9.5v12q4 8 8 24q5 14 14 56q2 0 2 2q0 4 6 22v2q2 6 5.5 18t6.5 22t7 18q0 12 8 28q2 8 7 23.5t7 23.5q20 63 33 107q2 3 5 11t5 11v5q0 2 2 0q-1 4 2 10t3 8t2 2q5 17 17 48t17 48v4 q4 12 7 15q6 26 16 45l6 12q0 2 4 14q5 9 33 72t35 76q1 0 2 3.5t4 4.5q1 3 3 8t3 8q17 34 25 52q1 0 1 2t1 2q2 7 8 17.5t8 14.5q9 14 12 15q0 2 2 4t2 4q2 1 5.5 5t5.5 5q14 0 18 2v2h4q4 0 4 2z" />
<glyph unicode="L" horiz-adv-x="585" d="M479 1358q6 0 19.5 -4.5t21.5 -3.5q47 -23 58 -33q9 -6 14 -6q16 -32 14 -47q0 -8 -6 -23q-1 -2 -7 -15.5t-13 -21.5l-9 -20q-1 -3 -6 -12t-6 -15l-8 -16q-5 -10 -8 -25q-2 -7 -8.5 -20l-8.5 -17q-22 -39 -24 -41q-12 -41 -33 -67q4 -15 -8 -23q-2 -13 -17 -43 q-9 -27 -38 -96q-3 -6 -13.5 -38t-19.5 -44q-6 -18 -22.5 -53.5t-20.5 -57.5q-30 -82 -41 -115t-16.5 -54.5t-16.5 -55.5q-5 -41 -14 -59q0 -2 -1 -4.5t-1 -3.5l-4 -27q0 -6 -4.5 -18t-4.5 -13q0 -2 -1.5 -11.5t-3 -17.5t-5.5 -14q16 4 35.5 11.5t44.5 9.5q8 2 25.5 5.5 l22.5 4.5t18 3t21.5 2h22t29.5 -1q89 0 119 -20q1 -2 7.5 -7.5t6.5 -11.5q3 0 11 -4q-15 0 -25 -10q12 -15 31 -21q-2 -2 -13 -2q-6 -4 -18 -4h6q-2 -2 -7 -1.5t-9 -0.5l8 -8v-2h6q4 -4 4 -6h8q-4 -2 -26 -8q0 -3 1.5 -4t3.5 -1.5t3 -1.5q0 -1 -2 -1t-2 -1q1 -1 5 -2 q7 -1 3 -4q4 -1 11.5 -4t11.5 -4q-6 -3 -17 -3t-14 -1q-1 -4 3.5 -5.5t4.5 -4.5q-4 0 -11 -1t-11 -1q0 -1 1 -1q1 -1 1 -2t-2 -4q9 -3 12 -6q-19 -2 -57 -1.5t-60 -0.5q-9 -1 -15.5 -5.5t-15.5 -4.5h-16q-14 -2 -32 -10t-32 -12l-20 -5q-6 -1 -14 -5.5t-13 -4.5 q-7 -2 -17.5 -5.5t-14.5 -4.5q-2 -4 -9 -4q-10 0 -20 -10q-9 -4 -5.5 -7.5t-6.5 -7.5l-29 -12q-25 -10 -27 -20q-6 0 -6 -7q-20 -4 -28 7q-1 0 -16 1t-17 -1q-11 -3 -15 6q-6 0 -8 2q-4 8 -12 16q-33 18 -35 37l-4 12q0 2 -2 4t-4.5 3.5t-3.5 2.5t-2 5t-2 6q-6 6 -6 12 q-4 12 -5 12q-1 3 5 21v22q3 18 18 101q9 41 20 80q5 31 9 40l10 37q10 62 41 176q10 20 24 72l27 70q15 26 34 77.5t23 61.5q67 141 97 195q0 1 12.5 24t17.5 35l93 147l36 60q12 18 35 41z" />
<glyph unicode="M" horiz-adv-x="1089" d="M690 805q2 2 7 7.5t8 8.5q5 14 10.5 26t14 25t13 19.5t17 23.5t16.5 23q34 49 135.5 182.5t130.5 173.5q8 10 24 29.5t28.5 36.5t21.5 33q3 2 9 3t10 3q7 -3 22.5 4t32.5 -2q2 0 5 -1t5 -1h-2q9 -4 21 -2q32 -20 45 -45v-25q0 -6 4 -10q0 -3 -1 -9t-1 -12v-10 q-3 -1 -0.5 -10.5t2.5 -11.5q0 -6 -3 -21t-3 -18q-5 -15 -10 -43t-7 -37q-14 -39 -18 -43v-6q-3 -9 -7.5 -27.5t-7.5 -28.5q-6 -7 -29 -94.5t-26 -93.5q-3 -18 -39 -157.5t-37 -145.5q0 -11 -4 -26.5t-4 -18.5q-2 -11 -10 -39.5t-10 -44.5q-5 -20 -12 -55.5t-11 -49.5 q-18 -128 -47 -243q-1 -2 -4 -2.5t-4 -1.5q-3 -8 -6 -2q-5 -24 -8 -25q-2 -1 0 14q-1 2 -3.5 -0.5t-5 -5.5t-4.5 -2l2 10q0 4 -4 -5l-3 -9q-3 -7 -3 -6q-4 9 -8 7t-4 -11q0 2 -5 4.5t-8 1.5q-4 0 -4 -12q-2 -1 -5 -5t-7 -4q-2 -1 -4.5 2t-3.5 3q-3 1 -4 -1t-1 -6t-1 -6 l-5 19l-1 4q-2 0 -6.5 -13.5t-6.5 -13.5q-2 -1 -1.5 -3t-4.5 -1l-10 -2q-1 2 -9 -3t-16.5 -4.5t-11.5 15.5q-1 6 -8.5 21.5t-9.5 21.5q-3 25 0 66q8 61 20.5 127t22 111t29 121.5t27 104.5t32.5 117.5t30 106.5q-123 -164 -176 -270q-1 -1 -39 -70q-35 -62 -53 -111 q-32 -98 -61 -147q-4 0 -7.5 -7t-6.5 -17t-5 -13q-1 1 -1.5 7t-6.5 7q-3 1 -4 0.5t-3 -2t-3 -2.5q0 -1 -1 -1t-1 -1h-15v8q-1 0 -5 8t-9 9q-3 -1 -5.5 -5t-5 -11t-3.5 -9q-6 0 -8 -4q-1 -2 -4 -5.5t-5 -6.5q-2 0 -3.5 3t-2.5 3t-3 -1t-3 -1q-3 0 -5.5 2t-4.5 2q-8 0 -12 -2 q-6 0 -11 -10q4 -2 4 -4q-1 1 -1 0q-1 -1 -3 0q4 -4 0 -4q-5 0 -4 4q-3 10 -7.5 34.5t-10.5 38.5q-4 12 -5 28t0 46t1 37q5 124 12 180q8 39 14 79.5t12.5 104.5t8.5 78q-17 -31 -42.5 -83t-31.5 -64q-6 -37 -22 -58q-28 -70 -76 -178q0 -14 -8 -30q0 -1 -9 -15 q-11 -23 -41.5 -95t-29.5 -81q-7 -11 -17 -45q-5 -2 -10.5 -28t-9.5 -29q-4 -2 -11.5 -13t-11.5 -14q-6 0 -18 4q-25 -5 -27 -16q1 11 -11 12.5t-17 -2.5q-2 -2 -4.5 -4t-3.5 -3t-2.5 -2t-2 -2t-1.5 -2t-1.5 -3t-1.5 -3.5t-2 -5.5q-3 -1 -5 3.5t-3.5 10t-4.5 9t-7 2.5 q-1 -2 -2 -9t-2 -9q-3 0 -9 -1t-10 -1q-6 -2 -10 -25q-5 18 -12 49v41l-9 19q2 12 23 90q16 61 109 284q2 6 5 18.5t5 18.5q23 49 43 109q4 13 10 25t13.5 26t11.5 22l30 70q20 40 60.5 119t72 142.5t56.5 121.5q20 38 59 113q5 10 19 34t20 37q3 2 7 8.5t7 8.5q9 17 17 20 q1 0 6 0.5t10.5 0.5t9.5 -1q1 0 3 -1t3 -1t2.5 1t2.5 1l4 -4q13 0 14 -4q22 0 27 -8q14 -4 29.5 -21t27.5 -22l10 -29q1 -1 0 -5t0 -5q0 -4 6 -16q0 -4 -2 -12.5t-2 -12.5q-2 -8 -2 -20v-19q-2 -5 2 -16q0 -4 -2 -11t-2 -8q0 -3 2 -8t2 -8q0 -6 -1 -16t-1 -15 q-1 -21 -7.5 -65t-8.5 -62q0 -18 -6.5 -50.5t-7.5 -47.5q-8 -55 -15 -86z" />
<glyph unicode="N" horiz-adv-x="741" d="M520 596q4 12 36.5 116t50 156.5t47.5 141t55 151t47 105.5q3 13 37 82q4 6 19.5 30t25.5 37q2 0 5 2t5.5 2t5.5 -4l4 4l16 -4h9q6 0 8 -2q1 0 3 -1t3.5 -1.5t3.5 0t4 2.5q8 -12 15 -12q1 -2 2.5 -6t2.5 -7t3.5 -6t5.5 -4q2 -3 7 -6.5t5 -5.5q2 -2 8 -4q4 -6 4 -25 q3 -6 3 -10q0 -2 -1.5 -4.5t-1.5 -3.5l-6 -8q-1 -3 -5.5 -12.5t-4.5 -14.5q3 -3 0 -12q0 -10 -6 -25q0 -10 -6 -18q-2 -4 -7.5 -12.5t-7.5 -12.5q0 -6 -2 -8q0 -1 -2 -4t-2 -4q-1 -1 0 -4t0 -6q-4 -15 -10 -19q-15 -50 -20 -59q-11 -32 -17 -43q-1 -5 -5.5 -14l-6.5 -13 q-5 -16 -8 -20q0 -4 -2 -6l-9 -17q-8 -16 -8 -29q-24 -57 -47 -98q-22 -78 -35 -106l-34 -109q-34 -87 -64 -215q-5 -19 -15 -59l-14 -56q-22 -81 -41 -206l-2 -17q-1 -1 -2.5 -6t-3.5 -8q0 -14 -6 -29v-10q-1 -2 -3.5 -3.5t-6.5 -3.5l-6 -3q-2 -7 -1.5 -17t-0.5 -18 q-6 -12 -6 -14h-15q-1 0 -12 10t-16 8q-3 0 -4.5 -4t-4.5 -6q-2 2 -4.5 6.5t-3.5 5.5q-1 4 -3 5.5t-5.5 3.5t-5.5 3l-6 -41q-4 3 -11 17l-2.5 -2.5t-4 1.5t-5.5 3q-2 -9 6 -25q-6 0 -6 6q-8 12 -33 37l-22 17q-27 24 -33 90q-4 22 -4 70v61l-4 80q-1 48 0.5 145t1.5 121 q4 29 14 207q-12 -19 -20 -43l-8 -15q1 1 -5.5 -20t-13 -43.5t-6.5 -24.5q-6 -12 -86 -297q-2 -8 -34.5 -139t-37.5 -162q-14 -32 -32 -43q-3 -9 -6 -12t-7 -2l7 3q6 2 6 3q-2 -2 -5.5 -2.5t-3.5 2.5q-3 -2 -12 -20q-2 1 -2 5.5t-2 4.5q-11 0 -18 -14q0 19 -7 28 q-3 -7 -10 0q0 -3 -2 -8t-2 -8q-2 6 -6 10q-3 10 -14 10q-1 -1 -0.5 -3l1 -4t0 -3.5t-2.5 -1.5q-2 -1 -4 0t-3 2l-2 2q-6 -3 -6 0q-5 -5 -6 -8h-4q-1 0 -4 -3.5t-2 -0.5q-1 -3 -3.5 -5t-5 -2h-5t-3.5 -1q-1 -2 -0.5 -8.5t-1.5 -8.5q-3 6 -13 27.5t-13.5 31t-6.5 29t-1 41.5 q2 34 16 86q16 55 65 256q33 116 103 320q14 30 55 157q23 62 64 152l28 74q5 11 18.5 37.5t18.5 40.5q5 8 15 34q1 10 14 35q20 20 20 37q17 31 21 43q2 3 10.5 10t11.5 13q36 4 54 -11q5 1 7.5 0.5t2 -2t1 -2.5t5.5 -2l12 4q4 -4 13 -4q10 0 16 -6q2 0 2 -2q4 -1 14 -16 q8 -4 15 -4q0 -17 8 -25q-5 -25 0 -33q-2 -10 2 -26q3 -11 3 -32.5t-0.5 -34.5t1.5 -19l-2 -35l-6 -76q-3 -14 -5 -43t-5 -43q0 -43 -2 -72q0 -2 -5 -22q0 -68 -4 -84q0 -5 -1 -10t-1 -7v-32q0 -3 -2 -43.5t-3 -70t1 -42.5z" />
<glyph unicode="O" horiz-adv-x="780" d="M537 1331q31 26 41 31q12 9 32 18q1 1 2.5 2t2.5 2t1 2q13 7 17 3q3 0 7.5 -2.5t6.5 -2.5q1 1 4.5 4t5.5 3t7 -5q6 -1 12 -1t8 -1q14 -14 16 -26q22 -9 27 -29q21 -40 12 -82q0 -3 -2 -7.5t-2 -6.5q6 -18 6 -19q5 -15 9 -61q0 -6 4 -18q-1 -2 0 -3.5t3 -4t3 -3.5v-10 q1 -3 4.5 -6.5t5 -6.5t0.5 -7q5 -1 14 -19q0 -4 2 -4q7 -7 11 -33q0 -2 3 -7t3 -7q0 -45 12 -55q-6 -49 -4 -58v-12q-3 -6 0 -12q0 -2 1 -7t1 -8q3 -27 -23 -160.5t-45 -191.5q-2 -5 -10 -24t-10 -31l-8 -19q-2 -5 -4 -15t-4 -13q-1 -1 -5.5 -6.5t-5.5 -8.5l-2 -8 q-5 -23 -24 -53q-24 -59 -72 -139q-4 -4 -14 -15t-15 -16q-10 -10 -32.5 -39t-38.5 -43q-4 0 -6.5 -2t-5.5 -5.5t-5 -4.5q-4 -8 -10.5 -12.5t-17 -9t-15.5 -7.5q-4 -2 -8.5 -9.5t-7.5 -8.5q-4 -4 -14 -4q-6 -2 -14 -7.5t-11 -7.5q-4 -2 -14 -2q-8 -8 -9 -8q-2 -2 -8 -2 q-4 0 -13.5 -3t-14.5 -1q-2 0 -4 -2q-1 -1 -1.5 -1t-1.5 1q-5 0 -14 3t-12 3l-21 4q-6 0 -10.5 2t-5.5 2q-10 0 -14 -2q-14 3 -25 10q-10 3 -47 31q-26 14 -57 59q-24 27 -45 78q-1 5 -3.5 15t-4.5 19t-5 18q-6 37 -6 120q5 68 23 160q29 117 39 146q50 147 106 260 q13 29 35 61q3 5 11.5 24.5t17.5 28.5l38 56q7 12 28 37.5t30 41.5q14 12 33 37l22 21q26 36 105 102zM608 1087q0 -4 -12 -22q0 -4 -2 -6q0 -4 -2 -7t-8.5 -8.5t-8.5 -7.5l-6 -14q0 -4 -8 -12l-12 -15q0 -10 -10 -20q-4 -8 -15 -19l-6 -8q-6 -3 -8 -12l-74 -131l-18 -35 q-4 -16 -8 -20q-11 -27 -52 -123q-4 -8 -4 -15q-12 -30 -12 -32q-3 -7 -4.5 -18.5t-3.5 -16.5q-3 -12 -8 -35q-23 -113 -25 -125q0 -8 -4 -20q0 -9 2.5 -32t1.5 -36q0 -3 -1 -7.5t-1 -6.5l6 -25q0 -2 -1.5 -7.5t-0.5 -8.5q0 -1 3 -7t3 -10v-22l6 -21q7 -15 11 -16 q2 -1 4.5 1.5t6.5 7.5t7 7q38 48 62 92q33 65 53 99q46 87 84 219q23 71 30 119q7 16 15 61q12 35 14 59q20 93 31 275q-1 -1 -10 -9t-15 -10z" />
<glyph unicode="P" horiz-adv-x="641" d="M303 1139q-23 0 -29 2q-6 -2 -14 -2q-25 0 -37 4q-25 6 -39 20q-2 1 -6.5 7t-7.5 8q-3 4 -10.5 9.5t-12.5 10.5q1 5 -4 16q1 5 5.5 10.5t5.5 8.5q6 0 6 14q6 4 20.5 15t24.5 17t20 11q0 4 19 10q1 0 -0.5 1.5t0.5 1.5q10 3 16 2q3 1 11 6t16 4q8 8 18 8q4 5 16.5 7.5 t16.5 6.5l47 9q11 -4 23 0l6 2l6 -1q6 -1 12 1q36 4 57 2q1 0 3.5 -1t3.5 -1l16 -2h25q3 0 12 -5.5t16 -5.5l4 -4q1 0 29 -8q0 -4 2 -4q1 -2 7 -4t9 -4q0 -4 9 -4q3 -1 18 -11q6 0 10 -8q11 -11 15 -12q3 -2 8 -5t8 -5q-1 -3 2 -6t4 -7q2 -2 5.5 -6t6 -6.5t5.5 -3.5 q7 -10 24.5 -33t28.5 -39.5t12 -21.5l4 -31l10 -25v-12q6 -14 2 -28q3 -12 -2 -25q1 -2 3 -8t3.5 -11.5t0.5 -9.5q0 -7 -5 -12q0 -2 2.5 -7t2.5 -7q-9 -12 -9 -29q-1 -9 -6.5 -28.5t-7.5 -28.5q-2 -3 -3.5 -12.5t-4.5 -12.5q-12 -21 -21 -45q-2 -4 -4.5 -9.5t-5 -9.5 t-6.5 -8l-25 -39q-2 -4 -5.5 -7.5t-8.5 -7.5t-8 -7q-15 -25 -39 -49q-4 1 -11 -4.5t-10 -12.5h-4q-6 -3 -19.5 -16.5t-23.5 -17.5l-12 -9q-10 -9 -60.5 -33t-58.5 -30q-8 -8 -34 -21q-2 -1 -14.5 -6t-20.5 -10l-49 -20q-7 1 -17.5 -3t-13.5 -4q-4 -2 -14.5 -2.5t-16.5 -3.5 l-20 -56q-3 -7 -9 -22q-78 -203 -81 -235q-7 -20 -20 -52.5l-15 -37.5q-3 -4 -8.5 -16.5t-12.5 -18.5l-2 -4q-3 -3 -9 -10t-9 -9q-6 -6 -13 -2q-3 0 -8 1t-8 1q-6 2 -25 -8q-3 -1 -2 -2q4 -2 2 -6q-6 5 -11 3t-7 -9l-2 2l-3 -2q-3 -1 -5 0q-1 -2 -9.5 -7.5t-9.5 -10.5 q0 -3 -2 -6.5t-2 -6.5h-14q0 -17 -10 -22q-2 -4 -2 -6q-1 0 -3 1t-3 1l-7 -4q-14 61 -6 143q3 23 8.5 47.5t14.5 57.5t12 46q18 40 25 74q10 37 20 68q8 26 23 57t20 43q89 263 119 340q14 26 27 68q8 21 28 63t29 64q4 8 8.5 21.5t8.5 23t9 16.5zM336 688q22 4 39 25 q69 54 106 98q10 11 30.5 39t29.5 39q37 63 39 102q0 55 -17 74q-14 35 -43 47q-6 14 -24 8q-1 -7 -8 -28t-7 -31t-6 -19q-2 -4 -2 -10q0 -4 -6 -10q-7 -22 -16 -35l-15 -41q-3 -12 -12 -24q-1 -8 -7 -22.5t-7 -16.5q0 -7 -4 -11q-1 -8 -9.5 -21.5t-9.5 -21.5q-6 -24 -6 -26 q-11 -23 -16 -41q-4 -7 -10 -22t-9 -19q0 -9 -12 -33h2z" />
<glyph unicode="Q" horiz-adv-x="735" d="M573 1366q1 0 5 1t6 1q3 1 10.5 4t8.5 3t9 -1q19 -6 21 -8l4 -6l5 -4q5 -3 7 -8q10 -13 10 -31q7 -3 7 -8q4 1 7.5 -2t6.5 -2q1 -1 2 -3t2 -2q1 -4 5 -10.5t5 -11.5q0 -1 2 -2t2 -2q6 -31 15.5 -128t7.5 -112q6 -23 2 -59q-1 -11 -5 -88.5t-5 -87.5q-2 -22 -11 -68 q-2 -2 -2 -10q-2 -14 -7 -69t-13 -83q0 -17 -35.5 -139.5t-46.5 -144.5q-6 -15 -14 -31l-23 -47q-1 -3 -4.5 -7.5t-3.5 -6.5q0 -11 8 -23q0 -3 3.5 -8.5t4.5 -9.5l9 -15q10 -10 14 -18q4 -9 10.5 -14.5t5.5 -10.5q12 -6 26.5 -25.5t18.5 -23.5q-2 -3 -2 -18 q6 -21 -7.5 -29.5t-27.5 2.5q1 -9 9 -20q9 -22 6 -31q-1 -1 -7.5 0t-9.5 0q-12 0 -16 -4l-2 4q-2 0 -3 -4t-3 -4v-19q1 -1 1.5 -6t2.5 -6q-1 -3 -4.5 -5t-7.5 -2.5t-6 -2t-1 -4.5q-4 -2 -3.5 -4.5t2.5 -7.5t1 -7q-6 2 -12 6t-12 9.5t-8 7.5q-14 13 -34 27t-34 28 q-3 3 -8.5 8t-7.5 6.5t-6 5.5t-5.5 6l-4.5 6t-5 7.5t-6 9.5t-7.5 12t-8.5 15q-51 -40 -66 -47q-6 0 -10 -2q-10 -10 -21 -13q-2 -1 -6 -1t-6 -1q-1 0 -3 -1t-3 -1q-8 -2 -27 -2h-26q-19 0 -29 2l-26 6q-12 4 -19 11l-27 16q-2 1 -22 16l-10 15q-45 48 -68 110 q-29 80 -33 137q0 9 -1 33.5t-1 38.5q5 98 41 211q35 126 103 275q14 37 39 81q5 14 47 84q-2 6 86 129q7 11 22.5 29.5t20.5 26.5q9 13 19.5 24t25.5 24.5t22 20.5q2 2 6 7t8.5 9t8.5 7q3 7 15 16.5t16 14.5q8 4 26 22q8 4 8 6q23 23 47 31zM522 1118q0 -4 -8 -12 q-3 -13 -10 -23q-2 -3 -11 -12t-10 -16q-1 -4 -20 -29q-3 -7 -15.5 -25t-17.5 -32q2 6 -15 -23q-65 -119 -75 -149v-2q-1 -7 -3.5 -13.5t-6 -12.5t-4.5 -9q-4 -7 -11.5 -22.5t-11.5 -22.5q-22 -76 -35 -105q-3 -7 -7 -24t-7 -25l-8 -26q-1 -15 -7 -41t-8 -37l-12 -72 q1 -5 0 -17t0 -18q0 -3 -0.5 -11t-0.5 -13.5t1 -8.5q2 -5 2.5 -16t1.5 -14q5 -30 6 -37q5 -24 23 -49q1 -2 1.5 -6.5t1.5 -7.5t3 -5q9 -9 33 0q1 0 20 19q12 8 17 18q-36 95 -43 176q1 1 2 6t2 7q11 15 65 24q7 -2 19.5 -1.5t17.5 -0.5q3 0 27 -8l14 -16q35 82 68 256l18 94 q2 31 10 92q1 15 11 98q0 16 3 50t3 51q0 65 -2 102q-5 -2 -8.5 -6.5t-6.5 -12.5t-6 -12z" />
<glyph unicode="R" horiz-adv-x="706" d="M307 1141q-2 2 -4 3t-3.5 1.5t-3.5 0.5t-3 1q-8 3 -15.5 8t-17 13.5t-14.5 11.5l-25 14l-8 12q-11 5 -12 8q-3 18 -15 46q-6 24 -6 32q2 4 4 5t5 1.5t4 1.5l32 13l21 6q11 2 41.5 9t46.5 10.5t42 6.5t48 3q43 0 61 -2q18 -1 78 -17q31 -3 47 -16q11 0 31 -10 q6 -7 20.5 -12t18.5 -9q10 -3 29 -18l18 -15l16 -8l7.5 -7.5t9 -11t4.5 -10.5q0 -4 4 -4q2 -4 6 -8t6 -7t4 -7t2 -8q2 -4 4 -10t3 -7q1 -2 2 -7t2 -7q14 -19 16 -49q0 -4 2 -11t2 -12l-4 -53l-2 -12q-4 -36 -10 -52q0 -1 -2 -3.5t-2 -4.5q-7 -27 -19 -35q0 -5 -2 -10 t-5.5 -10.5t-4.5 -7.5q0 -14 -8 -25q-11 -17 -13 -18l-6 -6q-15 -26 -24 -35q-7 -4 -13 -12q-4 -4 -8.5 -10.5t-9 -10.5t-8.5 -6q-20 -26 -37 -41q-76 -59 -154 -102v-50q0 -2 1 -5t1 -5q1 -2 0.5 -11.5t-0.5 -10.5q0 -2 4 -7.5t5 -9.5t2 -11t2 -11q1 -5 8.5 -30.5 t9.5 -41.5q0 -15 6 -27l4 -4l7 -20q2 -4 4 -12t2 -9q16 -41 20 -59q6 -6 6 -16q2 -6 9 -18t8 -17l4 -13q15 -39 20 -47q0 -1 1 -3t1 -3q8 -5 17.5 -21t15.5 -22v-6q5 -10 10 -12q1 -2 5 -5t4 -5q-1 -2 -9 -5.5t-8 -9.5q0 -1 1 -2.5t2.5 -3.5t2.5 -4l6 -8v-4q3 -7 19 -23 q-16 4 -25 4q-27 4 -30 -8q-1 -4 1.5 -8.5t7 -10t5.5 -6.5q1 -5 6.5 -12.5t7.5 -11.5q-2 -1 -7.5 -2t-6.5 -2q-5 0 -23 -6q0 -1 -1 -2.5t-1.5 -3.5t0.5 -5q-20 10 -39 13q-63 11 -110 75q-49 47 -74 119q-26 82 -39 148q-18 67 -22 213q-9 -2 -18.5 -5t-14.5 -3 q-4 0 -16 -1.5t-15 -1.5q1 9 -9 -29q-21 -79 -86 -354q-5 -21 -5 -22q-4 -20 -4 -33q-1 -6 -6.5 -21t-6.5 -22q-5 -16 -8 -18q-6 3 -12 12q-11 3 -19 12q-1 -2 -3 -7.5t-4 -9.5t-5 -5l-8 -8h-8q-1 -3 -1 -9t-1 -10.5t-4 -7.5q-3 1 -16 10.5t-25 5.5q-5 -5 -6 -10 q-3 15 -18 56t-15 77q2 39 10 99q13 76 45 202q4 19 9.5 40t13.5 47t12 40q44 146 125 359q29 70 100 215zM342 768q12 8 20 14q14 14 21 17q10 7 43 26q13 12 39 35t39 35q80 59 117 141q9 18 10 24t-8 23q-5 5 -9 13l-18 20l-16 8q-30 15 -35 15h-10l-23 8q-2 0 -7.5 -1 t-8.5 -1q-1 0 -4.5 1.5t-8 1.5t-8.5 -3q-2 -3 -2 -9.5t-2 -9.5q0 -1 -2 -2.5t-2 -3.5q-1 -3 -2 -9.5t-2 -8.5q-2 -2 -27 -56.5t-26 -60.5q-1 -3 -2.5 -8.5t-3 -9.5t-1.5 -6l-6 -15q-6 -13 -20.5 -62.5t-16.5 -54.5q-5 -19 -10 -26q-5 -15 -10 -35h2z" />
<glyph unicode="S" horiz-adv-x="778" d="M256 530q-2 -6 2 -10q2 -1 2.5 -3.5t1 -4t2.5 -0.5q-4 -7 -7.5 -21.5t-4.5 -17.5l-6 -12l-33 -105q-2 -5 -2.5 -12t-1.5 -10q0 -2 -2 -8t-2 -9q-9 -76 -6 -104q42 26 125 109q19 19 55 65q69 90 98 139q9 14 26.5 41.5t20.5 32.5q28 48 45 80l17 43q12 17 18 39 q8 12 6 20q-6 -4 -18 -4q-2 -2 -6 -2q-7 0 -11 -2l-20 -8q-15 -3 -18 -6q-6 0 -15 -6l-28 -9q-10 -7 -29 -10h-19q-20 -8 -32 -10q-4 4 -6 4l-23 -6q-44 -10 -97.5 8t-70.5 31q-5 12 -14 23t-15 22q-4 8 -8 35q-10 39 -8 53q0 17 12 49q9 30 15 43q14 25 39 70l24 35 q3 5 6.5 9.5t10 11t10.5 11.5q130 145 248 209l71 33l49 2q18 0 58 -33q17 -16 26 -52.5t4 -45.5l-10 -37q-8 -33 -29.5 -88t-31.5 -65q-5 -8 -12.5 -17t-10.5 -16q-2 0 -6 -2.5t-6 -1.5l-1 3q-1 3 -5 1q0 5 -7 8t-8 4q-1 4 -13.5 8t-16.5 4q-2 0 -7 2t-8 2l-4 35 q1 8 14.5 38t14.5 38q-15 -8 -88 -70q-36 -31 -55 -59q-7 -14 -19 -23q-2 -2 -5 -7t-5 -7q-2 -4 -9.5 -13t-10.5 -16q-4 -4 -9 -14q-14 -9 -14 -24q7 -7 23 4q7 0 17.5 5t12.5 5l37 8q10 0 82 16q32 0 41 3q9 -1 25.5 1t25.5 1q2 0 9 -1.5t12 -0.5l39 -15q5 -2 25 -11.5 t32 -14.5q8 -5 19 -19t16 -18q0 -7 8 -15q10 -12 16 -34v-19q8 -24 8 -37q-5 -34 -13 -67t-16 -56.5t-15 -40.5t-12 -28l-5 -11l-10 -18q-2 -4 -4 -13t-4 -12q-3 -7 -10.5 -19.5t-10.5 -16.5q-3 -16 -12 -23l-6 -6q-1 -3 -2.5 -8.5t-3 -9t-5.5 -5.5q-38 -72 -92 -139 q-5 -7 -11.5 -14.5t-14 -15.5t-11.5 -13l-10 -14q0 -1 -1 -2t-3 -3.5t-4 -4.5q-15 -20 -16 -21q-1 -2 -10 -11t-13 -16q-33 -31 -84 -71q-9 -6 -39 -33t-51 -37q-30 -24 -78 -39q-10 -2 -31.5 -10t-31.5 -10q-60 -7 -78 20q-14 7 -35 21q-27 18 -29 20q-11 22 -12 23 q-15 23 -22 43q-1 4 -5 11.5t-4 10.5q0 15 -2 47.5t-2 49.5q1 16 3.5 31t6 31.5t6.5 28t9 29.5t8 25t9 27t9 24q13 25 13 27l12 30q9 19 31.5 55.5t27.5 45.5q3 4 14 21t17 24q19 19 37 43q6 0 8 2q1 -1 10 -5.5t13 -8.5q0 -1 6.5 -9t5.5 -14q0 -2 -2 -4t-2 -4q0 -14 6 -17 q-1 -1 -2 -3t-2 -3q2 -3 2 -7.5v-7t2 -3.5q-4 -5 -5 -10t0 -13.5t1 -9.5q-2 -3 -0.5 -4.5t0.5 -3.5v-23z" />
<glyph unicode="T" horiz-adv-x="446" d="M145 1270l2 2h5q6 6 18 6q2 0 6 2l19 6v-2l12 8l18 2l43 13q10 4 29 4q1 0 2 1t2 1q20 8 57 14q125 24 256 27h25q88 0 131 -11l16 -12q31 -15 45 -39q0 -10 7 -14v-2l10 -12q-15 -15 6 -52h-2l8 -10q0 -5 6 -8v-8q-4 -8 -16 -8q-8 0 -12 -2q-8 -4 -15 -11 q-50 -15 -96 -12q-33 0 -61 -4q-20 -4 -35 -4h-15q-31 0 -45 -4q-5 -20 -36 -117l-19 -47l-20 -57l-17 -37l-8 -23q0 -1 -1 -4t-1 -4l-8 -18l-15 -35q-1 -8 -3 -14t-5 -12.5t-4 -10.5l-8 -17v3q-4 -16 -4 -21l-6 -22l-6 -15q-4 -4 -9 -20q0 -3 -3 -9.5t-3 -9.5q0 -11 -6 -20 l2 2l-8 -27l-8 -22q-26 -76 -35 -109l-10 -41l-6 -14q0 -3 -2 -17l-13 -43q0 -7 -6 -16q0 -1 -2 -4t-2 -4q-8 -24 -6 -35q-9 -18 -19 -74q0 -1 -2 -5t-2 -5q0 -2 -1 -7t-1 -7q-2 -4 -2 -8q-6 -15 -6 -29l-6 -29l-21 -45q0 -2 -4 -6v-14l-10 6h-2t-2.5 -1.5t-3.5 -4.5t-4 -9 q-17 6 -27 -17t-12 -23q-7 0 -14 34q-14 -18 -17 -34q0 -11 -12 -11q-3 3 -10 -2v4h-4q2 2 -2 2l-7 -8q-4 -4 -6 -4v-2q0 -10 -6 -10l-10 -25q-15 10 -10 25q-3 22 -13 53l-2 27q-4 28 -4 51q4 80 17 137q0 7 6 31q1 2 4.5 11.5t3.5 14.5l6 23l10 37l4 10l4 10 q14 46 46.5 147.5t46.5 147.5l26 74q21 61 33 90q17 25 23 47q34 98 61 150l25 57q-3 0 -5 -2l-16 -8q-6 -2 -24 -2q-5 0 -10 -1l-5 -1q-55 -10 -80 0q-25 11 -49 24l-12 10q-12 8 -25 21v-2q-2 1 -6 6t-6 6q0 3 -6 15l-6 18q-6 18 -8 20q6 12 2 21q0 14 2 18q6 13 24 17h8z " />
<glyph unicode="U" horiz-adv-x="731" d="M612 336v-6v6zM401 930l5 4zM346 1303l2 4q6 2 21 2q8 -4 14 -4q21 -4 25 -9l14 -14l10 -8l35 -27q0 -6 2 -6q4 -8 10 -8q1 -2 6 -11.5t7 -11.5l6 -12q4 -12 4 -22q0 -7 -4 -19v-8q0 -2 -6 -8l-9 -13q0 -10 -4 -26l-6 -21q-2 -6 -9 -24.5t-13 -28.5l-11 -22q0 -3 -10 -13 l-4 -8l-8 -22q-3 -5 -9.5 -18.5t-7.5 -14.5q-4 -4 -4 -8q0 -3 -2 -9q-2 -9 -22 -63q-10 -18 -19 -51q-9 -17 -28 -72q-64 -216 -78 -315q-1 -4 -7.5 -42t-7.5 -59q0 -65 21 -100q6 0 18 12l11 10q4 1 20 21q33 26 43 57q36 43 80 125l12 23q61 107 84 180q23 52 56 164 q2 9 5 19t7 21.5t6 18.5q14 74 29 119q1 6 12 39q17 74 27 168q0 57 18 125q16 63 33 33q10 10 8 20l18 -23l9 -12q3 -5 8 -4.5t8 -1.5v-12q-2 -13 10 -19q2 -3 8 4q0 -6 4 -10q0 1 1.5 2l3 2t2.5 2l24 -43q-3 -10 4 -28q5 0 11 -6l2 -35l6 -54q2 -33 -11 -108 q-6 -24 -6 -25q-35 -162 -84 -344l-8 -30q0 -1 -1 -3.5t-1 -3.5q-4 -4 -4 -8l-8 -20q-3 -14 -10 -27v2l-11 -24l-18 -48q-1 -5 -5 -16t-5 -16q-3 -18 -11 -35q-2 -6 -10 -20l-8 -15q-11 -15 -16 -27q-1 -3 -5 -13l-8 -19q-25 -28 -30 -52q-4 -4 -4 -10l-9 -12 q-19 -28 -20 -35l-10 -12h2q-10 -16 -19 -23q-1 -2 -5 -5t-5 -5q-3 -4 -3.5 -6.5t-1.5 -4.5t-12 -14t-34 -34l-12 -15h2q-7 -9 -27 -24l-16 -13v3q-15 -15 -21 -17l-16 -12l-70 -25q-6 -4 -27 -4q-39 -12 -77 -6q-21 5 -43 27l-43 28q-50 44 -66 105l-4 16q0 1 -4.5 22 t-9.5 31l-11 39v84q5 108 37 228l15 55q6 40 16 70q2 12 10 28q3 5 8 31l9 25q14 56 28 92q1 7 15 35q10 20 10 22q24 79 69 164l5 16q6 6 6 10l24 41q8 19 17 31q0 6 6 12q15 34 31 39q4 0 12 4v-2l12 31v17z" />
<glyph unicode="V" horiz-adv-x="604" d="M268 1311q9 0 13 2q2 -2 8 -2q2 2 4 2t6 -4q1 0 6.5 1.5t7.5 0.5q22 -11 27 -11q0 -2 6 -8q6 -2 13.5 -9t15.5 -7q8 -11 13.5 -26.5t10.5 -24.5q8 -5 11 -21q-1 -3 -4.5 -6.5t-4.5 -5.5q-2 -4 -4 -16t-4 -17q0 -5 -6 -29q0 -1 1 -3t1 -3q0 -6 -3.5 -16.5l-4.5 -13.5 q0 -7 -4 -19l-8 -39l-13 -63l-14 -78q0 -1 -6 -37q0 -3 -3 -15t-3 -20l-25 -149l-10 -39q-12 -75 -16 -133q4 8 16.5 35.5t23.5 51.5t15 36q6 12 20.5 48.5t27.5 64.5t24 46q40 85 75 148.5t56 111.5q8 22 41 76q21 37 40 74t27 52.5t17.5 29t19.5 22.5l6 13q14 19 47 57 q8 -4 10 -4q4 -2 13.5 -4t13.5 -4q0 -2 1.5 -5t0.5 -5q9 -1 19.5 -13.5t15.5 -15.5q0 -13 14 -23q-3 -12 8 -26q1 -2 2 -6.5t2 -8t3 -6.5q4 -8 4 -10q1 -4 -1 -12t-1 -13q-1 -6 -2 -16.5t-2 -15.5q-11 -11 -19 -31q-6 -9 -14 -28t-10 -23q-2 0 -2 -4q-6 -7 -16 -26t-19 -28 q-4 -13 -21 -39q-4 -11 -18.5 -33.5t-18.5 -37.5q-5 -9 -15.5 -34t-18.5 -38q-10 -14 -21 -41l-25 -37l-28 -53q-4 -8 -24 -45.5t-27 -60.5q-2 -4 -11.5 -24.5t-17.5 -31.5q-1 -3 -7 -17.5t-7 -21.5q-8 -8 -11 -24q0 -2 -2.5 -5.5t-3.5 -4.5q-2 -9 -28 -68q-10 -16 -11 -16 v-7q-2 -2 -26 -57l-6 -12q-6 -17 -9 -19q-2 -12 -12 -32l-16 -39q-15 -30 -21 -60q-5 -22 -20 -62t-17 -48q-2 -2 -4 -2q-6 -16 -27 -14.5t-36 -18.5q-97 -3 -94 4l-15 4l-10 8q-16 3 -23 10q-2 0 -6 -4q0 4 -4 4q-4 8 -28 52q-6 18 -7.5 40.5t0.5 56t2 44.5q11 90 11 145 q5 78 28.5 216t28.5 176q2 11 6.5 33.5l5.5 27.5q0 13 4 35.5t5 32.5q2 13 7.5 37t6.5 30q8 48 33 137q17 75 45 123q3 1 8.5 6t9.5 7q2 3 2 24q4 4 6 8v17z" />
<glyph unicode="W" horiz-adv-x="1159" d="M461 203q-4 -3 -14 -15t-17 -16q-19 -19 -24 -22q-3 -3 -3 -5h-4q-12 -8 -16 -14h-2q-4 -3 -12.5 -9t-12.5 -9v-2q-1 0 -2 -1t-2 -1q-5 -5 -17.5 -12t-15.5 -9h-2q-2 -2 -6.5 -4t-5.5 -4q-3 0 -8.5 -2t-9.5 -2q-8 -8 -11 -8q-2 -3 -9 -6.5t-9 -6.5q-8 0 -8 -6 q-3 -1 -12 -6t-15 -6q-10 -6 -26 -10q-4 -4 -9 -2q0 -2 -2 -2q-3 -1 -8.5 -3t-8 -2.5t-9.5 0.5q-10 -2 -12 -2t-6.5 3t-10.5 4q-1 2 -5.5 3.5t-4.5 4.5q-5 1 -13 6.5t-12 7.5q0 1 -1 2t-1 2h-4q-2 3 -10.5 10t-11.5 13h-2q-9 12 -15 18v4q-2 1 -4 5t-4 5q-3 6 -6 15 q0 1 -1 3.5t-1 4.5t-2 2q0 8 -6 14q-1 6 -6 17t-7 16q0 15 -2 21q-2 2 -2 8v8q0 3 -1 8t-1 8v2q1 13 1 37t1 43t4 35v2q1 4 3.5 18t5.5 19q1 1 0 2t0 2q1 2 6 45q13 61 45 158q5 21 6 22q2 9 9.5 27.5t8.5 28.5v-2q1 3 9 23.5t14 29.5q5 16 12 34t15.5 39.5t13.5 34.5 q4 8 12.5 32.5t15.5 35.5q1 6 6.5 17.5t6.5 17.5q1 2 4 6t4 6q1 3 6.5 14.5t7.5 18.5q19 38 29 63q4 2 4 11q8 12 21 37.5t20 37.5q3 10 8 15q1 3 6 11.5t6 14.5q1 0 1.5 1.5t1.5 0.5q1 2 2 3t1.5 2t0.5 2q4 7 20 43l2 2q8 3 27 8h14q2 -2 10 -2h2q15 9 51.5 -16.5 t41.5 -36.5h4q2 -4 14 -17q1 -5 6.5 -11t5.5 -11q1 -5 6.5 -14.5t4.5 -16.5q0 -2 2 -2q-1 -3 -2 -14.5t-3 -16.5q0 -6 -8 -14q-2 -2 -6 -17q-7 -13 -8 -14q-3 -15 -8 -25q-4 -7 -2 -12q-6 -3 -4 -8l-4 -4q-1 -6 -5.5 -16.5t-5.5 -16.5q-1 -1 -3 -4t-3 -4v-2q-1 -2 -2 -7 t-2 -7l-28 -58l-33 -69q-1 -6 -6.5 -16t-6.5 -13q0 -7 -3.5 -15.5t-4.5 -11.5q-8 -14 -21 -49t-22 -51q0 -1 -1 -2t-1 -2q2 -2 -2 -2l2 -4q-4 -6 -8 -18t-4 -13q-1 0 -1 -1t-1 -1q-1 -5 -13 -29q-2 -5 -5 -17.5t-5 -17.5q-3 -9 -6 -12q1 -1 0.5 -1.5l-0.5 -0.5 q-3 -7 -9.5 -29t-12.5 -32q-2 -11 -10.5 -29.5t-10.5 -24.5q-1 -2 -2 -8.5t-2 -9.5q0 -13 -8 -25q1 -7 -4.5 -22t-5.5 -21q-1 -11 -6 -30t-7 -29l-2 -2q0 -4 2 -4q2 -4 -4 -10q-1 -4 0 -12t0 -13q4 0 4 2l2 2q1 0 2 2t2 2q4 5 16.5 16.5t16.5 18.5q1 0 2 1t2 1q1 3 4.5 6 t3.5 6h2q0 1 1.5 2t1.5 2q3 1 6 8t6 9q1 1 4.5 4t3.5 6q13 17 20 29q9 8 11 16q5 4 11 15t11 14q7 10 8 10q3 6 7 8q0 4 2 6q5 11 12 15q9 18 30 48.5t25 37.5q2 2 7 12.5t10 13.5q3 3 2 4q6 7 13.5 22t10.5 19q0 1 1 2.5t1 2.5q5 6 13 21t14 22q0 4 4 12q2 7 6 19.5t6 19.5 q7 26 15 41q5 20 6 22l4 4q0 13 4 15q1 5 4 14t4 14q0 4 2 6q2 4 5 12.5t5 12.5q3 10 11 23q7 24 25.5 62.5t23.5 49.5h2q8 28 24 56q1 0 1.5 2t1.5 2q3 13 8 18q1 3 5 9t5 7q5 16 10 19q2 7 19 41q0 6 6 12q1 2 3.5 6.5t2.5 7.5h2q4 9 12.5 26t12.5 26l2 2l4 8q1 2 1 5t1 5 h2l4 6l2 2q1 0 1 1.5t1 2.5q8 8 6 15q4 6 8 14q11 0 13 -2q1 1 4 2t4 2q1 -1 7 -3.5t9 -2.5q3 -2 17.5 -6t19.5 -10q11 0 18 -11v2q2 -1 3 -2t2 -1.5t2 -0.5q1 -5 6.5 -12t5.5 -12q5 -5 2 -10q1 -1 0.5 -7t1.5 -8q-1 -7 -1 -24.5t-1 -24.5q-2 -2 -4.5 -12t-5.5 -13 q1 -9 -11 -51q-1 -1 0 -1t0 -1q-4 -10 -6.5 -30.5t-5.5 -28.5q-6 -12 -6 -15q-3 -2 -5.5 -10t-6.5 -10q0 -4 -2 -9t-2 -9q-2 -1 -5.5 -7t-5.5 -8q0 -1 1 -2t1 -2q-11 -23 -16 -39q-6 -17 -10 -20q0 -18 -10 -23q0 -8 -2 -8v-6q-1 -5 -5.5 -13.5t-5.5 -13.5v-2q-8 -16 -8 -26 q-4 -4 -4 -9q-2 -4 -5.5 -15.5t-8.5 -14.5q1 -4 -2 -13t-2 -12q-4 -10 -10.5 -32.5t-12 -42t-6.5 -21.5q-3 -9 -6 -15q0 -1 1 -1t1 -1q-5 -14 -11.5 -43.5t-11.5 -42.5l-2 -2q0 -14 -4.5 -37t-5.5 -32q-6 -3 -6 -17v-6q0 -3 -1 -11t-1 -13q0 -2 -1 -6t-1 -5q0 -2 -1 -7 t-1 -7q-1 -1 -2 -6.5t-2 -7.5q1 -5 -0.5 -12t-1.5 -9v-14q-2 -8 -2 -31q0 -1 -1 -4t-1 -6t2 -6q-3 -6 0 -12q0 -3 -3 -3q2 -3 3 -13.5t2 -12.5q-2 -2 -2 -4q0 -1 1 -2.5t1 -3.5h2q0 -15 8 -43q1 0 2.5 1t3.5 1q0 1 1 3t1 3q2 1 25 24q2 4 10.5 14t11.5 17l2 2q3 5 11.5 15.5 t11.5 15.5v2l4 4q9 15 18 27q2 4 10 14t9 18q4 0 4 7h4q8 16 12 20q5 8 16 24.5t15 24.5q1 0 1 1q1 3 3 3v4q1 0 1 1q1 2 3 1q2 6 8 16.5t8 16.5q4 5 9.5 16.5t9.5 16.5l6 12q4 11 14 30t13 26q2 4 36 86q2 7 8.5 22.5t8.5 22.5q0 1 1 2.5t1 3.5q7 10 10 20q0 3 6 21 q2 10 10 30t11 31q2 6 7 23.5t9 25.5q1 0 17 55.5t16 57.5q14 64 29 164v2q4 36 4 59q3 28 -10 77t-7 81l6 -6q1 2 9 2q0 -2 4 -4l4 -2q0 -2 1 -3t2.5 -1.5t2.5 -1.5q2 -2 2 0q7 -7 8 -9q2 0 4 1t4 1v-4h4q-1 -3 4 -5.5t5 -6.5q2 0 3.5 -1t2.5 -1q1 -3 6 -5.5t6 -4.5 q3 1 5.5 -1t4.5 -1q-1 -4 2 -5t9 -1q1 -4 5.5 -8.5t4.5 -8.5q3 1 6 -0.5t4 -1.5q0 -6 6 -6q1 -1 3.5 -4.5t5 -6t6.5 -3.5q5 -11 12 -11q1 -2 6 -5t6 -3q0 -2 2 -4t2 -4q4 -4 6 -4q-3 -19 9 -25v-2q3 0 4.5 -2t3.5 -2q1 -1 1 -4t0.5 -4.5t2.5 -1.5q0 -2 1.5 -26t-1.5 -25 q-2 -45 -2 -56t-2 -53q-4 -4 -4 -65q-1 -5 -2 -13l-4 -47q-3 -5 -6 -21.5t-7 -21.5q-31 -139 -41 -153q-4 -12 -4 -21q-13 -29 -16 -43q0 -1 1 -1t1 -1q0 -4 -3.5 -10t-2.5 -10q-5 -14 -8 -19q0 -1 1 -1t1 -1l-36 -75q-64 -124 -75 -136q0 -11 -6 -14q-2 -10 -19 -27 q0 -2 -2 -5t-2 -5q-2 -1 -5 -5t-5 -5q0 -2 -1.5 -3t-0.5 -3q-1 0 -2 -1t-2 -1q0 -7 -2 -9h-2l-2 -4q0 -1 -6 -4q0 -4 -2 -4l-2 -2q-1 -1 -2.5 -4t-2.5 -4q0 -5 -6 -8q0 -2 -2.5 -6.5t-1.5 -8.5q-3 -2 -6 -8t-6 -8v-2q-4 -4 -13 -16.5t-16 -18.5v-4q-1 0 -2 -1t-2 -1 q-1 -4 -5 -8t-5 -8q-4 -2 -10.5 -9.5t-8.5 -9.5q0 -3 -4.5 -6.5t-5.5 -7.5l1 1q-2 -1 -3 -1q-2 -5 -10.5 -13t-11.5 -14q-3 -1 -7.5 -5t-7.5 -5v-4q-5 -1 -11 -6t-11 -6q0 -1 -1 -2.5t-1 -2.5q-10 -3 -15 -8q-9 -4 -24.5 -14t-18.5 -12q-6 0 -6 -4q-7 -2 -14 -13 q-1 1 -2.5 -0.5t-3.5 -1.5q-6 -5 -19 -10.5t-16 -7.5l-2 2q0 -4 -2 -4q-38 -15 -74 -8l-18 6q-8 1 -21 7t-16 7q0 3 -7 6t-8 4q-1 0 -2 1.5t-2 0.5q0 2 -5 5q-2 1 -3 1v2q-16 10 -24 23h-4q0 3 -3.5 5t-3.5 5q-1 -1 -1 0q-1 1 -3 0q-2 3 -5 9.5t-5 9.5q-2 6 -8 15t-8 15 q-8 12 -25 45q2 3 -2 11l-6 30q-1 2 -2 7.5t-2 7.5z" />
<glyph unicode="X" horiz-adv-x="727" d="M653 -31l-10 -20q-10 -4 -15 -5q-3 0 -7 -1q-7 0 -19 4l-2 2l-14 10v-2q-11 5 -11 8q-7 3 -10 10l-10 15q-2 2 -4 2q-14 14 -16 18l6 2q-14 11 -23 33q-4 10 -22.5 57t-29 75.5t-23.5 71t-19 73.5v-3q-20 39 -29 78q-7 18 -13.5 59t-10.5 56v16q0 1 -1 4t-1 5q-2 2 -2 4 q-5 5 -5 18q0 2 -1 5.5t-1 4.5q0 26 -4 35q-3 -11 -8.5 -29.5t-9.5 -31.5t-4 -15q-4 -4 -4 -10q-1 -1 -2.5 -3.5t-3.5 -4.5h2l-7 -16l-6 -5l-12 -24q-6 -6 -19 -38.5t-18 -35.5l-14 -22q0 -7 -6 -13l-2 -6v-6l-37 -82l-6 -20v2q0 -2 -4 -6l-2 -7q0 -1 -4 -5.5t-5 -6.5 l-6 -16q0 -6 -4 -10v-9q-2 -2 -2 -6q-4 -4 -4 -6l-6 -6q-4 -18 -15 -29l-4 -18q-5 -3 -12 -21q-4 4 -4 -2q-7 0 -10 -6q-3 0 -8 -10h-5q0 -1 -1 -2q-3 -8 -11 -6q0 -4 -4 -6q2 0 0.5 -1l-6 -4t-6.5 -4l-13 -12q0 -6 -6 -12l-4 -6l2 2q0 -8 -6 -11l2 -8q0 -10 -10 -12 q-1 0 -2 2t-3.5 1.5t-8.5 -3.5q0 10 -4 10v15q-1 -1 -3.5 -3t-4 -3.5t-1.5 -2.5q-10 2 -10 13q-2 2 -4 2q-7 14 -6 18l-2 4l-2 -8q-9 0 -15 6v-2q0 -6 -2 -6q0 -4 -6 -10q-8 6 -8 12l-2 4l2 12v9q-8 44 -2 73l8 43l17 58q-1 -1 0 3l2 9l8 16l10 35q0 4 8 12q1 5 3.5 12 t6.5 14.5t5 10.5l3 7q10 24 15 32v-2q1 4 6 13.5t6 13.5l8 20q1 3 5.5 9t5.5 10l53 112l16 15l-2 -2v8q6 6 6 12l21 39q8 8 16 31l21 33q0 4 6 10h-2q1 3 8 12.5t10 17.5l39 62l27 41l-10 135q-2 27 -2 37v12q0 9 -1 26.5t-1 26.5q0 3 -2 12.5t-1 14.5q-1 13 -1 30.5 t0.5 39.5t0.5 32q3 27 7 107q0 35 12 59q10 0 14 2q0 1 1 3t1 4q9 0 13 2q8 -2 20 -2l16 2q2 -2 9 -2q3 0 14 -7q28 0 31 -6q1 0 4 -2t4 -2h8v-6q4 0 16 -6l7 -12h-2q5 -10 4 -11l2 2l10 -20q0 -4 4 -8q-3 -3 0 -8l4 -9q0 -2 4 -14t4 -20q0 -17 4 -33q0 -4 1 -13t1 -14 l5 -22l2 -16q2 -16 6 -23q0 -1 -1 -6.5t1 -6.5q7 14 10 17q1 1 10 9t13 13l10 15q0 -2 3 3q6 7 7 9q1 6 8 14q11 4 19 13h-2q6 5 25.5 23.5t27.5 25.5h-2l20 18l21 23l18 12l17 14l16 13h-2q4 8 20 16l4 1q4 1 9 1h12q6 0 22 -4q11 -18 21 -23q0 -2 -1 -4v-2h1l8 -6l8 -14 l4 -8q0 -7 2 -7q0 -2 4 -4.5t5 -5.5v-16q0 -6 4 -10q0 -24 -13 -41q-8 -3 -8 -2q-4 -4 -7.5 -8.5t-2.5 -4.5l4 2l-18 -20q-5 -11 -8 -12v2l-9 -9q0 -1 -12 -8q-14 -14 -35.5 -37.5t-25.5 -27.5l-4 -11q-1 0 -5 -4v2q0 -1 -2 -3t-2 -3q-118 -149 -118 -157q-4 -11 -15 -15 q0 -4 -4 -4l-4 -4q0 -6 -2 -10l-8 -13l-5 -10q-4 -7 -5 -8q0 -6 2 -8q-2 -24 6 -60l6 -34l2 -27q-1 -2 0 -4t3 -4.5t3 -3.5q2 -4 2 -19v-14q0 1 1 -1.5t3 -8.5q-4 -7 2 -13v-16l2 -22l54 -220l4 -18l4 -25l-2 2q4 -4 4 -14v-8q0 -10 4 -12q0 -10 10 -27q3 -9 0 -23 q0 -2 1 -5t1 -5q0 -14 4 -22q-1 -5 11 -53t10 -52q-1 -1 -2 -3t-2 -3q5 -9 10 -12q-4 -2 0 -6q-5 -8 -2 -17q0 -6 -4 -10h2v-22q0 -5 2 -7v-4l-4 -4l2 -2q-3 -4 4 -24l-6 2v-23q-2 -2 -2 -8v-8q0 -6 -4 -8q0 -5 -2 -9q0 -1 -1 -2t-3.5 -3t-6.5 3zM664 39h6q0 4 -6 0z" />
<glyph unicode="Y" horiz-adv-x="634" d="M377 535l8 -3q-3 7 -33.5 -3t-58.5 -20t-27 -3q-5 -1 -11.5 1t-14 6t-11.5 5q-15 7 -36 25q-3 6 -9 12l-16 16l-8 9l-23 55q-5 10 -12 45q-6 23 -10 106v15v8q3 70 22 145v13q0 2 2 6.5t2 7.5l17 66l2 -3q0 6 5.5 24t12 36t12.5 36l7 17l8 23v-2q0 1 1 4.5t1 5.5l6 20 q4 8 4 13q2 8 7.5 16.5t6.5 9.5l13 19v2q0 6 6 12q0 1 2 5t2 5q8 4 10 8q6 6 6 11q3 12 15 14l18 10q26 13 29 6h-2q4 -4 20 -8l21 -8l-2 2q9 -2 30 -18q13 -5 13 -17q4 -8 6 -8l10 -10q3 -18 -6 -35q-6 -9 -6 -14q0 -29 -6 -47q0 -2 -1 -9.5t-1 -9.5l-2 -18q0 -4 -9 -31 q-6 -29 -28 -90q-12 -33 -27 -78q1 -9 -4 -41l-4 -12l-2 -23q0 -3 -2 -9t-2 -9v-17v-10q0 -2 1 -4.5t1 -3.5q-3 -28 0 -55v2l8 -19q-3 -13 0 -20l4 -6q22 -24 101 68l3 3l13 21q0 12 4 20q15 51 24 64l27 69l10 29q11 35 43 123q69 150 107 205q22 27 24 31q6 7 9 9.5t4.5 1 t3.5 -6.5q5 -9 24 -9q1 0 4.5 -2t8.5 -4.5t6 -3.5v8q16 0 12 -18q0 -8 4 -12q23 -5 21 -54q3 -8 -2 -18l-5 -10l-2 -23q-11 -102 -43 -207q0 -16 -2 -20v2l-16 -49l-35 -96q-1 -9 -8 -29q0 -1 -3 -7t-3 -10q-7 -20 -20 -53t-17 -45l-29 -78q-10 -44 -22 -73l-8 -21l-2 -4 q0 -4 -1 -7.5t-3 -7t-3 -5.5q1 -11 -82 -224l-18 -41q3 -5 0 -8q-6 -6 -6 -10q-7 -8 -19 -33q-4 -8 -4 -12l-12 -21q0 -8 -4 -12q0 -1 -1 -3t-1 -3q-4 -5 -10 -21v3q-3 -14 -8 -19l-27 -43l-8 -10l-9 -8h3l-17 -19l-24 -22q-10 -14 -21 -19l-24 -14l-9 -4h2q-4 -4 -24 -8h2 q-12 -4 -37 -4h-25q-1 0 -5 1t-5 1q-4 0 -6 2q-1 0 -4 1t-4 1q-16 4 -29 14q-6 0 -12 6q-7 3 -43 39q-3 4 -12.5 15.5t-18 23.5t-14.5 25l-4 10v-2q-10 20 -13 49v-2q-11 32 -14 67l-6 54v8q-4 105 0 154v20q0 2 1 6t1 6q0 19 10 27v-2q6 6 8 6l9 6q1 0 3 1t3 1q2 0 4 4 q67 7 104 -16q5 0 11 -6l-2 -17q0 -3 1 -8t1 -8q0 -22 3.5 -71t6.5 -62q11 -33 18 -47h-2l8 -15l4 -10v-12v-6l13 -13l2 -14l4 -6v2q3 -10 27 -22l8 12q0 1 2 5t2 5q42 87 86 223l8 31q0 5 6 23z" />
<glyph unicode="Z" horiz-adv-x="628" d="M141 555v-2l-1 -1zM510 143l-6 -6l4 -4l-4 -8l-12 -8q0 -3 8 -11q-1 0 -7.5 -1t-7.5 -1q-2 -2 -6 -2v-4q-2 -2 -4 -12q-13 0 -18 -10q-5 0 -11 -6q-8 2 -16 -2q-4 -2 -12 -2l-12 -3q-2 -2 -7 -2q-1 0 -3 -1t-3 -1q-4 -2 -16 -2q-2 0 -10 -4q-66 0 -97 -6h-12h-8 q-4 -2 -19 -2q-4 0 -12 -4l-12 -4q-6 -2 -17 -2q-2 0 -6 -1t-6 -1q-5 0 -12 -1l-6 -1l-64 -17l-24 -6l-29 -8l-18 -8v2q-7 -7 -7 -4l-14 -6l-10 -7q-23 -12 -31 -10q-20 -3 -24 21q-3 28 -7 35q-9 6 -6 30q-1 3 4 23v-2q0 1 1 3t1 3l-2 2v31q3 5 0 20q14 38 64 152l2 2 q0 4 6 10q4 2 4 6q10 28 25 51q10 8 10 21q6 3 6 8l14 27q11 15 13 24q2 4 7 15t10.5 19.5t12.5 14.5l7 17l8 12v-2q0 1 2 4t2 4q4 8 8 10q6 8 10 25l33 51l19 31l16 29q4 4 4 10q3 7 10 10v8l29 27h-2l10 22l21 33q15 30 30 45h-2l8 12q7 7 5 17q12 12 14 16l37 51 q0 3 4 11q4 4 4 10q2 2 10 18q3 10 15 19q-1 0 4.5 8.5t12.5 19t11 15.5q6 18 29 45l-2 -2q3 9 28 49l19 33q-4 -2 -14 -2q-12 -4 -35 -4q-6 0 -21 -5q-37 0 -47 -2q-6 0 -14 -4q-3 4 -17 4h-67h-8q-2 0 -6.5 1t-6.5 1l-34 7l-17 10q-2 5 -3.5 8l-2 4t-0.5 2q-12 12 -12 21 l-4 8v-2l-9 12v10q0 1 -1 3.5t-1 3.5q2 6 -6 14v8q0 12 2 14q5 15 9 23q2 0 8.5 1t9.5 1q8 0 12 2q8 0 10 2q5 0 7 2q4 4 8 4l22 6l29 4q2 3 6 5q8 0 12 4h13q4 2 8 2q6 0 10 2q2 0 8.5 1t8.5 1l41 6l53 6q4 0 4 4q12 -4 18 -4l8 2q2 -2 7 -2l8 2q35 4 125 8q88 0 90 -2 q3 -4 7.5 -6t6.5 0q36 1 53 -15t15 -44q-3 -36 -28 -83t-46 -71q0 -1 -1 -4t-1 -4q0 -10 -2 -14v2q0 -1 -3 -3.5t-3 -3.5l-6 -12l-27 -41l-4 -4q0 -4 -2 -8q-20 -26 -27 -41l-18 -33q-2 0 -8 -6q-3 0 -9 -6q0 -14 -10 -21q-2 -4 -6 -8h2q-3 -9 -10 -16l-4 -4 q-12 -18 -15 -21q-3 -9 -12 -18q-4 -4 -4 -8q-10 -15 -14 -25q-7 -18 -19 -27v-4q-15 -15 -20 -28l-8 -13l-9 -10h2l-10 -10h2q-6 -15 -18 -33v-2l-6 -6q-3 -6 -11 -10v-6l-16 -17q3 -7 2 -8q-8 -8 -8 -12l-6 -8q-3 -9 -15 -21l-2 -4q-1 -1 -2 -3t-2 -3q0 -12 -12 -19 l-29 -49l-8 -12h2q-15 -12 -31 -41q-7 -3 -10 -10l-6 -8q1 -2 -6 -9v-8l-4 -2q0 -1 -1 -4t-1 -4l-2 -6l-13 -17q-20 -27 -22 -30l-21 -39l-14 -15l2 2q-3 -13 -10 -20h2l-10 -10q-9 -9 -13 -17q-4 -4 -4 -6q-4 -4 -4 -6l-4 -8l-8 -12l4 2q-4 -14 -8 -17l-10 -12q2 2 4 2 q1 0 4.5 1t5.5 1q3 0 10 1t10 1q74 12 123 12h9l8 -2v2h45l26 -2q3 -2 7 -2q2 0 6.5 -1t7.5 -1t26 -2t35 -4q4 -1 11 -3l9 -3h-1l1 -1h1.5h2.5t4.5 -0.5t7 -1t9.5 -1.5q1 0 5.5 -1t5.5 -1q0 -11 -9 -17q-1 -3 -20 -47z" />
<glyph unicode="[" horiz-adv-x="405" d="M696 1321q-3 0 -8 -1t-8 -1q-1 0 -6.5 -2t-7.5 -4q4 -11 20 -15q-3 -6 -1.5 -15t-0.5 -15h-6q-7 0 -8 -4t3.5 -9.5t4.5 -7.5q-1 -1 -5 -4t-5 -4q-9 -3 -15 -6q-12 -6 -14 -8q-10 -2 -21.5 -2t-25.5 1t-23 1l-69 -6h-11q-1 0 -26 -5q-6 -1 -14.5 -1h-14t-12 -2t-10.5 -5 q-14 -55 -17 -61q-14 -36 -22 -53q-1 -3 -4 -10.5t-4 -10.5q-2 -4 -4.5 -11t-4.5 -11q0 -1 -2 -3.5t-2 -3.5q-3 -6 -6 -19t-4 -17q-2 -10 -12.5 -31t-12.5 -27q-5 -28 -10 -35q-15 -54 -28 -79q-1 -12 -8 -33t-7 -23q-9 -14 -10 -16q-3 -9 -5.5 -31t-6.5 -33q-1 -2 -9 -14 q-1 -2 -8 -18.5t-8 -24.5q-1 -2 -1.5 -7.5t-2.5 -8.5q0 -3 -4 -15q0 -6 -4 -18q-1 -3 -3 -9.5t-3 -9.5q-3 -7 -8.5 -21.5t-8.5 -21.5q-2 -4 -16 -51q-3 -15 -11 -44t-12 -46q-2 -9 -6 -26.5t-6 -26.5q-4 -7 -8 -21l-4 -20t-6 -23q-1 -2 -4.5 -6t-4.5 -6q-4 -8 -7.5 -25 t-4.5 -20q0 -29 -2 -35q0 -7 -5.5 -20.5t-6.5 -18.5q-2 -11 -2.5 -31.5t-1.5 -27.5q-10 -33 -11 -45q20 0 61 3.5t62 4t58 -5.5q4 -1 65 -19l2.5 -2.5t2 -2.5t-0.5 -3q1 -3 -1 -6.5t-1 -5.5q1 -4 4 -5.5t9 -3.5t8 -3q-3 -3 -14.5 -7.5t-14.5 -9.5q0 -18 8 -20l-4 -5 q-4 -5 -4 -9q0 -3 2.5 -6.5t1.5 -6.5l-8 -8q-4 0 -9 -2.5t-10 -6.5t-8 -5q-2 -2 -6 -2q-1 -1 -6 -4.5t-8 -4.5q-5 0 -21 -4q-10 -1 -30 0.5t-27 1.5q-18 -2 -55 -2q-9 1 -28 1t-28 1q-47 3 -75 13q-22 4 -29 8q-10 4 -18.5 10.5t-17.5 16t-13 12.5q0 1 -2 6.5t-4 7.5 q-1 1 -4 3t-4 3q-2 4 -2 8q-1 2 -2.5 6.5t-2.5 6.5q-4 4 -4 10q0 2 4 5t5 5q-1 21 1.5 46.5t4.5 40.5t8 48.5t8 42.5q56 283 96 420q4 13 10.5 40t10.5 42q14 65 43 164q12 39 26 78q40 131 48 155q7 20 19 59t19 58q5 12 17 43t20 49q8 13 6 23v8q0 3 -3 9.5t-3 9.5 q4 0 4 8q8 1 26 1t26 1q12 0 35 3t28 3h66q129 8 176 0q57 -15 67 -21q4 -2 19 -12q16 -4 24 -8z" />
<glyph unicode="\" horiz-adv-x="342" d="M653 1266q0 -5 3.5 -15t2.5 -18q-4 -4 -4 -8q-2 -2 -2 -6q-3 -2 -6.5 -10.5t-5.5 -10.5q-1 -3 -5.5 -10.5t-4.5 -11.5q-4 -3 -9.5 -13t-7.5 -12q0 -3 -2.5 -6t-3.5 -6q-4 -4 -8 -15.5t-8 -15.5q-1 -5 -5 -12.5t-5 -12.5q-6 -5 -12.5 -18.5t-8.5 -17.5q-2 -2 -4.5 -6 t-3.5 -5q0 -1 -1 -3t-1 -3h-2v-6q-3 -1 -6 -7t-6 -7q0 -4 -3.5 -10t-3.5 -9q-2 -1 -4.5 -5.5t-5.5 -6.5q-3 -13 -9.5 -24t-16 -22t-13.5 -18h-2q-3 -9 -6 -12q-2 -9 -12 -22q-3 -7 -12 -21.5t-13 -21.5h-2q-1 -3 -6 -13q-3 -2 -7 -11t-7 -11l-6 -12q0 -1 -2 -3t-3 -4 q-2 -2 -7 -14.5t-11 -17.5q-1 -7 -7 -15.5t-7 -9.5q-1 0 -2 -3q-1 -1 -1 -1.5t-1 -1.5v-2q-1 -1 -4 -5t-5 -5q0 -6 -4 -12t-4 -7q-1 0 -2 -1t-2 -1q-3 -9 -13.5 -28t-13.5 -33q-2 0 -5 -4t-5 -5q1 -4 -4 -14q0 -2 -2 -5t-2 -5q-2 0 -6 -4q0 -5 -3.5 -10t-4.5 -7q-2 0 -2 -6 q-2 0 -5.5 -4t-5.5 -4q0 -6 -2 -6v-4q-2 -1 -4 -6t-4 -6q-2 -2 -6.5 -12.5t-9.5 -12.5q0 -4 -4 -12q-4 -3 -9.5 -13t-7.5 -12v-6q-4 -2 -6.5 -8.5t-5.5 -7.5q-2 -11 -10 -25.5t-10 -21.5q-1 0 -1 -1.5t-1 -1.5q-1 -4 -4 -8t-3 -6q-2 -2 -3.5 -9.5t-4.5 -8.5q-2 -2 -2.5 -4.5 t-1 -4.5t-2.5 -2q0 -3 -2 -5.5t-2 -4.5q-1 -1 -1.5 -3t-1 -3.5t-1.5 -1.5q-16 -37 -25 -49v-4q-3 -7 -2 -10q-7 -7 -8 -11h-2q0 -2 -10 -26q-2 -2 -3.5 -7t-4.5 -6v-8v-2h-3q-1 -2 -1 -5.5t-1 -4.5l-4 -2v-6q0 -2 -2 -8t-2 -9q-2 0 -2 -2q-3 -9 -13 -30.5t-13 -34.5 q-5 -2 -8 -6t-6 -13t-3 -10q-4 0 -4 -2q-3 -2 -8.5 -10t-9.5 -10q0 -4 -2 -7t-5 -7t-4 -7h-4q0 -2 -6 -8q0 -6 -6 -12l-2 -1q-2 -2 -6 -1l-4 4q-5 0 -29 4q-2 5 -9.5 6t-8.5 2q-2 -2 -13 -2q0 -6 -2 -6q-4 9 -8 -2q0 2 -2 2q-1 4 -1 10t-1 8q0 27 2 33q4 28 12 51 q2 9 8.5 25.5t8.5 25.5q4 4 4 15q12 26 28 76.5t21 62.5q2 2 2 4q2 3 4 12.5t4 12.5q1 3 3.5 8t2.5 10q2 1 3.5 5t3.5 5q1 4 4 10.5t4 10.5q2 7 7.5 20t6.5 21h2q3 9 9.5 23.5t9.5 23.5q3 4 9 17.5t9 17.5q0 5 1 8t1 4q3 4 8 15.5t8 15.5q1 2 9 21t14 26q-2 0 -2 2q1 0 2 2 t2 2q0 8 4 12q0 9 8 17q1 7 7 18t8 16q2 1 3.5 5.5t2.5 5.5q16 37 24 49l6 12l3 4v4q2 0 2 2q1 2 3 5.5t3 5.5q1 0 2 3t2 3q0 6 4 10q1 1 2 4t2 4q2 5 5.5 11.5t4.5 7.5v2q2 3 6 10.5t7 9.5q2 8 9.5 20.5t8.5 14.5q1 0 2 3t2 3v2q2 2 5.5 10.5t6.5 10.5q1 4 5.5 10.5 t5.5 11.5q1 0 1 1t1 1v2q7 7 16 29h2q1 1 2.5 4t3.5 6q0 1 3 4.5t3 5.5q1 1 1 2t0.5 1.5t2.5 0.5q0 5 4 10t5 7q4 8 16 26t16 27q4 4 9.5 14.5t9.5 14.5v2q3 3 8 10t8 10q4 10 19 29q3 10 13.5 25.5t14.5 23.5q6 6 14 19t11 16q1 3 3.5 5t2.5 3q1 3 6.5 11t7.5 14q0 2 2 2 q11 19 27 35q1 0 1 2t1 2q0 2 2.5 4t3.5 4q5 5 16 19t17 20v2q4 3 7.5 3t7 -1.5t5.5 -1.5q3 -4 5 -2q1 -3 6 -6t6 -5t6.5 -6.5t5.5 -7.5q6 0 6 -8q7 0 11 -8q0 -2 2 -2q0 -4 3 -8t3 -7q3 -1 6 -6.5t6 -7.5q1 -5 12 -16z" />
<glyph unicode="]" horiz-adv-x="425" d="M266 170q-3 -1 -5.5 -2.5t-4 -4.5t-2.5 -5.5t-2 -7t-2 -7.5q-1 -5 -4 -11.5t-4 -8.5q0 -1 -2 -11.5t-4 -15.5q-7 -46 -15 -80q0 -2 -1 -6t-1 -6q0 -6 -4 -8q2 -3 -2 -16q-1 -2 -4 -4.5t-4 -4.5q0 -6 6 -12l-3 -2q-3 -2 -3 -4q0 -3 2.5 -8t1.5 -8t-4.5 -4t-8.5 -2.5 t-8 -2.5q-7 -13 -8 -14q0 -12 -2 -14l-10 -9q-2 -1 -3 1t-1.5 4.5t-1.5 4.5t-4 1q-21 -7 -74 -10t-64 -5q-6 1 -13.5 1t-17 -0.5t-14.5 -0.5q-14 0 -30 4q-14 2 -43 7.5t-45 7.5q-2 3 -10 6t-11 6q0 1 -1 3t-1 3q-2 2 -4 6.5t-4 6.5q-1 2 -3.5 4.5t-2.5 3.5q-2 1 -2 8 q-2 3 -7 9.5t-6 10.5q6 6 29 15q15 4 43.5 16t42.5 16q51 21 123 37q0 25 20 74.5t23 63.5q1 6 5.5 20t4.5 21q2 16 9.5 45t9.5 43q5 31 16 63q19 72 27 105l24 81q2 17 10.5 46.5t10.5 37.5q3 12 12 42t12 49q0 4 4 12q1 7 5.5 19t5.5 18q4 8 4 12q2 11 11 39t11 43 q4 19 11 31q1 5 4 14t4 14q5 25 8 29q24 89 67 195q-9 2 -45.5 4.5t-54.5 9.5q-2 1 -5 3t-5 3q-3 1 -9.5 3t-9.5 3q-2 0 -6 4q-14 7 -16 13q-5 2 -16 4t-17 4l-12 6h-8q-15 5 -21 24q-5 10 -6 11q1 3 0 16.5t0 15.5q0 1 2.5 3t3.5 4q55 -5 139 -2h70q8 0 23 0.5t27 0.5 t22 -1q3 0 9 -1.5t9 -1.5h10q2 0 6.5 -2t6.5 -2t6 1t6 1q10 0 14 2q1 -2 19 -8q3 -2 10.5 -8.5t11.5 -9.5q2 -4 10 -10t9 -7q10 -15 12 -24q0 -12 2 -14q-2 -4 -4 -12t-2 -9l-6 -12q-1 -2 -2 -5.5t-2 -4.5q-3 -10 -8.5 -35t-8.5 -35q-2 -7 -6.5 -19.5t-7.5 -20.5t-7.5 -18 t-10.5 -18q0 -8 -8 -20.5t-9 -16.5q-4 -9 -7 -25.5t-7 -23.5q-2 -17 -10 -43.5t-9 -42.5q-1 -3 -8.5 -33.5t-9.5 -46.5t-10.5 -44t-9.5 -34q-15 -49 -19 -79q-1 -6 -3 -19.5t-3 -19.5q-5 -14 -8 -17q-1 -4 -1 -11t-1 -11q-2 -10 -11.5 -29.5t-11.5 -24.5q-3 -19 -20 -67 q-3 -11 -8 -37.5t-11 -40.5q-18 -90 -41 -151q0 -3 -1 -11t-1 -12z" />
<glyph unicode="^" horiz-adv-x="376" d="M451 1094h-5h-12q-1 0 -2 1t-2 1h-4q-6 3 -18 6q-4 4 -5 4l-4 2q-4 2 -4 4q-2 -2 -10 2q0 5 -6 2v2q0 1 -3 2q-1 1 -1.5 1t-1.5 1q-18 9 -52 28t-49 26q-5 7 -16 14q-5 2 -12 7.5t-8 6.5t-4.5 4t-4.5 4q-1 0 -8 7q-2 1 -7 5t-7 5h-6q-1 0 -2 -1t-2 -1l-2 -2 q-3 -2 -21 -11q-3 -1 -29 -14q-30 -15 -57 -24q-24 -9 -33 -11q-14 -5 -42 -16t-46 -16h-2h-2h-4q-8 5 -27 24v2q-4 8 -4 15q0 15 6 24q-2 2 0 4l2 2q5 5 19 17t18 20q10 5 13 8q2 1 5.5 5t6.5 6l4 4q14 11 43.5 31t40.5 28q5 4 19 13.5t20 13.5q16 12 20 14q3 2 10.5 6 t10.5 6q2 2 6.5 5t5.5 5q1 0 4.5 3.5t7.5 3.5h7q1 -1 3 -2q2 0 2.5 -0.5t0.5 -1.5q6 -3 18 -11q4 -1 11.5 -5t9.5 -5q8 -4 10 -4q2 -3 9 -6t9 -4l4 -2q3 -2 4 -4q5 -2 7 -2q26 -7 45 -17h6l2 -2q0 -1 1 -2t1 -2q33 -24 41 -27q5 -9 19.5 -18t17.5 -12q0 -4 2 -4q4 -4 4 -5 q2 -1 7 -5.5t9 -4.5q3 -6 8 -11t13.5 -10.5t11.5 -8.5q1 -1 1 -3q0 -1 0.5 -1.5t2.5 -0.5q0 -1 1 -2t1 -2l2 -2q2 -2 2 -8h2q6 -18 6 -22q1 0 0.5 1t-2.5 3q2 -2 5 -8l2 -7l-2 -2v2q-3 3 -3 9q0 -2 1 -8.5t1 -11.5t-2 -9q-1 -4 -7 -15.5t-7 -19.5q-6 -5 -6 -6q0 -2 -2 -2 l-2 -2q-3 -2 -8 -4t-6 -2z" />
<glyph unicode="_" horiz-adv-x="522" d="M2 53q4 1 5 3.5t0 7.5l-1 4q0 2 2.5 9.5t1.5 12.5q2 2 4 2t5.5 -1t5.5 -1q4 0 12 1t12 1q157 29 238 37q27 0 39 2q46 6 47 6q3 -3 4 -2q76 4 102 -10q1 0 3.5 -2t4.5 -2q3 -2 9 -2.5t8 -1.5t9 -7t13 -6q1 -4 6.5 -8t6.5 -8q1 -3 8 -6l-4 -8q3 -2 10 -5.5t12.5 -6.5 t9.5 -7q-3 -4 -11.5 -7t-10.5 -7q0 -2 1 -4.5t1 -3.5q0 -4 -6 -10q-1 -1 -4.5 -1.5t-5.5 -1.5q-4 -1 -9.5 -7t-9.5 -7q-3 -1 -28 -6q-9 0 -28.5 1t-29.5 1q-5 -1 -14 -3t-14 -3q-4 0 -12 1t-11 1q-5 0 -29 -6q-5 -1 -22.5 -1.5t-26.5 -2.5q-7 -1 -22 -2t-21 -2 q-4 0 -22 -3.5t-27 -3.5q-5 -1 -17 -2t-16 -2q-6 -1 -18.5 -2t-18.5 -2q-1 0 -17 -3t-24 -3q-8 -3 -10.5 -3.5t-10.5 5t-9 6.5q-3 2 -11.5 7t-11.5 8l-8 8l-8 8h-6q-15 15 -19 16q-2 5 -3 18t-3 17z" />
<glyph unicode="`" horiz-adv-x="329" d="M35 1655q4 -2 15 -4t16 -4q27 -7 37.5 -5t14.5 6t16 -3.5t42 -32.5q57 -51 92 -88l15 -24t12 -19q4 0 4 -4q0 4 -2 4q-3 -8 6 -17q-2 -2 -2 -6l-2 -2l-2 -2q3 -8 2 -8q-4 -1 -5 -0.5t-4 3t-5 3.5l-7 2q-6 2 -8 6q-4 1 -8.5 2t-7 1.5t-4.5 0.5q-6 6 -23 6q-8 5 -23 12 t-20 11q-18 11 -39.5 14t-46.5 23q-20 12 -32 20q-3 2 -9 5t-11 7t-9 9q-9 22 -10 28q-2 8 -1.5 21t-0.5 18q5 14 10 17z" />
<glyph unicode="a" horiz-adv-x="643" d="M700 823l17 -16q4 -16 6.5 -23t2.5 -13v-7t-3 -5t-4 -7q0 -9 -4 -13h2l-8 -6v-6l-2 -12l-11 -15q-4 -6 -4 -10l-10 -16q-4 -4 -4 -8l-10 -15q-35 -84 -39 -88l-6 -18q-5 -10 -9 -24t-8 -21q-4 -8 -4 -13l-4 -10l-6 -8q-7 -23 -13.5 -41.5t-9.5 -27.5l-5 -15l-3 -9t-2 -5 q0 -1 -1 -5.5t-1 -5.5q-20 -105 -27 -120l-1 -4q-1 -4 -1 -9l-2 -10q-6 -11 -2 -29l-4 -43q0 -1 1 -4t1 -8v-22v-27q0 -2 2 -6q4 -11 -2 -17q4 -10 0 -14q0 -6 -12 -22h-6l-2 -21q0 -9 -13 -12q-9 0 -14 -10l-4 -11q-18 -20 -37 -6v6q-12 0 -12 9h2l-6 6v-2l-17 12 q-1 0 -3.5 1t-4.5 1l-22 35q-14 24 -19 45v-2q-8 14 -8 63l-6 -10l-16 -10h2q-1 -2 -5.5 -6.5t-5.5 -6.5q-2 -5 -82 -79v2l-16 -15q-7 -4 -25 -8l-10 -4h2l-12 -8q-6 0 -14 -4q-5 0 -9 -2q-12 -4 -24 -2q-4 4 -8 0q-13 0 -15 4q-8 0 -16 4q-2 0 -8 6q-52 32 -58 47h2l-6 8 l-6 11l-8 16q-9 12 -14 27q-9 18 -11 36q0 11 -2 15q-4 8 -4 20v15q-2 17 4 65q0 4 4 10q0 7 5 17q0 10 6 14l-4 -2q5 27 51 135l4 8l2 5q3 7 4 10l25 45q6 4 10 10q6 8 16 21.5t18 23.5t15 18l6 9q19 22 31 28q2 2 6.5 5t7.5 6l15 16l-2 -2q19 19 32 27v-2q130 101 140 106 q8 8 34 18l17 5l22 10v-2q4 4 13 4q6 0 10 2l10 4h10q8 6 45 6l9 -4l16 -16q2 -2 6 -2q0 2 3 7t3 7q3 -1 5.5 3t6 9.5t5.5 7.5q2 7 16 21l4 6l16 23l15 4q5 0 12 -7h10q7 -10 9 -10l12 -12l6 -6zM471 637l-4 -10q0 1 1 2t1 2q2 4 2 6zM463 610q0 11 4 17q-7 2 -21 -9 l-14 -14q-1 0 -5 -2t-5 -2q0 -6 -12 -10q0 -3 -2.5 -5.5t-4.5 -2.5l-77 -60l-9 -10h-2l-43 -49l-6 -6l-10 -15q-4 -12 -12 -20q-2 -4 -8.5 -12t-12.5 -17q-14 -16 -30.5 -45.5t-24.5 -40.5q-3 -3 -6.5 -14.5t-5.5 -13.5q0 -3 -2 -7l-4 -4q0 -5 -5 -10q0 -1 -0.5 -2.5 t-2 -5.5t-3.5 -10q0 -7 -4 -23q-6 -12 -6 -29l-4 -6q1 -3 1 -7.5t-1 -6.5q3 -5 0 -16q8 4 33 20q13 11 24 16l8 5l11 10l10 10l16 16q0 3 6 9l9 6l41 51v2l20 18l37 37q2 2 2 4q1 1 5.5 6.5t6.5 6.5q2 4 6.5 7t11 6.5t7.5 4.5l2 6q0 1 1 4t1 6q1 5 3 13.5t3.5 14t3.5 9.5 q6 18 8 23q3 11 7 14q9 41 24 66q0 2 8 18l6 12l7 15q4 12 6 14q0 1 2 4t2 4z" />
<glyph unicode="b" d="M539 1477q10 -10 20 -4q5 -7 19.5 -13t19.5 -10q4 -3 13 -13t16 -14q16 -24 16 -43q2 -7 -8 -26q-3 -12 -29 -64q-2 -12 -14 -28q-4 -7 -13.5 -26t-13.5 -26q-9 -8 -19.5 -32t-13.5 -29q-6 -11 -16 -25q-8 -13 -55 -110q-16 -27 -27 -68q-4 -4 -8 -12q-2 -5 -7.5 -15.5 t-6.5 -17.5l-6 -12q-3 -4 -6.5 -15t-6.5 -14q-2 -12 -10 -28t-10 -27q7 2 22 6.5t24.5 7.5t23.5 5t26 1q11 0 35 -4q35 0 51 -8q2 -1 5 -3t5 -3q32 -16 47 -31q25 -35 31 -47q1 -2 6 -9.5t6 -12.5q12 -20 15 -37q8 -24 8 -56v-55q0 -7 -2 -22t-2 -23q-1 -5 -2.5 -13t-2 -13 t-2.5 -11t-5 -10q-5 -31 -19 -53q-7 -28 -16 -49q-3 -6 -10.5 -23t-12.5 -25q-19 -33 -29 -43q-3 -9 -12 -26.5t-12 -24.5q-15 -13 -38.5 -41.5t-33.5 -38.5q-36 -36 -82 -57q-12 -16 -37 -29q-24 -15 -45 -18q-26 -11 -34 -16q-7 0 -20.5 -5t-16.5 -6q-5 -1 -16 -2t-17 -2 q-3 0 -12 -1t-15 -1q-2 0 -7 1t-7 1q-24 3 -33 10q-3 3 -6.5 7.5t-5.5 7t-4 2.5q-8 2 -15.5 0t-15 -1.5t-10.5 5.5q-3 -4 -5 -3q-3 1 -5 1q-9 -5 -19 -31l19 4q-3 -1 -9.5 -6.5t-9.5 -5.5q0 -2 -2 -5t-2 -5q-4 0 -4 -4q-3 -1 -10 -5t-10 -6q-5 0 -9 2q-2 -2 -2 -14 q-4 4 -12 -4v-6q-3 1 -6.5 -3t-5.5 -3q-33 64 -19 184q-1 10 8 55q10 67 35 154q58 226 121 389q57 145 72 180q6 16 41 88q37 88 80 170q3 5 10.5 19.5t11.5 21.5q13 20 35 58t35 57q12 16 69 94q3 5 16.5 22.5t20.5 30.5q5 0 11 4t8 5q6 -2 -2 -3q-4 -1 -4 1q0 1 2 2z M213 176q16 11 40.5 28.5t29.5 20.5q23 20 59 56q8 11 24 34.5t27 36.5q55 91 80 154q36 112 12 168q-13 26 -22 26q-5 2 -29 -8q-11 -3 -22 -10q-20 -10 -45 -35q-44 -35 -64 -59q-4 -7 -16.5 -21t-21.5 -26.5t-7 -18.5q-1 -4 -3.5 -9t-2.5 -7q-6 -6 -10 -14 q-12 -35 -15 -50l-6 -6q0 -3 -1 -7.5t-1 -6.5q-4 -9 -8.5 -24t-7.5 -21q-6 -10 -13 -31q-2 -8 -6.5 -20t-5.5 -15q0 -2 -4 -14q-3 -12 -10 -37.5t-10 -40.5q-2 -6 -5.5 -18.5t-5.5 -18.5q-9 -32 -10 -37q36 5 80 31zM160 266v2q0 4 -4 0z" />
<glyph unicode="c" horiz-adv-x="604" d="M588 766q4 -17 2 -16l2 -11q0 -8 2 -12q0 -1 1 -5t1 -5q-5 -8 -2 -23l-2 -8q0 -1 1 -3t1 -3q0 -19 -6 -29q0 -2 -1 -6.5t-1 -5.5q-1 -2 -2.5 -5.5t-2.5 -5.5t-1 -3l-9 -27q-4 -11 -7.5 -24.5t-6 -22t-6.5 -14.5q0 -1 -1 -3.5t-1 -3.5q-4 -2 -4 -8q-40 -99 -101 -162 l-6 -6l-20 -20l-12 2q-8 -8 -17 -8q-8 0 -10 2q-4 0 -10 6q-1 0 -14 -1t-17 -5q-9 0 -14 10q-2 3 -4 7t-3.5 5.5t-5.5 1.5t-16 -6l-12 8l4 19q0 1 1 4t1 4q2 4 2 16q6 9 6 17l8 33l21 28l16 25l8 12l25 47q32 53 49 105v-2l-21 -15l-14 -8l-47 -39v2l-33 -29l-20 -18h2 l-60 -78l-18 -37l-18 -28q0 -4 -7 -11l-4 -4l-4 -12q0 -1 -2 -4t-2 -4q0 -3 -6 -12q-2 -4 -5 -14.5t-5 -14.5q-17 -42 -17 -72q-4 -22 0 -82q3 -1 3.5 -5t-1.5 -5q10 -30 13 -33q11 -14 37 -14l4 2l55 16l16 7q1 0 3 1t3 1q3 1 33 22q24 16 43 35l21 16l26 23l84 74l25 26 q10 10 18 12l4 -10l-4 -22q-12 -23 -8 -27q0 2 2 2q5 0 9 -5t3 -13q-6 -11 -12 -19q-1 -1 -3 -4t-3 -4q1 -1 2 -2.5t3 -3.5t5 -4q11 -4 11 -14l-7 -13l-2 -4q0 -2 4 -8q3 -5 -2 -21l-8 -12h4l-5 -2.5t-4.5 -2.5t-2.5 -3q-10 -13 -10 -18q-10 -7 -10 -17l-21 -14l-8 -10 l-49 -39v2q-34 -32 -56 -45l-30 -15l-27 -12q-24 -3 -31 -8q-30 -9 -67 -12q-15 -3 -43 2q-2 0 -7 1t-6 1q-54 16 -94 59q-34 36 -57 94q-16 55 -16 144q0 47 24 129q0 1 1 3t1 3q12 41 33 82l6 10q46 84 111 152h-2q7 7 23.5 24t26 26.5t25 23t29.5 24.5l70 55 q63 38 104 55v-2q6 6 8 6q18 9 35 0l17 -12q6 0 8 -2l16 -16h2q3 -6 8 -6l19 -9l14 -20l21 -21h-2q8 -8 10 -22z" />
<glyph unicode="d" horiz-adv-x="651" d="M793 1378q6 0 6 -4q5 0 6 -0.5t0 -3.5q9 -1 19.5 -6t15.5 -6q6 -9 18 -15q-2 -4 0 -4q4 -2 10 -8q4 0 4 -8q9 -5 9 -6q0 -2 4 -2q1 -6 2 -15t2 -16q-1 -4 1.5 -11t0.5 -9q-1 -2 -4.5 -7t-3.5 -8q0 -1 -2 -3t-2 -3q-1 -2 -2.5 -8t-2.5 -8q-7 -15 -8 -15q0 -2 -4 -20 q0 -4 -4 -4v-17q-4 0 -4 -10q-1 -1 -2.5 -2t-2.5 -2t-1 -2q-2 -2 -4 -8t-4 -8q0 -1 -2 -5t-2 -6q-1 0 -1.5 -1.5t-1.5 -3.5t-2 -3q1 -3 -12 -28t-16 -27q-38 -95 -39 -102q-1 -2 -5 -17t-11 -20v-4q-3 -4 -7.5 -15.5t-7.5 -15.5q0 -17 -2 -19q-1 3 -12 -30t-22 -67.5 t-11 -35.5q-2 -3 -5 -10t-5 -10q1 -2 0 -5.5t0 -6.5q-6 -3 -6 -13q-2 0 -3.5 -2t-2.5 -2q0 -6 -3 -13t-4 -9t-2 -7t-2 -8q0 -10 -4 -10q0 -2 -2 -6v-2q0 -9 -8 -21q-2 -6 -7 -20t-7 -23q0 -10 -4 -10q-4 -19 -9 -24q0 -7 -5 -21l-5 -14q0 -13 -6 -19h2q-2 -7 -35 -84h-2 q-1 -2 0 -2t0 -2q0 -1 -1 -6.5t-1 -11.5q1 -1 -3 -6.5t-1 -8.5q0 -4 -4.5 -17t-3.5 -21q-1 -3 -6 -21l-2 -14q0 -6 -4 -6q3 -3 -3 -15q4 -3 1.5 -10t-1.5 -8q-4 -16 -4 -23q-3 -13 -2 -16q-1 -2 -1.5 -12t-2.5 -13v-2q0 -5 -1 -14.5t-1 -13.5v-41q-6 -6 -2 -13 q0 -7 -1 -17.5t-1 -16.5l-2 -5q0 -10 -2 -14q-4 0 -1.5 -8.5t1.5 -11.5q-2 0 -3.5 -1t-2.5 -1q0 -11 -4 -39q-4 0 -4 -8q-6 -6 -9 -15q-6 0 -6 -8q-4 1 -6.5 3.5t-4.5 6t-3 4.5q-4 3 -11.5 4.5t-8.5 -0.5q-10 0 -19 9q0 -2 -2 -2t-2 -2q-2 4 -10 4q-3 3 -9 10.5t-10 11.5 q-1 1 -7.5 6t-8.5 11q-1 4 -6.5 14t-7.5 14q0 1 -1 4.5t-1 5.5q-8 12 -13 41q-2 -2 -7.5 -7t-10.5 -7q-3 -8 -8 -8q-4 0 -4 -4q-2 2 -7 -4h-2v-4q-1 0 -3.5 -2.5t-2.5 -4.5q-3 0 -4.5 -1t-3.5 -1q-10 -10 -14 -10q-11 -11 -23 -16v-2q-10 -5 -20 -15q-3 -3 -6 -4.5t-6.5 -2 t-4.5 -1.5q-5 -1 -15.5 -6.5t-16.5 -5.5q-8 -8 -15 -6q-2 -2 -7.5 -3t-8.5 -3q-2 2 -4 2t0 -2h-11q-1 0 -3.5 -1t-4 -1t-2.5 2q-3 0 -9.5 1t-10.5 1h-13l-2 2h-4l-2 2l-2 -2q-1 0 -2.5 1t-3.5 1q-13 4 -14 8l-4 -2q-2 3 -8.5 6t-8.5 4q-4 0 0 2q-21 4 -30 21q-3 0 -7.5 4.5 t-7.5 5.5v2q-5 1 -8 8t-4 8v2q-2 1 -6 9q0 2 -2 2q0 2 -2 2q0 1 -2 3.5t-2 4.5q-2 1 -5 6.5t-6 7.5q-2 5 -6 15.5t-6 15.5q-1 2 -3 5l-3 4.5t-2 2.5q1 5 -0.5 9.5t-1.5 5.5q-4 3 -6.5 16t-5.5 16q-1 8 -4.5 24t-4.5 21q2 45 19 93q14 42 18 49q3 12 31 67.5t39 69.5 q6 11 18 28t17 25q0 2 2 0q0 4 3 7.5t3 6.5q4 3 11.5 12.5t10.5 12.5q2 9 11 12q2 3 4.5 8t5 8t6.5 5q2 4 9 10.5t9 9.5q8 9 22.5 23.5t20.5 21.5q6 3 14.5 10.5t12.5 8.5q7 10 16 12v4q1 0 2.5 1t2.5 1q1 1 7 6t7 7q9 5 10 6q7 3 19.5 10t19.5 10q8 4 10 4l4 2q3 1 11 5 t14 6.5t14.5 5t16.5 2.5q2 1 8.5 2t9.5 2q6 0 17 -1t16 -1q6 0 14 -4q9 -1 45 -13h4q4 2 7 10l2 7q-16 -16 57 160q4 4 4 10h2q0 13 6 22h-2q11 26 16 43l3 4l4 4l-2 5l4 2q1 1 2 6t2 6q4 9 8 31q6 6 6 8l4 8q0 2 2 2q-2 0 -2 2q5 5 9.5 14.5t5.5 10.5v2q0 2 4 4q0 2 1 6.5 t1 5.5q0 5 2.5 10.5t3.5 8.5q2 0 3 1t3 1q4 12 12 28q2 2 3.5 5l2.5 5t2 3q0 5 3 2v4q22 45 24 47q2 8 10.5 20.5t10.5 16.5l2 2q6 13 14.5 24.5t19.5 25t17 21.5q4 0 16.5 -2.5t16.5 -1.5zM780 1374q0 2 -2 4l-4 -2q3 -3 6 -2zM420 647q-3 -8 -23 -16q-1 -1 -6 -4.5 t-6 -5.5q-8 -3 -16 -15h-7q-1 -4 -8 -8.5t-8 -7.5q-2 0 -2 -2t-2 -2q0 -1 -2 -2.5t-4.5 -4.5t-3.5 -6h-10q0 -2 -3 -5.5t-4 -6.5q-1 -1 -3 -1.5t-3.5 -2t-1.5 -4.5q-20 -17 -41 -41.5t-36.5 -46.5t-28.5 -42t-21 -31t-10 -9v-2q-4 0 -5 -4q-1 -1 1 -2q-10 -7 -10 -17 q-1 -1 -5 -6.5t-8 -7.5q0 -1 -1 -3t-1 -3q-3 0 -4.5 -5t-3.5 -5v0v-2q-1 -2 -4.5 -7t-3.5 -10q-6 -2 -6 -14q-4 -4 -6 -10q-4 -4 -14.5 -48.5t-10.5 -54.5q2 -3 2 -28h6h6q18 14 54 34q3 7 12 11v2q50 40 53 43q3 0 5.5 3t4.5 3q0 2 5 2q14 10 43 39q4 1 9 6.5t9 7.5 q1 3 4 2q0 5 4 8t4 4q17 13 21 19q5 3 13 11t13 11l6 5q6 5 7 12q0 16 2 20q7 7 28.5 89t24.5 108q14 56 16 59q-2 0 -2 4q-4 0 -9 -5t-9 -5z" />
<glyph unicode="e" horiz-adv-x="614" d="M301 524l-29 -39q3 0 11 4v-2q7 7 18 7l33 16l12 4h-2q22 7 35 18q31 17 59 52q7 6 25 30q0 5 4 13t4 12q6 0 6 2q26 29 8 55q-6 -4 -12 -4q-2 -5 -5.5 -8.5t-6 -4.5t-8 -2.5t-7.5 -2.5q-21 -4 -24 -15q-6 -9 -16 -14q-47 -37 -68 -67q-3 -4 -11 -13t-12 -14l-12 -14 q0 -2 -1 -7t-1 -6zM586 596l-58 -61h2q-1 -2 -12 -13l2 2q-5 -13 -20 -18l-64 -57q-25 -11 -45 -25q-36 -22 -69 -29l-4 -1q-4 -1 -9 -1q-6 0 -14 -4q-4 -2 -8 -2l-25 -4q-20 -4 -47 -4q-9 -9 -14 -29l-6 -16q-5 -5 -5 -12l-8 -15l-4 -49q0 -27 -4 -37q0 -31 6 -55 q59 9 127 59l17 11v-3l24 23q25 13 39 31l47 41h2l10 14l46 45l40 33q13 -4 7 -29q0 -7 -7 -16q-4 -7 5 -10q12 -10 4 -35q7 -7 4 -17q-1 -9 0 -12.5t10 -15.5l-16 -31q4 -6 -11 -37l-8 -12l-69 -86l-54 -35q-102 -83 -182 -94q-4 -2 -20 -2h-17q-5 -2 -26 2q-12 4 -21 4 q-48 19 -86.5 60.5t-38.5 86.5q-11 55 -4 123q5 76 49 193q28 57 76.5 123t95.5 112q80 80 166 133q36 17 73 29t73 16.5t51 -8.5q18 -12 24 -14l13 -8q22 -13 26 -23q0 -10 -2 -14q9 -21 6 -60q-3 -41 -22.5 -84t-44.5 -63z" />
<glyph unicode="f" horiz-adv-x="487" d="M-70 -10q7 19 17 55t12 43q35 127 49 199q13 69 40.5 153t39.5 131q6 24 29.5 95t32.5 90q3 7 28 80q35 88 57.5 141t58.5 123t71 119q57 92 124 127q7 5 22 11.5t19 8.5q5 2 18 8t21 8q2 0 18 4.5t25 4.5q46 4 68 4h20q2 -1 15.5 -4.5t21.5 -8.5q9 -3 23.5 -14t19.5 -14 q11 -8 18 -20t9 -18t8 -26q16 -54 0 -123q-4 -23 -18 -65q-5 -13 -9 -24.5t-5.5 -16.5t-7 -12.5t-15.5 -18.5q-1 -3 -2.5 -8t-3.5 -8.5t-6 -5.5q-10 -20 -11 -21t-7 -10q-12 -19 -11 -19q-9 -7 -19 -20q-26 -4 -34 -12q-2 -1 -4.5 -1t-4.5 -1t-6 -5.5t-6 -5.5q-2 2 -6.5 4 t-5.5 3q-2 -1 -8 -13q-10 -5 -25 -8q-4 -3 -7.5 -7t-7.5 -10.5t-7 -9.5q-2 1 -6.5 2.5t-6.5 2.5q-7 -9 -10 -10t-14 -1q-1 -1 -3 -2.5t-3.5 -2.5l-3 -2t-3 -2.5t-2 -3.5t-0.5 -5q5 43 11 57q56 135 61 154q33 74 39 115q8 18 -2 40h-21q-3 -2 -8 -6t-8 -6q-36 -30 -39 -33 q-1 -1 -5 -6.5t-9 -9.5q-7 -8 -15 -23q-20 -25 -24 -34q-25 -39 -27 -49q-5 -12 -18 -37.5t-19 -40.5q-1 -5 -5.5 -14l-6.5 -13q-3 -7 -18.5 -42.5t-28 -65.5t-12.5 -33q-2 -8 -15 -35q-8 -17 -13 -36t-11 -28q11 0 44 2.5t48 2.5q33 0 63 -9q8 -4 17 -10q3 -1 13 -1.5 t18 -1.5t10 -3q2 -3 3 -7t3 -5q12 -3 20 -11l-1 -1q-1 0 -3 -3q16 -7 7 -20.5t-23 -13.5q-8 -8 2 -15q6 -11 16 -14q-4 -2 -8.5 -6.5t-7.5 -5.5q-1 0 -2.5 -1t-4.5 -2t-5 -2q-35 -6 -43 -14q-36 -4 -52 -4h-6q-3 -1 -9 -1t-9 -1q-11 0 -35 -6q-6 -2 -10 -2q-3 0 -19 -4 q-6 0 -14 -4q-5 -2 -16.5 -4.5t-16.5 -4.5q-2 -1 -5 -2t-5 -2h-8q-2 -1 -9 -1t-12 -1t-6 -4q-4 -14 -19 -60.5t-27.5 -85.5t-12.5 -42q1 -7 -3.5 -19t-4.5 -16q-3 -9 -17.5 -57t-23.5 -72q-3 -3 -7.5 -19t-7.5 -20q0 -6 -2 -10q-1 -2 -2 -6.5t-2 -6.5q-3 -5 -14.5 -31.5 t-22.5 -41.5q-2 -1 -2.5 0t-1.5 0q-2 -2 -4.5 -13t-3.5 -12q-4 -3 -5 -4t-2.5 -3t-4.5 -5q-2 -2 -9.5 6.5t-15 16.5t-8.5 6q-2 -3 -12.5 -18.5t-18.5 -24.5t-12 -5q-1 1 -1.5 8.5t-1.5 17.5t-3 15q-1 2 -4 -3q-1 -3 -6 -13q-14 -33 -20 -34t-9 20v2q-2 2 -13 -1t-12 -1v2z " />
<glyph unicode="g" horiz-adv-x="661" d="M729 834q1 0 8 -7l-4 -4h2q0 -8 15 -8q1 -4 3 -13.5t3 -13.5q5 -1 10 -6.5t6 -5.5q-10 -21 -12 -22q0 -2 -1 -5.5t-1 -5.5h-2q-2 -6 -9.5 -15.5t-7.5 -18.5q-10 -3 -6 -7q-3 -1 -5.5 -6t-4.5 -6v-6q-4 -2 -8 -10h-2q1 -4 -2.5 -10.5t-3.5 -10.5l-2 -2q-1 -3 -5 -9.5 t-4 -10.5q-3 -1 -5 -6.5t-5 -6.5q1 -4 -2.5 -9t-3.5 -7q-1 0 -1 -0.5v-1.5t-1 0q0 -2 -12 -25q0 -8 -2 -10q-3 -10 -11 -16l-6 -12q0 -5 -4 -10t-4 -7q-1 0 -2 -1t-2 -1q1 -6 -3 -11.5t-5 -8.5q-4 -4 -4 -11q-7 -15 -9 -16q0 -4 -2 -9t-2 -9q-3 -3 -7 -10.5t-7 -10.5 q0 -8 -4 -8q-1 -5 -4.5 -12t-3.5 -11h-2q0 -4 -4 -12q-1 -5 -5 -12.5t-4 -11.5q-2 0 -4 -3l2 -2q-3 -5 -7.5 -14t-6.5 -12q-1 -4 -4.5 -13t-5.5 -14q0 -11 -8 -14q1 -3 0 -7t0 -7q-1 -1 -2.5 -6t-2.5 -7q-2 -1 -2.5 -5t-3.5 -5q0 -8 -2 -8v-6q-2 0 -2 -2q-2 -2 -2 -7 q-8 -16 -12 -28q-2 0 -2 -2q0 -13 -4 -17l1 -2q1 -5 -3 -6q0 -2 -2 -9.5t-4 -12.5q0 -2 -7 -6q0 -13 -2 -17q-2 -9 -11 -30t-11 -35q-5 -3 -6 -14t-2 -13l-7 -14q-1 -1 -0.5 -1.5l0.5 -0.5q-4 -8 -4 -15q0 -2 -2 -4q0 -1 -1 -3.5t-1 -4.5q-2 -2 -3 -8.5t-3 -9.5 q0 -24 -8 -35q2 -3 1 -7t-5 -4q0 -2 1 -3.5t1 -2.5q-2 -4 -10 -28q0 -11 -6 -15q0 -3 -3 -12.5t-4 -11.5q0 -3 -2 -11.5t-2 -11.5l-4 -12h-2v-6q-2 -1 -2 -7t-2 -8q0 -6 -2 -6q-3 -10 -2 -12q-3 -2 -5 -9t-5 -9q0 -17 -4 -23q0 -7 -9 -16q0 -15 -8 -27q1 -4 -2 -10t-2 -10 l-4 -2v-5q0 -8 -2 -10v-8q-3 -5 -6 -16.5t-6 -16.5q-2 -2 -2 -6q-14 -33 -21 -45q-5 -13 -12 -23h2l-2 -2q1 -4 -4 -10.5t-6 -9.5q-3 -2 -8 -10t-9 -11l-4 -4q0 -2 -2 -2q-4 -8 -4 -12q-7 -2 -17.5 -10.5t-15.5 -11.5q-3 -4 -16 -13q-4 0 -8 -4h-2q-6 -3 -18 -5.5t-15 -4.5 q-1 0 -1 1t-1 1q-1 -2 -5 -2.5t-5 -1.5q-5 1 -21.5 -0.5t-21.5 0.5q-13 -6 -48 6l-2 -2q-12 4 -16 4q-3 6 -12 6q-1 0 -3.5 1t-4.5 1q-4 4 -15.5 11t-13.5 12q-4 2 -10.5 7t-10.5 7v2q-3 0 -5 3t-5 3v2q-21 21 -24 23v2q0 2 -2 2q0 1 -1.5 2l-3 2t-2.5 2q-1 8 -8 19.5 t-8 13.5q-2 0 -3 1t-1.5 2.5t-1.5 2.5h-2q-2 2 -2 8q-4 2 -8 10q0 1 -5 11q0 1 -4.5 7.5t-5.5 10.5v6q-4 6 -14 35h2q-5 12 -10 55q1 1 1 2.5t1 1.5q-9 73 18 154q0 2 1 9.5t1 9.5l6 18q0 4 4 6v2q2 5 17 35q1 0 1 2t1 2q2 7 9 18.5t9 18.5q1 1 3 4t3 4q6 3 9 12q6 6 6 11 q9 6 20 2q4 0 4 4q21 -5 25 -8q0 2 2 2q4 -1 12.5 -6.5t14.5 -6.5q0 -2 2 -3t2 -3q4 -2 9 -8.5t9 -9.5l4 -8t2 -11q26 -17 23 -24q-1 -1 0 -1t0 -1q0 -2 -8 -17h-2q0 -11 -11 -22q1 -5 -2 -10.5t-2 -8.5l-4 -2q0 -3 -1 -6t-2.5 -6.5t-2.5 -5.5q1 -4 -2.5 -10.5t-3.5 -8.5 q-4 -4 -6.5 -16t-5.5 -14v-6q-3 -3 -3.5 -14.5t-3.5 -14.5q0 -2 -1 -7t-1 -7v-5q-3 -14 -2 -18t4 -22.5t5.5 -33.5t8 -31.5t11.5 -23.5q6 0 6 -8q4 0 0 -4q9 -5 10 -6q6 -1 23 -10q4 2 16 10q23 17 39 49q4 4 9 14t6 11q1 4 5.5 11.5t6.5 12.5q11 22 16.5 35.5t7.5 19.5 l6.5 19.5t8.5 26.5q16 46 22 71q1 0 1.5 1.5l1 3t1.5 2.5q0 10 2 14l2 2q0 5 3 8q2 4 2 10q8 25 10 33q20 67 22 76h-4q-2 -2 -8 -5.5t-10 -6.5t-6 -7q-8 -2 -15 -10q-5 -1 -7 -2.5t-7 -1.5l-4 -2h-4q-2 0 -2 -4q-21 -4 -31 -6q-5 1 -13.5 1t-15 1t-10.5 4q-12 4 -16 4h-2 q-2 1 -7.5 1.5t-10 2t-7.5 4.5q-1 0 -1 -1t-1 -1q-3 1 -8 5t-8 5v5q-2 -1 -4.5 0.5t-4.5 1.5l-6 6q-2 0 -2 4l-3 2q-2 2 -3 4q-2 0 -3.5 1.5l-4 4l-4.5 4.5q-6 18 -8 19q-2 4 -7.5 9t-7.5 7v2q-2 2 -5 9t-5 9q0 4 -1 9.5t-1 9.5q-4 2 -6.5 8.5t-3.5 7.5q-10 40 -10 54l-2 2 q0 24 -3 39q3 15 3 30q5 34 8 39q0 13 6 25q2 14 11.5 35.5t12.5 33.5q-2 -1 12.5 25t30 52.5t17.5 27.5q1 7 7.5 14.5t8.5 11.5q2 2 4 2q0 9 6 9v4q1 1 3.5 5t3.5 5l50 67l5 5v4h4q1 1 3 4t3 4q0 2 2 2l2 2v2q2 2 5.5 4.5t4.5 3.5v2q2 3 7.5 9.5t7.5 9.5q6 0 8 4h2 q69 69 78 67h2v5q6 0 6 4q6 2 12 8q2 1 7.5 4t7.5 4v2q7 2 19.5 9.5t21.5 9.5q4 4 8 4q2 0 4 2q9 3 29.5 9.5t25.5 8.5q27 0 72 -18q-3 -2 -2 -2q9 -2 19 -11t14 -10l2.5 -5l2 -4t-0.5 -5q1 0 2 -1t2 -1q0 -4 2.5 -7.5t1.5 -7.5q4 -4 4 -6q3 3 7 13t5 12q3 5 11 14t10 15 q3 0 6 6q1 2 4 6.5t5 7t4.5 6.5t4.5 6.5t5 6t5.5 5.5t6 4.5t6.5 4.5q2 2 2 4q8 0 8 4q14 3 25 10q13 4 14 2q2 -5 8 -10.5t8 -9.5q6 -3 21 -13q1 0 2 1.5t2 1.5h4zM508 657q-3 0 -6.5 -1.5t-5.5 -0.5q-6 -6 -13 -6q-5 -8 -14 -8q-2 -2 -8 -2q-20 -20 -33 -23q0 -4 -4 -4 q-3 -6 -8 -6q0 -2 -3.5 -4t-4.5 -4h-5q-1 -3 -14 -12q-2 -4 -18 -15q0 -6 -4 -6q0 -2 -5 -4.5t-6 -5.5q-5 -1 -10 -7.5t-10 -8.5q0 -2 -2 -4.5t-2 -4.5h-2q-1 -1 -4 -3t-4 -3q0 -5 -8 -13l-9 -9l-4 -4q0 -2 -4 -6t-4 -9q-4 0 -4 -10q-4 0 -8 -4q0 -4 -2 -6.5t-6 -5.5t-5 -4 v-2q-2 -2 -7 -9t-9 -8q-1 -4 -6 -8.5t-6 -9.5q-1 1 -3 0h-1q-3 -10 -7 -10v-5q-1 0 -2 -1t-2 -1q-3 -7 -6.5 -14t-7.5 -14t-6 -11q2 0 2 -2q-2 -1 -5 -5t-5 -5q0 -8 -7 -12q0 -10 -10 -17q1 -1 -4 -6v-8q0 -4 -4 -8q-1 0 -6 -16q-1 -1 -2.5 -6.5t-3.5 -8.5q-1 -2 -1 -6 t-1 -7.5t-4 -6.5h2q-1 -3 -4.5 -8.5t-4.5 -8.5q0 -1 1 -6.5t0 -9t-5 -6.5q0 -5 -3 -19t-1 -22q-1 -2 -1 -6t1 -6q-4 -4 -4 -13q5 0 10 4t7 5t6 4t6 4q6 8 22 20q2 2 4 2q0 2 5 2q2 4 10.5 12.5t11.5 12.5h2q1 2 7 6.5t7 9.5q6 3 17.5 14.5t15.5 14.5q1 4 3 6.5t6 5t6 4.5 l4 4q2 0 3 3.5t3 3.5q2 4 7.5 9t6.5 9h4l2 2q1 1 7.5 9.5t11.5 10.5q11 15 20 17q0 8 4 8q4 8 8 8q1 2 4 3.5t3 2.5q1 1 4.5 6.5t7.5 6.5v2h4q2 5 9 12.5t9 13.5q1 1 2 4.5t3 4.5l8 16q0 7 6 17t6 16q2 0 2 2q0 5 3 12t3 12h2v2q1 3 5.5 11.5t5.5 11.5h2q0 4 2 10t5.5 13.5 t4.5 11.5q1 -1 1 0t1 0q0 11 6 14l4 8q8 24 17 35q0 4 4 8q3 10 11 27t11 27q-5 0 -10 -5z" />
<glyph unicode="h" horiz-adv-x="712" d="M494 1393q6 -2 22 -2q1 0 3 1t3 1h2q2 -1 7.5 -2t7.5 -2h10q1 0 6 -5q1 1 2 -0.5t2 -1.5l2 2l2 -2q2 0 6 -4q8 -4 13 -4q4 -4 6 -8q1 0 3.5 -1t4.5 -1q1 -1 2 -5.5t2 -6.5q5 -1 14 -15q2 -4 2 -12q0 -2 1 -7t1 -7t-2 -7.5t-2 -7.5q-2 -7 -7.5 -19.5t-6.5 -14.5 q-22 -57 -65 -134q-1 -1 -3.5 -3t-3.5 -3v-4q-2 -2 -2 -6v-8q-34 -55 -61 -113q-6 -13 -23 -48t-26 -56q-4 -8 -4 -17q-2 -2 -2 -4q-1 -1 -4 -5.5t-3 -6.5q-2 -4 -2 -12q-5 -9 -8 -23v-6q-2 0 -2 -2v-6q-4 -4 -4 -6q2 1 5 3t5 3q3 0 15 6v-2q6 2 16 12h2q2 0 4 2q1 0 2 1 t2 1t3 1t3 1q5 0 7 2h8q0 2 2 2q1 0 3 1.5t3 1.5q13 8 35 8q3 1 10.5 2t11.5 2q19 0 25 2q6 -2 22 -2q15 0 21 -2q2 2 10 2q0 -2 2 -2q4 0 6 -2q2 0 2 -2q3 0 7 -2t6 -2h4q2 0 3.5 -1t2.5 -1t2 -1.5t2 -1.5h4q20 -5 39 -20q4 -4 4 -6t4 -6q1 -1 2 -3t2 -3q17 -12 23 -21 q0 -2 6 -8q1 -1 2 -3t2 -3v2q6 -8 18 -35q0 -2 1.5 -6t1.5 -6q-2 -6 -3 -20t-2 -17v-12q0 -3 -4 -7q-1 -4 -8 -18q4 -9 -8 -27q2 -2 -2 -6v-6q-9 -26 -14 -35q-1 -3 -2.5 -6.5t-4.5 -8t-4 -7.5q0 -1 -1 -2.5t-2.5 -4t-2.5 -4.5q0 -4 -4 -12q0 -1 -1 -2t-1 -2l-2 -4 q-4 -6 -8 -18q-4 -4 -4 -7q0 -4 -4 -8v-10l-4 -8q0 -5 -3 -8h-2q-5 -5 -8 -13q2 -4 0 -4q0 -1 -1 -2t-1 -2v-2q-2 0 -2 -2v-2q-2 -2 -4.5 -5.5t-3.5 -4.5q0 -1 -1 -3t-1 -3t-1 -3.5t-1 -3.5q-3 -7 -6 -8l-4 -4v-4l-5 -10q-1 -2 -2 -6t-2 -6q-4 -15 -10 -21l-2 -2v-4l-6 -6h2 q-1 -4 -4.5 -9t-3.5 -6q-13 -18 -15 -26l-2 2q-2 -5 -5 -16.5t-6.5 -19.5t-8.5 -13v-8h-2q0 -1 -1 -4t-1 -5q0 -6 -2 -8l-2 -2v-4q0 -2 -4 -2v-4q-1 -1 -1 -3t-1 -3q0 -1 -1.5 -2l-3 -2t-2.5 -2h3q0 -2 -5 -7q3 -21 -10 -34v-13q0 -10 -2 -14q0 -2 -2 -2v-23q-2 -4 -2 -10 q0 -1 1 -3t1 -3v-4l-4 -8q-2 -2 -2 -6q0 -5 6 -5q0 -2 6 -8q4 -4 4 -6q3 0 3.5 -2.5t0 -5.5t0.5 -6q2 -1 7.5 -3t7.5 -3q-4 -9 2 -15q-47 -30 -84 -32h-6q-27 0 -51 14q-6 10 -13 14l-4 4q-3 3 -6 9q-4 2 -10 8q0 3 -6 6q0 4 -5 4q3 3 3 4q-1 2 -11 12h2q-1 2 -3 4.5t-3 4.5 q-1 1 -2 3t-2 3q0 4 -2 4q-4 8 -4 10l-4 4v4v4q-1 1 -1 3t-1 3v7q-5 37 8 94q1 2 2 7t2 7q2 2 2 8q0 4 2 6q0 13 4 17q1 2 2 6t2 6t3.5 6t3.5 6q2 4 2 13q0 6 4 10q0 8 2 8q6 15 10 21q1 2 1 6t1 6l2 2l2 2q0 6 2 8q0 1 1 2t1 2l4 4v2q0 1 1 2.5t1 2.5q4 4 4 6q0 4 5 14 q0 1 1 3t1 3l6 12v5l2 2l2 2v6q2 2 2 4q2 2 2 4q4 4 4 6t6 14v3q0 1 1 2t1 2q1 2 1 6t1 6l2 2q2 2 6 10v2q2 2 5 4.5t4 3.5q0 1 1 4t1 5q0 4 2 6q6 6 6 8q4 4 4 8q3 12 6 21q7 7 10 20q0 1 1 3t1 3v4q5 5 5 6q2 2 2 7l4 4v4q0 2 2 4l4 4q1 0 4 1t4 1q0 11 4 23q1 2 4 7t4 7 q2 2 2 6v2q0 1 1 2t1 2q2 0 2 2q1 1 2.5 4t2.5 4h-3q4 8 7 11q0 1 1 3t1 3l4 4v6q4 2 4 4q0 1 1 3.5t1 4.5q5 14 8 19q0 1 1 4t1 4v16v15h-14l-4 -2h-6q-2 -2 -5 -2q-8 0 -12 -2h-4l-2 -2q-9 -3 -12 -3l-2 -3q-2 -2 -4 -3h-7q-1 0 -3 -1t-3 -1q-4 -2 -10 -8h2q-1 -1 -4.5 -2 t-5.5 -2v2q-10 -10 -16 -14q0 -4 -5 -4q-2 0 -2 2q-3 -4 -9 -11.5t-9 -11.5q-4 -2 -6 -4q-4 -4 -4 -6q-1 0 -3.5 -2t-4.5 -2q-1 -2 -3 -4l-4 -4q-2 -2 -7 -6.5t-7 -6.5q-4 -8 -4 -10q-2 -1 -3.5 -2.5t-2.5 -1.5q-2 0 -2 2q-1 -2 -2 -5.5t-2 -4.5q0 -1 -3.5 -3t-3.5 -3 q-8 -8 -10 -9h2l-4 -4q0 -2 -2 -2q0 -1 -1 -3t-1 -3q-4 -4 -4 -8q-8 -34 -31 -98q-1 -2 -2 -7.5t-2 -7.5q-4 -4 -8 -12q-10 -20 -16 -41q-11 -24 -21 -55q-4 -9 -10 -28t-10 -28q-11 -30 -56 -174q-4 -9 -10 -28t-10 -29q-1 -2 -2 -6t-2 -6q-16 -32 -17 -39v-4 q-3 -7 -10 -10q-11 -5 -45 -13h-2l-2 2q-2 0 -5.5 -2t-4.5 -2q-1 -1 -4 -3t-4 -3q-8 -4 -13 -2h-2q-4 4 -6 4q-4 0 -4 -4q-1 3 -8 6q-2 2 -8 2h-4h-13v6q-4 -2 -4 -6q0 -10 -4 -14q-3 -1 -4.5 1.5t-1.5 4.5v23v18q2 4 2 14q0 7 1 20.5t1 20.5q6 24 6 51q2 9 4 26.5t4 25.5 q1 8 4.5 24.5t4.5 24.5q4 16 12 46.5t12 45.5q4 16 12.5 46.5t12.5 45.5q9 34 29.5 96.5t25.5 79.5q17 56 20 64q1 3 4 11t3 11q6 18 18 47.5t14 36.5q23 57 31 84q4 8 4 10q2 5 7.5 15.5t7.5 15.5q76 184 143 318q9 23 14 28q0 3 4 11q41 67 43 71q2 3 10.5 15t14.5 18 q12 14 29 29z" />
<glyph unicode="i" horiz-adv-x="368" d="M496 1024q0 -14 -9 -29t-10 -22q-1 -3 -3.5 -8t-4 -10.5t-0.5 -10.5q-1 -3 -2 -8t-2 -8l-6 -19q0 -1 -3 -1l-1 -1l-9 -12q-2 -4 -4.5 -6t-3.5 -6q-3 0 -11 -6t-15 -9q-2 -7 -9 -10q-1 0 -7 -4t-7 -4q-7 -1 -14.5 4t-14.5 4q-8 2 -26 -3t-23 -5h-2q-2 0 -6 2 q-2 -1 -4.5 -1t-5.5 -1l-2 18l-6 29q-3 14 -3.5 24.5t2 19.5t5.5 16t8.5 18.5t9.5 21.5q12 41 25 60q8 16 28 41q12 12 21 10q2 -2 10 -2l29 -4l6 -6l4 2q5 -1 19 -2t23.5 -4t14.5 -9l7 -14q0 -7 1 -21t1 -24zM154 29l-52 -19q0 2 -7 2t-13 -0.5t-8 0.5q-3 2 -7.5 -5.5 t-7.5 -6.5q-1 3 -6 -2q-3 -3 -6 -2q-2 1 -7 -2l-5 -4v8q0 1 -5 0t-5 0l-17 12q-4 2 -4 29q3 33 29 164q5 57 18 90q-1 6 4.5 19t5.5 20q0 5 40 126l12 38l77 221q6 7 16 24.5t21 26.5q7 15 17 18q11 -2 26.5 5t25 10t23.5 -8q1 0 3.5 2t3.5 2q26 -1 43.5 -2.5t26.5 -5.5 t12.5 -6t6.5 -8t3 -7q-2 -14 -5 -14q-5 1 -7 -2l-3 -9l-34 -88q-13 -29 -40 -114.5t-38 -110.5q-3 -8 -14.5 -38.5t-18.5 -47.5q-32 -121 -57 -188q-3 -11 -10.5 -34.5t-12.5 -43.5l-8 -15z" />
<glyph unicode="j" horiz-adv-x="370" d="M440 1130q12 -1 41 -14q6 -8 17 -16q0 -2 4 -2q0 -6 4 -8q0 -1 1 -4t1 -5q5 -5 4 -8q15 -10 8 -20q0 -7 -4 -23l2 -2q0 -8 -4.5 -20t-3.5 -19q-1 0 -2 -2t-1 -4t1 -2q-1 -2 -6 -15.5t-6 -19.5q0 -10 -4 -14q-1 -6 -6.5 -14t-6.5 -13q-2 -1 -12 -7t-14 -11q-17 -8 -21 -10 l-5 -5t-7 -4l-4 2q-4 1 -6 0q-4 7 -11 7q0 16 -20 16q-2 -1 -5 -4t-5 -4q-6 6 -9 6q-4 8 -6 8q-10 20 -37 16q0 3 -4 3q0 8 2 10q-2 10 -2 30q-3 24 1.5 43t19 46t16.5 32q2 2 2 8q2 0 2 7q14 20 15 24q4 16 12 19h2q1 1 7.5 1t8.5 1q1 1 2 0t2 0q1 0 2.5 -1t2.5 -1 q23 0 32 -7zM377 774l12 -2l7 -2q6 -3 10.5 -3t5.5 3q8 -4 4 -12q3 -3 2.5 -13t-2 -24t-0.5 -16q0 -3 -6 -9q5 -15 -11 -41q0 -8 -2 -10q0 -5 -2 -14.5t-2 -14.5q-3 -3 -6 -9.5t-6 -8.5q0 -7 -5 -17.5t-5 -17.5q0 -4 -4 -4q0 -4 -3 -12.5t-2 -11.5q-3 -4 -6 -15t-6 -14 q0 -9 -4 -21q-1 -3 -4 -9t-4 -9q-4 -8 -4 -14q0 -4 -2 -4q0 -1 1 -1.5t1 -1.5q-1 -1 -1.5 -4.5t-1.5 -6t-3 -3.5q0 -14 -2 -20q-2 -4 -19.5 -65.5t-19.5 -65.5q0 -9 -11 -37q0 -1 1 -1q2 -1 2 -3q-1 -1 -2.5 -5.5t-2.5 -5.5q-1 -2 -2 -14.5t-2 -13.5q-2 0 -2 -2v-6 q0 -3 -1 -5.5t-2.5 -6t-2.5 -5.5h2l-4 -6v-4q0 -7 -4 -19q0 -1 1 -1t1 -1q-7 -18 -14 -47q-4 -8 -4 -14q-2 -7 -5 -23.5t-6.5 -28.5t-7.5 -20q-2 -11 -11 -39t-11 -45q-2 -7 -8 -26.5t-9 -28.5v-4q-7 -33 -14 -53v-2q0 -7 -4.5 -18.5t-5.5 -18.5q-3 -15 -11 -35 q-1 -3 -8 -25v-2l-1 -5q-1 -6 -5 -7q-2 -19 -14 -51q-3 -11 -8 -14q-5 -15 -7 -19q-2 -3 -3 -10t-3 -8v-7q-1 -1 -4.5 -7t-7.5 -7q2 -7 -4 -10q1 -5 -4 -13.5t-4 -13.5q-2 0 -4 -2q0 -6 -7 -14t-8 -14q-2 1 -2.5 -0.5t-1.5 -1.5h2q-6 -9 -10 -17q-2 -2 -5.5 -8t-4.5 -8h-2 q-2 -2 -11.5 -15.5t-17.5 -17.5q0 -3 -6 -6v-2q-1 0 -2 -1t-2 -1q-1 -1 -3.5 -4.5t-5 -5.5t-6.5 -3q-8 -8 -36 -16q0 -1 -2 -2t-2 -2h-5q-6 -4 -21.5 -10t-21.5 -10q-2 0 -6 -1.5t-6 -1.5q-2 -1 -6.5 -1t-5.5 -1h-2q-13 -3 -51 2q0 1 2 3q-3 -1 -7.5 0t-7.5 0q-1 2 -4.5 3 t-3.5 3q-8 0 -24 8q-4 1 -11 6.5t-14 5.5q0 2 -1.5 3.5t-4.5 3.5t-4 3q-5 2 -12.5 8.5t-12.5 8.5q0 1 -2 2t-2 2q-4 4 -6 10q-22 12 -47 53q-6 6 -6 9q-5 5 -19 28q-5 7 -14 33h-2q-5 12 -13 36.5t-10 31.5q0 5 -2.5 19.5t-1.5 23.5l-2 2q-4 2 -2 17t2 20.5t5 22.5t7 22.5 t7 20.5t6 17t4 9t4 12q3 6 10 19.5t10 19.5q2 2 7 12.5t10 13.5q1 3 14 21q4 0 8 4t11 4q0 1 3 2t3 2q4 0 14 1t14 1q2 0 4 2q8 -1 26.5 0.5t23.5 1.5q10 0 34 -12q1 0 2.5 -1t3 -2.5t3.5 -2.5t8.5 -7.5t11.5 -8.5q0 -3 2 -5q4 -2 8.5 -10t8.5 -10q0 -2 1 -6t1 -6 q9 -5 4 -13q6 -3 6 -12q-2 -1 -4 -3.5t-4 -2.5q-2 -2 -2 -4q-7 -7 -15 -24t-10 -21q0 -2 -1 -4t-1 -4h-4q0 -14 -8 -19q0 -6 -2 -8q-8 -16 -12.5 -31.5t-6.5 -29t-2.5 -21.5t-0.5 -20l1 -11q5 -5 2 -8q0 -1 1.5 -4t-1.5 -4l2 -2q0 -2 1 -4.5t1 -3.5q4 -18 8 -27 q2 -14 13 -32t12 -21q0 -1 2 -4t4 -4q7 5 16 19t13 18q3 7 10.5 18t12 21t6.5 20h2q29 72 30 76q3 12 11.5 35.5t11.5 37.5q12 52 12 56q3 15 12.5 45t12.5 47q4 8 4 18l2 2q4 22 6 25q1 27 23 102q29 122 45 174q4 25 30.5 118.5t30.5 111.5q0 2 2 2q4 20 10.5 41 t14.5 45.5t12 38.5q4 20 10 28q0 9 4 17q24 61 33 90q1 0 1 2t1 2q5 14 13.5 23.5t24.5 21.5t21 16q7 0 11 -4v-4l2 -2q0 -2 5 -2t5 -2q6 0 8 -2q4 0 12 4t9 4q2 -6 12.5 -4.5t15.5 -1.5h21zM-125 -567q0 -3 2.5 0t1.5 4z" />
<glyph unicode="k" horiz-adv-x="636" d="M319 631q17 6 46.5 28t31.5 23q14 13 42 35t48 41t35 39q8 10 25.5 32.5t24.5 29t23.5 16t39.5 14.5q3 -4 13 -9.5t14 -13.5q5 -15 16.5 -11.5t19 3t0.5 -15.5q-1 -7 -9 -26.5t-18.5 -41.5t-13.5 -29q-31 -64 -65 -94q-4 -10 -18 -25.5t-19 -23.5q-4 -4 -13 -15t-14 -14 q-6 -9 -23 -23.5t-22 -23.5q-1 0 -3 -1t-3 -1q-3 -3 -12.5 -11.5t-11.5 -12.5q-56 -35 -62 -41q11 -23 26.5 -74.5t28.5 -77.5q11 -19 28 -62t38 -83q27 -38 52.5 -64t35.5 -49q-2 -5 2 -18q-3 -4 -14.5 -3.5t-16.5 -0.5v-13q-9 -9 -8 -10q1 -3 2.5 -4t2.5 -1t1 -1 q-5 -1 -11 0.5t-10.5 3t-9 2.5t-7.5 -1.5t-5 -8.5q-17 3 -24 -4q-6 0 1 -3q8 -4 -1 -5q-5 1 -21.5 2.5t-22 2.5t-17 5t-21.5 10q-1 1 -3 -1t-3 -1q-34 40 -76 125q-6 10 -17.5 39.5t-11.5 30.5q-15 29 -32 97t-31 97q0 3 -3 -2q-16 -31 -18 -33q-2 -1 -2 -14 q-15 -20 -18 -33q0 -2 -21 -69t-22 -70q-46 -168 -63 -175q-3 -1 -15 5q-28 -24 -32 -8q-2 6 1 6q-7 15 -24 -2h-17h-11h-11t-10 0.5t-10 2t-7.5 3.5t-6 6t-3 9.5t-0.5 12.5t4 16.5t8 21.5q2 16 20.5 84t24.5 102q2 16 7 35.5t9.5 33t12 35t10.5 31.5q24 88 33 113 q34 119 63 192q8 22 36.5 98.5t39.5 105.5t33 86.5t42 102.5t42 93q9 17 53 112q19 35 25 35q1 1 3 4t3 4q0 3 1.5 3.5t4 0.5t4.5 2q3 2 6.5 7t5.5 6q5 0 13 2q2 -1 13 -2.5t15 -10.5q2 -4 7 -0.5t6 2.5q0 1 15 -8t29.5 -21.5t14.5 -19.5q-1 -3 -4 -12.5t-4 -15.5 q-3 -11 -9 -34.5t-11.5 -42.5t-12.5 -36q-27 -59 -49 -137q-3 -10 -18.5 -45.5t-18.5 -57.5q-9 -11 -18 -43q-4 -5 -9 -18q-2 -3 -10 -27q-15 -46 -45 -123q-2 -13 -14 -37.5t-15 -33.5z" />
<glyph unicode="l" horiz-adv-x="325" d="M137 0l-6 -2q-5 -1 -8 -0.5t-4.5 1.5t-3 0t-2.5 -5q-4 1 -11 5.5t-14 4.5q-6 3 -31.5 -2.5t-33.5 -3.5q-13 17 -17 24t-6 17t-1 23.5t-1 43.5q-5 59 8 152.5t37 144.5q3 9 15 53.5t16 57.5t15.5 50.5t18.5 58t19 53t25 62t28 61.5q6 14 35.5 91t42 108.5t37.5 85.5t47 92 q6 21 26.5 64.5t34.5 64.5q9 14 15 5t14 5q8 2 12 7.5t15 -1.5l22 -8q2 -2 9.5 -4.5t9.5 -8.5q3 -1 8.5 -5t9.5 -5q17 -31 17 -53q-3 -15 -3 -35l-32 -90q-13 -24 -23 -53q-10 -30 -40.5 -107.5t-39.5 -103.5q-7 -15 -22.5 -48t-28 -63t-24.5 -65q-24 -71 -56 -159 t-48 -134.5t-23 -79.5q-7 -43 -23 -78q-1 -4 -1.5 -15t-2.5 -16q-5 -41 -6 -47l-2.5 -7.5t-2.5 -8.5t-1 -8t-1 -5q-1 0 -1 -1q-16 -75 -11 -68q1 -6 -2 -18t2 -15q0 -8 4 -10q-3 0 -7 1.5t-7 2.5q-1 -2 4 -6z" />
<glyph unicode="m" horiz-adv-x="1011" d="M289 905l2 -2h6l10 -2l6 2q1 0 5 -1t6 -1q2 -2 12 -2l12 -4q4 0 8 -2q7 0 9 -4l6 -6l6 -6q3 0 6 -3l8 -6l10 -12q0 -5 5 -10q0 -1 1 -2.5t1 -3.5q4 -4 4 -6h-2q2 -4 2 -13l-2 -12q-4 -8 -4 -16q-7 -7 -5 -9q-2 -2 -2 -6q2 2 4 2l9 4l8 2q1 0 3 1t3 1h6l8 8l4 3l11 2h8 q12 5 37 8q4 2 22 2h23q3 0 7 -1t7 -1h23q4 -4 8 -4t6 -4l2 -2h4l2 -1q2 -1 6 -1q2 -2 8 -2q4 0 7 -1t4 -1q3 -7 10 -7l6 -4l17 -8q0 -4 10 -14l4 -6l8 -13v-4l4 -4q2 -4 6 -6q6 7 26 25.5t23 21.5q3 0 7 2h10l-2 -2l10 8l6 4v-2q4 4 10 4q2 0 6 1.5t5 1.5q4 4 16 8l8 2h-2 q11 4 47 8q1 0 3 1t3 1h27l10 -2l76 -18l16 -9q7 -3 21.5 -18.5t19.5 -24.5v-2h2l15 -12q7 -14 12 -37v-6v-14q0 -7 -4 -15v-18q0 -2 -1 -4.5t-1 -3.5q-1 -2 -3 -6.5t-3 -6.5q2 -7 -2 -16q-4 -12 -8 -14q0 -7 -2 -13.5t-6 -13.5t-5 -10l-12 -27v2q-2 -8 -10 -24l-2 -4 q-19 -52 -54 -114l-2 -3q0 -7 -4 -15l-20 -32q0 -4 -2 -6t-2 -9l-4 -8q0 -4 -4 -6l-5 -6q-42 -102 -47 -107q3 0 0 -6q0 -10 -4 -18t-4 -12l-2 -13l-2 -12q-2 -4 -2 -8v-15l2 -12l4 -45q19 -4 3 -13q-6 -3 -9 -5.5t-2 -5.5q-7 -5 -1 -10t-5 -7q-44 -4 -66 4l-8 2 q-6 3 -7.5 -3.5t-6.5 -2.5q-1 0 -4 1t-4 1l-13 15q-2 0 -4 2q-7 0 -10 8q0 4 -2 6q-3 0 -6 8q-2 6 -8.5 15t-8.5 12l-10 14h2q-4 2 -4 6q0 1 -1 4t-1 4l-2 13v10q-3 38 8 84q1 2 2 5t2 5q0 2 1 5t1 5v9q0 2 2 7t2 7q7 11 9 18q0 5 6 11q42 108 51 122q2 1 4 5l55 131l-2 -2 q4 4 4 6q0 8 16.5 38t18.5 35q2 4 4.5 8t4 6t1.5 3l2 4l5 10l8 17v-2l8 34q0 1 1 4.5t1 4.5q0 14 -2 20q-1 0 -3 1t-3 1q-4 -4 -6 -4h-15q-4 -2 -8 -2q-1 0 -3 -1t-3 -1l-6 -4v2l-10 -6l-5 -2q-1 0 -12 -7l-10 -4h2q-7 -3 -10 -10q-4 0 -13 -6l-10 -8q-3 -4 -18 -19l-8 -8 q-3 -4 -9 -4l-14 -14q-2 -2 -4 -8q-6 0 -6 -7l-10 -8q0 -2 -4 -6q-1 -2 -7 -8l-6 -8q0 -3 -2 -9q0 -1 -1 -3t-1 -3l-10 -22l-8 -17q0 -2 -4 -10l-9 -18q0 -1 -1 -2t-1 -2q-28 -59 -50 -103q-5 -11 -6 -13t-1 -3q0 -10 -6 -19q-4 -11 -19 -30q-13 -24 -22 -46t-12 -31t-4 -9 q-1 -2 -5 -6q0 -15 -2 -19q0 -1 -1.5 -2.5t-2.5 -3.5q0 -4 -2 -6v-8q-2 -2 -2 -6l-22 -72l-6 -29q-6 -63 -19 -80.5t-41 -17.5q-23 0 -39 12q-4 2 -8 10h2l-8 9v-2l-14 8q0 3 -1.5 6t-1.5 4q-10 3 -10 10l-8 21l-16 51q-3 36 8 82v8q0 6 11.5 40.5t14.5 37.5l11 35q0 4 6 10 l4 8q0 6 4 14l6 4h-2q3 4 8 23q20 46 47 113l3 6q5 16 18 35l-2 -2q4 4 4 6t4 6q0 15 8 20q0 3 6 9q-2 -2 -1 1q0 3 3 15l13 22l2 5q6 6 6 12l2 4l4 10v-2q6 16 12 31v-2q0 1 1 3t1 3q3 6 9 12q0 13 2 15q0 10 -4 18h-15q-4 0 -8 -2t-10 -2q-1 0 -3 -1t-3 -1q-5 -2 -9 -2 t-6 -2q-6 -4 -10 -6l-6 -4l-14 -7q-1 0 -3.5 -1t-3.5 -1l-10 -12v2l-51 -47l-8 -10l-8 -6l-9 -9q-2 -2 -2 -4q-4 -9 -10 -12q-1 -1 -4 -6q-12 -20 -23 -38t-16 -27t-9 -16t-6.5 -9.5t-4.5 -3.5q0 -1 -1 -3t-1 -3q-13 -27 -25.5 -49t-16.5 -29.5t-3 -10.5q-3 0 -5 -4l-4 -8 l-2 -6q0 -1 -1 -3t-1 -3l-2 -10l-6 -9q-11 -31 -18.5 -53.5t-9 -32t-3 -15.5t-2.5 -9q-6 -2 -6 -4q-24 -79 -24 -86q-2 -2 -4 -8q0 -15 -3 -21q0 -2 -4 -6l-4 -4q0 -15 -4 -19q-10 -10 -10 -16l-4 -4q-2 -2 -8 -14q-13 0 -19 -11q-8 4 -12 -4q-5 -10 -16 -14q-4 0 -9 -8 q-6 0 -12 -2h-12q-4 -2 -15 -2l-4 -4q-16 -16 -18 -17q-4 -4 -12 -6q-1 0 -7 1t-8 1v14v21q-2 2 -2 14q0 2 -1 7t-1 8l2 14v26q2 27 15 84q0 1 1 3.5t1 3.5v12l6 24q0 5 4 13l4 14l8 23v-2l8 34q17 38 40 110.5t26 88.5q0 4 4 12v-2l55 131l51 105q3 6 3 10q1 1 3.5 4.5 t4.5 5.5l6 8q3 3 12 21l8 10l-2 -2q0 4 4 10v-2q0 2 4 6q0 4 5 9h-2q4 8 14 18q2 6 8 12q4 5 6 7q0 8 2 10l8 8l11 6z" />
<glyph unicode="n" horiz-adv-x="653" d="M270 901l2 -2q5 2 9 2l8 -2h12q6 -6 12 -6q5 0 11 -2l8 -4q4 0 8 -4v2q10 -3 16 -15l11 -8l6 -4q4 -8 12 -12q0 -2 2 -2q-2 -6 2 -10h-2q8 -8 8 -19q-2 -8 -6 -16q-2 -4 -2 -11q-2 -2 -4 -8q-4 -8 -4 -12q4 2 14 12q1 0 3 1t3 1q4 4 13 4q1 0 4 1t4 1q3 0 6 3l8 4 q13 5 58 10q10 0 16 2q2 -2 10 -2h21q4 0 8 -2q7 2 12 0q4 0 8 -4q3 0 11 -4q8 0 16 -4q6 0 16 -5q16 -8 31 -26q1 -2 2 -7v1q6 -4 23 -21q0 -2 2 -4.5t2 -3.5l4 -6v2q14 -18 16 -33l2 -6q0 -2 2 -6q0 -1 -0.5 -3l-1.5 -6l-2 -8l-2 -30q-3 -16 -12 -25q4 -8 -2 -20l-4 -4 q0 -5 -2 -7q-2 -13 -13 -41v3q-1 -4 -6 -13.5t-6 -13.5l-8 -19q-4 -4 -4 -6q-11 -25 -25.5 -58t-24 -54t-10.5 -23l-49 -102q-38 -106 -43 -111v-14l-2 -10q0 -1 -1 -4t-1 -7l-2 -24l2 -6l-4 -17q-3 -3 4 -6q0 -3 6 -6q0 -2 4 -6q4 0 4 -8l-2 -7l15 -6q-4 -6 2 -14 q-43 -31 -88 -31q-19 0 -45 15q-6 11 -15 16q-6 6 -6 8l-10 8q0 2 -6 11q-2 8 -10 16h2q-4 4 -9 14q-3 3 -10 17v10l-2 4q-7 43 10 111q4 12 4 14q0 8 3 14l8 17q4 8 4 10l2 10q0 2 4 10l43 107l4 10q2 4 2 6q33 60 51 113l9 18q2 4 2 9l4 12q6 3 6 8q0 4 6 8l4 2q0 13 8 25 l6 16q2 2 4 6q3 3 5 11h-2q1 5 12 20q0 1 1 4t1 4q10 25 12 35v8q4 10 0 21h-14q-4 -2 -8 -2q-4 -2 -13 -2q-2 0 -4.5 -1t-3.5 -1q-1 -1 -10 -4q-4 -5 -6 -5h-6l-58 -43q-1 -1 -3.5 -4t-4.5 -5t-4 -3l-45 -51l-10 -10l-4 -2q5 0 -2 -3q-1 0 -3 -1l-45 -80l-2 -4q-3 -4 -8 -9 l-20 -41q2 -2 -2 -6q-22 -60 -49 -125t-38 -92t-8 -28l-4 -2v-17q-2 0 -2 -6q-1 -1 -4 -14q0 -2 -1 -7.5t-1 -7.5l-4 -2q3 1 1 -2q0 -1 -2 -3q-1 -2 -1 -3t-1 -3t-1 -3v-8q0 -1 -1 -2.5t-2.5 -4t-2.5 -4.5l2 3q0 -11 -2 -11q0 -9 -10 -24v2l-9 -8h2l-4 -9q-8 -8 -8 -16 q-8 0 -12 -4q-2 -2 -8 -2q-13 0 -17 -12q-6 -3 -6 -7l-8 -2q2 -4 0 -6q-8 -2 -21 -2q-4 0 -8 -1l-4 -1l-8 -2v-6q-6 0 -10 -4l-8 -6l-9 -8q-16 0 -20 2l2 12l-2 4q0 6 -2 12l2 19q-7 10 -4 28v29l20 131q0 3 3 11.5t3 11.5l5 8q0 1 1 3t1 3v18q12 36 14 45q4 2 4 5l2 6 l39 125q0 1 1 3t1 3q2 4 6 8q0 2 2 10q25 57 25 64l2 4l43 104l14 33q0 2 4 6l-2 -2q3 11 13 21q0 8 2 10q6 6 8 10l49 96v-2q0 -1 2 2t4 8l10 15q1 2 11 12q0 2 2 6l2 4q2 2 8 11q2 2 6 14l10 4z" />
<glyph unicode="o" horiz-adv-x="602" d="M483 899q-1 -1 -1 -2t-1 -2q3 1 8 -2v-2q4 -1 6.5 -2.5l5 -3t3.5 -2.5v-2q1 -1 2 -2.5l2 -3t2 -1.5q0 -3 4.5 -6.5t5.5 -7.5q5 -2 10 -8t9 -8q0 -6 1.5 -6.5t4 1t4.5 -2.5q1 -8 5 -12t3 -11q0 -1 1 -11.5t5 -15.5l-3.5 -7t-2.5 -9q-3 -6 -4 -6q2 -1 2 -3t-0.5 -3.5 t0.5 -1.5l-4 -8q-5 -16 -10 -23l-4 -4q-2 -1 -5 -3t-7.5 -3.5t-10.5 -1.5v-4q0 -3 5 -6.5t5 -6.5q1 -3 10 -12t11 -16q2 0 2 -2q12 -29 14 -37q0 -4 4 -4q0 -1 13.5 -34.5t9.5 -41.5q-1 -8 1.5 -34t0.5 -30v-14q-3 -12 -5 -47t-5 -43q0 -6 -5 -21l-6 -18q5 3 -14.5 -38.5 t-41.5 -84t-24 -41.5q0 -5 -7 -10.5t-9 -11.5h-2q-1 -6 -5.5 -15.5t-6.5 -15.5q-1 -1 -4 -6t-6 -6q-1 -2 -3 -7.5t-4 -9t-6 -4.5q1 -4 0 -4.5t-3.5 1.5t-4.5 1q0 -2 1 -2.5t1 -1.5t-5 -11t-9 -12q0 -2 -1 -3.5t-1 -2.5q0 -2 -6 -2q-2 -4 -9 -9t-8 -9q-25 -25 -49 -33 l-20 -20q-4 0 -9.5 -5t-9.5 -6q0 -2 -2 -4q-2 -1 -6 -1.5t-10 -1t-11 -1.5h-4q-27 -8 -55 -2h-4q-1 1 -7 1t-7 1h-4q-10 1 -25 6t-21 6q-2 1 -7.5 4t-8.5 3q1 3 -3.5 5.5t-4.5 6.5q-10 3 -35 18v4v-4q-6 6 -4 9q-4 3 -6 5.5t-2.5 4t-1.5 2.5q-3 2 -17 16q-2 6 -12.5 15 t-13.5 16h-2q0 4 -3 7.5t-3 6.5q-2 2 -5 5.5t-4 4.5l2 5q-3 1 -5.5 4.5t-4.5 3.5v6q-6 6 -18 35t-8 33q0 1 -5 28q0 4 -0.5 11t-0.5 12.5t1 9.5v2q-5 23 2 61q0 2 1.5 7t1.5 8q1 2 2 7.5t2 8.5q-1 37 43.5 128t74.5 118q3 6 7 8q2 4 9.5 14t8.5 15q1 1 2 2.5t2 2.5t2 1 q-4 -4 -1 1q28 34 116 118q49 46 57 47q4 0 4 4q2 0 4 4q15 15 31 25v2q16 5 33 18q6 2 18 10.5t19 10.5l3 2q3 2 3 4q2 0 24 8t39 8zM408 647q-10 -12 -32 -30t-32 -31q-2 0 -4 -2t-4 -2q-5 -8 -49.5 -50.5t-44.5 -56.5q-14 -13 -44 -64t-30 -65q-3 -2 -12.5 -17t-10.5 -22 q0 -22 -8 -43q-17 -39 -6 -74q-4 -8 2 -20q2 -24 6 -35h35q14 0 33.5 10t30.5 13q2 5 7 9t10.5 7t6.5 4q2 -1 19.5 17.5t39 41.5t23.5 25q7 14 18 23q3 7 12.5 19t14.5 22q8 12 10 24q11 16 17 33q12 25 18 59q2 7 8 66q11 28 13 47q-6 21 -2 61q0 27 -4 33l-5 15 q-8 -3 -18.5 -9.5t-17.5 -7.5z" />
<glyph unicode="p" horiz-adv-x="606" d="M272 870q3 -2 46 7t49 -5q2 -1 10 -1t12.5 -1.5t7.5 -11t2 -27.5q-1 -3 -4 -11t-4 -15q-3 -5 -6 -13.5t-6 -13.5q-1 -12 -3 -12q-5 -1 -7 -6q0 -2 7 1t17 8t15 7q3 2 10.5 4.5t11.5 5.5q26 10 31 11q4 1 7.5 5.5t12.5 6.5h56q20 -2 61 -18q1 -1 21.5 -16.5t25.5 -31.5 q4 -1 5.5 -3.5t3.5 -7.5t3 -7q14 -14 19 -29q9 -21 14 -78q5 -26 -2 -59q0 -29 -2 -35q-2 -21 -30.5 -89.5t-30.5 -76.5q-13 -21 -15 -28q-4 -6 -10 -17.5t-10 -17.5q-28 -54 -72.5 -113.5t-85.5 -95.5q-1 -1 -2 -3t-2 -3l-17 -12q-17 -13 -20 -14.5t-18 -11.5t-22 -13 t-19.5 -9t-23 -8.5t-21.5 -3.5q-23 -10 -92 -10h-17l-10 5t-12 5q-2 1 -8.5 3t-8.5 3t-6.5 7.5t-7.5 9.5q0 1 -2 2q-3 1 -2 2q-7 9 -12 39q-10 -26 -35 -108t-29 -105q-2 -17 -15 -54.5t-14 -50.5q-14 -36 -25 -71.5t-15.5 -51.5t-10.5 -30.5t-12.5 -19t-18.5 -5.5v8 q-2 -3 -8.5 2t-11.5 2q-2 0 -8 -21.5t-10 -21.5q-2 0 -5.5 2.5l-7 5t-4.5 1.5q-5 0 -33 -17q-2 3 1 11t5 13t-2 7q-2 -1 -11 -15t-15 -14l-6 -2v-6v-2q-3 4 -8 4q0 7 -5 4q6 83 25 154q10 52 20 88q7 27 15 49t14 51q7 20 13 45t12 41q-1 3 82 244t102 289q9 20 19 38.5 t16 34.5q14 25 48.5 120.5t41.5 109.5q14 28 41 49q2 0 9 8.5t9 9.5zM504 571q8 87 -19 117q-32 13 -53 0q-10 -6 -28 -18t-23 -15q-12 0 -59 -81t-54 -101q-3 -10 -31 -59.5t-30 -57.5q-2 -6 -4 -10.5t-5 -10.5t-5 -11t-11 -24t-14.5 -33.5t-5.5 -22.5q-3 -9 -9.5 -23.5 t-7.5 -17.5q-4 -11 -0.5 -27.5t9.5 -23.5q0 -3 3.5 -6.5t4.5 -6.5q4 0 28 -6q6 3 16.5 4t16.5 4q2 0 6 2t7 2q19 9 38 21q4 4 22 18t33 30t23 32q5 9 20 28.5t17 22.5q2 4 10 16.5t14 23t9 17.5q4 10 31.5 64.5t31.5 64.5v6q16 44 19 82z" />
<glyph unicode="q" horiz-adv-x="622" d="M469 -186q0 -3 -5.5 -11.5t-4.5 -11.5q1 0 -4 -3q-13 -8 -13 -11q2 -4 25 6q3 -3 -6 -12q2 -2 4 -7t2 -6q2 -2 -9.5 -14.5t-15.5 -13.5q2 -1 16 3t15 3q-1 -9 -5.5 -19t-12.5 -22.5t-11 -18.5q25 -6 29 -8q-1 -3 -3 -6t-5 -6.5t-4 -5.5h-4q-9 -8 -21.5 -15.5t-28.5 -16 t-24 -13.5q-34 -21 -111 -90q-3 2 -15 -2.5t-17 0.5q-1 0 -1 -0.5v-1.5t-1 0q-13 2 -35 15t-31 17q3 13 -8 13q-16 23 -27 47q7 44 27 124.5t26 108.5q23 77 48 148q-1 1 0.5 2t1.5 2q53 150 61 170q-71 -63 -143 -88q-10 -3 -13 -9q-6 0 -12 -6q-9 -3 -24 -4.5t-21 -3.5 h-31q-1 0 -3 1t-3 1q-4 2 -14 2q-8 2 -19.5 11t-17.5 10q-5 7 -18.5 23.5t-18.5 23.5v4q-26 57 -14 141q0 19 4 35q2 5 4.5 19t5.5 22q21 56 25 66q6 26 20 53q2 2 6 10q6 14 22 43.5t19 36.5q7 9 21.5 32t23.5 33q5 11 29 31q11 17 25 27q9 8 28.5 26t30.5 27v2q1 1 2.5 1 t1.5 1q10 10 12 14q14 5 25 13q31 22 72 43q1 0 3.5 3t4.5 3q10 6 72 29q80 18 135 -5q12 -12 20 -16q8 -15 14 -20q2 0 3 2.5t2.5 6t3.5 5.5q12 34 49 90q1 2 3 5t3 4t2 2.5t2 2t2.5 1t3.5 1.5q3 5 9.5 5t14.5 -3t14.5 -6.5t14 -8t9.5 -5.5h10q2 -2 10.5 -15t16.5 -14 q4 -2 12.5 -20t5.5 -27q1 -1 -2.5 -10.5t-1.5 -15.5q-6 -19 -23 -48q-7 -7 -10 -18q-11 -14 -16 -25q-93 -223 -111 -262q-2 -7 -10.5 -24.5t-11.5 -30.5q-1 -2 -2.5 -8t-2.5 -8q-3 -10 -11.5 -29t-10.5 -25q-1 -5 -5 -14t-5 -12q-13 -30 -13 -35q-21 -48 -24 -61 q-2 -3 -6 -29q-13 -19 -15 -31q-4 -16 -14.5 -42.5t-11.5 -29.5q-20 -35 -29 -77q-15 -51 -22 -64q-12 -27 -15 -47q0 -3 -1 -8t-1 -6q-6 -12 -6 -15q-3 -17 -15 -46t-14 -36v-2q74 43 113 54zM514 680q0 22 -57 18q-2 -2 -27 -12q-8 -4 -20 -8q-2 -3 -5.5 -5.5t-5.5 -3.5 t-2 -3l-4 -4q-10 -5 -18 -7q-7 -5 -26 -24.5t-23 -26.5q-7 -3 -24.5 -24t-33.5 -42.5t-36 -49.5t-23 -33q-17 -25 -25 -35q-5 -15 -8 -21q-4 -6 -10.5 -21.5t-13.5 -23.5q-1 -2 -8 -20t-7 -27q-2 -20 -2 -53q6 -6 4 -10l8 -8t9 -7h8q3 0 10 -3t10 -3q24 -2 66 17l24 12 q2 1 9 7t10 7q24 10 37 19q4 6 13.5 12t10.5 8q13 25 13 27q11 42 24 69q1 2 2.5 6t2.5 6.5t1 4.5q4 8 4 10q1 1 3 4.5t3.5 7t2.5 6.5q12 28 20 60q7 10 10 20q2 8 19 35q2 5 5.5 14t4.5 13q5 14 10 22q0 1 2 3.5t2 4.5q8 10 16.5 29t12.5 25h2v6v2z" />
<glyph unicode="r" horiz-adv-x="493" d="M49 420q7 18 24 75.5t31 88.5q85 209 140 309q3 5 4.5 7t3 2.5t5 2.5t7.5 6l8 -4q9 1 14 -4.5t13 -5.5q4 -4 15 -12.5t14 -14.5q2 0 4 -10q16 -9 20 -18q15 -26 6 -54l-2 -5q-2 -5 -2 -9q-13 -29 -14 -41q11 6 31 22.5t35 24.5q3 4 16 11q4 4 11.5 8t14 6.5t18.5 6 t17 5.5q2 0 5 1t4 1.5t2 -0.5q7 0 21.5 1.5t21.5 2t17 -0.5t17 -5q5 -6 15.5 -18t15 -17t11 -15.5t9 -19t4.5 -21t1 -26.5q-2 -16 -11 -41q-13 -25 -14 -32q-8 -8 -18 -23l-11 -14q-3 -1 -8 -21q-3 -1 -12 -10l-6 -6l-17 -23l-10 -8q0 -2 -2 -7t-2 -7q-4 -5 -11 -15t-11 -15 t-11.5 -13.5t-11.5 -11.5t-12 -8.5t-13 -4t-14 1.5q-2 -1 -3 -2.5t-3 -1.5q-4 3 -12.5 7.5t-12.5 7.5q-18 16 -18 59q2 24 9 51t12 40.5t18 44t14 34.5q-2 -1 -9 -7t-13 -7q-15 -19 -68 -76q-58 -66 -78 -107q-6 -8 -14 -24.5t-10 -20.5q-21 -50 -37.5 -101t-32.5 -93 q0 -3 -3 -10.5t-3 -10.5l-27 -88q-3 0 -3 -2q-1 -2 -5 -2l-7.5 -22.5t-6.5 -24.5l-13 -27q0 -1 -2 -2t-2 -2q-2 -8 -8 -24q-3 0 -7.5 -5t-6.5 -6q-4 1 -6 6l-2 5q-7 -1 -12.5 -13.5t-10.5 -17.5q-16 -20 -26 -24.5t-13.5 2.5t-6.5 15.5t-5 15t-10 0.5t-21 -29v8l-7 -5 q-6 -5 -9.5 -9.5t-3.5 -8.5q5 182 102 455z" />
<glyph unicode="s" horiz-adv-x="593" d="M473 879h4q9 0 24.5 -3t20.5 -4q1 0 3 -1.5t3.5 -2t1.5 1.5q2 -2 5 -2q25 -14 47 -43q6 -6 8 -12q2 -4 2 -16v-15v-6q0 -1 -1 -2t-1 -2q2 -2 2 -4q2 0 2 -4v-8v2q-17 -93 -62 -133q-6 -9 -14 -13l-4 -2l-2 -2l-4 -4q0 -2 -2 -2v4l-4 -4q0 2 -2 4t-2 4q-4 -4 -11 -4 q-12 -6 -14 0q-1 1 -2 3q-1 3 -2 3q-1 1 -3 0t-3 0q-8 0 -8 6l2 3v2q-2 -2 -4 -2l-2 2l-5 -3q-4 -4 -8 -4q2 4 2 11h-10q-2 -2 -6 -2h-6q-4 0 -8 4h-7h-6q0 7 11 24q2 3 7 9.5t7 9.5q1 1 6.5 8t7.5 12q4 8 2 13q0 5 -4 8t-8 2q-2 0 -4 -2h-4h-15q-10 0 -16 -6q-2 -1 -10 -9 q-46 -32 -62 -45q-29 -21 -43 -37q-22 -22 -30 -43l-2 -8q0 -2 2 -6t2 -6q16 -8 30 -2q14 5 19 8q1 0 4 1t4 1q2 2 6 2q28 4 47 4q49 7 82 2q4 -1 12.5 -3t12.5 -3l24 -6q9 0 13 -2q5 -3 8 -8q6 -1 12 -3.5t10 -5.5l10 -7.5t9 -6.5q2 0 2 -2q1 0 2 -1t2 -1q3 -5 8 -15.5 t8 -15.5q1 -1 2 -4.5t2 -5.5q0 -3 5 -8q1 -2 4.5 -7.5t3.5 -10.5q6 -6 6 -23l2 -8h2v-12q-1 -9 -2 -29t-2 -29l-6 -18q-2 -6 -7.5 -17.5t-7.5 -17.5q-1 -3 -3.5 -10t-5 -13.5t-5.5 -11.5l-6 -6l-6 -6v-4q0 -4 -4 -6q-4 -4 -4 -9q-1 0 -1 -1t-1 -1q0 -2 -2 -4.5t-3 -3.5 l-18 -24q-1 -1 -3 -4.5t-3 -4.5h2q0 -6 -4 -6h-4q0 -8 -8 -8l2 -2h-2q2 0 0 -2q-1 -1 -5 -6.5t-8 -7.5l2 2q-1 0 -2 -1t-2 -1h-2l2 -2q-8 -11 -45 -43q-1 1 -8 -2q-4 0 -8 -9q-11 -8 -15 -10q-21 -19 -79 -57q-1 0 -3.5 -2t-3.5 -2q0 2 -2 2q-9 -5 -20 -10.5t-25.5 -12 t-23.5 -10.5q-1 0 -5 -1t-6 -1q-4 0 -12 -4q-5 -2 -15.5 -6t-15.5 -6q-4 0 -6 -2h-6q-3 0 -16.5 -3.5t-20.5 -3.5q-2 0 -6 -4h-10h-31h-8q-21 0 -41 4q-3 1 -8.5 2t-7.5 2q-4 2 -17 7.5t-14 5.5q-2 2 -4 2l-2 2q-1 1 -3 2t-3 2t-1 2t-1 2l-2 2l-2 4v2q-2 2 -6 9.5t-5 9.5 q0 2 -1 5t-1 5q-4 8 -4 10v17q-1 9 -2 26t-2 25v8q1 8 2 24.5t2 24.5q0 17 8 41q1 3 4.5 8t4.5 8q2 4 4 12t2 9q1 3 2.5 6l3 6t2.5 4q4 9 29 49q4 9 11 15t11 12q1 4 9 8.5t9 5.5q22 28 23 29q6 0 6 2q2 -1 5 -3t5 -3q7 0 7 -6l4 -4q8 -8 6 -15l-4 -4q0 -6 4 -10v-2 q2 -2 2 -8v-2v-2q1 -4 3 -5.5t2.5 -4t0.5 -9.5q0 -1 1 -2t1 -2q2 -2 2 -12q-18 -81 -18 -88q0 -8 -2 -12q-2 -6 -2 -21q-3 -2 -3 -4q3 0 3 -2t2 -2l2 -2q8 -4 12 -4q6 -2 18 2q3 0 9.5 1t9.5 1q10 3 26 13.5t21 12.5q1 1 4 2.5t4 2.5q4 4 8 6l2 2q1 1 2.5 1t1.5 1l2 2h3 q12 5 22.5 13.5t24.5 22t18 17.5q6 4 14 12q17 17 37 33v2q7 9 23.5 25.5t23.5 25.5q17 21 19 41v11q-4 12 -10 14q-1 1 -4.5 2t-4.5 2t-4 2t-4 2q-12 4 -22 4q-17 0 -45 -4q-7 -1 -21.5 -3t-21.5 -3q-30 -6 -68 -6h-12q-5 0 -17 -1t-18 -1h-12q-2 2 -11 2q-1 1 -4 2t-4 2 q-3 0 -14.5 2.5t-16.5 3.5q-1 1 -4 2t-4 2q-17 12 -30 35q-9 9 -11 18q-2 7 -2 52q0 10 2 14q0 6 2 10q0 11 6 23q2 4 7.5 14.5t7.5 17.5q0 1 1 3.5t1 3.5q3 13 24 34q5 5 5 7q4 4 4 6q5 6 12 13t15.5 15t13.5 13q64 55 88 73q59 41 102 62q46 20 78 22q3 0 9 1t9 1 q1 0 14 3.5t19 3.5z" />
<glyph unicode="t" horiz-adv-x="452" d="M549 1376q1 -2 5 -2.5t5 -1.5q4 -4 0 -4q3 -2 19.5 -9t26 -14.5t13.5 -17.5q0 2 5 2q4 -1 2.5 -8t-0.5 -8q-1 0 -1 0.5v1.5t-1 0q-1 -4 0 -7t3 -7.5t3 -8.5v8q3 0 4.5 -3t3.5 -1q2 -5 0 -10t-4 -8t0 -4q-2 -3 -8 -37q-1 -4 -6.5 -13.5t-4.5 -15.5q-1 -2 -3 -10t-7 -12 q0 -17 -12 -29q-2 -6 -37.5 -83.5t-38.5 -88.5l-4 -2q-8 -16 -12 -27t-5.5 -19t-2.5 -11q47 4 88.5 0t74.5 -23q3 -6 13 -6q3 -6 8 -31q-9 -34 -37 -75t-51 -25q-13 0 -51.5 3t-49.5 3h45q-15 0 -32 0.5t-24.5 0.5t-19 -1t-26.5 -4q-4 -10 -11.5 -30.5t-10.5 -28.5 q-1 -2 -9 -25t-10 -37q-7 -4 -12 -22q-7 -19 -76 -222q1 -1 -8.5 -33.5t-21.5 -74.5t-15 -51q-1 -4 -14 -39q-6 -26 -19 -64q-2 -6 -4 -19t-4 -20q-7 -15 -13 -40t-9 -33q-3 0 -9 -6q-5 0 -6 3v3q-2 -1 -9 -5.5t-10 -5.5t-9 5q-28 9 -48 -21q-5 0 -14 3.5t-10 6.5 q-4 -1 -10.5 -9.5t-14.5 -8.5q-1 -1 -3 -5.5t-5 -4.5q-7 2 -4 16q-1 2 -4 7t-4 7q5 10 7.5 34t6.5 34h2q1 30 10 72.5t11 56.5q0 4 2 4q4 23 15 67t15 68q0 2 2 3.5t2 2.5q3 9 21 68.5t29 87.5q0 2 1 5.5t1 4.5q3 23 18 58q0 2 2 12t4 16q0 1 2 4t2 4q6 17 17 53t18 54 q1 3 5.5 10t7.5 14t4 15q-17 -3 -59 -15.5t-81 -15.5q-3 1 -3 6t3 8q-12 0 -12 13q6 1 6.5 10t-3 17.5t-9.5 7.5q7 15 5.5 25.5t-7 17t0.5 14t30 16.5q72 31 108 33q3 0 10 1t9 1q18 6 28 6q4 1 14 2t13 2q15 56 28 76q48 133 87 197q2 5 6 13t6 13q1 2 3 6.5t3 6.5q1 1 1 4 t1 4q0 3 2 6t2 4q8 13 8 27q1 4 6.5 15l8.5 17q1 3 5.5 13t4.5 16q10 8 18 31l8.5 8.5t6 6.5t3.5 4t3 2t2.5 0.5t3.5 0t4.5 -0.5t7 -0.5t10.5 -0.5v-4q1 -1 4 -1q1 -2 1 -3q3 2 8 2.5t6 1.5z" />
<glyph unicode="u" d="M610 852q3 2 9.5 1.5t7.5 -3.5q6 0 6 2q4 -1 11 -4t11 -4q9 0 30 -24t20 -34l2 -2q0 -2 2.5 -5.5t3.5 -6.5q0 -10 2 -14q3 -8 -2 -37q0 -1 1 -2t1 -2q-2 -5 -4 -15.5t-4 -15.5q-1 0 -1.5 -1l-0.5 -1q-1 -3 -3 -7t-2.5 -5.5t0.5 -5.5q-3 -2 -6.5 -10.5t-5.5 -10.5 q-1 -1 -1.5 -5t-2.5 -5q-2 -6 -6.5 -14.5t-5.5 -12.5q-1 0 -2 -2t-2 -2q-5 -4 -39.5 -83.5t-36.5 -88.5q-9 -41 -19 -72q0 -4 -4 -8q-2 -11 -6 -32.5t-6 -32.5q0 -5 -4 -25q-2 -11 -2.5 -35t-1.5 -30v-9q-3 -11 0 -20q-2 0 -2 -2q0 -21 4 -49q1 -4 2 -32.5t2 -33.5 q0 -21 -2 -31q-4 -4 -4 -6q-8 0 -12 2q-11 5 -21 2q-1 0 -2.5 -1t-3.5 -1q0 -2 -2 -2q-2 -10 -2 -26q-10 -5 -12 0l-15 10h-16q-2 2 -5.5 7t-4.5 7q0 4 -4 4v2q-16 19 -33 56q-1 4 -4 8t-4.5 8t-1.5 8q-5 5 -5 11q-4 5 -6 11t-3.5 13.5t-2.5 11.5q-5 0 -8.5 -5.5t-5.5 -6.5 q0 -2 -2 -2q-2 -2 -11 -9t-14.5 -12.5t-5.5 -9.5q-30 -26 -45 -34q-1 -2 -6 -6t-6 -7q-3 0 -7.5 -4t-7.5 -4q-4 -5 -9.5 -9t-6.5 -5q-4 -1 -14 -11h-2q-7 -4 -23 -10t-20 -8h-5q-4 -2 -28 -8h-17q-41 9 -49 20h-4q0 4 -8 4q-5 10 -16 17q-1 5 -8 11t-9 11q-5 4 -10 12.5 t-6 10.5q-1 4 -5 12l-5 10q-14 27 -19 54q-1 1 -1 5t-1 5v8q-2 2 -2 8v23v12v2q-2 22 6 68l2 2q0 2 6 20q-5 6 2.5 33.5t19.5 59.5t13 38q0 7 4 11q4 12 4 14q2 4 3.5 9t3 10.5t2.5 7.5q4 4 4 6q5 19 8 24q6 14 15.5 34.5t13.5 29.5q0 8 8 16v6q3 3 8.5 22t7.5 21 q2 4 8 15.5t9 15.5q3 5 8 15.5t8 15.5q2 4 6 8q3 7 13.5 22.5t13.5 24.5q4 4 10 14t10 13q2 4 8.5 13t8.5 15q5 5 8 11q4 0 4 6q11 -3 14 4h4h2h2q1 1 4.5 1t4.5 1q2 -2 8 0t8 0q7 0 19.5 -4t19.5 -4q5 -8 14 -11q1 -1 2.5 -1.5t2.5 -1.5t1 -3q5 -2 9.5 -5.5t7.5 -6.5t7 -8 t5.5 -7.5t6 -9t5.5 -8.5q0 -1 -1 -6.5t-2.5 -8t-6.5 -3.5q-2 -5 -8 -19t-8 -22q-3 -1 -7 -10q-4 -17 -14 -27v-4q-2 -3 -7.5 -16t-10.5 -21.5t-11 -13.5q-2 -9 -8 -15v-6q0 2 -26 -46t-50 -96.5t-20 -51.5q-2 0 -10 -30.5t-10 -31.5q-8 -74 -7 -86q1 -4 -0.5 -13t-1.5 -11 v-5q-3 -36 8 -43q8 -4 19 15q2 2 11 8t12 10q1 0 1 1t1 1q5 10 10 15l18 18q2 4 6 8q6 8 19 21q-2 1 9.5 14t25 29t16.5 22q3 2 18 17q3 4 9.5 11t9.5 11h2q5 12 16 27q3 2 9 20q0 3 2.5 8.5t3.5 8.5q11 43 41 118.5t39 100.5q2 2 5 9t5 9q3 8 11 23.5t11 23.5q0 2 2 4 q10 10 17 31q3 3 5 7t4 9.5t3 8.5h2q4 4 4 10l4 4q0 6 2 8h2q1 3 4.5 10.5t4.5 10.5h2q0 4 2 6q1 1 3 2t3 2q4 -1 12 0.5t10 -0.5z" />
<glyph unicode="v" horiz-adv-x="532" d="M649 862l-2 -4q0 -1 1 -4.5t1.5 -5.5t2.5 -4t5 -2q-1 -1 1 -3t4 -3l2 -2l2 -2q1 -3 0 -7q4 0 4 -10h12v-6h4q0 -2 2 -4t2 -4q2 0 3.5 -1.5t2.5 -3.5v-1q0 -9 4 -9q5 0 5 -8q1 -4 -3 -12t-4 -12v-6q-2 0 -5 -6t-5 -7v-6q-4 -2 -4 -8h-4q-1 -5 -7.5 -13.5t-6.5 -13.5 q-5 2 -4 0q0 -4 -5 -8t-6 -8v-4q-2 0 -14 -8q-3 -3 -9 -14t-10 -13l-2 -6v-2q-10 -7 -10 -8q-9 -14 -28 -37q-4 -2 -6.5 -9.5t-6.5 -7.5q-1 -6 -3.5 -9t-2.5 -5q-4 -2 -8.5 -10t-9.5 -10q0 -3 -3.5 -9t-5.5 -6q0 -12 -8 -12l-2 -6q-4 0 -6 -4l-2 -4v-2l-6 -7 q-16 -17 -69 -105t-74 -130q-1 -5 -13 -17v-14q-2 0 -2 -1.5t-2 1.5q-2 -13 -12 -22q0 -9 -6 -15q0 -4 -4 -9t-4 -7v-4q-13 -20 -27 -49l-2 -2q-11 -20 -17 -33h-2q0 -4 -4.5 -11t-5.5 -10h-6v-4q-2 0 -2 -4l-6 -4l-2 -6h-4q2 -3 1 -6t-3 -8.5t-2 -8.5q0 -2 -2 -8l-6 -1 l1 -1q-4 0 -4 -6q-4 0 -10 4t-10 4q-8 -4 -8 -10q2 -4 -2.5 -11.5t-3.5 -9.5q-5 0 -9 -4q-2 0 -6.5 2t-5.5 2q2 5 -4 5q-3 -1 -9 3.5t-13.5 12l-14 14l-12.5 12.5l-6 7q-24 23 -31 26q0 2 -4 4.5t-4 4.5q1 2 0 5q1 2 2 3q-3 8 -4.5 17.5t-3 22.5t-2.5 21q3 3 1.5 12t0.5 11 v39v4q0 3 1 10.5t1 11.5q0 5 -2 16t-2 15q0 18 -2 20v9v59.5t4 71.5q-2 40 29.5 207t60.5 219q8 3 8 12q6 0 6 6h4h8q6 4 23 4q35 -7 43 -20q1 0 5.5 -1.5t7.5 -3.5t3 -6q8 0 6 -6q4 0 6.5 -4t6.5 -4v-2q2 0 4 -3t4 -3q0 -8 8 -8h-4q2 0 3.5 -4t4.5 -2q-3 -4 -2.5 -7t2.5 -4 l2 -2q0 -2 -2 -8t-2 -8v-8q-4 -2 -2.5 -12t0.5 -11v-8l-6 -6q0 -1 -1 -5t-1 -5v-17q-3 -5 -8 -43h-4l4 -4q-5 -5 -5 -16.5t-1 -14.5q0 -4 -4 -14.5t-3 -15.5q-3 0 -2 -4l2 -4q-3 -9 -4 -28t-4 -30v-10v-2q2 -1 1.5 -2.5l-2 -6t-1.5 -7.5v-7v-4q-2 -4 -2 -8q0 -1 -3 -18.5 t-3 -22.5q2 -4 2 -24q-4 -1 -4 -5q-3 -33 0 -33t22 33q45 92 66 123q2 2 4.5 7.5t5.5 9.5q2 0 2 2t2 2v4q9 9 9 14q3 2 6.5 8.5t7.5 8.5v4q7 6 16.5 21t12.5 18q3 5 7.5 10.5t6.5 8.5t2 7l4 6l6 5q5 10 8 12q8 8 9 8q1 2 3.5 4t2.5 4q0 4 4 4q0 5 4 11q6 9 14 14q-4 -2 5 10 q31 40 58 63l3 3l2 6q6 0 6 4q3 2 11 8.5t14 9.5q2 1 16.5 11t21.5 16q3 1 4.5 3t2.5 3.5t2 1.5l16 8q8 0 8 -4z" />
<glyph unicode="w" horiz-adv-x="1042" d="M336 553v-2v2zM203 123q0 -1 -0.5 -3t-0.5 -3.5v-3.5t1 -4q21 14 45 38q23 23 88 97l24 28l9 11q8 8 14 16q1 3 3 11.5t3 11.5q0 2 1 7t1 7l6 16l31 94q17 61 53 138q26 55 47 92q2 6 10 18t9 13q42 77 56 90q15 14 40 14q30 0 66 -8q3 0 11 -2t11 -2q5 -1 31 -27 q4 -8 4 -24q0 -1 -1 -4t-1 -5q0 -3 -2 -8.5t-2 -7.5v-10l-4 -8q-6 -6 -6 -9q0 -8 -5 -18l-10 -14q-2 -3 -5 -11.5t-5 -11.5l2 2l-10 -20q-9 -17 -10 -23l-13 -18q-2 -2 -2 -11l-20 -39q-3 -9 -14 -39.5t-17 -48.5l-10 -18q-2 -4 -5 -12.5t-5 -12.5l-7 -20q-6 -18 -6 -21 l-8 -28q-32 -126 -35 -129l-10 -43q0 -2 1 -6.5t1 -6.5q0 -20 8 -47q1 -2 2.5 -3t1.5 -3q9 6 39 31q23 20 31 39l31 31q16 20 38 45.5t31.5 37.5t24 34.5t29.5 52.5q41 76 108 274q36 102 49 180q-6 17 23 20q44 4 85 -14q7 -3 11 -6l16 -10q0 -3 5 -8l8 -6l-2 -23l10 -33 q2 -4 2 -24q-8 -28 -7 -52t-1 -24q0 -19 -6 -31q-8 -32 -13 -47l-10 -22l-8 -21l-8 -22q0 -3 -2 -10.5t-2 -10.5q-67 -185 -150 -295q-32 -40 -35 -43q-57 -61 -57 -57q-17 -15 -71.5 -45.5t-71.5 -36.5q-3 -1 -12 -6t-11 -6q-9 -3 -18 -9l-13 -4h-8l2 2l-12 -8h-35 q-13 -1 -46.5 4t-47.5 9q-67 47 -90 126l-10 -10q-5 -5 -17 -17.5t-19 -19t-17.5 -16t-19.5 -16t-18 -11.5q-13 -9 -43 -20q-4 0 -6 -2q-25 -8 -45 -10q-1 0 -3 -1t-3 -1q-36 0 -61 14q-1 2 -33 22q-30 20 -41 31q-39 72 -37 146q5 72 35 167q39 135 84 228q7 18 19 42 t26 51.5t20 39.5q5 10 13 18l6 15v-2l6 8q0 1 2 4t2 4l4 10q10 10 12 23q7 0 13 6q1 0 3 1t3 1q8 0 12 4q2 -6 8 -6h13q0 -2 4 -2h53l12 -6q4 -4 17 -4q2 0 4 -2q6 -7 14 -9q31 -22 39 -38q2 -6 2 -17q-1 -2 -5 -8t-5 -8q-4 -4 -4 -10q-4 -4 -4 -11l-7 -12l-20 -39l-8 -6 v-10l-6 -13q-7 -4 -7 -8l-14 -28v2l-12 -27q0 -1 -4.5 -10t-9.5 -21t-7 -18v2l-10 -25v2l-14 -41l-12 -24q0 -2 -7 -12q0 -17 -6 -23l-8 -18v2q-5 -29 -10 -37l-8 -13q-4 -8 -4 -10t-1.5 -5t-1.5 -5q-1 -2 -2 -7t-2 -7l-8 -35q-9 -27 -20 -82v-16v-19q0 -2 1 -4t1 -4z" />
<glyph unicode="x" horiz-adv-x="534" d="M-39 -29l-6 -2q0 11 -2 11l-1 -1l-1 3l-8 -11l-4 6l-13 -6l-10 -12q6 62 31 123q13 41 43 90q75 116 110 154h-2q3 6 15 18.5t14 15.5l10 15q3 3 8 7.5t8.5 7.5t4.5 5q0 5 -1 15.5t-1 15.5q0 1 -3 -2t-3 -2q1 5 -3 27l3 40v29l-3 23l7 55q0 1 -1 3.5t-1 4.5q0 1 1 3t1 3 q2 2 2 15q0 23 6 47q0 5 2 16t2 17q14 85 29 137l8 28q0 5 2 7q0 1 2 6t2 6l18 -10l4 4q1 0 5 -1t8 -1q11 -11 24 -13q7 0 19 -12q8 -10 16 -14l12 -13l15 -16l8 -6q15 -15 12 -55q-1 -3 -1.5 -5.5t-0.5 -4.5t-0.5 -4t-1.5 -3q0 -1 -1 -4t-1 -4q3 -11 -6 -25q0 -12 -4 -20 v-12q-2 -4 -2 -8l-2 -11l-2 -10q0 -9 -6 -27q-3 -3 0 -6q0 -2 -1.5 -9t-1.5 -9q-2 -2 -2 -6l140 141q15 14 38 38t27 28l62 71l20 19q12 0 19 -7q10 0 20 -10q3 -1 10.5 -5.5t10.5 -6.5l-2 -2q-5 -2 3 -4q5 -1 15 -2q3 -16 8 -21l6 -8q9 -9 4 -18l-6 -9v-8q0 -4 -6 -8h2 q0 -2 -2 -7.5t-2 -8.5l-14 -25v-6q-18 -27 -64 -70l-4 -2q-10 -19 -31 -32q-9 -18 -26 -23l2 2l-15 -12l-12 -17l-10 -8v2l-6 -6h2q-6 -12 -23 -22v2l-4 -9l-14 -16q-9 -6 -10 -6l-2 -2l-9 -12l-20 -21l-6 -8l2 2q-10 -13 -25 -25t-24 -22q-15 -19 -19 -19l-2 -2q-1 0 -5 -4 t-5 -4q-11 -5 -14 -12q2 -10 2 -43l47 -113l12 -37q11 -25 39 -61q3 2 5.5 -2t5.5 -11t5 -10q8 -10 10.5 -16.5t1 -8.5t-3.5 -3.5t-0.5 -4t9.5 -6.5l2 -14q-1 -29 -3.5 -33t-17.5 -2q-9 0 -14 -4t-18 -6q-1 0 -4.5 -2t-4.5 -2q-24 0 -30 4q-1 1 -3.5 2l-5 2t-2.5 2 q-2 1 -5.5 1.5t-6 1t-2.5 1.5q-3 1 -8.5 2.5t-8 2t-5 3.5t-3.5 7q-2 0 -4 4v-2q-4 3 -18.5 15.5t-22.5 19.5t-18 18.5t-16 21.5q-12 15 -21 39l-29 31l-8 -6q0 -6 -14 -10v-2l-8 -8l-8 -9l-23 -26l-16 -21q-19 -17 -47.5 -59.5t-30.5 -44.5q-2 0 -9 4.5t-8 7.5l-6 -6 q-4 -5 -14 -12l-6 -2l-4 -7v2q-12 -12 -21 -8z" />
<glyph unicode="y" horiz-adv-x="659" d="M78 -377q12 -2 46.5 15.5t53.5 48.5q11 18 21 32.5t13.5 20t9.5 19.5t16 40q10 28 42 96.5t46 127.5q-27 -22 -42.5 -33t-43 -25t-52.5 -18q-3 -6 -24.5 -2t-28.5 10l-18 12q-30 18 -31 19q-6 7 -22 24t-26 29.5t-15 26.5q-14 44 -7 122q4 146 90 365q12 31 26.5 63 t35 73.5t29.5 60.5q34 70 51 90q23 3 57 -2h25q10 -4 24 -11q7 -6 11 -14.5t5.5 -15.5t0.5 -20t-2 -19.5t-4.5 -23t-4.5 -21.5q-2 -8 -9.5 -22t-8.5 -17q-1 -2 -3 -5t-3 -5q-2 -4 -8.5 -23.5t-12.5 -24.5q-1 -9 -4 -17t-7.5 -17.5t-6.5 -14.5q-18 -43 -47 -147 q-2 -6 -10 -27.5t-11 -32.5q-3 -2 -3.5 -6t-2.5 -6q0 -2 -2 -7.5t-2 -6.5q-3 -5 -8 -29q-1 -4 -9 -32t-9 -40q-1 -4 -1.5 -8t-1.5 -8q-7 -17 -4 -27q-2 -8 -2 -24q0 -30 2 -37q3 1 13 4t18 6t10 6q17 17 26 28t19 25.5t23 30.5q1 1 15 24.5t16 25.5q6 6 6 10q3 1 8 8t8 10 q26 38 127 258q45 129 105 226q8 12 16.5 27.5t16 26.5t20.5 25q2 -5 11 -6.5t17.5 -0.5t14.5 -1q3 2 5 2t5 2q1 -3 6.5 -8t5.5 -8q2 -10 9.5 -7t19.5 0t16 -20q1 -3 -0.5 -11t-1.5 -11q-1 -5 -2.5 -17t-3.5 -21t-6 -13q0 -1 1.5 -3.5t0.5 -3.5q-5 -12 -13 -37.5t-13 -37.5 v-9q-5 -6 -9 -18t-6 -16q-16 -38 -49 -129q-14 -56 -23 -86q-3 -9 -11.5 -28.5t-10.5 -29.5q-3 -22 -8 -35q-1 -2 -1.5 -9.5t-2.5 -10.5q-1 -6 -4.5 -16t-4.5 -13q-3 -6 -7 -16.5t-5 -13.5q-2 -2 -2 -13q-13 -45 -35 -106q-4 -33 -16 -58q8 -2 -15 -70.5t-50 -143.5t-27 -85 q-3 -2 -4 -4.5t-1 -6t-1 -5.5q-13 -25 -13 -27q-4 -8 -6 -14q-5 -15 -11 -26.5t-14.5 -26.5t-13.5 -25q-5 -17 -22 -41q-1 -2 -19 -39q-4 -1 -6.5 -5t-3.5 -5q-1 -2 -4.5 -5.5t-5.5 -6.5q-10 -24 -47 -47q-9 -9 -15 -13q-30 -21 -108 -26q-73 0 -88 6q-4 2 -9 3t-8.5 2 t-5.5 3q-6 2 -15 11.5t-11 11.5q-6 3 -16 13.5t-13 12.5l-16 16t-18.5 21t-10.5 19q-40 75 -37 151q1 10 4 28.5t4 22.5q1 9 3 14.5t3 10.5q6 21 10.5 34.5t7.5 19.5t11 21t14 27q26 40 48 68q7 4 18 4t24.5 -2t18.5 -2q1 0 29 -6q2 -1 10.5 -11.5t11.5 -11.5 q2 -32 -9.5 -57.5t-24 -43t-13.5 -26.5q-8 -32 -8 -43q-7 -40 -2 -59q7 -34 8 -37q2 -4 5 -7.5t7.5 -8.5t7.5 -9q6 -9 15 -12z" />
<glyph unicode="z" horiz-adv-x="643" d="M156 401l2 -2l24 27q162 167 232 227q-54 0 -95 -8h-8l-18 -4l-60 -10h3q-4 -2 -9 -2l-16 -6q-21 0 -33 4q1 1 0 2.5t-4.5 4t-6 4t-6.5 4.5t-5 3l-9 10q-2 2 -2 9q-1 1 -2.5 2t-2.5 2t-1 2l-2 8l-4 12l-6 31q3 1 4.5 3t2.5 5t1 4q75 40 180 55h9q1 0 3 1.5t3 1.5 q8 0 32 4q64 6 140 6q47 -3 78 -13q2 0 5 4t5 5v-2l18 18l17 8l28 -8l19 -8q10 -17 12 -23h6q10 -16 10 -51l-12 -10q-2 -2 -2 -6q-2 -2 -2 -8l-12 -13v2q0 -1 -2 -3t-2 -3l-17 -16l-6 -8l-2 -7l-33 -22l-8 -6h2q-2 -2 -5.5 -6t-4.5 -7l-23 -18l-36 -37l-84 -78h2 q-21 -30 -54 -53v-4q-31 -31 -39 -35q-16 -10 -18 -14l-16 -19l-15 -22l-35 -39l-18 -23h2l-24 -24l-17 -23l-24 -26l22 6l39 10q46 8 111 8q51 4 98 0q138 -17 213 -69l12 -11h6l9 -10h-3l25 -24h-33q-2 0 -6 1t-6 1h-4l6 -4q-25 -23 -37 -23h-8q-4 0 -6 2q-9 0 -29 -4 l-8 -2q-4 -4 -8 -4h-17q-8 -2 -28 -2h-115q-38 0 -61 -2q-3 0 -10.5 -1t-10.5 -1h-10q-34 -5 -45 -8l-31 -9l-55 -14l-21 -8l-12 -4h2q-13 -9 -24 -11h2l-21 -6l-22 -12l-19 -6l-10 -2l-12 -6v2l-9 -6l-16 -9l-4 -4l-14 -10q-17 -5 -29 16h2l-8 7q-4 4 -8 4q-17 3 -17 6v-2 l-12 10h2l-8 6l-8 8l10 80l10 27q2 4 4 14.5t4 12.5q50 81 82 122q55 77 107 129z" />
<glyph unicode="{" horiz-adv-x="333" d="M231 698q0 -8 -6 -8q-3 -6 -10.5 -11t-9.5 -9q1 -1 4 -3t4 -3.5t0 -4.5q5 -1 10 -6.5t10 -7.5q0 -1 1.5 -1t1.5 -1q3 -1 5 -6t5 -6q0 -2 4.5 -5t5.5 -5q4 -19 16 -29q0 -4 -6 -6q8 -11 8 -54q0 -4 2 -6q-2 -3 -3 -13.5t-7 -14.5q-1 -6 -6 -15.5t-6 -15.5q0 -2 -2 -2 q-1 -3 -6.5 -13t-5.5 -16l-2 -2q-7 -14 -7 -24q-1 0 -4 -1t-4 -1v-13q-1 0 -3 -1t-3 -1q1 -4 -2.5 -11.5t-3.5 -12.5q-1 0 -1 -1t-1 -1q-17 -29 -19 -35q0 -1 -1 -2t-1 -2q0 -15 -4 -17v-2q-2 -1 -8 -20q-1 -6 -7 -22.5t-5 -24.5q0 -2 -4 -6q-2 -18 -10 -64q1 0 1.5 -1.5 t1 -3.5t1.5 -3q-2 -8 -2 -41q2 -5 16 -23h2q1 -1 3 -2t3 -2v-8q-1 0 -2 -1t-2 -1v-2q1 -1 2 -1q3 -1 3.5 -2t-1.5 -5q15 -5 17 -10h-5q-6 2 -16.5 1.5t-13.5 0.5q-6 0 -2 -9h-4v-4h-11q-6 -13 0 -16q2 0 0 -2q2 -1 5 -3t4.5 -3.5l3.5 -3.5t3 -4t1 -5q-2 -3 -11.5 -0.5 t-11.5 2.5q-2 1 -2 3q-21 6 -41 26q-6 -6 2 -15.5t2 -17.5q-14 0 -18 4q-2 0 -7 -1.5t-10 -0.5q-1 1 -3 5t-4.5 6.5t-6.5 3.5q-12 12 -18 16q0 8 -6 8q-5 5 -7 6q-1 5 -7.5 10.5t-6.5 10.5q-1 0 -2 1t-2 1q-1 3 -5.5 7.5t-7 9.5t-1.5 10q-5 8 -11.5 26.5t-9.5 24.5q0 1 -1 3 t-1 3q-1 2 -1 8.5t-1 9.5t-2 9t-2 8q2 7 1.5 15t0.5 13q0 4 1 13.5t1 13.5q3 25 21 96l3 6q3 7 5 11q2 5 7 17t7 20q1 1 1 3t1 3q0 12 6 16q3 6 11 20.5t10 20.5q0 4 4 12q0 1 3 5t3 6q6 6 6 10q1 0 1 1.5t1 2.5l6 6q0 6 4 8h2q0 8 7 13l8 16q4 4 4 6q0 1 1 3t1 3q1 2 3 4.5 t3 3.5t0 2q0 5 -7 8t-11 1h-2q-2 0 -11.5 -3t-15.5 -1q-2 0 0 4q-5 1 -6 7t-2 7q0 2 -1.5 6.5t-0.5 9.5q-6 17 -15 19q-2 5 -2.5 14t-1.5 12v31q-5 15 -8 17q4 0 2 13t-2 15q0 9 6 15h2v4q10 3 17 8q7 2 18 12t14 12q23 23 37 33q0 2 1 3.5t1 2.5q14 10 21 25q2 5 9.5 17.5 t8.5 19.5q0 1 1.5 6.5t0.5 7.5q1 8 -8 35q3 4 -2 14q-3 8 -8 47q0 10 -1 29t-1 29v2q0 12 2 16v2q2 9 4.5 24t5 26.5t6.5 21.5q0 2 1 4.5t1 3.5q2 4 2 14q5 3 11 15q0 10 6 16q1 4 8 16t8 17q2 0 2 4q4 8 14 22t11 15q0 2 3.5 4.5t4.5 5.5q0 -1 1 0t1 0l2 4q29 29 47 43v2 q4 2 9.5 7.5t9.5 7.5q6 6 8 6q0 1 1 2t1 2l10 10q25 15 31 18q1 1 6 4.5t8 4.5v2q4 0 8 1l4 1q2 4 10 7.5t9 4.5q8 2 10 2q-2 -2 0 -4q8 0 10 -2q1 -1 4 -3.5t5 -2.5q0 -1 1 -1t1 -1q2 0 2 -1t2 -1q1 -3 5 -3.5t5 1.5l4 -2q5 -3 14.5 -9.5t14.5 -9.5q3 -9 12 -12q0 -2 6 -8 q-1 -7 1.5 -16t2.5 -13q-2 -4 0 -4q-5 -9 -2 -14v-13q0 -6 -4 -18t-4 -19q-3 -2 -6.5 -6.5t-5.5 -5.5h-11q-2 -2 -12 -16q-13 -4 -37 -23h-2q0 -1 -1 -2t-1 -2q-7 0 -10 -6q-5 -3 -10 -12q-5 -1 -9.5 -5.5t-5.5 -4.5q-10 -14 -18 -19q-3 -10 -14 -14q0 -3 -1 -6t-1 -5 q-5 0 -9 -8q-8 -8 -8 -12q-2 -1 -4 -6t-4 -6q0 -1 -3 -3t-3 -3q0 -2 -3 -6.5t-3 -6.5v-6q-2 -2 -5.5 -6t-5.5 -6q0 -15 -8 -19q0 -8 -8 -24q2 -3 -0.5 -18t2.5 -17q-3 -12 6 -35q4 -6 4 -14q1 0 2 -1t2 -1q1 -2 2.5 -7t2.5 -7q-1 -1 0 -4t0 -5q1 0 2 -2t2 -2q-3 -3 0 -8 q0 -6 2 -8v-6q2 0 2 -1t2 -1q0 -6 2.5 -18t1.5 -21q-1 -1 -1 -3.5t-1 -4.5q1 0 1 -3.5t-1 -3.5q3 -5 -0.5 -15t-1.5 -15q-2 -4 -4 -13.5t-4 -11.5q-2 -12 -9 -22q-11 -26 -32 -41q0 -2 -2 -5.5t-2 -5.5h-5z" />
<glyph unicode="|" horiz-adv-x="315" d="M434 1235q0 -4 5 -11.5t7 -11.5q0 -2 -4 -10q-2 -2 0 -6q-2 -2 -3.5 -10t-4.5 -10q1 -4 -1.5 -12t-2.5 -11q-3 -4 -5 -13.5t-5 -13.5q1 -3 -0.5 -6t-1.5 -4q-3 -4 -4.5 -16t-5.5 -17q1 -4 -7 -24q-1 -3 -3 -16.5t-7 -20.5q0 -4 -4 -12v-6q0 -3 -2 -5t-3 -8t-3 -8 q1 -3 -1.5 -9.5t-2.5 -8.5q-2 -2 -2.5 -7t-1.5 -6q-1 -15 -11.5 -37.5t-11.5 -29.5h-2q-6 -9 -6 -13q0 -14 -8 -22q0 -9 -6 -23.5t-7 -21.5h-2q0 -3 -2 -7.5t-2 -6.5q-2 -3 -3 -11.5t-3 -11.5q-1 -2 -3 -5l-3 -4.5t-2 -2.5q1 -1 1 -2.5t1 -3.5q-1 -4 -4 -16.5t-6 -18.5 q-1 -6 -6 -15t-6 -12v-4v-2q-2 -2 -3.5 -6t-3.5 -6q1 -4 -1 -10t-1 -9q-1 0 -1 -1t-1 -1q-1 -7 -8 -27t-8 -34q-2 0 -2.5 -1.5t-1 -4t-2.5 -4.5q2 -2 2 -4t-1 -5t-1 -4q0 -2 -1 -4t-1.5 -3.5t0.5 -2.5q-2 -1 -3 -3t-3 -3q1 -3 -0.5 -9t-1.5 -8q-6 0 -3 -6q-3 -1 -4.5 -4.5 t-3.5 -3.5q1 -2 1 -4t-1 -2q2 -2 2 -4q-2 -2 -4.5 -6.5t-3.5 -5.5q-5 -23 -10 -27v-12q-3 -3 -6 -13t-6 -14q2 -2 2 -4q-1 -2 -2.5 -9t-6.5 -9q2 -10 -3 -26t-5 -22q-1 0 -1 -1t-1 -1q0 -3 -1 -7.5t-1 -6.5v-8q-1 -8 -6 -10q0 -1 1 -4q2 -6 -1 -7q0 -2 -1 -3.5t-1.5 -2.5 t0.5 -2q-1 -2 -1.5 -4.5t-1 -4t-1.5 -1.5q-2 -18 -10 -49q3 -1 0 -4q-2 -2 -2 -8q0 -1 -1 -3t-1.5 -4.5t0.5 -5.5h-2q0 -4 -2.5 -12.5t-2.5 -13.5q-2 -1 -2 -6t-2 -7v-8l-4 -2l1 -4q2 -3 1 -4l-2 -2q4 -4 2 -6q1 -2 -1 -7t-1 -8q-2 -2 -2 -4q-1 -9 -5 -30t-5 -33 q-8 -6 -8 -29q-4 0 -4 -4l-5.5 -11t-7.5 -12q1 -4 0 -7t-3 -6.5t-3 -6.5h-4q1 -4 -1 -8q-1 -1 -1 -2q0 -4 -2 -8t-2 -5l-12 -6q0 1 -1 2t-1 2q-5 -2 -31 -6q-3 2 -10.5 -0.5t-10.5 -1.5l-12 -6q2 -2 0 -4q-2 2 -4 0.5t-2 -4.5q0 2 -2 0q-2 3 -3 8t-3 6q0 2 -3.5 11.5 t-2.5 15.5q-4 33 2 49q-1 8 0 24t0 23q5 5 2 14q4 24 9 71t7 63v4q2 4 1.5 12t0.5 12q3 13 2 17q2 2 2 6t2 6q0 3 1 8.5t1 9.5q1 4 3 13.5t2 13t-1 12.5l3 2q5 22 8 45q1 4 4 17t6 18v10q2 4 3.5 15.5t4.5 17.5q4 34 8 47q-2 -2 -2 0q2 1 2.5 2.5t1.5 1.5q0 4 1 8t1 5 q-1 4 5 16q0 6 3 17.5t3 17.5q4 8 4 10q0 17 12 49q0 2 1 7t1 8l4 2q-2 2 -2 4q2 0 0 2q4 8 4 10q1 1 2 3q1 3 2 3q-3 7 0 10q2 4 2 11q4 12 4 18v2q3 2 9 21q1 6 5 17t5 17q1 0 1 3.5t1 3.5v2q2 3 3.5 11t2.5 9q0 5 3.5 12.5t4.5 10.5v4v2q0 2 4.5 12t4.5 16l2 2q0 1 1 4 t1 5q6 6 6 12q0 4 2 4q0 3 2 8t2 8q3 9 11 29t11 29q3 4 5 13t6 15q1 2 4 11t6 12q3 16 10 31q2 8 9 25t8 26q4 7 9 20.5t7 18.5l4 8q2 4 5 12.5t5 12.5q0 2 2 4q1 6 7 19.5t8 19.5l2 2q-1 2 -0.5 3t2 3t2.5 4q2 3 10.5 19t15.5 24l-2 2q3 4 6.5 5t8 0.5t6.5 0.5q2 -2 4 0 q2 -2 7 -2t7 -2q3 -2 9.5 -4t7.5 -4q5 2 8 -4q6 3 10 -4q0 -2 2 -2q1 -2 5.5 -4t6.5 -5q3 0 7 -3.5t8 -4.5q4 -7 18 -10z" />
<glyph unicode="}" horiz-adv-x="358" d="M184 647l-2 2q0 2 -2 4.5t-2 5.5q-11 27 -8 41q-2 3 -2 25q-5 2 2 23q1 4 2.5 11.5t3 12.5t4.5 8q-2 2 -2 4t2 2q-3 8 6 11q0 9 8 21.5t9 17.5q0 2 2 2v6l6 12l4 4q1 0 1 1.5t0.5 3.5t2.5 3q-2 2 6 6q1 2 2 7.5t2 7.5q0 2 4 2q11 11 11 16q13 22 18 35q3 3 7 17.5t5 17.5 q1 5 1 14t1 13v18v12v8q-4 8 -4 15q10 20 -27.5 109.5t-37.5 105.5q2 0 2 8q0 3 1 8.5t1 7.5l4 2q0 7 12 31q6 6 6 8q3 1 9 7l8 8q5 2 7 3.5t3 4.5t4 6q4 0 4 2q1 -2 6 -1t9 5h4l2 2q2 0 4 3t4 3q2 2 6 2l4 4q8 0 6 -2q8 -2 17 -12q1 0 1 -1q1 -1 3 -1v-2q9 -3 14 -10 q2 -2 6.5 -5.5t7 -6.5t3.5 -7q2 -1 5 -5t5 -5q0 -1 1 -2t1 -2q2 0 2 -6q1 -1 3.5 -6t4.5 -6v-7q11 -11 27 -43v-2q1 0 0 -1t0 -1q4 -8 4 -12q6 -15 6 -37h2q0 -4 2 -4q1 -5 2 -17.5t2 -17.5q-4 -8 -4 -16q4 -8 0 -14q2 -8 0 -15q0 -1 1 -3t1 -3q0 -15 -5.5 -43t-6.5 -33 q-8 -16 -8 -18v-4q-3 -11 -12 -30.5t-11 -29.5q-2 -7 -10.5 -22.5t-9.5 -24.5q-3 -6 -13 -16q-16 -21 -18 -37q-2 -2 -6 -14q2 -5 3.5 -18t4.5 -21q2 -3 3.5 -12.5t4.5 -12.5q0 -1 1 -2t1 -2q3 -6 9 -19t8 -16q6 -3 12.5 -13t7.5 -11q2 -7 12 -10v-5h2q4 -4 -6 -14 q3 -7 -8 -29l-6 -18h-2q-5 -7 -15 -31q-5 -18 -14 -26q-5 -2 -9.5 -10.5t-6.5 -10.5l-4 -6l-3 -4.5t-1 -3.5q-1 -1 -4.5 -6t-7 -8.5t-7.5 -4.5v-2q-1 -4 -10 -1t-10 3h-2q-4 2 -11 -0.5t-8 -7.5q0 -1 2.5 -3.5t3.5 -4.5q0 -2 -2 -4.5t-2 -3.5q2 -4 0 -6q5 -8 8 -19 q-2 -4 -2 -10h2v-10q4 -4 0 -6q1 -1 1 -2.5t1 -1.5q0 -6 5 -11v-8v-14q2 -7 2 -43q0 -3 1 -8.5t1 -8.5v-8v-39q2 -5 -4 -14q0 -32 -11 -100q-3 -3 -5 -13.5t-5 -13.5q-2 -11 -12 -31q-1 -2 -2 -8.5t-2 -9.5q-2 -2 -6 -9t-7 -10q-2 -2 -2 -6q-6 -6 -12 -15t-12.5 -21 t-9.5 -17q-3 -3 -12 -12.5t-11 -14.5q-1 0 -2 -1t-2 -1q-4 -4 -14 -9t-11 -11q-2 0 -4 -4l-2 -4q-11 -2 -28 -25q-9 -2 -21 -14q-3 -1 -7.5 0.5t-8.5 1.5q-2 -4 -15 -4q-3 5 0 10t9 10.5t8 7.5q-1 1 2 6h-4q-23 -20 -45 -28q-2 0 -2 -2q-2 0 -12 -2.5t-11 0.5q3 7 11.5 11.5 t9.5 6.5l2 2q5 3 10 17h-8v4h-4q0 10 -3 10q-2 -1 -12 -0.5t-14 -1.5q0 2 -2 0q2 5 12 10q4 4 9 6l5 2v2q-1 0 -2 1t-2 1v13q4 0 4 2h5q2 2 7 5.5t6.5 5l4.5 4.5t4 7q2 5 7 18.5t7 22.5q1 1 3 6t4 6q2 10 7 32t7 32v4q3 10 3.5 26.5t2.5 24.5q-2 3 -1.5 6.5t2 8.5t1.5 6v2 q-2 2 -2 18q-2 0 -2 2q3 6 2.5 17.5t1.5 19.5q-1 0 -1 1t-1 1q0 5 -1 13.5t-1 13.5q-2 0 0 2v10q-1 0 0 1t0 1q0 5 -1 13.5t-1 13.5l4 2q0 3 -2 9.5t-2 11t4 8.5q-1 0 -2 2t-2 2q0 2 -3 15t3 15q-5 2 -1 15t3 18q2 0 2 2q10 38 29 57v5q12 20 22 30q1 1 4.5 5t3.5 6 q12 12 17 12l2 2q3 2 9.5 8.5t12.5 7.5q1 1 6.5 4t6.5 6q-1 2 -6 8t-3 13q-6 0 -6 8z" />
<glyph unicode="~" horiz-adv-x="589" d="M-10 608q0 32 16 58l6 6q2 1 2.5 3t1.5 3q4 6 28 26t32 25q14 9 16 10q1 0 3 1t3 1q20 4 31 4q6 3 12 3h17q30 6 70.5 -10t61.5 -31t29 -23q1 -1 4 -2t5 -2q41 -18 75 -18q35 -4 56 14q11 8 16 18q0 3 3 8.5t3 8.5l2 4q1 1 5 2.5t6 3.5l4 4q7 3 14 0q31 0 51 -27 q2 0 3 -1.5t2 -4t3 -4.5q4 -4 5 -10.5t0 -16t-1 -10.5q-2 -4 -7.5 -15.5t-8.5 -17.5q-6 -6 -6 -10q-3 -2 -7 -7t-7 -7l-2 -4q-1 -2 -9 -6q-3 -3 -10 -8.5t-10 -8.5q0 -1 -14 -10q-3 -1 -9.5 -4t-9.5 -4l-6 -2q-24 -8 -37 -8l-13 3q-13 2 -32 5t-38.5 7t-34 9t-15.5 10 q-4 0 -14 5q-4 2 -12.5 8t-12.5 8q-6 6 -8 6h-2q0 2 -2 2q-2 1 -7.5 3t-7.5 3q-10 5 -10 6q-15 6 -30 9q-20 4 -31 4q-16 0 -37 -9q-22 -7 -27 -20q-1 -4 -12 -20q0 -7 -2 -7q-4 0 -8 -4l-6 -6h-15q-2 0 -6 1t-6 1q-37 8 -53 45z" />
<glyph unicode="&#xa1;" horiz-adv-x="376" d="M338 670q-4 0 -12 4q-12 -3 -21 -12q-5 -1 -10.5 0t-11.5 3l-9 3q-46 26 -49 28q-6 7 -13.5 21t-12.5 20q2 4 -0.5 8t-1.5 7q-2 4 0 6q-8 12 -4.5 30.5t14.5 34.5q4 0 4 2q0 7 6 19q7 7 37 22q4 2 10 7.5t10 7.5q4 5 10.5 10t16.5 11t14 9q4 -1 13.5 0t15 -0.5t8.5 -7.5 q8 2 19.5 2.5t15.5 1.5q16 -12 16 -26q9 -9 11 -13q0 -107 -76 -198zM27 -530q-3 1 -11 -2.5t-10 -4.5q-3 0 -9 3.5t-9 3.5q-9 0 -13 -2q-2 0 -6 4q-4 1 -12 0t-12 0q-6 1 -16 5.5t-15 4.5q-18 14 -25 20t-16.5 22t-9.5 34q3 4 8 16t8 16v9q2 3 4 9t4 9q6 12 17.5 38.5 t17.5 39.5q2 6 6 14q0 2 4 6q11 33 15 39q10 20 49 137q4 11 8 29q1 4 4.5 8.5t3.5 5.5q3 15 6 27q3 11 13 25q0 6 2 10q1 4 4.5 13.5t3.5 15.5q5 7 24.5 82.5t38 151.5t19.5 79q2 5 3.5 19t4.5 18q1 8 6 25t6 26q9 31 15 39q-5 7 2 22q10 5 12 9q23 3 31 32q9 0 13 0.5 t9 4.5t4 12q14 24 21 28q6 0 10 -8q7 1 21.5 5.5t15.5 4.5q2 0 2 -4q5 9 12 9q7 38 16 12q3 -6 5 -17q0 -5 1 -16t1 -16q14 -79 12 -113q0 -18 -14 -65q0 -14 -15 -64q-1 -10 -5 -30.5t-5 -30.5q-7 -24 -19.5 -87.5t-15.5 -78.5q-10 -34 -16 -60l-8.5 -25.5t-9.5 -33.5 q-6 -20 -19.5 -59t-19.5 -58q-27 -86 -68 -166q-20 -49 -51 -104q-9 -22 -53 -98z" />
<glyph unicode="&#xa2;" horiz-adv-x="497" d="M334 1128q-24 -8 -33 -6q-8 63 -2 99q8 39 35 104q2 2 5 1.5t5 0.5q1 0 2 1t2 1q6 3 22 2t21 -4q21 -12 33 -35q-8 -32 -8 -49q-1 -7 -4 -21.5t-4 -21.5q-5 -9 -13.5 -27t-11.5 -24l-2 -8q-4 -2 -7 -11t-7 -10q-3 -1 -12.5 2t-14.5 2q0 4 -6 4zM590 631q-1 -10 -8.5 -26 t-6.5 -23q-31 -40 -45 -52q-2 -2 -8.5 -6.5t-9.5 -7.5t-9.5 -10.5t-10.5 -11.5q-15 -15 -43 -39q-4 -3 -12.5 -9.5t-12.5 -9.5q-2 -1 -5.5 -2t-4.5 -2q-18 -14 -23 -16q-4 -3 -13 -7.5t-13 -7.5q-6 -3 -11 -8q-2 -1 -5 -4t-5 -4t-13 -5t-16 -7q-7 -3 -39 -19q-7 -3 -19.5 -6 t-18.5 -6v-2h-2q-19 -8 -33 -10q-33 0 -51 -2q-36 6 -39 6q-36 14 -58 31l-9.5 9.5l-11.5 11.5l-9 9q-2 3 -5.5 10.5t-5.5 10.5q-29 53 -45 108q-1 7 -5 21.5t-5 21.5q-17 97 37 195q17 50 39 78q92 146 250 231v2q4 0 6 2q8 2 20 6q6 -1 19 0t18 0q16 -2 51 -22 q3 -3 9.5 -6t9.5 -6q1 -1 3.5 -5t4.5 -6q3 -4 6 -12t6 -12q1 -4 4.5 -9t3.5 -6q0 -8 3 -20q3 -21 6 -41q0 -6 4 -18q0 -11 -2 -33t-2 -35q-3 -28 -6 -43q-1 -5 -2.5 -15.5t-2.5 -15.5q0 -2 -12 -49q-2 -9 -8 -24t-8 -21q-2 -3 -7.5 -10t-7.5 -10q-3 -8 -22 -31q-3 -3 -7 -9 t-7 -8q-5 0 -12.5 -3.5t-10.5 -4.5q-5 -1 -16 0t-15 0q-3 -1 -14 -12q-3 -2 -9.5 -4t-8.5 -4q-1 1 -3.5 1t-3.5 1q-2 0 -6.5 4.5t-7.5 5.5q-1 1 -3 2t-3 2q-11 3 -23 -2q1 22 7.5 43.5t11.5 32t21 36t18 29.5q47 83 57 142q-15 -5 -35 -25q-21 -17 -33 -24q-19 -23 -36 -35 q-25 -30 -29 -37q-8 -6 -14 -14q-1 -1 -2 -5t-2 -6q-20 -25 -21 -28q0 -7 -4 -9q-2 -6 -9 -16.5t-9 -17.5q-5 -5 -9 -17q-1 -7 -7 -19.5t-7 -13.5q-3 -7 -5 -21t-5 -20q-4 -28 -4 -53q1 -1 3 -4t3 -4q4 -22 6 -25q9 -18 16 -20q6 -2 33 -2q26 3 88 33q29 16 70 49 q28 20 94 86q2 3 7 8t7 8q5 6 37 29q3 3 43 33q2 1 7.5 5t7.5 5t7.5 2.5t6.5 -2.5l4 -12q0 -1 1 -3t1 -3q-1 -3 -4.5 -9t-3.5 -8q0 -12 8 -24q1 -1 4 -5.5t4 -5.5q4 0 6 -2q5 -3 11 -10.5t10 -9.5zM174 295q39 0 55 -8q-2 -6 -2 -17q-1 -12 -3 -30.5t-3 -22.5q-2 -11 -4 -32 t-4 -33q-12 -20 -14 -31q-8 -4 -11 -10q-2 0 -5.5 -2.5t-6.5 -2.5l-3 -4q-3 -5 -5 -6q-4 0 -4 -2q-3 -2 -7.5 -7.5t-6.5 -6.5q-16 -12 -21 16q-11 44 -8 88q6 36 6 37q6 18 6 37q2 5 3.5 13t2.5 10q8 14 35 14z" />
<glyph unicode="&#xa3;" horiz-adv-x="659" d="M481 715q-2 -2 0 -4q1 0 6.5 -1t7.5 -2.5t1 -5.5q1 -2 4.5 -4t5.5 -4q0 -4 4 -8q0 -2 -1.5 -8t-0.5 -8q0 -5 -8 -25q3 -3 0 -6h-4q-1 -1 -1 -4t-1 -4q1 -5 -4.5 -11t-6.5 -8v-4q0 -2 -6 -8q0 -2 -1 -3.5t-1 -2.5q-16 -4 -26 -4q-1 0 -1.5 1.5t-1.5 2.5q-2 -3 -4 -2l-2 2 h-6q-8 4 -26 4h-9q-1 0 -5.5 1t-6.5 1q-4 1 -17 1t-18 1q-12 0 -18 2q-13 0 -33 4q-1 0 -1 -1t-1 -1q-3 -10 -8 -30.5t-8 -30.5l2 -2q-2 -2 -4 -8t-2 -7q-1 -4 -3 -6q-1 -2 -11 -47t-11 -47q-1 -7 -4 -19l-4 -16q-4 -5 -6 -12.5t-4 -18.5t-3 -16l-4 -4q2 -2 1.5 -6.5 t0.5 -5.5q-6 -8 -13 -39t-7 -41q-1 -1 -2.5 -6t-3.5 -8l2 -3q0 -1 -1 -3.5t-1 -4.5q0 -6 -6 -24q2 -4 0 -6q2 0 2 -2q-7 -14 -11 -41q0 -5 -2 -5q7 -2 21.5 -6t21.5 -6q-1 -1 1 -1t-1 -1q49 -12 76 -8q6 3 15 6h4q68 16 110 45h4q4 4 19.5 13t21.5 16q10 4 22 16.5t19 16.5 q1 3 6 7t7 7q4 4 4 8l18 12q0 1 2 3.5t2 3.5q4 0 4 2q2 -1 4 0.5t4 1.5q1 1 4 1t3 1q8 0 12 2h2q3 -6 6 -6q0 -3 3 -5.5t3 -5.5q2 1 2 0q-1 -3 0 -4q2 0 6 -4q4 0 4 2q3 -6 11 -6q0 -2 3.5 -3.5t2.5 -4.5q2 0 6 -4q2 1 3 -0.5t3 -1.5q1 -3 3.5 -4.5t7 -3.5t6.5 -3q2 1 2 3 q7 -7 14 -7q2 -2 10 -2q0 -3 1 -4.5t3.5 -3t3.5 -2.5q-4 -7 -11.5 -17t-10.5 -16q-2 0 -8 -6h-2v-2l-2 -2q-2 -1 -5 -4q-3 -5 -12 -10q-6 -9 -18 -17q-1 -2 -5.5 -5.5t-5.5 -4.5q-3 -2 -9 -7t-9 -7q-8 -4 -10 -8h-4l-2 -2q-4 -2 -12.5 -8.5t-16.5 -8.5v-2q-1 0 -2 -1t-2 -1 q-1 -1 -3 -2t-3 -2q-2 -1 -6.5 -4t-6.5 -4q-2 -2 -6 -2q-2 -1 -6 -4t-6 -4q-3 0 -8 -5l-2 -2q0 2 -2 0t-4 -2q-3 -1 -8.5 -3t-8.5 -3v-2q-5 0 -12 -4t-12 -4q-2 -2 -10.5 -4t-12.5 -4h-4q-1 0 -1 -1t-1 -1q-6 0 -14 -4q-16 -4 -25 -7q-2 1 -2 3q-1 -1 -6 -1.5t-6 -1.5t-2 0 t-2 0q-37 -3 -66 0q-4 2 -13.5 3.5t-12.5 3.5q-1 -2 -3 -2q-12 4 -40 8v4l-3 -2l-24 6q-1 0 -3 1t-3 1q-6 2 -16 2.5t-13 1.5h-2q-12 3 -55 -2q-3 1 -10.5 -0.5t-10.5 -1.5q-8 -4 -16 -4q-2 -1 -4 -1.5t-6 -1t-7 -1.5l-24 -12q-7 -1 -17.5 -7.5t-13.5 -7.5q0 -1 -1 -2t-1 -2 q-16 -8 -31 -8q0 -2 -3.5 -3.5t-4.5 1.5h-6l-4 -2q0 2 -2 2q-12 0 -14 2q-2 -1 -7.5 -0.5t-7.5 -1.5q-2 3 -6 5.5t-6 0.5h-2q-1 5 -10 9.5t-11 6.5q-6 -3 -6 2q-2 2 -7 5.5t-7 5.5q0 1 -1 2t-1 2h-4l4 4q-8 12 -16 16q1 3 1 5t-0.5 4.5t-0.5 3.5q0 7 -3 16q2 1 4.5 3.5 t4.5 2.5q3 8 12 8q2 4 9 8t9 7q7 0 11 4q6 0 12 6q3 0 7.5 2t6.5 2l20 10t25 11t23 6q16 8 37 8q0 10 -2 12q8 24 6 33v2q2 6 4 19t2 14q1 4 14 53t15 63q0 1 6 23q0 4 6 10q6 28 6 29q2 10 14 56.5t15 51.5q3 14 11 42t11 44q-30 -6 -33 -6q-6 0 -30 -8q-3 0 -8 -1t-7 -1 q0 -4 -2 -6l-4 -2h-10q-4 3 -13 14.5t-16 15.5q3 3 2 6t-4 3q-4 8 -4 10q-5 4 -10 15.5t-10 15.5l-3.5 7t-2.5 7q0 4 -4 9.5t0 8.5q-5 5 -3 9q16 0 45 7.5t39 8.5q2 0 15.5 2t19.5 4q25 0 37 4q29 0 43 2q1 -1 3 0h1q3 3 4.5 6t3 7.5l2.5 7.5q1 4 6 13t7 13q0 1 2 7t4 8 q1 3 3 8t3 8q2 2 4 7.5t4 8.5q5 10 6 13q3 5 7 15t8 17.5t8 12.5q8 16 10 18q5 14 18.5 37.5t14.5 26.5q2 -1 5 1l3 1q1 5 7.5 14.5t8.5 13.5q7 8 20.5 28t20.5 28q4 6 12.5 16.5t12.5 16.5q3 3 15.5 18.5t21.5 21.5v5l2 2q7 9 22 22.5t21 20.5q12 6 14 12q18 9 25 16 q4 2 13.5 8.5t17.5 8.5q2 2 9 4t9 4q4 0 4 2l2 -2q34 15 64 12q3 3 9 1.5t9 0.5q2 -2 10 -4t11 -4q16 -5 30 -16h2q8 -6 21 -19q4 -4 12 -8q2 -3 4.5 -7.5t5 -7.5t6.5 -5q2 -5 9.5 -14t9.5 -15q8 -12 8 -31q3 -2 4 -5t1 -7t1 -6q3 -9 0 -25v-20h2h-2q-2 -4 -2 -9q0 3 2 3 q-1 -4 -2 -10.5t-2 -10.5q-2 -1 -2 -7t-2 -7q-6 -13 -10 -39q-1 -2 -12 -29l-4 -14q-5 -13 -9 -19q-1 -5 -4 -12.5t-4 -9.5h-2q-2 -13 -10 -29q-3 -6 -13 -22q0 -1 -1 -3.5t-1 -3.5h-2q-2 -3 -4 -9t-4 -9l-2 -2q-2 0 -4.5 -1t-3.5 -1q-5 -10 -21 -10q-2 -2 -4 -2 q-2 -2 -6.5 -4.5t-7 -4t-2.5 -4.5q-3 0 -5.5 -1.5t-5 -4t-5.5 -4.5q0 1 -1.5 2t-0.5 2q-10 -3 -13 -10l-2 2q-6 0 -8 2q-2 -2 -6 -2q-2 0 -2 2q-8 -4 -12 -4q-3 2 -9 6.5t-10 5.5q0 4 -1.5 5t-4.5 1.5t-4 1.5q-1 -1 -4 -2t-4 -2q-4 1 -4 15q-4 22 3.5 44t21.5 47.5t18 37.5 q15 44 30 90q19 64 19 84q-1 5 -1.5 20t-2.5 23q-2 0 0 2h-13l-4 -2q-4 -2 -4 -4q-7 -3 -10 -13q-5 -1 -11.5 -7t-7.5 -7q0 -1 -1 -2t-1 -2q-4 -3 -11.5 -13t-14.5 -14q0 -3 -2 -6t-2 -6q-1 0 -2 -1t-2 -1q-1 -3 -5.5 -7t-5.5 -7q-10 -10 -12 -19q-26 -37 -29 -43h-2 q-2 -3 -10.5 -19.5t-15.5 -23.5q-2 -3 -7.5 -10.5t-7.5 -13.5v-4q-9 -10 -28 -45q-2 -1 -3.5 -4t-3 -7t-3.5 -6q0 -2 -4 -6t-5 -6q-2 -4 -2 -12q-1 -3 -7 -10.5t-7 -12.5q0 -2 -2 -4q-16 -38 -17 -41q-2 -6 -6.5 -14.5t-5.5 -12.5q4 -2 12 -2q59 -8 89 -22q20 0 28 -4 q2 0 2 2z" />
<glyph unicode="&#xa4;" horiz-adv-x="733" d="M420 367h-29q-10 -1 -49 -11q-39 -8 -63 6q-12 -2 -27 -26q-8 -6 -23 -21q-2 -2 -6 -5t-6 -5l-18 -12q-2 -2 -8 -11t-11 -12q-1 -3 -12 -8q-2 0 -4.5 -1t-3.5 -1l-8 4q-4 0 -8 -2.5t-7.5 -6.5t-5.5 -5h-10q-3 2 -11.5 2t-11.5 2q-3 -1 -8.5 -0.5t-7.5 -1.5q-6 12 0 24 q5 38 45 78q4 4 9 8.5t11 11t9 9.5q1 2 6.5 6.5t7.5 7.5q12 12 12 15q0 4 -14 18q-31 44 -37 62q-27 65 -27 96q-2 65 50 155q7 15 22 33q49 68 109 117q-26 31 -54 104q-1 2 -2 9t-2 10q-8 16 -6 18q1 2 9 6.5t8 6.5q6 1 13 6t9 6q1 1 7 2.5t9 3.5q42 2 64 -35q1 -1 3 -4 t3 -4q6 -8 10 -25q14 -19 15 -24q2 -4 12 -19q53 27 80 35q3 1 9.5 4.5t12.5 3.5q2 0 6.5 -2t6.5 -2h8q5 0 14 -6q36 -16 47 -31q7 -2 16.5 -10t12.5 -10q22 17 58 53.5t53 50.5q7 6 14 9q10 2 24 2q3 -2 14 -4.5t15 -4.5q4 -4 4 -10q1 -1 5 -4.5t5 -5t3.5 -5.5t-0.5 -7 q-1 -1 -5.5 -4.5t-5.5 -4.5q-2 -9 -18 -30q-15 -25 -19 -29q-4 -7 -26 -29q-10 -12 -27 -26q-7 -4 -15.5 -12t-10.5 -9q2 -3 2 -20q4 -2 4 -8q2 0 6 -4q0 -3 1 -10t1 -11q5 -15 4 -18q0 -21 2 -29q4 -4 4 -8q1 -1 0.5 -2.5t-1.5 -3.5t-1 -4q-2 -5 1 -13l3 -8 q-1 -3 -5.5 -8.5t-6 -9t1.5 -9.5q-2 -10 -6 -37t-8 -40q-2 -6 -8.5 -17.5t-8.5 -17.5q-12 -30 -28 -62q-2 -2 -7 -9.5t-10 -10.5q0 -13 -18 -31q-23 -37 -41 -49q0 -2 -2 -4q-8 -3 -19 -10q-16 -12 -12 -23q1 -3 7.5 -10.5t8.5 -11.5q1 -5 17 -43q1 -2 5.5 -10t3.5 -10 t-3 -11q0 -1 -2 -3t-2 -3q-2 -2 -2 -8q-1 -2 -6 -8t-7 -9q0 -1 -1 -2t-1 -2v-5.5t-0.5 -5t-2.5 -4.5t-7 -3q-7 2 -47 22q0 2 2 0q0 2 -4 2q-38 51 -51 103zM469 842q-33 -22 -39 -25q-14 -14 -29 -24q-14 -7 -20 -13q-14 -9 -19 -20q-3 -4 -18 -19q-6 -6 -14.5 -18.5 t-12.5 -17.5q-2 -3 -7.5 -12.5t-10.5 -14.5q-1 -1 -3 -4t-3 -4q-7 -22 -8 -23q0 -2 -2 -5.5t-2 -4.5q-2 -5 -4.5 -13.5t-2.5 -9.5q-4 -12 -4 -16q-2 -3 -2 -20q0 -2 -2 -8.5t-2 -8.5t2 -7t2 -7q9 -38 21 -53q2 -1 12 -11q4 0 10.5 -5.5t10.5 -6.5q5 -1 14.5 0.5t11.5 1.5 q19 0 25 4q6 1 14 6t10 6q14 8 25.5 19t25 25t21.5 22q1 5 7 14t7 11q1 1 15 22q3 5 9 13.5t9 13.5q1 3 5 12.5t7 15.5q12 24 15 29q0 2 2 14t4 19q1 4 4 12t4 12q0 2 -1 5t-1 4q0 4 1 10.5t1 9.5q0 2 -2.5 7l-3.5 7v15q-1 3 -3 14t-3 14q-1 2 -4 5.5t-4 5.5l-7 14 q-1 3 -3.5 5.5t-6 5t-4.5 3.5q-5 -2 -17 -6.5t-19.5 -9t-10.5 -10.5z" />
<glyph unicode="&#xa5;" d="M-31 401q196 55 221 62q6 15 25.5 59t26.5 68q-29 -2 -86 -10q-10 -2 -21 -2t-25.5 1t-23.5 1q-8 1 -26.5 1t-26.5 1q-1 1 -6 2t-7 2q-15 4 -18 12q6 4 37 10q9 4 27 8t20 5q1 0 3 1t3 1q6 2 64 14q18 4 34 10q6 1 29 4t35 6q-14 113 -12 164q1 24 6 70t6 67v41 q4 100 -2 144q-1 5 -3.5 20.5t-2.5 22t2 22.5q2 3 6 3.5t11.5 -0.5t10.5 -1q12 4 21 4q31 0 55 -20h13q1 0 2 -3q1 -2 2 -3q11 -5 19.5 -12t18.5 -20t13 -17q-1 -2 -1 -5t-1 -6q9 -7 18 -38q6 -12 6 -17q0 -16 2 -26q0 -1 7 -27q2 -41 2 -121q13 8 26 25q65 68 106.5 109.5 t109.5 105t118 93t78 23.5q-5 -5 3.5 -12.5t2.5 -13.5q-8 -8 -10 -8q-11 -26 -33 -52q1 -14 -6.5 -23.5t-19 -18.5t-15.5 -15q0 -4 -2 -6q-4 0 -4 -2q-4 -6 -4 -12q-2 -1 -8 -7q-3 -4 -23 -24q-4 -3 -10 -12t-8 -11q-25 -21 -31 -30q-4 -4 -10 -11t-11 -11.5t-10 -8.5 q-12 -18 -45 -51q-32 -32 -37 -39q-11 -19 -22 -27q-8 -12 -31 -35q-1 -1 -2 -3t-2 -3q-4 -5 -21 -18q-2 -3 -8 -10.5t-8 -10.5q-4 -4 -17.5 -19.5t-21.5 -21.5q-7 -10 -23 -27t-22 -26q11 -1 100 4q65 5 70 6q10 -2 29.5 -4t21.5 -2q6 -1 20.5 -2.5t23.5 -3t20.5 -4.5 t19.5 -8q-1 -2 -4.5 -4t-3.5 -4q-30 -7 -57 0q-20 -9 -49 -5q-9 -3 -41 -6t-43 -10q-6 -2 -70 -12q-12 -2 -27 -10q-35 -4 -53 -17q-15 -63 -18 -74q-1 -6 -6 -16.5t-5 -15.5q18 2 81 10t102.5 11t81.5 3q-11 -3 -24.5 -21.5t-20.5 -21.5q-5 0 -25 -5t-31 -1 q-23 -13 -39 -13.5t-24.5 4t-11.5 3.5q-3 0 -16 -6l-13 -6q-11 -5 -26.5 -5t-22.5 -1q-6 -6 -18 -14.5t-15 -10.5q-7 -14 -19 -35q-5 -14 -14 -48t-14 -48q-11 -12 -17 -39q-3 -1 -6.5 -5t-7.5 -5q-2 -6 -6.5 -18t-5.5 -17q-3 -2 -6.5 -7.5t-5.5 -6.5q-2 -16 -13 -60 t-16 -51q-5 -9 -9 -5q-1 2 -3 -2q-1 -3 -2 -9q-4 -3 -6 -15.5t-5 -15.5q-2 0 -2 6q-11 -15 -14 -31q-1 1 -2.5 6.5t-3.5 6.5q-2 -13 -4.5 -13t-8 6t-10.5 5q0 -4 -1 -6t-3 -2t-4 0.5t-3 -1.5t-1 -6q-2 21 1 47.5t3 40.5q0 25 2 52.5t4 47.5t8 54t8 47t10 51.5t9 46.5 q-66 -11 -115 -14q-59 -3 -86 18v2z" />
<glyph unicode="&#xa6;" horiz-adv-x="280" d="M129 616v15q-5 27 -4 35v16q0 9 -6 18q0 114 33 232q31 113 84 248q18 64 28 84q8 21 15 26q17 28 18 33q7 6 10 17.5t6 15.5q4 5 11.5 12t11.5 12q5 0 14 9q-7 1 11 12q36 20 49 0q-7 -20 -9 -23q2 -2 2 -4t-1 -5.5t-1 -6.5q-1 -3 -3 -10.5t-3 -10.5q3 -18 -6 -45 q-5 -13 -29 -112q-14 -44 -36 -134.5t-25 -101.5q-4 -17 -11.5 -51.5t-14 -59.5t-15.5 -49q-7 -31 -51 -126q0 -2 -3.5 -8t-4.5 -9q-18 -14 -39 -22q-1 -1 -4 2q-1 0 -4.5 -1.5t-6.5 -2.5q-2 0 -8 -2.5t-8 -2.5zM111 510q3 -1 8 -4.5t6 -3.5q5 -5 6 -4h4q13 -8 29 -29 q0 -12 -2 -16q7 -74 -8 -131q-5 -26 -23.5 -78t-24.5 -82q-4 -22 -33 -121t-32 -141q-7 -36 -29 -123q-1 -5 -1 -15t-1.5 -17t-5.5 -11q0 -12 -6 -21q-1 -3 -0.5 -9.5t-1.5 -6.5q-5 -26 -17 -31.5t-23.5 5t-14.5 26.5q-1 1 -4 6t-7 6q0 6 -3.5 14.5t-4.5 12.5q0 25 -4 35 q1 5 2 17.5t2 18.5q-10 13 -4 25q0 22 4 80q1 50 29 164.5t31 128.5q28 126 81 225q2 3 5.5 8t5.5 8q8 16 8 19q6 7 20 31q4 4 9 14z" />
<glyph unicode="&#xa7;" horiz-adv-x="894" d="M684 1307h27q30 -10 61 0h29l22 -23v4l23 -16h-4l16 -8v2q16 -12 39 -41v-29q11 -9 12.5 -25t-3 -29.5t-13 -34t-10.5 -26.5q0 -1 -2 -6t-2 -6q-9 -11 -9 -18l-11 -2q-11 -2 -21 -2q-100 -25 -172 -19q-21 0 -29 2q-4 0 -11 2t-10 2q-64 22 -114 6q-56 -87 -66 -129 q-2 -3 -4 -11.5t-4 -10.5q-16 -22 -16 -33q-2 -19 0 -41l-2 -35l8 -35q4 -10 4 -22l24 16l78 35h25q2 0 7 4t7 4l23 6l20 9q36 8 76 8q64 5 106 -18.5t48 -69.5q8 -49 -13 -129q-22 -44 -100 -150q-34 -28 -57 -53l-31 -29l-17 -12q35 -32 62.5 -76.5t36.5 -87.5 q-5 -37 6 -82q-12 -22 -12 -53l-4 -53q0 -3 -1 -11t-1 -12q-4 -4 -9.5 -16.5t-8.5 -22.5l-3 -10q-36 -89 -78 -145q-53 -73 -100 -115q-75 -49 -172 -78h-45l-6 -4q-53 -18 -74 -16q-10 10 -23 10q-6 2 -18 2q-2 0 -11.5 2t-17.5 2q-9 0 -23 5.5t-18 13.5l-6 22 q-18 9 -18 25h-23q26 47 23 73q0 1 -2 6t-2 9v18l47 23q100 49 159 57q5 1 28 4.5t36 3.5q4 0 9.5 2t8.5 2q51 4 70 15q36 10 43 16q0 19 10 29q11 32 21 90q-4 14 4 24q-4 8 4 27l-16 29l-7 22l-12 29h6l-39 41l-14 22l-4 11l-12 12l-19 -12l-53 -23q-8 0 -18 -10 q-92 -8 -129 4q-3 0 -4.5 1.5t-3.5 5.5t-3 5l-6 10q-7 9 -8 19l-4 20h-6h4q-17 0 -19 9q-20 5 -20 14q0 1 1 3q2 1 1.5 2.5t-4.5 4.5q0 4 -0.5 7t-1 4.5t0 3.5t1.5 4l-17 16q0 10 -6 10v7v6.5t-1 5t-3.5 5t-6.5 2.5t-11 1q2 6 5.5 13.5t4.5 11t3.5 9t3 8t1.5 6t1 5v4.5v5 t-1 5l10 21q17 17 17 39q6 18 20 37.5t38 47.5t30 36q-36 70 -27 168q0 63 29 131l18 41v-4q0 2 2 5t2 5q0 11 4.5 28.5t4.5 20.5l10 14l12 19l6 14l23 33l72 80l67 67q19 21 55 41.5t66 30.5q46 22 131 31zM528 463v4l58 65h-4l22 31q20 30 25 58q0 12 -4 18q-3 0 -8 2 t-11 2q-20 0 -43 -10l-35 -12q-111 -55 -170 -111q-15 -15 -36 -59v2q-11 -34 -11 -78v-6h19q14 -14 73 6v-2l21 12l27 21l12 8q0 18 24 18z" />
<glyph unicode="&#xa8;" horiz-adv-x="421" d="M180 1554q0 -8 -1 -11t-1 -7q0 -2 -2 -7.5t-2 -8.5q-2 -2 -2 -11l-4 -10q0 -1 -1.5 -2t-0.5 -2q-1 -1 -2 -2.5t-2 -2.5t-2 -1l-6 -12q-2 0 -15 -9l-6 -6l-10 -4q-5 -1 -10 2t-9 2q-4 2 -9 2t-12 -1t-9 -1h-2q-2 0 -4 2q-1 -1 -3 -1t-4 -1h-2l-6 27q-2 19 -1.5 23.5t5 16 t6.5 19.5q1 2 23 35q1 1 5 10.5t9 14.5q10 7 13 6q4 -2 8 -2l18 -2l4 -4l2 2q16 -5 29 -15q1 -1 3 -4t3 -6v-29zM352 1554q0 -8 -1 -11t-1 -7q0 -2 -2 -7.5t-2 -8.5q-2 -2 -2 -11l-4 -10q0 -1 -1.5 -2t-0.5 -2q-1 -1 -2 -2.5t-2 -2.5t-2 -1l-6 -12q-2 0 -15 -9l-2 -2 q-2 -3 -4 -4l-10 -4q-5 -1 -9.5 2t-9.5 2q-4 2 -9 2t-12 -1t-9 -1h-2l-4 2q-1 -1 -3 -1t-4 -1h-2l-6 27q-2 19 -1.5 23.5t5.5 16t7 19.5q4 8 22 35q2 2 6.5 11.5t7.5 13.5q10 7 13 6q4 -2 8 -2l18 -2l4 -4l2 2q16 -5 29 -15q1 -1 3 -4t3 -6v-29z" />
<glyph unicode="&#xa9;" horiz-adv-x="665" d="M553 1296q1 0 1.5 0.5t2 1t4.5 0.5q6 -17 17 -20q0 -2 10 -21q0 -1 1 -1.5t2 -2t1 -4.5q2 -2 8 -2q3 -3 6 -10t6 -8q0 -4 5 -13t6 -12l4 -2q0 -8 4 -21.5t4 -21.5q0 -66 -23 -117q-45 -83 -123 -145q-3 -3 -9.5 -8.5t-11 -10.5t-7.5 -10q-17 -6 -31 -16q-12 -15 -33 -25 q-8 -5 -26.5 -12.5t-26.5 -11.5q-11 -2 -18 -12q-18 -5 -27 -9q-5 0 -33 -4q-7 -1 -23.5 -5t-25.5 -5.5t-27 -3.5t-28 0q-14 2 -34 8.5t-26 7.5q-20 10 -39 37q-6 4 -10.5 11t-6.5 11.5t-5 14.5t-4 12q-12 62 -6 95q10 64 32 110q33 67 87 131q60 65 92 84q10 14 22 14 q11 10 26 19t37 19.5t31 15.5q3 0 21 6q2 1 6 1t7 0.5t3 2.5q61 17 94 -6q16 -2 27 -31q7 -11 25 -18v-4q1 0 2 -1l2 1q1 -1 1 -3t0.5 -3t2 -2t4.5 -1zM489 1319q-4 1 -9.5 1.5t-9 1t-5.5 1.5t-4.5 3.5t-5.5 4.5q-23 6 -49 0q-26 -9 -56 -22l-14 -9q-9 -5 -10 -6 q-15 -15 -37 -28q-1 0 -1 -2.5v-5t-1 -3.5q-8 -4 -23 -17t-20 -17q0 -5 -8 -13q-7 -8 -28.5 -31t-37 -41.5t-27.5 -37.5q-23 -46 -47 -111q0 -3 -4 -18.5t-4 -22.5q-9 -61 25 -90q21 -16 49 -16q27 0 102 26q46 19 109 60q64 39 131 123q38 49 41 129q0 25 -8 75 q-1 3 -11 26.5t-12 37.5q-13 -10 -25 2zM621 1081q4 0 4 2q-1 1 -3 1t-4 1q0 -1 1.5 -2t1.5 -2zM416 1208q0 -6 4 -6q2 -2 3.5 -10t4.5 -10q0 -9 1 -12.5t-2 -10t-3.5 -8.5t-4.5 -8t-5 -8q-10 -15 -13 -17q-4 0 -16 -6q-7 1 -13 -0.5t-15.5 -7t-10.5 -6.5q-3 -3 -15 -14.5 t-17.5 -17.5t-12.5 -17t-10 -23q30 -2 71 10q51 16 66 23q-2 -4 -8 -7.5t-6 -7.5h-4q-20 -20 -27 -34v-11q-12 -6 -18 -18q-4 -3 -13.5 -12.5t-13.5 -12.5h-6q0 -4 -4 -8q-1 -1 -8.5 -4l-10 -4t-9.5 -3.5t-10.5 -3.5t-9.5 -2t-10.5 -0.5t-9.5 1.5t-10 4q-1 1 -9 5.5t-10 6.5 t-5.5 4.5t-4.5 3.5q-5 22 -2 52q2 14 12 39q21 61 56 102q10 14 39 39q30 21 57 33q2 -2 5.5 -2t7.5 1t5 1t9 -4q4 -5 6 -9z" />
<glyph unicode="&#xaa;" horiz-adv-x="391" d="M57 1044l17 52h2q5 16 30 55q25 49 76 90q21 21 45 33l4 4l5 4q2 0 4 2.5t4 -0.5l4 -2q1 0 2.5 1t3.5 1q3 0 6 -6l8 -8h4q0 -1 7 -8l2 -2l2 6q6 9 22 47q2 2 10 2q0 -2 2.5 -2.5t4.5 0.5q1 -1 5.5 -4t8.5 -4q2 -7 4 -7l10 -10q5 -5 10 -20q1 -1 2.5 -4t2.5 -4v-9v-4 q-4 -21 -13 -33q0 -3 -1 -7t-1 -7q-3 -6 -8 -21.5t-8 -21.5q0 -8 -6 -10q0 -2 -1 -3.5t-1 -2.5v-4q-4 -14 -9 -25q-8 -27 -17.5 -69.5t-15 -72.5t-5.5 -34v-14q-5 -5 -5 -11q0 -16 -4 -24q0 -18 -6 -27q0 -2 -4 -10q4 -7 0 -14q-2 -1 -4 -5q-9 9 -12 9q-1 -2 -2.5 -2 t-1.5 -2q-2 0 -6 -3.5t-7 -3.5v-6q-2 4 -6 0h-4q-1 -3 -2.5 -5t-1.5 -3q-17 45 -18 57q-36 -31 -52 -41l-6 -2q-6 -2 -8 -6h-27q-4 0 -4 6q-1 0 -4 -1t-4 -1q-1 1 -3 2t-3 2h-4q-3 6 -10 16t-9 15q-5 10 -8 19q-7 7 -10 18q0 4 -1.5 23t-0.5 28q-4 49 16 94zM231 1163 q-4 -6 -26 -22q-8 -6 -28.5 -36.5t-20.5 -37.5q-6 -5 -10.5 -16.5t-6.5 -14.5l-12 -28t-14 -39q-4 -40 0 -56q15 11 22 23q4 4 13.5 10.5t13.5 11.5t33 29q1 2 7.5 6t6.5 6q2 6 2 15q3 11 5.5 26.5t6 30.5t10.5 35q4 33 11 49q8 16 8 25q-16 -12 -21 -17z" />
<glyph unicode="&#xab;" horiz-adv-x="544" d="M301 336h-12q-1 0 -4 1t-5 1t-4 -2q-1 -5 3 -13t4 -10t-2 -4.5t-2 -3.5q4 -12 4 -16q0 -5 -7 -9t-8 -6q-9 1 -24 10t-21 11q-2 0 -3 -1.5t-3 -0.5q-17 16 -30.5 31t-19 22.5t-16 23t-12.5 17.5q-4 4 -20 37q-7 12 -22.5 36.5t-22.5 37.5q-3 6 -11.5 17t-11.5 17 q-11 14 -45 70v14q7 7 19 7q7 24 22 39q4 6 15.5 15t15.5 13q4 5 14 15.5t14 15.5q45 48 80 100q18 22 27 35l12 18q0 1 7.5 11t7.5 16q4 0 8 4l6 2q1 0 4 -2t4 -2q2 -1 7 -3t7 -3q2 -7 14 -22.5t13 -26.5q0 -14 -6 -29q0 -16 -6 -28q0 -1 -3.5 -6t-4.5 -9q-18 -36 -27 -45 q-3 -11 -16 -27.5t-17 -25.5q-6 -6 -22 -29t-27 -33q-5 -11 -27 -28q6 -12 20.5 -28t16.5 -19q9 -9 39 -54l10 -10q3 -3 13 -18q3 -4 19 -25.5t24 -30.5q19 -23 26 -47q1 -3 -1.5 -6t-6.5 -7t-6 -7zM526 336h-12l-6 2q-6 1 -6 -2q-1 -4 0 -7.5t3 -8t3 -7.5q0 -2 -2 -4.5 t-2 -3.5q4 -12 4 -16q0 -5 -6.5 -9t-7.5 -6q-9 1 -24 10t-21 11q-2 0 -3.5 -1.5t-3.5 -0.5q-16 16 -29.5 31t-19.5 23t-15.5 22t-12.5 18q-6 7 -21 37q-7 12 -22.5 36.5t-22.5 37.5q-3 6 -11.5 17t-11.5 17q-20 25 -47 70v14q7 7 21 7q7 24 22 39q4 6 15.5 15t15.5 13 q4 5 14.5 15.5t14.5 15.5q45 48 80 100q13 16 26 35q2 3 6.5 9t6.5 9q1 3 5 8t6.5 10t2.5 9q4 0 8 4l6 2q1 0 4 -2t4 -2q2 -1 7.5 -3t7.5 -3q2 -7 13.5 -22.5t12.5 -26.5q0 -14 -6 -29q0 -16 -6 -28q0 -1 -3.5 -6t-4.5 -9q-18 -36 -27 -45q-3 -11 -15.5 -27.5t-16.5 -25.5 q-5 -6 -22 -29t-28 -33q-6 -12 -26 -28q6 -12 20.5 -28t16.5 -19q9 -9 39 -54l10 -10l12 -18q3 -4 19 -25.5t24 -30.5q21 -25 27 -47q1 -3 -2 -6l-7 -7t-6 -7z" />
<glyph unicode="&#xac;" horiz-adv-x="505" d="M264 754q4 0 21 -1.5t22 -2t18.5 -2.5t20 -4.5t15 -6t14.5 -8.5q6 -4 12 -10q16 -11 21 -12q1 -2 4 -6.5t4 -6.5q1 -1 2 -3t2 -3q0 -1 3 -2q2 -1 3 -2q0 -2 -1 -3.5t-1.5 -2.5t0.5 -2q0 -1 1 -2t1 -2q4 -20 2 -31q2 -2 2 -8q0 -1 -1 -3t-1 -3v-15q2 -14 2 -43v-12 q-1 -4 -4 -16.5t-6 -18.5l-4 -4q0 -1 -1 -4t-1 -4v-10q-1 -2 -5 -7t-6 -10t-2 -10l-12 -12q-1 -1 -3 -2q-3 -1 -3 -2q-1 -1 -2 -3t-2 -3q-1 0 -3.5 1t-4.5 1q1 -13 -3 -18t-9.5 -4.5t-12.5 3t-8 2.5q-4 0 -8 -4q-11 0 -11 8v6q-2 3 -2 5q-1 1 -6.5 4t-7.5 6q-1 2 -2 7t-2 7 q-4 20 -4 29q0 21 2 31q0 8 -2 14q0 2 -6 26q0 3 1 9.5t1 12t-2 9.5q-6 -1 -17 0.5t-14 1.5q-7 1 -17 -1.5t-14 -2.5h-39q-6 0 -10 -2q-33 0 -51 -2q-4 0 -12.5 -1t-12.5 -1h-24q-72 -5 -76 -6q-1 0 -4 -1t-4 -1h-14q-1 0 -3.5 -1t-3.5 -1q-4 -1 -20 10q-3 2 -8 5t-8 5 q-4 3 -8.5 7t-9 9.5t-7.5 8.5q-5 0 -12 6q0 9 -13 12q-1 3 -1 16.5t-3 18.5q4 0 5 2t1.5 6.5t1.5 7.5q0 1 1.5 5t1.5 6q1 2 1 5t1 5q5 3 10 -2q10 0 16 2h12q9 0 29 4q109 11 176 16q10 2 31 2h23h20q19 0 31 3q2 0 5.5 1t4.5 1t2 -2t2 -3q0 3 6 3v6z" />
<glyph unicode="&#xad;" horiz-adv-x="348" d="M66 688q4 1 5 3t0 7l-1 4q6 17 4 23q2 2 4 2t5 -1t5 -1q4 0 12.5 1t12.5 1q25 5 38.5 8.5t17 5.5t17 4t41.5 5q7 0 19 2q43 5 45 6q3 -3 4 -2q75 4 104 -11q1 0 4 -2t5 -2q3 -2 8.5 -2.5t7.5 -1.5q1 -1 8.5 -6.5t13.5 -5.5q1 -4 6.5 -8t6.5 -8q1 -2 6 -7q0 -2 -1 -4 t-1 -4q2 -1 15 -7t18 -11q-4 -4 -13 -7t-10 -7q0 -2 1 -5t1 -4q0 -5 -8 -10q-1 -1 -4.5 -1t-5.5 -1q-4 -1 -8.5 -7t-8.5 -7q-3 -1 -28 -6q-9 0 -28.5 1t-29.5 1q-5 -1 -14 -3.5t-14 -3.5q-4 0 -12 1t-11 1q-7 0 -31 -6q-24 -3 -28 -4q-7 -1 -21 -2t-20 -2q-26 -2 -37 -6 q-3 -3 -7.5 -3t-8 1.5t-8.5 5t-7 4.5l-20 15q-6 3 -11 8l-8 8h-6q-2 2 -4 5t-3.5 5t-4.5 3.5t-6 2.5q-2 4 -2.5 17.5t-3.5 17.5z" />
<glyph unicode="&#xae;" horiz-adv-x="686" d="M485 1333q-9 -2 -34 -18q-21 -2 -40.5 -7.5t-49 -17t-31.5 -12.5q-26 -4 -47 -25q-7 0 -15 -4q-8 -8 -20 -16q-5 -5 -15 -16t-14 -15q-7 -14 -24 -34t-23 -31q-2 -3 -5 -12t-5 -11q-2 -4 -8.5 -13t-8.5 -14q-3 -17 -14 -32q-1 -2 -3.5 -9t-4.5 -12q-8 -36 -8 -65 q-7 -61 12 -88q1 -2 2 -6.5t2 -6.5q5 -3 8 -8l2 -2q4 0 6 -4q5 -5 11 -8h28q24 0 74 16q10 7 29 15q98 54 174 165q41 55 49 117q3 16 3.5 37t0 35t-2 40t-1.5 36q3 -2 5.5 -10.5t4.5 -10.5q2 3 9.5 -1t15.5 1q3 -23 24 -41h17q4 0 6 -4v-10l10 -4q2 -4 2 -8q0 -2 2 -6t2 -5 q2 -3 2.5 -11.5t1.5 -10.5q1 -1 5.5 -4t5.5 -8q-5 -71 -7 -80q0 -3 -1 -12t-1 -11q-1 -4 -8 -15.5t-7 -16t3 -19.5q-18 -30 -84 -115q-14 -10 -51 -43.5t-63 -46.5q-6 -2 -16 -7.5t-11 -6.5q-48 -22 -55 -23h-13q-22 -9 -28 -10q-45 -13 -95 -2q-11 1 -29 10t-28 12 q-8 13 -27 25q-2 4 -12.5 24.5t-14.5 30t-8 28.5t-3 38q6 75 51 149q84 147 184 220q10 5 29.5 18.5t29.5 19.5q65 26 93 19q19 -4 26 -14q10 -5 6 -13zM184 920q28 90 49 135q22 45 68 119q-27 7 -37 0q17 17 58 30q62 24 110 17q6 -2 18 -9.5t17 -9.5q5 -3 0.5 -14 t-4.5 -14q-1 -2 -1 -6t-1 -5q-7 -20 -43 -30q-10 -11 -32.5 -28t-31.5 -26q2 -3 11 -12q4 -4 7 -8t5.5 -8.5t3.5 -6.5q2 -5 7.5 -11.5t6.5 -10.5q2 -8 2 -25v-10q0 -7 -10 -10q-6 -1 -13 6t-14 8q-4 8 -15.5 32.5t-18.5 35.5q-10 -7 -13 -25q-11 -5 -23 -23t-20 -24 q-4 0 -16 -12q-11 -8 -16 -10q-7 -2 -15 -10.5t-10 -10.5l-8 -4q-17 -6 -21 -20zM416 1188q-30 10 -51 -4q4 -3 2.5 -11.5t-3.5 -13.5t-6 -13.5t-6 -12.5q-5 -18 -6 -19q51 44 70 74z" />
<glyph unicode="&#xb0;" horiz-adv-x="405" d="M373 1268q9 -6 18 -29q4 -4 6 -12.5t6 -12.5q0 -25 -2 -30q4 -3 2.5 -18.5t-0.5 -20.5q-3 -6 -6 -17t-4 -14q-12 -35 -12 -37q-16 -43 -82 -139q-31 -43 -70 -70q-2 0 -2 -2q-4 -1 -9 -4t-7 -4t-7 -2t-7 -2q-28 -8 -45 -8q-9 0 -13 4q-3 0 -8.5 1t-7.5 1q-48 15 -74 53 q-45 50 -31 135q6 13 17 59t31 68l2 2q0 7 2 9q6 9 47 55q6 7 22 20.5t19 16.5q19 11 39 18q36 20 77 23q17 2 43 -2q9 0 25 -11q23 -14 31 -30zM297 1169q0 50 -12 66q-23 2 -68 -33q-1 -3 -4.5 -7t-3.5 -7q-5 -3 -8 -8h-2q1 -1 0 -4t0 -5l-4 3l4 -3q-6 -6 -13.5 -18.5 t-15.5 -17.5q1 -1 1 -2.5t1 -2.5q-3 -1 -4.5 -5.5t-3.5 -6.5v-4q0 -2 -3.5 -6t-2.5 -6q-1 -1 -1.5 -3t-2.5 -3q2 -10 -11 -23q-11 -33 -16 -39q1 -4 -4 -28q-4 -36 12 -60q5 -5 23 -14q26 15 43 29q9 3 16 10l8 16q10 10 13 19q33 58 43 98q16 60 16 65zM332 1274q1 -1 2 0 h-2v-2q-1 -1 -0.5 -1t2.5 1q-2 0 -2 2z" />
<glyph unicode="&#xb1;" horiz-adv-x="692" d="M6 397q8 0 10 2q23 14 29 15q3 1 6 2.5l6 3t4 2.5q3 0 7.5 4t7.5 4q28 4 75 12.5t67.5 10.5t61 2.5t91.5 -4.5q33 -3 73 -13q15 0 23 -8q18 -3 33 -6q4 -2 14 -5t14 -5q18 -12 23 -13q4 -12 4 -16q6 -3 11.5 -8t11.5 -12t8 -9q11 -14 -16 -16q-14 -2 -21 0h-14 q-2 0 -9 -1t-10 -1q-6 -1 -19 0.5t-20 1.5q-37 4 -104 4q-41 2 -52 2.5t-28 0t-20.5 -2t-27 -6t-50.5 -8.5q-52 -8 -119 0h-15q-24 18 -28 22q2 4 0 4q2 2 -2 6q-1 1 -12.5 16.5t-12.5 18.5zM88 731q1 0 3.5 -1t4.5 -1q31 2 87.5 13t84.5 14q4 20 24.5 59t26.5 55 q8 26 56 78q1 1 -1.5 5t-0.5 5q10 20 28 17q3 0 7 -4q1 -1 4 -1t4 -1q7 -3 10 -2q5 -7 16 -11q28 -10 41 -26q1 -2 7.5 -15.5t11.5 -19.5q0 -1 -1 -3.5t-1 -4.5q0 -1 -2 -3t-2 -3q-2 -2 -5.5 -7.5t-5.5 -7.5q-8 -20 -14 -28q3 -2 5 -3.5t1.5 -4t-1 -3.5l-2.5 -5l-3 -3 q-3 -14 -10 -16q-1 -4 -5 -12.5t-4 -10.5t3 -10q2 -4 4 -5t6.5 0t5.5 1q4 -4 6 -4h27q2 0 5 -1t5 -1q8 -2 26.5 -4t20.5 -2q7 -1 18 -4.5t15 -4.5q22 -3 51 -14q-3 -2 -9.5 -1t-8.5 -1q-3 0 -8 0.5t-8.5 0.5t-6.5 -1q-2 -3 -0.5 -5t5 -6t3.5 -5q-7 -3 -22.5 -5t-22.5 -6 q-14 -4 -41.5 -5t-29.5 -1h-4q-10 -2 -64 -8q-3 -1 -6.5 -1t-5.5 -1q-11 -11 -13 -14q3 -5 0.5 -11.5t-8 -14t-6.5 -11.5q-22 -22 -14 -33q0 -2 -4 -2q-2 -5 -9 -13t-10 -12h-4q-2 -5 -9.5 -13.5t-10.5 -12.5q-7 -2 -9.5 -12t-5.5 -13q-3 -1 -6.5 -4.5t-5.5 -3.5 q-2 -11 -7 -19t-10 -10.5l-10 -5l-7 -3.5t1 -5q-4 -4 -5 -3l-5 5t-8 4q-18 98 -21 191q-5 0 -19 1t-20 1q-8 0 -8 -4q-8 0 -24.5 2t-24.5 2q-31 18 -31 41q-2 4 -18 8q1 1 2 5t2 5z" />
</font>
</defs>
</svg>
